<?xml version="1.0" encoding="UTF-8"?>
<svg id="Calque_2" data-name="Calque 2" xmlns="http://www.w3.org/2000/svg" xmlns:xlink="http://www.w3.org/1999/xlink" viewBox="0 0 616.25 633.15">
  <defs>
    <style>
      .cls-1 {
        fill: #050706;
      }

      .cls-1, .cls-2, .cls-3, .cls-4, .cls-5, .cls-6, .cls-7, .cls-8, .cls-9, .cls-10, .cls-11, .cls-12, .cls-13, .cls-14, .cls-15, .cls-16, .cls-17, .cls-18, .cls-19, .cls-20, .cls-21, .cls-22, .cls-23, .cls-24, .cls-25, .cls-26, .cls-27, .cls-28, .cls-29, .cls-30, .cls-31, .cls-32, .cls-33, .cls-34, .cls-35, .cls-36, .cls-37, .cls-38, .cls-39, .cls-40, .cls-41, .cls-42, .cls-43, .cls-44, .cls-45, .cls-46, .cls-47, .cls-48, .cls-49, .cls-50, .cls-51, .cls-52, .cls-53, .cls-54, .cls-55, .cls-56, .cls-57, .cls-58, .cls-59, .cls-60, .cls-61, .cls-62, .cls-63, .cls-64, .cls-65 {
        stroke-width: 0px;
      }

      .cls-2 {
        fill: #a9a6a1;
      }

      .cls-3 {
        fill: #8e8d8b;
      }

      .cls-4 {
        fill: #f5f0e9;
      }

      .cls-5 {
        fill: #897d6d;
      }

      .cls-6 {
        fill: #544c35;
      }

      .cls-7 {
        fill: #b2ad97;
      }

      .cls-8 {
        fill: #c180b2;
      }

      .cls-9 {
        fill: #e7c3c6;
      }

      .cls-10 {
        fill: #a79a8e;
      }

      .cls-11 {
        fill: #eed6c8;
      }

      .cls-12 {
        fill: #d0a38e;
      }

      .cls-13 {
        fill: #e2e0d4;
      }

      .cls-14 {
        fill: #b7b6bf;
      }

      .cls-15 {
        fill: #bb9b98;
      }

      .cls-16 {
        fill: #494832;
      }

      .cls-17 {
        fill: #dededd;
      }

      .cls-18 {
        fill: #9f6a8f;
      }

      .cls-19 {
        fill: #90785f;
      }

      .cls-20 {
        fill: #75726f;
      }

      .cls-21 {
        fill: #9e9783;
      }

      .cls-22 {
        fill: #84799e;
      }

      .cls-23 {
        fill: #b48477;
      }

      .cls-24 {
        fill: #322d1e;
      }

      .cls-25 {
        fill: url(#Dégradé_sans_nom_1529);
      }

      .cls-26 {
        fill: #9c585d;
      }

      .cls-27 {
        fill: #433d25;
      }

      .cls-28 {
        fill: #807c68;
      }

      .cls-29 {
        fill: #bbbeb0;
      }

      .cls-30 {
        fill: #ebbb9f;
      }

      .cls-31 {
        fill: #918c85;
      }

      .cls-32 {
        fill: #75574f;
      }

      .cls-33 {
        fill: #9f9f9e;
      }

      .cls-34 {
        fill: #a39f91;
      }

      .cls-35 {
        fill: #4d4a48;
      }

      .cls-36 {
        fill: #c3bba9;
      }

      .cls-37 {
        fill: #742c76;
      }

      .cls-38 {
        fill: #131f15;
      }

      .cls-39 {
        fill: #cbccd7;
      }

      .cls-40 {
        fill: #847c74;
      }

      .cls-41 {
        fill: #a08d7b;
      }

      .cls-42 {
        fill: #363429;
      }

      .cls-43 {
        fill: #898452;
      }

      .cls-44 {
        fill: #7d7c71;
      }

      .cls-45 {
        fill: #efe6de;
      }

      .cls-46 {
        fill: #d2dccf;
      }

      .cls-47 {
        fill: #ddd3c4;
      }

      .cls-48 {
        fill: #d3d0cc;
      }

      .cls-49 {
        fill: #c5c5c5;
      }

      .cls-50 {
        fill: #8d7683;
      }

      .cls-51 {
        fill: #9b7681;
      }

      .cls-52 {
        fill: #9b829f;
      }

      .cls-53 {
        fill: #5b593d;
      }

      .cls-54 {
        fill: #bfbab0;
      }

      .cls-55 {
        fill: #111711;
      }

      .cls-56 {
        fill: #8d7161;
      }

      .cls-57 {
        fill: #383633;
      }

      .cls-58 {
        fill: #c8b3bd;
      }

      .cls-59 {
        fill: #fffffd;
      }

      .cls-60 {
        fill: #8d8b6c;
      }

      .cls-61 {
        fill: #6a7f7d;
      }

      .cls-62 {
        fill: #624842;
      }

      .cls-63 {
        fill: #a699ab;
      }

      .cls-64 {
        fill: #746f64;
      }

      .cls-65 {
        fill: #c8b8b1;
      }
    </style>
    <linearGradient id="Dégradé_sans_nom_1529" data-name="Dégradé sans nom 1529" x1="1085.74" y1="565.74" x2="1010.81" y2="602.53" gradientTransform="translate(1117.32) rotate(-180) scale(1 -1)" gradientUnits="userSpaceOnUse">
      <stop offset="0" stop-color="#0f1811"/>
      <stop offset="1" stop-color="#060706"/>
    </linearGradient>
  </defs>
  <g id="Calque_1-2" data-name="Calque 1">
    <g>
      <g>
        <path class="cls-59" d="m424.11,66.97c13.28,3.22,5.57-2.65,0-6.83.06,2.21.19,4.64,0,6.83Z"/>
        <path class="cls-59" d="m20.17,481.42c.4-2.6-.81-2.16-.85-2.28-1.43-1.26-5.93.04-5.12,1.9.94,2.18,5.69.3,5.98.38Z"/>
      </g>
      <g>
        <path class="cls-59" d="m420.69,104.17c-4.88,6.22-18.72,6.95-18.79,9.49,11.59,13.62,25.42,26.25,35.87,40.61h.85q1.49-7.97,2.99-15.94c1.92.92,2.67,6.65,4.27,6.83,2.07.23-.33-6.52,12.81,6.07q4.7-10.63,9.39-21.25,3.63,10.25,7.26,20.49c8.3-11.49,15.84-23.41,24.77-34.54-8.91-8.75-17.11-1.68-23.06-14.8-3.16,3.32-19.83-2.44-28.61-4.55q-13.88,3.8-27.75,7.59Z"/>
        <g>
          <path class="cls-59" d="m60.31,448.02c12.38-7.46,26.26-13.06,37.58-22.01.91-.72,3.32-2.89,4.27-3.8,12.27-19.06-2.26-22.97-11.1-36.43-5.53-8.41-9.81-18.89-11.96-28.46-4.42-19.73-1.94-42.41.85-23.91,4.03-6.28,13.93-21.42,17.08-16.7.05-.26,2.77-4.37,2.99-4.55,1.25-1.06,6.08,4-1.28-5.69,8.89-9.06,1.17-7.07.85-7.59-2.37-3.97,21.48-16.1,26.05-17.84,61.36-23.36,110.24,15.03,172.5,4.55,8.41-1.42,20.24-5.75,28.61-8.35,8.68-2.69,20.05-8.08,26.47-9.87,2.28-.63,4.55-1.29,6.83-1.9,1.49,1.11,4.42,32.77,14.52,28.46-.36-.9,1.93-.77,1.71-1.14-1.16-1.99-5.39-2.56-5.98-3.8-.34-.71-1.96-11.19-2.99-14.8,5.5,11.51-1.51-11.16,2.99-1.9,1.12,2.31,1.2,8.66,1.71,9.87,4.6,10.95,4.19-14.65,20.92-4.93.68-.11-.15-1.07,1.28-2.28,6.29-5.32,11.07-7.71,8.54-11.77-1.2-1.92-3.27.4-3.42-.76-.13-1.02,5.67-2.77.85-6.83,3.04-3.56,5.12,3.38,5.55,3.42,1.98.16-.69-6.32,6.4,0,11.97-6.43-3.35-.43-5.12-7.21,5.32-.23,6.63-.65,11.1-2.66-.09-6.24-5.14-.51-8.54-.38,4.16-3.5-4.84-1.2,3.42-6.07h-5.12c1.41-3.5,2.81-4.44,6.83-5.31-1.03-.89-1.82-1.19-1.71-2.66.91-11.78,13.07-45.33,11.96-53.13-1.11-7.74-11.44-6.17-17.93-5.31-6.72.89-7.14,6.88-29.04-2.28-8.04-3.36-8.34-3.41-14.52-9.11-9.41-8.67-15.33-19.94-15.8-31.88,2.42.03,4.84-.05,7.26,0,19.69.38,31.96,5.6,49.1,12.14,4.76,4.75,9.45,9.76,11.53,15.94,1.36.15,1.6,1.47,1.71,1.52.66.31,5.73.45,7.69.76.13.02-.43-1.14,2.56-.76.09-6.66-33.28-44.01-36.29-44.78-32.7.1-73.19-8.88-93.51-33.4-1.12-.1-1.15,3.34-.85,4.93,2.02,10.78,16.03,46.57,21.35,59.21,2.76,6.55,9.51,9.9,3.42,16.7,8.54-1.9,7.86,5.68,17.08,15.94,5.44,6.05,13.75,10.56,13.66,11.39-.05.42-7.65,4.8-1.28,6.45,4.37,1.13,4.16-3.46,5.98-3.8,1.67-.31,24.27,7.73,32.88,7.97q-4.7,23.53-9.39,47.06-.64.57-1.28,1.14c-8.91-5.4-10.62-11.51-22.2-10.63-16.88,1.29-48.44,25-98.21,21.25-27.97-2.1-86.73-27.33-146.89-2.28-35.21,14.66-27.76,40.51-42.7-3.8-19.27,17.16-10.89,12.96-14.09-12.52,7.74-5.15.54-13.65-3.84-12.52-1.81.47-12.32,25.87-16.65,29.98-7.46,7.09-16.07-6.57-5.98,20.49q-5.34-.95-10.67-1.9l-1.28,1.14q5.12,7.21,10.25,14.42l-17.08-5.31q4.27,10.63,8.54,21.25-6.83,3.42-13.66,6.83c-1.2,3.76,17.58,24.88-3.84,11.01-7.36,5.48,30.07,45.8,35.01,52.37,13.23-22.01,10.08-12.01,26.9,14.8,3.35,5.34,9.97,13.37,14.52,18.22,1.68,5.62-18.04,24.69-17.08,33.78Z"/>
          <g>
            <path class="cls-49" d="m55.18,311.39c-2.56.61-9.73.71-10.25,1.9,4.61,19.69,12.92,17.8,12.81,18.98-.11,1.1-16.91,12.01-17.93,15.18.05.3,2.45.69,2.56,1.52,1.73,13.1-2.24,13.35,17.08.76q-5.55-.76-11.1-1.52c5.72-.14,31.61-21.86,24.34-24.67-1.58-.61-4.05,1.86-10.67.76-3.44-.57-4.41,2.66,4.27-7.21q-3.42-1.14-6.83-2.28,5.12-1.52,10.25-3.04l-14.52-.38Z"/>
            <path class="cls-24" d="m54.33,296.21c-2.08,1.1,7.56,7.26,11.96,10.25-.09.66-10.14-2.16-9.39,1.14,2.42.3,5.27-.85,6.83,1.14,0,1.24-7.21,2.34-8.54,2.66l14.52.38q-5.12,1.52-10.25,3.04,3.42,1.14,6.83,2.28c-8.68,9.87-7.71,6.64-4.27,7.21q7.69-7.78,15.37-15.56c-7.02.16-4.52-4.93-10.25-6.07-2.24-5.21-4.62-10.34-6.83-15.56h-.85c1.21,4.14,1.81,8.46,3.42,12.52-.9,1.52-7.26-2.74-8.54-3.42Z"/>
            <path class="cls-49" d="m56.89,307.59c-.75-3.3,9.31-.48,9.39-1.14-4.4-2.99-14.04-9.15-11.96-10.25-4.57-2.41-10.25-7.74-12.81-7.21,27.04,22.86,1.9,7.89-13.66.76,4.6,2.61,23.05,18.18,25.19,18.6,1.75.34,2.32-.95,3.84-.76Z"/>
            <path class="cls-49" d="m94.89,297.73c-3.24,3.81-4.97,8.28-4.27,12.9,6.26-2.09,8.7,3.18,4.27-12.9Z"/>
            <path class="cls-49" d="m43.66,327.33q-8.33,7.02-16.65,14.04c4.56-2.1,15.71-10.1,16.65-14.04Z"/>
            <path class="cls-33" d="m59.45,287.1h.85c-4.04-9.54-3.73-9.8-.85,0Z"/>
            <g>
              <path class="cls-27" d="m326.75,277.23c8.3-.78,16.26.06,24.34-3.8,6.77-3.23,3.58-2.25,2.13-6.07-6.43,1.79-17.8,7.17-26.47,9.87Z"/>
              <path class="cls-57" d="m397.21,264.33c-4.51,5.2-1.12,2.32-1.71,6.07q.85-3.04,1.71-6.07Z"/>
              <path class="cls-57" d="m404.04,249.91c-.42.09-1.67,1.38-1.28,1.9,2.35,3.14,4.73-2.64,1.28-1.9Z"/>
              <path class="cls-35" d="m407.45,246.11c-.87-.29-2.15,1.02-2.13,1.14.14,1.25,3.45-.69,2.13-1.14Z"/>
            </g>
          </g>
        </g>
        <path class="cls-1" d="m504.38,183.11c1.02,2.72,1.61,5.64,2.56,8.35q4.7.95,9.39,1.9c1.79-10.39-1.8-20.67-11.96-10.25Z"/>
        <g>
          <path class="cls-59" d="m483.88,155.78c2.56,2.08,7.72,3.42,10.25,5.31,9.36-9.12,11.99-18.87,25.62-24.29,8.97-3.57,29.2-6.18,39.28-6.83,3.98-.26,13.4-1.47,13.66.38.2.79-4.89,14.69-9.39,6.83,7.15,7.02-4.67,17.18-11.96,21.63-.33.2-1.32,1.77-6.83,3.8-4.58,1.68-28.63,8.48-22.63.76-5.12,2.68-23.29-1.61-6.83,3.8q-7.47,0-14.94,0c-.6,5.71,2.33,10.77,4.27,15.94,10.15-10.43,13.74-.15,11.96,10.25q-4.7-.95-9.39-1.9c2.76,7.89,5.61,15.6,9.39,23.15-1.73,1.99-34.95-6.28-30.74,27.71.93,7.48,4.05,9.21,8.54,15.56-2.62,11.1,3.85,52.3,2.56,58.45-.4,1.91-8.01-3.09-1.71,12.9-4.97,2.49-2.88,9.15-5.55,14.04-5.35-3.9-13.83-14.17-20.07-15.94,3.64,4,18.47,16.88,18.79,20.87.1,1.3-4.9,16.11-5.98,17.46-3.68,4.63.06-1.83-2.13-3.42-4.82-3.48-6.86,4.03-1.28,4.93-11.6,9.43,6.2,2.4-3.42,8.35.4,17.88-.41,1.27-5.98,9.11-.23.32-2.47,6.61-2.56,7.21-.3,1.85,3.79,20.2-5.55,12.14-11.04,13.87-8.75-5.23-2.13-9.87-5.39-6.31-.08-1.71,3.42-.76.18-.1,1.98.38,2.56-1.52-4.18-4.51-1.31.95-5.98-2.66,9.81-4.21,3.17-5.43-4.27-5.69-.33,1.5-4.79,3.77-5.12,3.8-.28.02-.57-.01-.85,0-.77,2.72-2.67,3.69-4.27,5.31-10.5,10.71-23.22,19.88-35.87,28.46-1.88,9.97-3.34,20-5.12,29.98q21.99-14.04,43.98-28.08,0,14.8,0,29.6c58.8-44.63,74.83-106.47,75.58-172.68,52.29-3.14,33.56-59.34,17.93-86.53,1.52-6.8,56.55,4.12,75.15-112.34-2.03-2.33-4.77-7.99-5.98-9.49-22.85,34.43-57.51,43.57-100.34,47.06-3.36,1.21-23.16,31.57-26.05,37.19Z"/>
          <g>
            <path class="cls-1" d="m526.16,221.06c-2.69-.4-8.28.15-11.1.76-25.99,5.59,2.41,22.74-8.54,25.05-1.59.33-13.44-4.66-14.09-3.42,16.53,21.41,24.9,2.23,26.9,1.9,1.91-.31,9.41,5.06,10.67,2.66.06-2.62,1.16-10.7,2.56-12.14,3.39-3.49,5.73,3.06,5.98,0,.35-4.3-6.72-13.95-12.38-14.8Z"/>
            <path class="cls-49" d="m465.1,391.85c-.59,1.9-2.38,1.42-2.56,1.52-3.6,1.9-3.24.64-3.42.76-6.61,4.64-8.9,23.73,2.13,9.87,9.34,8.06,5.26-10.3,5.55-12.14.21,1.13-1.33.41-1.71,0Z"/>
            <g>
              <path class="cls-1" d="m459.12,394.13c.17-.12-.19,1.14,3.42-.76-3.49-.95-8.81-5.55-3.42.76Z"/>
              <path class="cls-42" d="m452.71,387.29c-3.29-.07,1.43,3.91,1.71,3.8,1.65-.69-1.02-3.78-1.71-3.8Z"/>
              <path class="cls-16" d="m452.71,391.85c-1.29,3.33,3.34,3.4,2.99,1.9-.06-.28-1.91-.44-2.99-1.9Z"/>
            </g>
          </g>
        </g>
        <g>
          <path class="cls-17" d="m395.92,47.24c-3.47.76-6,11.23-15.37,25.81,4.13-.63,1.49,2.15,3.42,3.04,14.23-18.82,18.37,17.28,11.53,16.7-2.39-.2-2.25-8.28-5.55-7.59,4.65,23.53,10.67,11.75,11.1-4.17-3.96-1.84-1.85-40.16,2.56-28.84.69,1.78,1.08,32.18,2.13,37.57,18.38-19.91,6.76-41.5,16.65-38.71-.15-.68,1.8-1.32.43-2.28-8.22,2.15-18.56-3.34-26.9-1.52Z"/>
          <path class="cls-17" d="m354.08,70.01c11.69,17.82,6.36,4.69,5.98-4.93-.49-12.4-.71-48.47,10.25-42.13q.85-1.14,1.71-2.28c-10.84-13.3-20.74,13.82-20.5,24.67.16,6.99,8.01,24.99,2.56,24.67Z"/>
          <path class="cls-59" d="m288.32,70.01c-.63-1.58-3.6-12.62-3.42-13.28.21-.73,4-2.96,4.7-2.66,1.9.81,6.6,19.05,24.34,29.98-4.5-8.12-7.8-23.73-8.54-25.05-1.43-2.54-9.58-8.23-11.96-12.52q-7.26,5.12-14.52,10.25c-.38,1.56,7.01,12.43,9.39,13.28Z"/>
          <path class="cls-49" d="m370.3,22.95c.88,16.09-3.22,32.27.85,48.2,6.46-5.84,14.18-21.47,14.52-29.22,0-.22-1.23-4.15-2.56-3.8-12.13,19.41-13.6,23.21-12.81,3.42.2-4.96,4.87-16.99,1.71-20.87q-.85,1.14-1.71,2.28Z"/>
          <path class="cls-59" d="m383.11,38.13c1.33-.35,2.57,3.57,2.56,3.8,4.13-2.62,4.66,3.2,6.83.38-.21-7.47.93-24.28,9.39-21.63.03-.34,3.7-2.59-1.28-5.31-6.4-3.5-8.39,8.19-17.51,22.77Z"/>
          <path class="cls-59" d="m290.88,41.17c-.6-1.78-3.14-16.39-2.56-17.08,3.24-3.84,5.95,1.78,6.83,3.42,4.23-15.87-16.33-13.59-8.54,9.49.2.59,3.53,6.1,4.27,4.17Z"/>
          <path class="cls-17" d="m336.15,30.54c.56-5.07.91-11.9,7.69-6.83,0-.19,2.59-1.1,1.71-3.42-4.16-10.97-24.78,4.42-9.39,10.25Z"/>
          <path class="cls-49" d="m380.55,73.05c-8.07,12.55-21.65,15.98,8.97,31.12,1.21-.6-5.92-14.61-2.13-24.29-6.85,2.28-7.33,1.38-3.42-3.8-1.93-.89.71-3.67-3.42-3.04Z"/>
          <path class="cls-49" d="m383.97,76.08c-3.91,5.18-3.44,6.08,3.42,3.8,3.16-8.07,2.24,3.7,2.56,5.31,3.3-.69,3.16,7.39,5.55,7.59,6.84.58,2.7-35.52-11.53-16.7Z"/>
          <g>
            <path class="cls-1" d="m312.23.94c-1.3,9.27-2.85,18.77-3.42,28.08-.53,8.75,1.39,21.16-.43,21.25-9.72-8.8-10.83-18.29-13.24-22.77-.88-1.64-3.59-7.25-6.83-3.42-.58.69,1.96,15.3,2.56,17.08.11.33,2.13,4.54,2.56,5.31,2.38,4.29,10.52,9.98,11.96,12.52.74,1.32,4.04,16.93,8.54,25.05-17.74-10.94-22.44-29.17-24.34-29.98-.7-.3-4.49,1.92-4.7,2.66-.19.66,2.79,11.7,3.42,13.28,1.49,3.75,6.55,10.99,9.39,14.42,20.33,24.52,60.82,33.5,93.51,33.4,3.01.78,36.38,38.13,36.29,44.78,3.93-.29,6.15,6.88,10.25,9.11.93-.79,7.47-2.98,8.54-3.04-1.96-5.17-5.23-9.88-8.54-14.42-10.45-14.36-24.28-26.99-35.87-40.61.07-2.54,13.9-3.27,18.79-9.49.59-.75,6.85-13.94,3.84-13.66-38.58,37.4-6.23-2.88-2.99-11.77,1.2-3.29,2.27-8.37,2.56-11.77.19-2.19.06-4.62,0-6.83-.08-3.05-1.03-6.13-1.71-9.11-9.9-2.79,1.73,18.8-16.65,38.71-1.05-5.4-1.44-35.8-2.13-37.57-4.42-11.32-6.52,27-2.56,28.84-.43,15.93-6.45,27.71-11.1,4.17-.32-1.61.6-13.38-2.56-5.31-3.79,9.68,3.34,23.69,2.13,24.29-30.62-15.14-17.03-18.57-8.97-31.12,9.37-14.58,11.91-25.05,15.37-25.81,3.94-5.53,2.2-12.42,3.42-18.6.5-2.52,3.35-4.29,3.42-4.55.51-2.19-.9-2.96-.85-3.42-8.46-2.65-9.6,14.17-9.39,21.63-2.17,2.82-2.7-3-6.83-.38-.34,7.76-8.06,23.38-14.52,29.22-4.07-15.93.03-32.11-.85-48.2-10.95-6.34-10.74,29.72-10.25,42.13.38,9.62,5.71,22.76-5.98,4.93-11.11-16.95-10.09-27.36-10.25-46.3-6.77-5.07-7.13,1.76-7.69,6.83-3.43,31.05,15.04,47.24-5.55,34.16-23.54-14.96-5.83-59.14-9.82-64.14-1.02-1.27-6.88-.03-8.54.38Z"/>
            <path class="cls-59" d="m308.82,29.02c.56-9.32,2.12-18.81,3.42-28.08-4.05.99-4.62,6.09-5.12,11.01-.46,4.56-.56,13.29,1.71,17.08Z"/>
            <path class="cls-49" d="m316.08,63.94c2.97,23.14,24.75,36.19,49.1,39.85-20.2-9.49-25.35-24.97-27.75-26.95-8.25-2.64-14.63-8.17-21.35-12.9Z"/>
            <path class="cls-59" d="m345.11,73.05c-.45,7.3,10.41,16.47,17.08,20.49q-8.54-10.25-17.08-20.49Z"/>
          </g>
        </g>
        <path class="cls-49" d="m438.62,154.27c11.38-1.15,21.82.49,34.16,0,1.11-1.16,1.68-2.57,2.56-3.8q-3.63-10.25-7.26-20.49-4.7,10.63-9.39,21.25c-13.14-12.59-10.74-5.84-12.81-6.07-1.6-.18-2.35-5.91-4.27-6.83q-1.49,7.97-2.99,15.94Z"/>
        <path class="cls-49" d="m576.97,70.77c-2.18,3.3-2.84,8.43-6.83,14.42,9.75,3.06,18.05-11.97,23.06-18.6q-8.11,2.09-16.23,4.17Z"/>
        <g>
          <path class="cls-1" d="m564.16,1.7c-.28,6.68,1.72,13.17,2.56,19.74.1.74-.09,1.53,0,2.28.12,1.08.66,2.07.85,4.55.62,7.94.56,14.81,0,22.77-.23,3.22-.34,7.55-.85,10.63-1.08,6.45-2.2,13.62-5.98,19.36-8.9,13.51-47.33,31.82-35.01,15.18,3.32-4.48,10.44-6.98,13.66-11.77.5-.74.91-1.37,1.71-1.9q-.64-.57-1.28-1.14c-20.87,12.24-2-4.73,3.84-11.39,5.35-9.15,10.59-30.35,8.54-39.47-1.14-5.06-6.5-4-7.69,0-1.12,3.78,1.63,27.13-17.51,45.54-2.63-.94-6.26-39.55-6.4-44.78.1-5.93-3.4-12.04-5.98-7.21-1.81,3.39,2.44,36.7.43,37.57-8.23-9.42-12.53-20.59-18.36-31.12-1.08-1.96-2.17-4.24-3.42-6.07-2.12-3.11-4.75-4.4-5.98-1.14-.87,2.3,10.53,23.86,12.81,27.71,3.69,6.23,11.28,14.32,12.81,17.08,11.99,21.7-.05,38.49-4.7,36.05-1.71-.89,1.48-2.29.43-6.07-.89-3.18-7.9-10.98-2.56-26.57-.31-.45.55-2.95-.85-1.9-7.81,19.17,1.52,33.67-5.12,27.33-2.74-2.62-4.28-6.32-5.98-9.49-12.08-22.55-4.29-35.6-11.96-48.96-2.48,2.13-2.79,35.76,1.71,40.99-9.4-6-8.63-19.49-11.1-29.22-9.45,3.38-.22,22.34,4.27,29.22,3.3,5.06,8.57,9.03,11.96,14.04.69,1.03,6.67,10.86,5.55,11.39-9.95-1.11-12.54-4.03-17.51-11.39-.55-.82-1.21-1.43-1.71-2.28-1.76.96.77,7.81,1.71,9.87,5.95,13.12,14.15,6.05,23.06,14.8-8.93,11.13-16.47,23.05-24.77,34.54-.89,1.23-1.45,2.64-2.56,3.8,1.98,2.17,7.73,1.76,11.1,1.52,2.89-5.63,22.68-35.99,26.05-37.19,42.83-3.49,77.49-12.63,100.34-47.06-2.01-2.51-4.24-5.08-7.69-6.07-6.1,13.97-27.92,28.18-43.98,32.64,3.45-4.49,8.39-8.19,11.53-12.9,3.99-5.99,4.65-11.12,6.83-14.42,5.56-8.15,16.42-19.65,19.64-28.46,7.8-21.33-1.02-26.48-5.12-15.56-2.49,6.63-2.37,16.81-14.94,30.36,1.33-10.23,2.03-20.85,1.28-31.12-1.98-27.25-4.78-27.56-13.66-24.29Z"/>
          <path class="cls-49" d="m471.07,46.48c.19,1.71,1.25,1.99,1.71,3.8,2.47,9.73,1.71,23.23,11.1,29.22-4.5-5.23-4.19-38.85-1.71-40.99,7.66,13.36-.13,26.41,11.96,48.96.26-5.66,10.12-20.35,10.25-23.91.15-4.16-6.46-10.37-4.27-12.52-2.28-3.84-13.68-25.4-12.81-27.71,1.23-3.26,3.86-1.97,5.98,1.14,3.62-9.53-2.27-8.24-9.39-3.42,5.63,12.77-5.94,13.25-5.98,23.53-1.3,1.97-6.1,1.61-6.83,1.9Z"/>
          <path class="cls-59" d="m590.63,23.71c-.2,1.41-.24,3.17.85,3.04,4.11-10.92,12.92-5.77,5.12,15.56-3.22,8.81-14.08,20.32-19.64,28.46q8.11-2.09,16.23-4.17c-5.01,6.63-13.3,21.66-23.06,18.6-3.14,4.72-8.08,8.41-11.53,12.9,16.06-4.46,37.88-18.67,43.98-32.64,3.24-7.41,5.36-26.07,3.42-33.78-4.45-3.12-3.96-13.88-8.97-14.8-4.03-.74-6.01,4.01-6.4,6.83Z"/>
          <path class="cls-59" d="m475.34,91.26c.5.85,1.15,1.46,1.71,2.28h11.96c-3.38-5.01-8.66-8.98-11.96-14.04-4.49-6.89-13.72-25.84-4.27-29.22-.46-1.8-1.52-2.09-1.71-3.8-8.11,3.2-9,3.8-7.69,14.8.32,2.67,10.19,27,11.96,29.98Z"/>
          <path class="cls-59" d="m544.52,30.54c1.19-4,6.55-5.06,7.69,0,5.86,1.12,9.86-.28,15.37-2.28-.19-2.49-.73-3.47-.85-4.55-9.01,9.52-9.02,1.09-15.8-.76-8.73-2.38-10.08,1.84-8.11,8.73q.85-.57,1.71-1.14Z"/>
          <path class="cls-59" d="m566.72,21.43c-.84-6.57-2.84-13.05-2.56-19.74-.16.06-1.52-2.06-3.42.38,1.86,6.52,3.25,21.08,5.98,19.36Z"/>
          <path class="cls-59" d="m494.13,87.47c1.7,3.17,3.23,6.87,5.98,9.49,6.65,6.35-2.68-8.15,5.12-27.33,1.4-1.05.54,1.44.85,1.9.07.11,1.42-.31,1.71.38.55,1.31,6.63,27.73.85,26.19,1.05,3.78-2.14,5.18-.43,6.07,4.64,2.43,16.69-14.36,4.7-36.05-1.53-2.76-9.12-10.85-12.81-17.08-2.19,2.15,4.42,8.36,4.27,12.52-.13,3.56-9.99,18.25-10.25,23.91Z"/>
          <path class="cls-49" d="m506.09,71.53c-5.34,15.59,1.68,23.39,2.56,26.57,5.78,1.55-.3-24.87-.85-26.19-.29-.69-1.63-.27-1.71-.38Z"/>
          <path class="cls-49" d="m477.05,93.54c4.97,7.36,7.56,10.27,17.51,11.39,1.12-.52-4.86-10.36-5.55-11.39h-11.96Z"/>
        </g>
        <g>
          <path class="cls-38" d="m79.95,333.4c5.55,2.8,6.94-4.27,17.93-2.66.99-2.9-.99-13.35-.85-14.04-3.15-4.72-13.05,10.42-17.08,16.7Z"/>
          <path class="cls-59" d="m401.9,295.45c2.12,1.39,4.57.46,6.83.76.08-1.52,6.06-3.25,3.42-8.35-.72-.03-10.29-4.61-11.96,2.66-.78,3.38,1.53,4,1.71,4.93Z"/>
          <path class="cls-59" d="m424.11,318.98c-2.86.25-4.32,2.41-4.27,4.55.08,3.31,2.64,4.36,5.98,3.8,5.4-.91,2.68-5.11,3.42-6.07-.69-1.67-3.34-2.43-5.12-2.28Z"/>
          <path class="cls-59" d="m441.19,334.16c.43.68-1.34,4.94,3.42,5.31.29-.37,7.62.36,1.71-6.07-.42.27-3.1-.6-5.12.76Z"/>
          <g>
            <path class="cls-27" d="m353.22,267.36c1.44,3.82,4.64,2.84-2.13,6.07-8.08,3.86-16.03,3.01-24.34,3.8-8.37,2.6-20.2,6.93-28.61,8.35-62.26,10.48-111.15-27.91-172.5-4.55-4.56,1.74-28.42,13.87-26.05,17.84.31.52,8.03-1.47-.85,7.59,7.36,9.69,2.53,4.64,1.28,5.69-.21.18-2.94,4.29-2.99,4.55-.14.69,1.84,11.14.85,14.04-10.99-1.62-12.38,5.46-17.93,2.66-2.79-18.5-5.28,4.18-.85,23.91,2.15,9.58,6.43,20.05,11.96,28.46,2.71-.74,2.76,1.54,2.99,1.52.79-.09-.25-1.32,1.28-2.28,5.62-3.51,5.87,2.48,1.71,3.04,8.57,15.23,23.5,16.78,5.12,34.16-.95.9-3.36,3.07-4.27,3.8.51,4.84.93,10.36.85,15.18,5.02-2.35,11.48-1.51,10.25-4.55-12.6-3.41,7.9-10.02,1.71,0,.08,0-.07,1.14,1.28.76,1.45-.41,19.8-15.93,22.63-18.22-9.13.34-1.71-8.95.85-2.28,1.9-.63,9.58-5.92,10.67-6.83,5.8-4.84,42.87-36.55,44.83-38.71-4.89-.51-2.5-5.72,2.56-3.04,7.87-15.14,7.85-31.96,5.98-48.2-.73-6.3-8.42-31.74-5.55-32.26,10.92,7.77,23.51,23.16,28.61,34.54,8.84,19.74,11.9,61.25,13.66,64.14.18.3,5.54-.87,2.56,4.55,15.23,6.99,66.05,7.27,83.69,5.31-.94-7.09,4.65-2.31,5.12-2.28,6.91.5,3-.99,3.42-3.04,2.12-10.28,10.19-4.05,5.98,1.52,1.86,1.17,8.42,17.81,9.39,20.87,1.46,4.58,2.08,14.92,5.12,15.56.73-7.2,12.2-8.24,13.66-1.9,2.14,9.29-12.78,10.87-13.66,2.66-2-.28-1.62.73-1.71.76,2.32,7.67,2.35,15.72,3.42,23.53,2.39,17.5,5.98,34.89,8.54,52.37.04.25-.04.51,0,.76.11.74-.11,1.54,0,2.28,4.77,1.65-.45,7.4,5.12,8.35-1.39-1.59-.61-2.64.85-3.8,2.83-2.23,2.33-.95,5.98-2.28-3.06-2.81-2.01-6.14,2.56-6.07-.23-2.59.63-12.53.85-17.84.03-.61-1.71-.3-1.71-.38-11.44,4.69-6.09-12.29.85-2.28,0-.12,1.68-1.47,1.71-1.9,2.56-40.56,5.78-67.66,17.93-107.41-5.32.33-4.58-5.56.85-4.55,1.36-6.8,5.56-41.04,6.83-42.89,2.6-3.76-.2,5.92,7.69,3.8,3.52,9.46,8.96,13.8,10.25,15.56.93-5.59,8.07,1.78.85,1.52,2.79,3.9,13.16,18.19,13.66,21.25.08.45.09,1.07,0,1.52,1.68-1.56,13.7,12.65,13.66,15.18.33-.02,4.79-2.3,5.12-3.8.05-.2.04-.55,0-.76-.35-1.86-6.06-3.63.85-5.31-4.26-11.93,2-11.88,1.71-12.52-.35-.75-15.81-4.59-3.84-10.25,9.74,11.33,5.08-3.17,2.99-4.93-.87-.73-.88.56-1.71.38,1.02,3.67-5.15,4.38-5.12.76-.28,0-.57.01-.85,0-3.67,11.49-14.1-1.62-5.12-2.28-1.68-2.92-1.12-6.56.85-9.11-4.75-.37-2.99-4.63-3.42-5.31-2.67-4.28-2.86-2.09-3.42-2.28-2.39,2.47-3.18.99-4.27.76-3.96-.82-5.7-1.91-7.69-5.31-3.34.57-5.9-.48-5.98-3.8-4.47.94-2.58-.02-5.12-1.52-.3-.17-5.43.5-2.56-3.8,1.8-2.7,1.23-.48,3.84,0-1.58-4.97-2.66-17.94-3.84-20.49-1.79,1.31-3.54.69-3.42-1.52-2.26-.3-4.71.63-6.83-.76.09.48-.06,1.03,0,1.52.02.15,1.87.27.43,3.04-2.46.43-3.38-.82-3.84-.76-15.49,2.13-8.85-.54-10.25-.76-.81-.13-1.73.08-2.56,0-.09,3.22-10.87-3.97-11.1-4.55-10.1,4.3-13.03-27.35-14.52-28.46-2.28.6-4.56,1.26-6.83,1.9Z"/>
            <g>
              <path class="cls-45" d="m126.49,309.11c-6.55,5.64-12.25-.41-12.81,0-1.95,1.45,4.08,7.25-5.55,10.25,15.85.47,8.88,18.25,15.37,3.04,15.09-7.09.82-.7,2.99-13.28Z"/>
              <path class="cls-59" d="m337.43,281.03c-14.75-1.99-7.96,20.44,4.7,11.01-.46-4.5,3.22-9.94-4.7-11.01Z"/>
              <path class="cls-59" d="m351.52,429.04c-.02.24-.03.52,0,.76.88,8.22,15.81,6.63,13.66-2.66-1.47-6.35-12.94-5.3-13.66,1.9Z"/>
              <path class="cls-59" d="m355.36,319.74c-10.24-2.6-11.76,10.9-4.27,12.14,9.41,1.56,10.34-10.6,4.27-12.14Z"/>
              <path class="cls-24" d="m91.05,385.78c8.84,13.46,23.37,17.38,11.1,36.43,18.38-17.38,3.44-18.93-5.12-34.16-.09-.15-2.23-.28-1.71-3.04-1.53.96-.49,2.19-1.28,2.28-.23.03-.28-2.25-2.99-1.52Z"/>
              <path class="cls-59" d="m287.9,288.62c-10.85-2.61-10.25,14.65.85,11.39,4.81-1.42,3.48-10.34-.85-11.39Z"/>
              <path class="cls-59" d="m275.09,309.87c-8.91-2.14-11.09,10.29-3.42,11.39,8.44,1.21,9.35-9.96,3.42-11.39Z"/>
              <path class="cls-59" d="m369.02,452.57c-8.86-.81-7.89,13.1,1.71,10.63,5.6-1.45,3.35-10.16-1.71-10.63Z"/>
              <path class="cls-59" d="m178.58,328.85c-8.81-2.47-9.21,9.45-2.56,9.87,5.32.33,7.99-8.35,2.56-9.87Z"/>
              <path class="cls-59" d="m141.01,400.2c-6.25,0-6.84,9.22-.85,9.87,7.16.77,7.6-9.87.85-9.87Z"/>
              <path class="cls-59" d="m115.39,374.39c-7.81-2.17-8.41,8.43-2.56,9.11,6.4.74,7.33-7.78,2.56-9.11Z"/>
              <path class="cls-59" d="m117.95,340.23c-.33-.07-6.03,1.01-6.4,1.9,6.2,13.43,13.14-.47,6.4-1.9Z"/>
              <path class="cls-59" d="m131.62,389.57c-5.76-1.66-8.23,5.46-3.42,6.83,5.93,1.69,7.34-5.7,3.42-6.83Z"/>
              <path class="cls-59" d="m443.75,348.58c-8.98.66,1.46,13.77,5.12,2.28-1.38-.06-1.63-2.53-5.12-2.28Z"/>
              <path class="cls-59" d="m153.82,300.76c-4.53-.96-7.94,5.22-3.42,6.83,6.39,2.28,7.95-5.88,3.42-6.83Z"/>
              <path class="cls-59" d="m331.02,391.09c2.63,2.36,5.55,1.25,5.98,1.52,4.21-5.57-3.86-11.79-5.98-1.52Z"/>
              <path class="cls-59" d="m236.66,296.97c-4.69-1.22-7.11,5.6-3.42,6.83,5.68,1.89,7.47-5.78,3.42-6.83Z"/>
              <path class="cls-49" d="m375.43,487.49c.03-.57.76-.64.85-2.28-6.94-10.01-12.29,6.97-.85,2.28Z"/>
              <path class="cls-59" d="m379.27,420.69c-5.36-1.61-7.53,4.83-3.42,6.07,5.36,1.61,7.53-4.83,3.42-6.07Z"/>
              <path class="cls-14" d="m108.99,436.63c.37.1,1.15.01,1.71,0,6.19-10.02-14.31-3.41-1.71,0Z"/>
              <path class="cls-59" d="m410.01,322.77c-3.62-.72-5.52,5.22-1.71,6.07,4.12.92,5.13-5.39,1.71-6.07Z"/>
              <path class="cls-59" d="m136.74,282.55c-3.95-1.64-6.15,4.26-2.56,5.31,4.37,1.28,5.09-4.26,2.56-5.31Z"/>
              <path class="cls-41" d="m154.67,388.05c-5.02-1.31-4.62,4.66-1.71,5.31,3.66.82,5.27-4.38,1.71-5.31Z"/>
              <path class="cls-45" d="m399.34,318.22c.47,1.38-1.1,2.42-1.71.76-10.36,9.44,11.3.76,2.99-2.28-.42-.15-1.18,1.48-1.28,1.52Z"/>
              <path class="cls-9" d="m193.1,330.37c-5.02-1.31-4.62,4.66-1.71,5.31,3.66.82,5.27-4.38,1.71-5.31Z"/>
              <path class="cls-65" d="m425.39,336.44c-3.94-1.67-6.7,3.16-3.42,4.55,3.94,1.67,6.7-3.16,3.42-4.55Z"/>
              <path class="cls-59" d="m390.37,301.52c-4.07-1.68-6.06,4.42-2.56,5.31,3.11.8,5.57-4.07,2.56-5.31Z"/>
              <path class="cls-59" d="m95.75,367.56c-4.95-1.43-4.63,4.76-1.71,5.31,3.83.73,4.37-4.55,1.71-5.31Z"/>
              <path class="cls-9" d="m240.07,345.55c-2.86-.63-5.51,3.37-2.56,4.55,4.68,1.89,6.24-3.74,2.56-4.55Z"/>
              <path class="cls-65" d="m134.6,419.17c.45-.36,1.02-1.6.85-2.28-2.56-6.67-9.98,2.62-.85,2.28Z"/>
              <path class="cls-45" d="m392.94,340.23c-2.24-.17-4.44,3.47-1.71,4.55,3.99,1.58,5.51-4.27,1.71-4.55Z"/>
              <path class="cls-45" d="m395.92,375.91c3-2.77.54-3,.85-4.55-5.44-1.01-6.17,4.88-.85,4.55Z"/>
              <path class="cls-21" d="m114.54,391.85c-2.14-.24-4.48,3.46-1.71,4.55,4.37,1.73,4.72-4.22,1.71-4.55Z"/>
              <path class="cls-45" d="m364.75,372.11c-4.93-1.96-4.41,5.07-.85,4.55,1.27-.18,3.53-3.49.85-4.55Z"/>
              <path class="cls-47" d="m236.23,386.53c-3.05,4.87,1.31,3.98,2.56,4.55,2.98-5.43-2.38-4.26-2.56-4.55Z"/>
              <path class="cls-15" d="m95.32,385.02c-.52,2.76,1.62,2.88,1.71,3.04,4.17-.55,3.91-6.55-1.71-3.04Z"/>
              <path class="cls-47" d="m272.52,387.29c-2.95-1.07-4.29,3.62-1.71,4.55,2.95,1.07,4.29-3.62,1.71-4.55Z"/>
              <path class="cls-45" d="m187.98,346.31c-2.38-.05-3.74,4.19-.85,4.55,4.28.54,3.6-4.5.85-4.55Z"/>
              <path class="cls-45" d="m169.19,375.15c-3.17-.58-4.08,2.86-1.71,3.8,3.88,1.53,4.85-3.22,1.71-3.8Z"/>
              <path class="cls-45" d="m252.03,316.7c-2.85-.22-3.38,4.32-.85,4.55,3.24.3,3.45-4.35.85-4.55Z"/>
              <path class="cls-45" d="m347.67,295.45c-2.7-.98-4.29,2.98-1.71,3.8,3.81,1.2,3.86-3.01,1.71-3.8Z"/>
              <path class="cls-23" d="m240.07,368.32c-2.7-.98-4.29,2.98-1.71,3.8,3.81,1.2,3.86-3.01,1.71-3.8Z"/>
              <path class="cls-45" d="m382.69,349.34c-3.56-.4-3.84,3.05-1.71,3.8,2.96,1.03,4.87-3.44,1.71-3.8Z"/>
              <path class="cls-65" d="m256.3,375.91c-2.74-.92-4.27,2.93-1.71,3.8,2.74.92,4.27-2.93,1.71-3.8Z"/>
              <path class="cls-59" d="m298.14,304.56c-2.74-.92-4.27,2.93-1.71,3.8,2.74.92,4.27-2.93,1.71-3.8Z"/>
              <path class="cls-45" d="m176.88,366.8c-2.74-.92-4.27,2.93-1.71,3.8,2.74.92,4.27-2.93,1.71-3.8Z"/>
              <path class="cls-54" d="m386.96,307.59c-2.21-.48-2.91,3.65-1.71,4.55,2.23,1.67,4.65-3.92,1.71-4.55Z"/>
              <path class="cls-45" d="m366.46,338.71c-2.69-.03-2.52,5.58.85,4.55,2.72-.83.3-4.54-.85-4.55Z"/>
              <path class="cls-45" d="m363.9,489.77c-2.74-.92-4.27,2.93-1.71,3.8,2.74.92,4.27-2.93,1.71-3.8Z"/>
              <path class="cls-65" d="m240.93,321.26c-2.74-.92-4.27,2.93-1.71,3.8,2.74.92,4.27-2.93,1.71-3.8Z"/>
              <path class="cls-45" d="m82.94,347.82c-2.74-.92-4.27,2.93-1.71,3.8,2.74.92,4.27-2.93,1.71-3.8Z"/>
              <path class="cls-45" d="m379.27,363c-1.43,0-3.29,2.7-1.71,3.8,3.2,2.22,5.08-3.79,1.71-3.8Z"/>
              <path class="cls-45" d="m129.91,366.04c-2.51-.09-2.92,3.08-.85,3.8,3.67,1.27,3.17-3.72.85-3.8Z"/>
              <path class="cls-10" d="m111.97,362.25c-4.61-1.3-3.31,3.89-.85,3.8.88-.03,3.46-3.06.85-3.8Z"/>
              <path class="cls-45" d="m421.54,347.82c.28.39.57,1.12.85,1.52,7.21.26.07-7.1-.85-1.52Z"/>
              <path class="cls-45" d="m170.9,344.79c-1.58-.44-4.47,3.02-1.71,3.8,3.03.85,4.09-3.13,1.71-3.8Z"/>
              <path class="cls-45" d="m303.27,369.84c-1.9-.6-3.73,3.18-1.71,3.8,3.94,1.2,3.74-3.16,1.71-3.8Z"/>
              <path class="cls-45" d="m398.91,302.28c-5-1.41-2.42,3.81-.85,3.8.78,0,3.52-3.04.85-3.8Z"/>
              <path class="cls-65" d="m347.67,397.16c-1.97-.43-2.97,2.96-1.71,3.8,2.82,1.86,4.39-3.22,1.71-3.8Z"/>
              <path class="cls-65" d="m369.88,297.73c-1.95-.55-3.7,3.15-1.71,3.8,2.89.93,4.16-3.1,1.71-3.8Z"/>
              <path class="cls-45" d="m327.18,377.43c-3.58-.88-3.74,2.24-2.56,3.04,2.08,1.41,5.77-2.25,2.56-3.04Z"/>
              <path class="cls-45" d="m292.16,376.67c-2.89-.28-3.34,3.55-.85,3.8,2.89.28,3.34-3.55.85-3.8Z"/>
              <path class="cls-45" d="m142.72,372.87c-2.64-.08-2.79,3.25-.85,3.8,2.43.69,3.59-3.71.85-3.8Z"/>
              <path class="cls-17" d="m378.42,296.97c-2.53-.84-4.14,2.4-1.71,3.04,3.76.99,3.8-2.34,1.71-3.04Z"/>
              <path class="cls-45" d="m263.98,341.75c-1.33,0-2.59,3.22-.85,3.8,3.77,1.26,3.06-3.78.85-3.8Z"/>
              <path class="cls-45" d="m281.06,337.96c-2.71-.75-4.05,2.39-1.71,3.04,2.71.75,4.05-2.39,1.71-3.04Z"/>
              <path class="cls-45" d="m353.65,337.96c-2.26-.49-2.98,3.33-.85,3.8,2.26.49,2.98-3.33.85-3.8Z"/>
              <path class="cls-45" d="m315.22,352.38c-2.26-.49-2.98,3.33-.85,3.8,2.26.49,2.98-3.33.85-3.8Z"/>
              <path class="cls-45" d="m381.83,315.18c-3.15-.91-3.07,2.6-1.71,3.04,2.52.8,4.15-2.33,1.71-3.04Z"/>
              <path class="cls-45" d="m332.3,345.55c-4.59-.97-1.29,5.58,1.28,2.66.51-.58-.46-2.48-1.28-2.66Z"/>
              <path class="cls-45" d="m152.97,366.04c-1,.01-3.38,3.25-.85,3.8,2.73.59,3.34-3.82.85-3.8Z"/>
              <path class="cls-45" d="m144.43,330.37c-1.8-1.25-4.49,2.52-1.71,3.04,2.87.53,2.65-2.38,1.71-3.04Z"/>
              <path class="cls-45" d="m277.65,363c-1.67-.36-3.02,2.27-1.71,3.04,2.73,1.59,4.32-2.48,1.71-3.04Z"/>
              <path class="cls-45" d="m331.45,298.49c-3.6-1.06-2.83,2.93-.85,3.04,2.26.12,2.84-2.45.85-3.04Z"/>
              <path class="cls-45" d="m345.11,368.32c-1.67-.36-3.02,2.27-1.71,3.04,2.73,1.59,4.32-2.48,1.71-3.04Z"/>
              <path class="cls-45" d="m146.99,347.82c-1.67-.36-3.02,2.27-1.71,3.04,2.73,1.59,4.32-2.48,1.71-3.04Z"/>
              <path class="cls-59" d="m320.35,311.39c-1.8-1.25-4.49,2.52-1.71,3.04,2.87.53,2.65-2.38,1.71-3.04Z"/>
              <path class="cls-45" d="m301.56,344.79c-2.09,0-2.09,3.8,0,3.8s2.09-3.8,0-3.8Z"/>
              <path class="cls-45" d="m319.49,329.61c-2.03-.45-2.89,2.62-.85,3.04,3.28.66,2.35-2.7.85-3.04Z"/>
              <path class="cls-45" d="m291.31,326.57c-3.28-.66-2.35,2.7-.85,3.04,2.03.45,2.89-2.62.85-3.04Z"/>
              <path class="cls-45" d="m355.36,357.69c-2.1-.41-2.86,2.64-.85,3.04,2.1.41,2.86-2.64.85-3.04Z"/>
              <path class="cls-59" d="m108.56,338.71c-2.1-.41-2.86,2.64-.85,3.04,2.1.41,2.86-2.64.85-3.04Z"/>
              <path class="cls-45" d="m248.61,355.41c-.64-.06-3.2,2.87-.85,3.04,2.6.19,2.46-2.88.85-3.04Z"/>
              <path class="cls-7" d="m385.25,319.74c-.82.03-2.05,2.44-.85,3.04,1.85.91,2.84-3.12.85-3.04Z"/>
              <path class="cls-47" d="m363.9,331.88c-2.93-1.68-1.6,5.23.43,1.9.21-.35.13-1.58-.43-1.9Z"/>
              <path class="cls-13" d="m178.58,356.17c-.5,0-2.23,1.7-.43,2.66,1.85.98,2.1-2.66.43-2.66Z"/>
              <path class="cls-45" d="m257.15,337.96c-2.01-.3-2.53,2.03-.85,2.28,2.01.3,2.53-2.03.85-2.28Z"/>
              <path class="cls-47" d="m397.21,350.1c-1.66-.77-2.61,2.36-.85,2.28,1.89-.09,1.66-1.9.85-2.28Z"/>
              <path class="cls-45" d="m359.63,277.99c-1.66-.77-2.61,2.36-.85,2.28,1.89-.09,1.66-1.9.85-2.28Z"/>
              <path class="cls-13" d="m356.21,377.43c-2.83-1.11-2.31,2.24-.85,2.28.43.01,2.08-1.8.85-2.28Z"/>
              <path class="cls-45" d="m369.02,351.62c-.31,0-1.88,1.09-.43,1.9,1.63.9,1.9-1.9.43-1.9Z"/>
              <path class="cls-7" d="m314.37,340.23c-1.28-.45-1.88,1.15-.85,1.52,1.28.45,1.88-1.15.85-1.52Z"/>
              <path class="cls-47" d="m259.71,368.32c-2.2-1.03-2.47,1.35-.85,1.52.09,0,1.73-1.11.85-1.52Z"/>
              <path class="cls-7" d="m263.98,350.1c-1.28-.45-1.88,1.15-.85,1.52,1.28.45,1.88-1.15.85-1.52Z"/>
              <path class="cls-4" d="m322.05,344.03c-.1-.06-1.4.77-.85,1.52,1.31,1.82,1.94-.83.85-1.52Z"/>
              <path class="cls-28" d="m364.75,290.14h-.85l-.43.38v.76l.43.38.43-.38.43-.38.43-.38-.43-.38Z"/>
              <path class="cls-47" d="m356.21,365.28l-.43.38v.76l.43.38q.43,0,.85,0l.43-.38-.43-.38-.43-.38-.43-.38Z"/>
              <path class="cls-40" d="m397.63,318.98c.6,1.66,2.18.62,1.71-.76-.47.17-1.64.7-1.71.76Z"/>
              <path class="cls-4" d="m344.26,351.62l-.43.38-.43.38q-.21.19-.43.38l.43.38q.43,0,.85,0l.43-.38v-.76q-.21-.19-.43-.38Z"/>
              <path class="cls-54" d="m342.55,340.99q-.43,0-.85,0l-.43.38.43.38.43.38q.21.19.43.38l.43-.38v-.76l-.43-.38Z"/>
            </g>
          </g>
          <g>
            <path class="cls-1" d="m396.78,371.35c-.31,1.55,2.14,1.78-.85,4.55-12.16,39.75-15.37,66.84-17.93,107.41-.03.43-1.7,1.78-1.71,1.9-.09,1.64-.83,1.71-.85,2.28,0,.08,1.73-.23,1.71.38-.22,5.31-1.09,15.25-.85,17.84.1,1.16,7.93,2.24-2.56,6.07-3.65,1.33-3.15.05-5.98,2.28,5.22-.06,4.65,4.73-.85,3.8-5.57-.95-.35-6.7-5.12-8.35,4.63,32.16,10.24,64.32,11.96,96.78-7.88,7.06-12.48,23.36,1.28,26.19,6.07,1.25,34.47.68,36.72-.76,2.56-1.63.08-5.12,2.56-6.07,2.32-.89,28.85,1.25,38.86-1.14-10.16-2.58-20.74-1.77-31.17-1.9-5.38-2.12,10.38-15.46-16.65-16.32-.38-6.45-.76-12.94-1.71-19.36-.04-.24-1.56-3.7-1.71-4.55-.51-2.9.72-6.22-.43-9.11-.86-.59-6.99,12.5-16.65,10.25,22.05-6.93,15.26-19.12,14.52-36.05-.14-3.1-.75-6.01-.85-9.11-1.22-36.45-1.41-50.71,5.12-87.29,1.78-9.98,3.24-20.02,5.12-29.98,12.64-8.58,25.37-17.75,35.87-28.46-4.39-2.34-1.4-10.81,4.27-5.31.28-.01.57.02.85,0,.03-2.53-11.98-16.74-13.66-15.18-1,5.14-6.68-1.88,0-1.52-.51-3.06-10.87-17.35-13.66-21.25-.28-.39-.57-1.13-.85-1.52-1.29-1.76-6.73-6.1-10.25-15.56-7.89,2.12-5.09-7.55-7.69-3.8-1.28,1.85-5.47,36.08-6.83,42.89Z"/>
            <g>
              <path class="cls-27" d="m444.6,392.61c1.59-1.63,3.5-2.59,4.27-5.31-5.67-5.49-8.66,2.97-4.27,5.31Z"/>
              <g>
                <path class="cls-14" d="m373.72,511.78c10.5-3.83,2.67-4.91,2.56-6.07-4.57-.07-5.62,3.26-2.56,6.07Z"/>
                <path class="cls-19" d="m367.74,514.06c-1.47,1.16-2.25,2.21-.85,3.8,5.51.94,6.07-3.85.85-3.8Z"/>
                <path class="cls-59" d="m436.06,372.11c.09-.45.08-1.07,0-1.52-6.68-.36-1,6.65,0,1.52Z"/>
                <path class="cls-59" d="m393.79,592.24c-9.19-1.72-10.76,10.29-3.42,11.39,9.16,1.37,10.21-10.12,3.42-11.39Z"/>
                <path class="cls-49" d="m389.52,545.94c-6.52-2.34-7.85,5.69-3.42,6.83,4.75,1.22,7.38-5.41,3.42-6.83Z"/>
                <path class="cls-57" d="m368.6,533.03c2.07-3.89,6.1-2.42,5.98,1.52,13.66-5.38-13.95-10.82-5.98-1.52Z"/>
                <path class="cls-6" d="m375,565.67c-4.24-.44-1.91,7.48-2.56,9.87,2.25,1.04,7.87-9.32,2.56-9.87Z"/>
                <path class="cls-17" d="m401.48,414.62c-3.13-.44-4.32,4.21-1.71,5.31,4.43,1.87,4.92-4.87,1.71-5.31Z"/>
                <path class="cls-17" d="m368.6,533.03c.35.41-.25,3.97,5.98,1.52.12-3.93-3.91-5.4-5.98-1.52Z"/>
                <path class="cls-54" d="m375.86,555.8c-3.48-.89-4.12,4.4-1.71,5.31,3.39,1.29,4.94-4.49,1.71-5.31Z"/>
                <path class="cls-56" d="m373.29,541.38c-1.98,0-3.08,3.64-1.71,4.55,3.8,2.53,5.74-4.55,1.71-4.55Z"/>
                <path class="cls-10" d="m380.98,534.55c-5.15-.21-.28,5.95,1.71,4.55,1.5-1.06-.57-4.51-1.71-4.55Z"/>
                <path class="cls-48" d="m375,580.09c-3.64.47,2.82,5.87,4.7,3.42,1.26-1.64-4.36-3.46-4.7-3.42Z"/>
                <path class="cls-51" d="m392.08,533.03c-2.74-.92-4.27,2.93-1.71,3.8,2.74.92,4.27-2.93,1.71-3.8Z"/>
                <path class="cls-33" d="m413.43,352.38c-2.74-.92-4.27,2.93-1.71,3.8,2.74.92,4.27-2.93,1.71-3.8Z"/>
                <path class="cls-63" d="m390.37,514.06c-3.16-2.19-5.13,3.72-1.71,3.8,2.34.05,2.83-3.02,1.71-3.8Z"/>
                <path class="cls-65" d="m375.86,587.68c-2.46-.54-2.97,4.09-.85,4.55,2.46.54,2.97-4.09.85-4.55Z"/>
                <path class="cls-17" d="m375.86,596.79c-2.02.47-1.24,4.23,1.71,3.8,3.9-.57.3-4.26-1.71-3.8Z"/>
                <path class="cls-50" d="m440.76,390.33c-1.7-.76-1.69,3.42-.85,3.8,1.7.76,1.69-3.42.85-3.8Z"/>
              </g>
            </g>
          </g>
          <g>
            <path class="cls-27" d="m91.05,474.58c-1.28,5.04-.21,10.22.85,15.18.31,1.45.71,1.73.85,2.28,2.23,8.34,7,14.96,10.25,22.77q.43,0,.85,0c-2.65-2.82-.37-3.98,0-6.07,2.79-15.68,1.82-32.45,5.98-47.44-.98-.77-1.65.18-2.56-1.14-5.74-2.74-15.32,10.87-16.23,14.42Z"/>
            <path class="cls-38" d="m60.31,448.02c-5.12,3.08-10.26,5.99-15.37,9.11,1.62-.14,6.5,2.22,6.83,3.04,5.33-1.75,7.93-3.66,13.66-5.31-4.47-8.46,12.04-8.35,5.12,0,4.45-3.36,5.26-10.42,15.8-10.63,4.01-.08,2.96.9,4.7,2.28-.23-4.01,3.23-4.06,6.83-3.8-.03-.7.84-.79.85-1.52.08-4.82-.34-10.35-.85-15.18-11.32,8.95-25.2,14.55-37.58,22.01Z"/>
            <path class="cls-27" d="m19.32,479.14c.04.11,1.25-.33.85,2.28,2.93.79,10.02,3.34,13.24,4.55.78.29.31,1.47.43,1.52,1.34.52,4.33-1.06,5.12,1.52,0-.08,1.67.25,1.71-.38.29-4.68,1.01-18.02.85-21.63-.04-.88-3.14-2.76-.85-7.59-5.76,3.66-23.78,13.61-21.35,19.74Z"/>
            <path class="cls-59" d="m44.94,457.13c-1.39.85-2.88,1.39-4.27,2.28-2.29,4.83.82,6.71.85,7.59,5.4,3.98,12.36-1.66,10.25-6.83-.33-.81-5.21-3.18-6.83-3.04Z"/>
            <path class="cls-61" d="m91.05,446.5c.36.28,2.29,6.76,7.26,3.04,3.47-2.6-.41-6.46-.43-6.83-3.6-.27-7.07-.22-6.83,3.8Z"/>
            <path class="cls-2" d="m65.43,454.85c.95-.28,1.91,1.26,5.12,0,6.91-8.35-9.59-8.46-5.12,0Z"/>
            <g>
              <path class="cls-1" d="m193.53,368.32c.47,3.55-2.43,2.89-2.56,3.04-1.96,2.16-39.03,33.87-44.83,38.71-1.1.91-8.78,6.2-10.67,6.83.17.68-.4,1.91-.85,2.28-2.83,2.29-21.18,17.81-22.63,18.22-1.36.38-1.2-.76-1.28-.76-.56.01-1.34.1-1.71,0,1.23,3.04-5.23,2.21-10.25,4.55-.01.73-.88.81-.85,1.52.01.37,3.89,4.24.43,6.83-4.97,3.72-6.9-2.75-7.26-3.04-1.74-1.38-.68-2.36-4.7-2.28-10.54.21-11.35,7.26-15.8,10.63-3.22,1.26-4.17-.28-5.12,0-5.73,1.66-8.33,3.57-13.66,5.31,2.11,5.17-4.85,10.81-10.25,6.83.16,3.61-.56,16.95-.85,21.63-.04.62-1.7.3-1.71.38-.01.17-.03,2.17,0,2.28.04.12,2.35-.33,2.56.38,1.02,3.4,3.34,23.38,4.27,24.29,1.84-.17,6.8-4.96,7.26-4.93.7.04.33,1.47.43,1.52.05.03.04.2.85.76,4.68-9.22-3.08-19.25-3.42-29.22,11.36-6.89,23.58-12.42,35.87-17.84,3.62-1.6,17.78-9.48,20.92-8.35,1.4,2.3-.49,2.18-.43,2.28.91,1.32,1.58.36,2.56,1.14-4.16,14.99-3.18,31.76-5.98,47.44,5.59,2.53,3.49,7.59,0,6.07q-.43,0-.85,0c6.23,15.01,11.06,30.99,21.35,44.4-1.08.63-1.18,3.06-.85,3.8,5.57,12.7,13.38,33.04,21.35,42.51-2.85,27.27-.26,15.61-23.91,21.25q33.09.19,66.18.38c2.25-23.67-1.34-19.42-12.38-21.25-8.14-1.35-3.23-4.48-6.83-12.9-4.11-9.64-2.63-.11-4.7.76-8.19,3.44-.46-7.42-.43-7.97.08-1.36-11.05-21.21-12.81-24.67-2.55-5-1.55-6.51-1.71-6.83-2.18-4.3-8.63-14.07-12.81-17.08,4.89-8.31-11.15-26.81-14.52-45.16-.41-2.21-1.82-4.39-1.71-4.93,29.74-20.39,54.74-38.66,76.43-66.42,32.51,13.07,124.58,18.94,154.14,9.87.09-.03-.3-1.04,1.71-.76-.03-.24-.02-.52,0-.76-3.04-.64-3.66-10.98-5.12-15.56-.98-3.06-7.54-19.7-9.39-20.87-.43-.27-3.35.85-5.98-1.52-.42,2.04,3.49,3.54-3.42,3.04-1.24,4.95-4.76,2.24-5.12,2.28-17.64,1.95-68.46,1.68-83.69-5.31-1.25-.57-5.62.32-2.56-4.55-1.76-2.89-4.82-44.4-13.66-64.14-5.09-11.38-17.69-26.77-28.61-34.54-2.87.52,4.82,25.96,5.55,32.26,1.88,16.24,1.89,33.06-5.98,48.2Z"/>
              <g>
                <path class="cls-17" d="m86.78,466.24c.7,3.75.84,5.59,4.27,8.35.91-3.55,10.49-17.17,16.23-14.42-.07-.1,1.83.02.43-2.28-3.15-1.13-17.3,6.75-20.92,8.35Z"/>
                <path class="cls-45" d="m322.48,396.4c.37-.04,3.88,2.68,5.12-2.28-.47-.03-6.06-4.81-5.12,2.28Z"/>
                <path class="cls-9" d="m190.97,371.35c.13-.15,3.03.51,2.56-3.04-5.06-2.68-7.46,2.52-2.56,3.04Z"/>
                <path class="cls-59" d="m165.78,403.99c-12.19-2.03-10.69,16.83.85,12.14,5.99-2.43,4.46-11.26-.85-12.14Z"/>
                <path class="cls-38" d="m123.5,455.61c1.36.17,2.88-.12,4.27,0,1.65.14,2.66.55,3.84,1.52.87-.1,6.97-5.92,8.11-6.83q-.43-1.14-.85-2.28c-13.22,4.39-23.26,6.61-15.37,7.59Z"/>
                <path class="cls-13" d="m146.99,581.61c-6.68-1.48-7.27,7.99-1.71,8.35,4.93.32,6.26-7.34,1.71-8.35Z"/>
                <path class="cls-29" d="m121.37,521.65c-8.04-2.28-6.85,10.42.85,7.59,3.06-1.12,2.05-6.77-.85-7.59Z"/>
                <path class="cls-59" d="m146.13,567.95c-5.21-1.33-6,6.36-1.71,6.83,4.34.48,5.23-5.93,1.71-6.83Z"/>
                <path class="cls-59" d="m114.54,461.68c-5.83-1.78-5.91,5.16-2.56,6.07,4.61,1.26,6.47-4.88,2.56-6.07Z"/>
                <path class="cls-49" d="m281.06,397.92c-4.25-1.16-6.47,4.13-2.56,5.31,5.53,1.67,5.96-4.39,2.56-5.31Z"/>
                <path class="cls-17" d="m141.86,557.32c-5.26-1.08-4.55,7.59.85,6.07,2.87-.81,1.44-5.6-.85-6.07Z"/>
                <path class="cls-59" d="m216.16,322.02c-4.93-.1-2.63,7.1,1.71,5.31,2.93-1.21.64-5.27-1.71-5.31Z"/>
                <path class="cls-49" d="m123.5,455.61c-3.94,6.61,8.05,5.8,4.27,0-1.39-.12-2.91.17-4.27,0Z"/>
                <path class="cls-17" d="m133.32,547.45c-2.45-.25-4.51,4.14-1.71,5.31,4.11,1.72,5.58-4.91,1.71-5.31Z"/>
                <path class="cls-59" d="m103.86,514.81c3.49,1.52,5.59-3.55,0-6.07-.37,2.09-2.65,3.25,0,6.07Z"/>
                <path class="cls-46" d="m64.15,462.44c-2.39-.9-5.69,3.32-2.56,4.55,3.58,1.41,5.43-3.47,2.56-4.55Z"/>
                <path class="cls-52" d="m239.22,397.92c-4.37-1.73-4.72,4.22-1.71,4.55,2.14.24,4.48-3.46,1.71-4.55Z"/>
                <path class="cls-17" d="m182,385.02c-3.03-1.14-5.27,3.91-1.71,4.55,3.54.64,3.96-3.7,1.71-4.55Z"/>
                <path class="cls-49" d="m117.1,511.02c-3.03-1.14-5.27,3.91-1.71,4.55,3.54.64,3.96-3.7,1.71-4.55Z"/>
                <path class="cls-17" d="m109.41,446.5c-3.86.03-2.33,6.13,1.71,4.55,1.99-.78.28-4.57-1.71-4.55Z"/>
                <path class="cls-21" d="m138.87,448.02q.43,1.14.85,2.28c.33-.26,6.45-2.77,6.83-4.93-.65-1.16-5.18,1.82-7.69,2.66Z"/>
                <path class="cls-14" d="m113.68,495.84c-2.95-1.07-4.29,3.62-1.71,4.55,2.95,1.07,4.29-3.62,1.71-4.55Z"/>
                <path class="cls-59" d="m135.89,564.91c-3.63-.37-4.08,4.42-.85,4.55,2.94.12,3.32-4.31.85-4.55Z"/>
                <path class="cls-59" d="m139.3,577.06c-2.61-.91-4.75,2.95-2.56,3.8,3.19,1.23,5.51-2.77,2.56-3.8Z"/>
                <path class="cls-59" d="m145.28,593c-3.83-1.4-3.32,4.54-.85,4.55,2.08.02,3.31-3.65.85-4.55Z"/>
                <path class="cls-32" d="m222.99,359.21c-3.95-1.35-3.21,4.58-.85,4.55,1.1-.01,3.6-3.61.85-4.55Z"/>
                <path class="cls-59" d="m166.63,397.92c-7.78,4.03-2.71,7.44-.43,4.17.15-.22-.06-2.86.43-4.17Z"/>
                <path class="cls-2" d="m116.24,531.51c-2.66.33-.18,5.39,2.56,3.8,2.12-1.23-1.94-3.87-2.56-3.8Z"/>
                <path class="cls-62" d="m209.33,374.39c-.89.04-3.45,3.04-.85,3.8,3.6,1.05,3.79-3.93.85-3.8Z"/>
                <path class="cls-26" d="m226.41,375.15c-1.72-.28-2.92,3.39-.85,3.8,3.47.69,2.28-3.56.85-3.8Z"/>
                <path class="cls-32" d="m214.45,347.06c-2.26-.49-2.98,3.33-.85,3.8,2.26.49,2.98-3.33.85-3.8Z"/>
                <path class="cls-17" d="m188.83,414.62c-2.62,0-1.71,4.46.85,3.8,1.68-.44.56-3.8-.85-3.8Z"/>
                <path class="cls-65" d="m201.64,400.2c-2.62,0-1.71,4.46.85,3.8,1.68-.44.56-3.8-.85-3.8Z"/>
                <path class="cls-22" d="m118.81,502.67c-5.73-.35,2.94,4.62,2.99,1.9,0-.27-2.81-1.89-2.99-1.9Z"/>
                <path class="cls-59" d="m176.02,388.81c-.15-.02-2.14,1.76-2.13,1.9.04,2.87,6-1.45,2.13-1.9Z"/>
                <path class="cls-17" d="m127.35,542.9c-2.83-1.11-2.31,2.24-.85,2.28.43.01,2.08-1.8.85-2.28Z"/>
                <path class="cls-3" d="m126.49,540.62c-2.82-1.14-5.86,2.7-1.28,1.14.96-.33,2.35-.71,1.28-1.14Z"/>
                <path class="cls-17" d="m124.78,545.94c-2.83-1.11-2.31,2.24-.85,2.28.43.01,2.08-1.8.85-2.28Z"/>
                <path class="cls-32" d="m226.41,381.98c-.82-.44-1.7.17-.85,1.52,1.18,1.89,2.01-.89.85-1.52Z"/>
                <path class="cls-48" d="m111.97,519.37c-.31,0-1.88,1.09-.43,1.9,1.63.9,1.9-1.9.43-1.9Z"/>
              </g>
            </g>
            <g>
              <path class="cls-25" d="m38.1,524.68c-1.4,2.22.01,2.16,0,2.28,4.27-4.11,1.7,3.41,1.71,3.8.24,13.09,12,39.55,16.23,53.89.19.66-.19,1.62,0,2.28,4.1,14.22,8.41,16.62,5.12,36.05-1.66,2.08-29.24-.27-36.29,3.42,10.49-.59,75.81,4.91,79.85,1.52.48-3.86-.65-7.58-.85-11.39-.18-3.33,1.65-7.52,0-8.73-15.81,3.91-17.19-11.95-21.35-21.63-.15-.35-1.91-3.01-3.42-6.83-1.47-3.73-1.99-7.64-2.56-9.11-.06-.16-.46.22-1.71-3.04-1.41-3.68-5.01-18.12-6.83-20.11-1.36-1.49-6.17-1.81-6.83-3.8-1.21-3.66,3.45-2.37,3.42-7.59,0-1.02-5.44-18.83-5.98-19.74-.12-.2-3.52-2.14-4.27-2.66-.81-.56-.8-.73-.85-.76-2.97,2.79-14.23,10.33-15.37,12.14Z"/>
              <g>
                <path class="cls-59" d="m38.1,526.96c-.1.83-2.77,3.31,1.71,3.8,0-.39,2.56-7.9-1.71-3.8Z"/>
                <path class="cls-17" d="m50.49,533.79c-6.9-1.84-8.51,7.9-3.42,9.11,7.07,1.68,7.93-7.9,3.42-9.11Z"/>
                <path class="cls-17" d="m65.86,557.32c-4.09-.66-5.32,5.72-2.56,6.83,6.4,2.58,6.89-6.14,2.56-6.83Z"/>
                <path class="cls-29" d="m57.32,547.45c-4.45-1.88-6.53,4.02-3.42,5.31,3.32,1.38,6.83-3.87,3.42-5.31Z"/>
                <path class="cls-36" d="m49.63,544.42c-4.88-2.07-3.45,5.35-.85,5.31,1.25-.02,3.72-4.1.85-5.31Z"/>
                <path class="cls-34" d="m64.15,578.57c-2.14-.24-4.48,3.46-1.71,4.55,4.37,1.73,4.72-4.22,1.71-4.55Z"/>
                <path class="cls-5" d="m64.15,591.48c-3.29,7.89,4.45,5.96,2.99,1.9-.35-.99-2.35-1.05-2.99-1.9Z"/>
                <path class="cls-9" d="m56.47,567.95c-2.8-.08-2.81,3.94-.85,4.55,2.61.82,3.84-4.47.85-4.55Z"/>
                <path class="cls-10" d="m75.25,596.03c-2.74-.92-4.27,2.93-1.71,3.8,2.74.92,4.27-2.93,1.71-3.8Z"/>
                <path class="cls-12" d="m59.03,583.89c-.8,0-2.07,2.49-.85,3.04,2.9,1.31,2.45-3.05.85-3.04Z"/>
                <path class="cls-2" d="m65.86,600.59c-1.79-.54-3.03.78-1.71,1.52.76.42,2.71-1.21,1.71-1.52Z"/>
                <path class="cls-54" d="m66.71,589.2c-3.2-.41.28,3.15,1.28,1.14.04-.07-1.19-1.13-1.28-1.14Z"/>
                <path class="cls-48" d="m68.42,600.59l-.43.38-.43.38q-.21.19-.43.38l.43.38h.85l.43-.38v-.76l-.43-.38Z"/>
              </g>
            </g>
            <g>
              <path class="cls-24" d="m27.86,500.39c.38,1.14.58,2.24.85,3.04,2.51,7.29,6.21,19.92,9.39,21.25,1.15-1.81,12.4-9.36,15.37-12.14-.09-.05.28-1.48-.43-1.52-.46-.02-5.42,4.76-7.26,4.93-.93-.91-3.25-20.89-4.27-24.29-.21-.71-2.52-.26-2.56-.38-5.63,4.94-6.42-2.04-6.83-2.28-.17-.09-2.55.08-3.84-.76-9.34-6.06-7.77-9.68-.43,12.14Z"/>
              <path class="cls-17" d="m33.83,487.49q-.85.76-1.71,1.52c.41.23,1.2,7.21,6.83,2.28-.03-.11-.01-2.11,0-2.28-.79-2.58-3.78-1-5.12-1.52Z"/>
              <path class="cls-45" d="m39.39,517.09c-1.09-.55-4,.55-3.84,1.14.43,1.61,6.71.31,3.84-1.14Z"/>
            </g>
          </g>
          <path class="cls-27" d="m431.79,306.83q-2.99,1.9-5.98,3.8c-.68,2.77-2.38,5.32-1.71,8.35,1.79-.16,4.43.61,5.12,2.28.09-.11.66.52,2.56-1.52-2.28-2.21,1.17-5.99,3.42-4.55.89-2.94,2.74-2.45.85-6.07-.25-.49-.78-1.44-.85-1.52-.12-.12-3.06-.57-3.42-.76Z"/>
          <path class="cls-59" d="m447.16,306.08c-.85,4.07.9,5.41.85,5.69-.2,1.17-7.17,4.13-.85,4.93.24-.27.58.04,5.12-5.31,2.04-2.54-2.63-7.4-5.12-5.31Z"/>
          <path class="cls-53" d="m442.89,284.06q-1.28,1.14-2.56,2.28c5.29,9.05,6.91,4,8.54,3.8,1.58-3.45-1.74-4.55-3.42-6.07-1.3-.9-2.43,0-2.56,0Z"/>
          <g>
            <path class="cls-38" d="m418.13,249.15c-4.47,2.01-5.78,2.42-11.1,2.66,1.77,6.78,17.09.78,5.12,7.21,2.95,2.63,2.43,3.59,2.56,3.8,2.74-1.64,2.36,1.28,2.56,1.52.25.29.64,1.1.85,1.52.07.13,2.37,1.19,2.56,1.9-.25,1.4-1.74,3.86-1.71,4.17.09.94,1.69,1.57,1.71,1.9.04.66-2.18,4.65-.85,12.52,11.83,2.99.37,10.59-2.56,4.93-.35-.67.35-2.86,0-3.42-2.57.98-2.41.13-5.12,0,2.64,5.1-3.33,6.83-3.42,8.35,2.59.34,1.67-2.25,3.42,1.52,1.18,2.56,2.27,15.53,3.84,20.49-2.62-.48-2.04-2.7-3.84,0,2.76-.11,2.76,1.78,2.56,3.8,2.54,1.5.66,2.46,5.12,1.52-.05-2.14,1.41-4.3,4.27-4.55-.67-3.03,1.03-5.58,1.71-8.35.64-2.64-.83-5.25,2.13-6.83,1.64-.28,3.62,2.92,3.84,3.04.35.19,3.3.64,3.42.76,2.15-8.56,10.17.42.85,1.52,1.88,3.63.04,3.14-.85,6.07-.04.13,1.29-.43.85,2.66-1.68,1.83-4.12,1.73-4.27,1.9-1.9,2.03-2.47,1.41-2.56,1.52-.74.96,1.98,5.16-3.42,6.07,1.98,3.4,3.73,4.49,7.69,5.31.9-4.23,2.42-1.39,4.27-.76.55.19.75-2,3.42,2.28,2.03-1.36,4.7-.49,5.12-.76.12-.08,1.54-2,1.71-2.28.08-.14.77-2.64.85-3.04.76-3.58-1.63-2.84-1.71-3.8-6.19.86-4.7-1.81-1.71-5.31.58-.68,1.11-1.61,1.71-2.28-6.32-.8.65-3.76.85-4.93.05-.28-1.71-1.63-.85-5.69.84-4,2.3.53,5.98-3.04-5.12.68-2.23-7.14,1.71-4.55-.51-1.66-2.02-2.69-2.56-4.55-.45-1.57-2-1.71.85-4.55-1.61-.26-2.73.56-4.27.76-1.63.21-3.25,5.25-8.54-3.8-.07-.12-1.86-.19-1.71-2.28.13-1.76,2.61-2.47,2.56-3.04,0-.04-1.8-.33,0-.76-4.55-3.22-1.7-5.51-1.71-6.07-.05-2.42-.07-4.42,0-6.83,0-.23-1.3,1.4-.85-3.8.04-.5-.08-1.03,0-1.52-1.9.27-3.6-.26-3.42-2.28-.1.03-1.01-1.12-2.13,0-.49.49-.73,1.54-1.28,2.28-.13.18.13.58,0,.76-.07.1.07.68-.85,2.28-3.61,6.21-3.55.29-4.27,0-.15-.06-.57,0-.85,0-1.12.03-2.52,2.27-2.99,2.28-5.81.08-.66-5.36-2.99-6.83-.85-5.13,3.02,1.13,5.12-3.8-2.82-.06-3.81-2.55-4.27-4.55-.89-3.91,5.46-7.64.43-6.07-.56.17.17,1.61-2.99,3.04Z"/>
            <g>
              <path class="cls-59" d="m412.15,318.22c-2.87,4.3,2.27,3.62,2.56,3.8.2-2.02.19-3.91-2.56-3.8Z"/>
              <path class="cls-45" d="m433.5,332.64c1.09.23,1.88,1.71,4.27-.76-1.85-.63-3.37-3.47-4.27.76Z"/>
              <path class="cls-47" d="m408.73,296.21c-.12,2.21,1.63,2.83,3.42,1.52-1.75-3.77-.83-1.18-3.42-1.52Z"/>
              <path class="cls-59" d="m419.84,286.34c-.11.75-1.79,1.22-2.56,1.52.35.56-.35,2.74,0,3.42,2.93,5.66,14.4-1.94,2.56-4.93Z"/>
              <path class="cls-44" d="m445.46,318.98c-2.99,3.51-4.48,6.17,1.71,5.31-.03-.36,5.32-3.1-1.71-5.31Z"/>
              <path class="cls-59" d="m419.84,260.53c2.33,1.47-2.82,6.91,2.99,6.83.47,0,1.87-2.24,2.99-2.28-.61-1.95-1.91-2.18-2.56-3.04-1.06-1.37-1.51-4.81-3.42-1.52Z"/>
              <path class="cls-53" d="m434.78,285.58c-5.31-1.97-5.57,6.81-.85,6.07,1.97-.31,3.39-5.13.85-6.07Z"/>
              <path class="cls-59" d="m426.24,274.95c-4.38-1.81-6.21,5.08-1.71,5.31,2.61.13,4.43-4.19,1.71-5.31Z"/>
              <path class="cls-17" d="m434.78,268.12c-4.34-1.83-5.03,4.73-1.71,5.31,3.77.66,3.91-4.38,1.71-5.31Z"/>
              <path class="cls-27" d="m425.81,310.63q2.99-1.9,5.98-3.8c-.22-.12-2.2-3.32-3.84-3.04-2.97,1.58-1.49,4.19-2.13,6.83Z"/>
              <path class="cls-60" d="m453.14,303.04c.21-.2,2.37-1.23,2.56-1.9.75-2.56-.81-2.52-.85-2.66-3.94-2.58-6.83,5.23-1.71,4.55Z"/>
              <path class="cls-59" d="m435.21,307.59c.08.08.6,1.03.85,1.52,9.31-1.09,1.29-10.08-.85-1.52Z"/>
              <path class="cls-45" d="m428.8,297.73c-3.39-1.42-5.55,3.31-2.56,4.55,3.39,1.42,5.55-3.31,2.56-4.55Z"/>
              <path class="cls-17" d="m434.78,293.93c-2.92.37-2.42,5.68.85,5.31,3.19-.35,2.07-5.68-.85-5.31Z"/>
              <path class="cls-45" d="m431.79,319.74c.15-.16,2.59-.07,4.27-1.9.44-3.08-.89-2.52-.85-2.66-2.24-1.43-5.7,2.35-3.42,4.55Z"/>
              <path class="cls-62" d="m426.67,265.09c.72.29.66,6.21,4.27,0q0-1.14,0-2.28c-2.02-1.57-4.1.04-4.27,2.28Z"/>
              <path class="cls-59" d="m420.69,252.18c.46,2.01,1.45,4.49,4.27,4.55,1.24-2.92.03-5.54-4.27-4.55Z"/>
              <path class="cls-5" d="m426.24,282.55c-1.82-.39-4.36,3.23-1.71,3.8,1.82.39,4.36-3.23,1.71-3.8Z"/>
              <path class="cls-59" d="m438.62,284.06c3.48-1.24,3.55-.02,4.27,0,.13,0,1.27-.9,2.56,0-1.38-1.26-2.38-2.33-4.27-3.04.04.57-2.44,1.28-2.56,3.04Z"/>
              <path class="cls-29" d="m438.62,284.06c-.15,2.09,1.64,2.16,1.71,2.28q1.28-1.14,2.56-2.28c-.72-.02-.79-1.24-4.27,0Z"/>
              <path class="cls-31" d="m441.61,293.93c-5.03-.53.58,5.01,1.28,1.14.01-.08-1.19-1.13-1.28-1.14Z"/>
              <path class="cls-64" d="m437.34,277.23c-.62-.41-2.75.06-2.13,1.14.67,1.18,3.97.05,2.13-1.14Z"/>
              <path class="cls-45" d="m427.09,295.45c-2.2-1.03-2.47,1.35-.85,1.52.09,0,1.73-1.11.85-1.52Z"/>
              <path class="cls-45" d="m441.61,309.11c-.1-.06-1.4.77-.85,1.52,1.31,1.82,1.94-.83.85-1.52Z"/>
              <path class="cls-59" d="m442.47,313.67c-1.09.68-.46,3.34.85,1.52.54-.75-.76-1.58-.85-1.52Z"/>
              <path class="cls-58" d="m430.94,265.09c.93-1.59.78-2.18.85-2.28h-.85q0,1.14,0,2.28Z"/>
            </g>
          </g>
          <g>
            <path class="cls-38" d="m452.29,311.39c-4.54,5.36-4.88,5.04-5.12,5.31-.59.66-1.13,1.6-1.71,2.28,7.03,2.21,1.68,4.95,1.71,5.31.08.96,2.47.22,1.71,3.8,6.01-1.02,3.2,4.17-.85,3.04-.17.27-1.58,2.2-1.71,2.28,5.91,6.43-1.42,5.7-1.71,6.07-1.97,2.55-2.53,6.19-.85,9.11,3.49-.26,3.74,2.21,5.12,2.28.28.01.57,0,.85,0,3.21-2.56,3.41-1.13,5.12-.76.83.18.84-1.11,1.71-.38,2.1,1.76,6.76,16.26-2.99,4.93-11.96,5.65,3.5,9.49,3.84,10.25.3.64-5.97.59-1.71,12.52,1.37-.33,1.63.61,2.56.76q.43,0,.85,0c4.53-7.6,10.52,6.12-4.27,4.55.04.21.05.56,0,.76,7.44.27,14.08,1.48,4.27,5.69,4.66,3.61,1.8-1.85,5.98,2.66.38.41,1.92,1.13,1.71,0,.1-.6,2.33-6.89,2.56-7.21,5.57-7.84,6.38,8.77,5.98-9.11,9.62-5.95-8.18,1.08,3.42-8.35-5.58-.91-3.54-8.42,1.28-4.93,2.19,1.58-1.54,8.04,2.13,3.42,1.07-1.35,6.08-16.16,5.98-17.46-.32-3.99-15.15-16.87-18.79-20.87-.12-.03-.57.25-2.56,0-.62-.08-2.17,2.07-4.27-.38-.45-2.35,1.65-2.51,1.71-2.66.68-1.71.45-2.53,2.56-3.8q-.43-1.14-.85-2.28c-.41-.31-.53-.45-.85-.76-.59-.56-.42,2.28-4.27-3.8-.03-.05-.24.27-.85-.76-3.5,1.67-5.69-.92-3.42-3.8-.05-.04.19-.84-.85-.76l-.85-.76c-.54,5.12-2.37,3.56-2.56,3.8Z"/>
            <g>
              <path class="cls-59" d="m459.12,378.19c-.2.34.09,7.93-.85,0-.93-.15-1.19-1.09-2.56-.76-6.91,1.68-1.21,3.46-.85,5.31,14.79,1.57,8.8-12.16,4.27-4.55Z"/>
              <path class="cls-59" d="m449.73,350.86c-.03,3.62,6.14,2.91,5.12-.76-1.71-.37-1.91-1.8-5.12.76Z"/>
              <path class="cls-7" d="m448.87,328.09c-.08.4-.77,2.9-.85,3.04,4.06,1.13,6.86-4.06.85-3.04Z"/>
              <path class="cls-59" d="m469.79,361.49c-19.82,1.55-3.49,5.75-2.99,6.45.13.18-2.5,3.2.43,4.17,5.32,1.77,1.21-4.59,1.28-4.93.12-.6,5.01-2.66,1.28-5.69Z"/>
              <path class="cls-59" d="m462.11,328.85c-3.7-1.03-6.38,2.72-4.27,5.31,2.88,3.54,9.98-3.73,4.27-5.31Z"/>
              <path class="cls-33" d="m477.48,347.06c-4.25-1.8-7.9,4.1-3.42,5.31,3.84,1.03,6.66-3.94,3.42-5.31Z"/>
              <path class="cls-59" d="m470.65,372.87c-7.13-.66,2.36,6.62,2.56,8.35,3.68-1.87-.62-8.17-2.56-8.35Z"/>
              <path class="cls-59" d="m460.83,313.67c3.85,6.07,3.68,3.23,4.27,3.8,4.4-2.51.01-6.91-4.27-3.8Z"/>
              <path class="cls-17" d="m470.65,352.38c-2.39-.9-5.69,3.32-2.56,4.55,3.58,1.41,5.43-3.47,2.56-4.55Z"/>
              <path class="cls-59" d="m468.94,378.94c-3.82-1.35-4.89,5.3-1.71,5.31.67,0,5.11-4.11,1.71-5.31Z"/>
              <path class="cls-59" d="m462.96,369.08c-4.37-1.73-4.72,4.22-1.71,4.55,2.14.24,4.48-3.46,1.71-4.55Z"/>
              <path class="cls-36" d="m456.56,309.11c-2.28,2.88-.08,5.46,3.42,3.8-.59-.99,1.11-1.71.85-2.66-.73-1.08-4.1-1.01-4.27-1.14Z"/>
              <path class="cls-29" d="m459.55,337.2c-3.44-1.26-4.17,4.57-.85,4.55,2.8-.01,2.84-3.83.85-4.55Z"/>
              <path class="cls-59" d="m464.24,324.29c-.06.14-2.16.31-1.71,2.66,2.1,2.45,3.65.3,4.27.38.3-1.69-.29-3.2-2.56-3.04Z"/>
              <path class="cls-40" d="m465.52,340.23c-3.25-.96-4.67,3.54-1.71,3.8,2.01.17,4.28-3.04,1.71-3.8Z"/>
              <path class="cls-39" d="m478.33,339.47c-2.01-.3-2.53,2.03-.85,2.28,2.01.3,2.53-2.03.85-2.28Z"/>
              <path class="cls-13" d="m475.77,357.69c-2.54-1.54-1.81,2.17-.85,2.28,1.76.19,1.69-1.77.85-2.28Z"/>
              <path class="cls-20" d="m459.12,378.19q-.43,0-.85,0c.95,7.93.65.34.85,0Z"/>
              <path class="cls-59" d="m484.31,352.38c-.31,0-1.88,1.09-.43,1.9,1.63.9,1.9-1.9.43-1.9Z"/>
              <path class="cls-59" d="m466.8,320.5c1.37-1.73.42-1.33-.85-2.28q.43,1.14.85,2.28Z"/>
              <path class="cls-59" d="m454.85,307.59l.85.76q.43-.57.85-1.14l-1.71.38Z"/>
            </g>
          </g>
          <g>
            <path class="cls-27" d="m374.57,293.93c.23.59,11.01,7.77,11.1,4.55-5.4-9.18,5.41-10.49,2.56,0,1.4.22-5.25,2.89,10.25.76q1.71-1.14,3.42-2.28c-.06-.49.09-1.04,0-1.52-.18-.93-2.48-1.55-1.71-4.93,1.66-7.26,11.24-2.69,11.96-2.66,2.72.13,2.55.98,5.12,0-.94-1.5-5.82-8.58-6.4-9.11-1.92-1.76-6.1.55-8.11-1.52l-3.42,1.52c.15.38-.15,1.15,0,1.52.11.27,5.37,3.19,1.28,4.55-3.55,1.18-2.81-3.48-2.99-3.8-.06-.11-1.32.32-1.71-.38-.19-.33.32-4.58-1.71-5.69-1.43,1.21-.6,2.17-1.28,2.28-16.73-9.72-16.33,15.88-20.92,4.93-.51-1.21-.59-7.56-1.71-9.87-4.5-9.27,2.51,13.4-2.99,1.9,1.03,3.61,2.65,14.09,2.99,14.8.59,1.24,4.82,1.81,5.98,3.8.22.37-2.06.24-1.71,1.14Z"/>
            <g>
              <path class="cls-28" d="m385.68,298.49c.83.08,1.75-.13,2.56,0,2.85-10.49-7.96-9.18-2.56,0Z"/>
              <path class="cls-54" d="m398.49,299.24c.46-.06,1.38,1.19,3.84.76,1.44-2.77-.41-2.88-.43-3.04q-1.71,1.14-3.42,2.28Z"/>
              <path class="cls-59" d="m382.69,280.27c-2.47,0-4.7,2.41-4.7,2.66.06,2.17,4.56-.38,5.12.76.2.39-6.95,7.65.43,5.69,1-.27,8.96-9.13-.85-9.11Z"/>
              <path class="cls-59" d="m390.37,277.23c-1.22-.29-8.7-.47-8.11,1.14,10.83,7.16,13.75.19,8.11-1.14Z"/>
              <path class="cls-45" d="m391.23,284.82c-2.98-1.08-4.27,3.69-1.71,4.55,3.98,1.34,3.81-3.79,1.71-4.55Z"/>
              <path class="cls-59" d="m397.63,281.03c.18.31-.56,4.98,2.99,3.8,4.09-1.36-1.17-4.28-1.28-4.55l-1.71.76Z"/>
            </g>
          </g>
          <g>
            <g>
              <path class="cls-59" d="m446.31,168.69c-1.07.05-7.61,2.24-8.54,3.04-6.27,5.34-5.4,26.78,8.54,24.29-.76-.99-9.23-5.28-4.27-12.52,3.47-5.07,15.44-6.31,18.79-.38.32-8.8-3.75-14.94-14.52-14.42Z"/>
              <path class="cls-1" d="m446.31,196.01c.14.18,1.35-.08,3.42,3.04,2.32-1.71,4.59.49,4.27,3.04,3.25-1.76-.96-4.06-.85-4.93.13-1.08,7.29-2.97,7.69-14.04-3.35-5.93-15.32-4.69-18.79.38-4.96,7.25,3.51,11.53,4.27,12.52Z"/>
            </g>
            <g>
              <path class="cls-27" d="m438.62,154.27h-.85c3.31,4.54,6.58,9.25,8.54,14.42,10.77-.52,14.83,5.62,14.52,14.42-.4,11.07-7.55,12.97-7.69,14.04-.11.87,4.1,3.18.85,4.93-5.72,3.1-4.06-2.71-4.27-3.04-2.07-3.12-3.28-2.86-3.42-3.04-13.94,2.49-14.81-18.94-8.54-24.29-4.1-2.22-6.31-9.4-10.25-9.11-3-.38-2.43.78-2.56.76-.4,18.18,8.24,16.96,0,18.22,1.12,7.8-11.05,41.35-11.96,53.13,4.19,1.24,5.37,2.84,10.25,3.8,1.35.27,3.24.74,3.42.76.79.07.94-.85,1.71-.76-.86-7.28-1.13-14.73-2.13-22.01,16.53,12.78,37.61,22.6,59.35,25.81-4.21-33.99,29.02-25.72,30.74-27.71-3.78-7.55-6.63-15.27-9.39-23.15-.95-2.71-1.54-5.63-2.56-8.35-1.94-5.17-4.87-10.23-4.27-15.94-1.83-1.1-5.63-5.81-5.98-6.07-2.52-1.89-7.69-3.23-10.25-5.31-3.37.25-9.12.66-11.1-1.52-12.34.49-22.78-1.15-34.16,0Z"/>
              <g>
                <path class="cls-59" d="m492,186.9c-9.76-3.31-9.53,11.1-.85,9.11,3.56-.82,4.72-7.8.85-9.11Z"/>
                <path class="cls-59" d="m445.88,211.95c-5.24-1.34-4.41,4.57-.85,4.55,2.67-.01,4.07-3.73.85-4.55Z"/>
                <path class="cls-45" d="m479.19,210.44c-4.58-1.91-4.81,4.79-.85,4.55,2.84-.17,2.85-3.72.85-4.55Z"/>
                <path class="cls-45" d="m481.75,157.3c-2.95-1.07-4.29,3.62-1.71,4.55,2.95,1.07,4.29-3.62,1.71-4.55Z"/>
                <path class="cls-59" d="m449.73,199.05c.21.32-1.45,6.13,4.27,3.04.32-2.55-1.95-4.75-4.27-3.04Z"/>
                <path class="cls-59" d="m463.82,210.44c-2.8.01-2.84,3.83-.85,4.55,3.44,1.26,4.17-4.57.85-4.55Z"/>
                <path class="cls-45" d="m454.42,221.82c-4.07-1.58-4.67,3.41-1.71,3.8,2.27.3,3.54-3.08,1.71-3.8Z"/>
                <path class="cls-17" d="m498.83,183.87c-3.67-1.27-3.17,3.72-.85,3.8,2.51.09,2.92-3.08.85-3.8Z"/>
                <path class="cls-11" d="m466.38,230.17c-2.62-.08-2.81,3.22-.85,3.8,3.37,1,3-3.73.85-3.8Z"/>
              </g>
            </g>
          </g>
          <g>
            <path class="cls-1" d="m428.38,238.52c.06.5,5.08,3.35-2.13,6.83-2.31-1.77-.25-.54.43-3.04-3.13,1.61-7.01-1.11-3.42-3.8-4.87-.96-6.06-2.56-10.25-3.8-.11,1.47.68,1.76,1.71,2.66-4.02.88-5.43,1.81-6.83,5.31h5.12c-8.25,4.87.75,2.57-3.42,6.07,3.4-.13,8.45-5.86,8.54.38,3.16-1.42,2.43-2.86,2.99-3.04,5.03-1.56-1.31,2.17-.43,6.07,4.3-.98,5.51,1.64,4.27,4.55-2.1,4.92-5.98-1.34-5.12,3.8,1.9-3.29,2.36.14,3.42,1.52,4.28-1.66,1.33-2.97,5.98-2.28.79.12,1.8-.18,2.13,0,.93.48-.29.58-.43,1.52-.09.58.21.84.85.76.55-.74.79-1.79,1.28-2.28,1.12-1.12,2.03.03,2.13,0,10.1-3.08,3.49,1.81,3.42,2.28-.08.49.04,1.02,0,1.52,4.24-.19,4.45,2.2.85,3.8-.07,2.41-.05,4.41,0,6.83,5.33-2.83,7.77,5.24,1.71,6.07-1.8.43,0,.72,0,.76,1.89.71,2.89,1.77,4.27,3.04,1.67,1.53,4.99,2.62,3.42,6.07,1.54-.2,2.66-1.01,4.27-.76,4.85.77,4.23,4.03-.85,4.55.54,1.87,2.05,2.89,2.56,4.55.04.13,1.6.1.85,2.66-.2.67-2.35,1.69-2.56,1.9-3.68,3.56-5.14-.97-5.98,3.04,2.5-2.08,7.16,2.77,5.12,5.31.2-.23,2.03,1.32,2.56-3.8l1.71-.38q-.43.57-.85,1.14c1.04-.08.81.72.85.76.17.13,3.54.05,4.27,1.14.25.95-1.44,1.67-.85,2.66.61,1.03.82.71.85.76,4.28-3.11,8.67,1.29,4.27,3.8.33.31.44.45.85.76,1.27.95,2.23.55.85,2.28-2.12,1.27-1.88,2.08-2.56,3.8,2.27-.17,2.86,1.35,2.56,3.04,1.99.25,2.44-.03,2.56,0,6.24,1.77,14.72,12.04,20.07,15.94,2.67-4.9.59-11.56,5.55-14.04-6.3-16,1.31-10.99,1.71-12.9,1.29-6.14-5.18-47.35-2.56-58.45-4.49-6.35-7.61-8.08-8.54-15.56-21.74-3.21-42.82-13.02-59.35-25.81,1.01,7.29,1.27,14.73,2.13,22.01Z"/>
            <g>
              <path class="cls-59" d="m439.48,274.2c.01.57-2.84,2.85,1.71,6.07,6.06-.83,3.62-8.9-1.71-6.07Z"/>
              <path class="cls-37" d="m423.25,262.05c.65.85,1.95,1.08,2.56,3.04.28,0,.7-.06.85,0,.17-2.24,2.25-3.85,4.27-2.28h.85c.13-.18-.13-.58,0-.76-.65.08-.94-.18-.85-.76q-.85-.76-1.71-1.52c-4.65-.7-1.7.62-5.98,2.28Z"/>
              <path class="cls-17" d="m435.21,259.77c-.19,2.02,1.52,2.55,3.42,2.28.08-.46,6.68-5.35-3.42-2.28Z"/>
              <path class="cls-59" d="m453.14,289.38c-2.85,2.84-1.31,2.99-.85,4.55,5.08-.53,5.7-3.78.85-4.55Z"/>
              <path class="cls-17" d="m438.62,263.57c-.45,5.2.86,3.56.85,3.8,3.59-1.59,3.39-3.98-.85-3.8Z"/>
              <path class="cls-18" d="m428.38,238.52c-.77-.09-.92.82-1.71.76-.15.95.24,2.16,0,3.04-.67,2.5-2.73,1.27-.43,3.04,7.22-3.48,2.19-6.33,2.13-6.83Z"/>
              <path class="cls-59" d="m423.25,238.52c-3.59,2.68.28,5.4,3.42,3.8.24-.87-.15-2.09,0-3.04-.18-.01-2.06-.49-3.42-.76Z"/>
              <path class="cls-59" d="m486.87,286.34c-6.8,4.54-4.11,7.39-4.7,8.73-.26.6-10.74,5.05,5.12,3.04-7.75-4.75-1.88-7.71,1.28-6.45.55.22,7.92,12.52,4.7,3.42-.18-.5-5.7-5.26-6.4-8.73Z"/>
              <path class="cls-59" d="m481.75,277.23c-4.7,3.39-1.47,7.51-4.7,11.01-9.01-3.66.48,1.5,1.28,4.93,2.07-5.15,5.2-10.31,3.42-15.94Z"/>
              <path class="cls-17" d="m450.15,251.42c-.88,1.88-1.43,3.62-1.28,5.69.49,6.8,7.52,9.75,1.28-5.69Z"/>
              <path class="cls-59" d="m466.38,280.27c-5.13-.1-.94,8.12,2.56,6.07,1.37-.8-1.36-6.05-2.56-6.07Z"/>
              <path class="cls-59" d="m477.48,318.22c-4.71-1.99-5.78,3.61-2.56,4.55,3.95,1.16,5.26-3.41,2.56-4.55Z"/>
              <path class="cls-59" d="m488.58,300.76c-6.3-.37-3.98,6.77,4.7,2.66-.4-3.08-2.37-.58-4.7-1.14-1.01-.24,1.11-1.45,0-1.52Z"/>
              <path class="cls-17" d="m449.3,265.09c-5.09-1.12-4.7,4.2-.85,4.55,4.11.37,4.18-3.82.85-4.55Z"/>
              <path class="cls-59" d="m459.55,262.81c-2.15-1.18-6.08,4.37-4.27,5.31,3.97,2.08,5.32-4.74,4.27-5.31Z"/>
              <path class="cls-14" d="m462.11,287.1c-.57-.18-7.83,1.36,1.71,6.83-.43-1.23-.69-6.51-1.71-6.83Z"/>
              <path class="cls-17" d="m460.4,271.92c-.78-.17-1.9.62-2.13,1.14-5.18,11.63,8.96.34,2.13-1.14Z"/>
              <path class="cls-59" d="m444.17,254.46c-2.25-.74-5.13,1.56-4.7,2.66,1.4,3.54,8.94-1.27,4.7-2.66Z"/>
              <path class="cls-59" d="m439.9,246.87c-.18,0-2.86,1.53-2.99,1.9-2.09,6.26,11.4-1.98,2.99-1.9Z"/>
              <path class="cls-59" d="m473.21,277.23c-2.82.35-.38,7.16.85,6.83,1.35-.36,1.68-7.15-.85-6.83Z"/>
              <path class="cls-59" d="m458.69,283.3c-5.42-1.18-1.62,5.74,1.71,3.8,1.51-.88-.81-3.6-1.71-3.8Z"/>
              <path class="cls-59" d="m472.36,271.16c-2.94,1.2,4.74,8.2,4.7,3.42,0-.27-4.42-3.53-4.7-3.42Z"/>
              <path class="cls-45" d="m419.41,240.8c-4.11-1.09-3.63,3.19-1.71,3.8,1.53.48,4.49-3.05,1.71-3.8Z"/>
              <path class="cls-59" d="m432.22,239.28c-.98.38.02,2.97.43,3.42,6.72,7.4,2.01-4.36-.43-3.42Z"/>
              <path class="cls-49" d="m433.07,243.83c-3.03,1.29,4.69,12.59,2.13,2.66-.04-.16-1.97-2.73-2.13-2.66Z"/>
              <path class="cls-59" d="m460.4,304.56c-1.27-.6-3.58,1.02-2.99,1.9,1.06,1.58,4.84-1.02,2.99-1.9Z"/>
              <path class="cls-59" d="m480.9,272.68c-2.65-.61-3.95,2.4-2.56,3.04.19.09,3.28-2.58,2.56-3.04Z"/>
              <path class="cls-59" d="m456.98,255.98c-2.11-.27-2.45,2.1-.85,2.28.64.07,3.34-1.95.85-2.28Z"/>
              <path class="cls-59" d="m473.21,289.38c-.62-.41-2.75.06-2.13,1.14.67,1.18,3.97.05,2.13-1.14Z"/>
              <path class="cls-39" d="m476.63,325.81c-.95.49-.71,4.31.85,2.28.97-1.26-.71-2.35-.85-2.28Z"/>
              <path class="cls-59" d="m453.57,275.71c-.31,0-1.88,1.09-.43,1.9,1.63.9,1.9-1.9.43-1.9Z"/>
              <path class="cls-9" d="m429.23,259.77q.85.76,1.71,1.52c.14-.93,1.36-1.03.43-1.52-.34-.18-1.35.12-2.13,0Z"/>
              <path class="cls-59" d="m468.94,287.86c-.31,0-1.88,1.09-.43,1.9,1.63.9,1.9-1.9.43-1.9Z"/>
              <path class="cls-49" d="m482.6,315.94c-1.28-.45-1.88,1.15-.85,1.52,1.28.45,1.88-1.15.85-1.52Z"/>
            </g>
          </g>
          <g>
            <path class="cls-27" d="m363.47,164.89q-4.27-15.94-8.54-31.88c-2.42-.05-4.84.03-7.26,0,.47,11.94,6.39,23.21,15.8,31.88Z"/>
            <path class="cls-55" d="m417.27,162.62c-3.39.79-9.7,11.33-10.25,13.66,6.5-.86,16.82-2.43,17.93,5.31,8.24-1.26-.4-.03,0-18.22-1.96-.31-7.03-.44-7.69-.76Z"/>
            <path class="cls-27" d="m374.57,169.45c1.62-3.89-4.14-10.42-4.27-11.01-.45-2.04,1.68-3.23,1.71-3.42.09-.67-1.96-1.47,0-3.8,2.67-3.17,7.38-.84,7.69-3.8-2.6,1.67-5.46.4-3.42-2.28-4.4-.36-8.6-.45-12.81,1.9,4.3,7.17,6.89,15.23,11.1,22.39Z"/>
            <path class="cls-59" d="m383.97,148.19c-4.42,7.2,7.03,5.87,7.69,6.07,6.03-7.84-4.51-11.24-7.69-6.07Z"/>
            <g>
              <path class="cls-38" d="m363.47,164.89c6.17,5.69,6.47,5.74,14.52,9.11-1.11-1.96-2.18-2.45-3.42-4.55-4.21-7.17-6.8-15.23-11.1-22.39,4.21-2.34,8.41-2.26,12.81-1.9,1.8.15,1.84.23,3.42.76,2.1.7,1.73-.07,4.27,2.28,3.18-5.17,13.72-1.76,7.69,6.07.2.06,2.74,1.82,3.42,2.28,3.44-2.98,6.39-1.06,5.98,3.04,6.04,1.74,4.03,2.24,4.27,2.28,1.66.28,1.99.65,2.56.76,1.94.38,6.18-.09,7.69-1.52-2.08-6.18-6.77-11.19-11.53-15.94-17.14-6.55-29.41-11.77-49.1-12.14q4.27,15.94,8.54,31.88Z"/>
              <path class="cls-59" d="m395.07,156.54c.19.13-.4,2.89,2.13,3.8,1.79.64,3.54-.85,3.84-.76.42-4.09-2.53-6.02-5.98-3.04Z"/>
              <path class="cls-45" d="m376.28,145.16c-2.04,2.67.82,3.95,3.42,2.28.05-.5-.02-1.02,0-1.52-1.57-.53-1.62-.61-3.42-.76Z"/>
              <path class="cls-17" d="m399.77,145.16c-3.76-.99-3.8,2.34-1.71,3.04,2.53.84,4.14-2.4,1.71-3.04Z"/>
            </g>
            <g>
              <path class="cls-27" d="m379.7,145.92c-.02.5.05,1.02,0,1.52-.31,2.96-5.02.63-7.69,3.8,7.1-.86,6.47,3.98,0,3.8-.03.19-2.16,1.37-1.71,3.42.13.59,5.89,7.11,4.27,11.01,1.24,2.11,2.31,2.6,3.42,4.55,21.89,9.15,22.31,3.17,29.04,2.28.55-2.33,6.86-12.87,10.25-13.66-.11-.05-.35-1.37-1.71-1.52-1.51,1.43-5.75,1.9-7.69,1.52-.6,8.5-11.4,1.1-2.56-.76-.24-.04,1.77-.54-4.27-2.28-.31-.09-2.05,1.4-3.84.76-2.53-.9-1.94-3.67-2.13-3.8-.68-.46-3.21-2.21-3.42-2.28-.66-.2-12.11,1.13-7.69-6.07-2.54-2.35-2.17-1.58-4.27-2.28Z"/>
              <g>
                <path class="cls-20" d="m405.32,161.86c-8.84,1.86,1.96,9.26,2.56.76-.57-.11-.9-.47-2.56-.76Z"/>
                <path class="cls-59" d="m394.64,163.37c-8.25-1.88-7.79,9.45,0,7.59,3.72-.89,3.67-6.75,0-7.59Z"/>
                <path class="cls-59" d="m378.84,161.1l2.56,2.28c6.57-3.55,1.17-8.09-2.56-2.28Z"/>
                <path class="cls-59" d="m372.01,151.23c-1.96,2.33.09,3.13,0,3.8,6.47.18,7.1-4.65,0-3.8Z"/>
                <path class="cls-8" d="m381.41,163.37l-2.56-2.28c-2.56,3.98-2.02,4.75,2.56,2.28Z"/>
                <path class="cls-59" d="m402.33,173.24c-1.49-1.04-3.99,1.37-3.84,1.9.8,2.88,6.96.28,3.84-1.9Z"/>
                <path class="cls-59" d="m395.5,174.76c-2.71-.75-4.05,2.39-1.71,3.04,2.71.75,4.05-2.39,1.71-3.04Z"/>
              </g>
            </g>
          </g>
          <g>
            <path class="cls-24" d="m394.22,274.95c2.02,1.12,1.52,5.36,1.71,5.69.39.7,1.64.27,1.71.38l1.71-.76c-.15-.36.15-1.14,0-1.52-3.55-9.2,5.99-6.2,3.42-1.52,2.01,2.07,6.19-.24,8.11,1.52.58.53,5.46,7.61,6.4,9.11.78-.3,2.45-.77,2.56-1.52-1.32-7.87.89-11.87.85-12.52-.02-.32-1.62-.95-1.71-1.9-4.61.43-4.78-4.1-.85-6.07-.22-.42-.6-1.23-.85-1.52-2.06,1.26-1.31.38-2.56-1.52-.14-.21.39-1.17-2.56-3.8-7.09-6.32-4.42.16-6.4,0-.43-.03-2.51-6.97-5.55-3.42,4.82,4.06-.98,5.81-.85,6.83.15,1.16,2.22-1.16,3.42.76,2.53,4.05-2.25,6.44-8.54,11.77Z"/>
            <path class="cls-43" d="m418.98,271.92c-.03-.32,1.46-2.77,1.71-4.17-.2-.71-2.49-1.76-2.56-1.9-3.92,1.97-3.76,6.5.85,6.07Z"/>
            <path class="cls-30" d="m414.71,262.81c1.25,1.9.5,2.78,2.56,1.52-.2-.23.17-3.16-2.56-1.52Z"/>
            <path class="cls-59" d="m399.34,278.75l3.42-1.52c2.57-4.68-6.97-7.68-3.42,1.52Z"/>
            <path class="cls-13" d="m410.01,259.77c-4.87-1.06-1.39,4.56,0,4.55,1.79,0,2.94-3.91,0-4.55Z"/>
          </g>
        </g>
        <g>
          <path class="cls-24" d="m494.13,161.1c.35.26,4.15,4.97,5.98,6.07q7.47,0,14.94,0c-16.45-5.41,1.71-1.12,6.83-3.8-6,7.72,18.05.92,22.63-.76-.92-1-4.4-.83-7.69-1.52-3.61-.76-5.58-1.26-9.39-1.52-5.88-.4-4.01-.75-4.27-.76-4.24-.12-17.95,3.61-19.64-.38-.44-1.04,8.44-20.31,13.66-9.49h.85c.41-4.24,4.61,2.82,6.83-.38,1.61-2.31,1.03-4.69-1.71-5.69-.47-.17-6.5,3.73-2.56-5.31-.65-.04-.94-.12-.85-.76-13.63,5.42-16.26,15.17-25.62,24.29Z"/>
          <path class="cls-27" d="m559.04,129.98c-1.02,6.98-14.59,8.6-15.37,9.11-.25.16-.13,3.23-3.42,4.55,8.92,3.76,2.15,4.32,4.27,7.59,4.33-6.44,3.24-.72,3.42,1.52.08.97-.26,1.05,0,2.28,5.67.18,2.63,2.78,2.56,3.04-.14.53.24.85.85.76,7.28-4.46,19.1-14.62,11.96-21.63,4.5,7.86,9.59-6.04,9.39-6.83-.26-1.85-9.68-.64-13.66-.38Z"/>
          <path class="cls-24" d="m519.75,136.81c-.09.64.2.71.85.76,4.57.31,6.01-.74,2.56,5.31,2.74,1,3.32,3.39,1.71,5.69-2.23,3.19-6.43-3.86-6.83.38,3.32-.27,5.49,2.16,3.42,4.55,4.65,2.15,8.48,2.91,13.66,3.8-.07-.9,1.42-2.87.85-6.45-.07-.46-3.53-4.12-2.56-9.11.12-.64,1.68-.31,1.71-.38,1.79-4.57,2.28-8.41,8.54-2.28.79-.51,14.35-2.13,15.37-9.11-10.08.65-30.31,3.26-39.28,6.83Z"/>
          <path class="cls-6" d="m535.12,157.3c.02.2,2.12,2.79,1.71,3.8,3.29.69,6.76.52,7.69,1.52,5.51-2.02,6.5-3.59,6.83-3.8-.61.09-.99-.23-.85-.76-3.05.05-2.28-1.67-2.56-3.04-.26-1.23.08-1.31,0-2.28-1.98.25-2.43,0-3.42-1.52-2.12-3.28,4.65-3.83-4.27-7.59-.26-.11-1.76.64-5.12-2.28-.03.07-1.58-.26-1.71.38-.96,4.99,2.49,8.64,2.56,9.11.57,3.58-.92,5.55-.85,6.45Z"/>
          <path class="cls-27" d="m523.17,158.82c.4-3.82,4.99-2.64,4.27.76,3.81.26,5.78.76,9.39,1.52.41-1.01-1.69-3.59-1.71-3.8-5.19-.89-9.01-1.64-13.66-3.8-.48-.22-3.53.74-5.12-1.9-.67-1.11,1.03-2.3.85-2.66-5.22-10.82-14.1,8.45-13.66,9.49,1.69,3.99,15.4.26,19.64.38Z"/>
          <path class="cls-21" d="m520.61,137.57c-3.94,9.05,2.09,5.14,2.56,5.31,3.45-6.05,2.01-5-2.56-5.31Z"/>
          <path class="cls-45" d="m518.04,148.95h-.85c.17.36-1.53,1.55-.85,2.66,1.6,2.64,4.65,1.68,5.12,1.9,2.07-2.39-.09-4.83-3.42-4.55Z"/>
          <path class="cls-59" d="m523.17,158.82c.26,0-1.61.36,4.27.76.72-3.4-3.87-4.58-4.27-.76Z"/>
          <path class="cls-59" d="m535.12,141.36c3.36,2.92,4.87,2.17,5.12,2.28,3.28-1.32,3.17-4.39,3.42-4.55-6.26-6.13-6.75-2.3-8.54,2.28Z"/>
          <path class="cls-45" d="m544.52,151.23c.98,1.52,1.44,1.77,3.42,1.52-.18-2.24.92-7.96-3.42-1.52Z"/>
          <path class="cls-54" d="m547.93,155.02c.29,1.37-.49,3.09,2.56,3.04.07-.26,3.11-2.86-2.56-3.04Z"/>
        </g>
      </g>
    </g>
  </g>
</svg>