<?xml version="1.0" encoding="UTF-8"?>
<svg id="Calque_2" data-name="Calque 2" xmlns="http://www.w3.org/2000/svg" viewBox="0 0 976.02 223.36">
  <defs>
    <style>
      .cls-1 {
        fill: #cadddd;
      }

      .cls-1, .cls-2, .cls-3, .cls-4, .cls-5, .cls-6, .cls-7, .cls-8, .cls-9, .cls-10, .cls-11, .cls-12, .cls-13, .cls-14, .cls-15, .cls-16, .cls-17, .cls-18, .cls-19, .cls-20, .cls-21, .cls-22, .cls-23, .cls-24, .cls-25, .cls-26, .cls-27, .cls-28, .cls-29, .cls-30, .cls-31, .cls-32, .cls-33 {
        stroke-width: 0px;
      }

      .cls-2 {
        fill: #e2eaea;
      }

      .cls-3 {
        fill: #21729b;
      }

      .cls-4 {
        fill: #3f8e9f;
      }

      .cls-5 {
        fill: #4b99bb;
      }

      .cls-6 {
        fill: #6b8b99;
      }

      .cls-7 {
        fill: #aec7d7;
      }

      .cls-8 {
        fill: #949fa3;
      }

      .cls-9 {
        fill: #0e5173;
      }

      .cls-10 {
        fill: #71838e;
      }

      .cls-11 {
        fill: #a4c3e5;
      }

      .cls-12 {
        fill: #537487;
      }

      .cls-13 {
        fill: #505969;
      }

      .cls-14 {
        fill: #296466;
      }

      .cls-15 {
        fill: #a5bbbe;
      }

      .cls-16 {
        fill: #3283ac;
      }

      .cls-17 {
        fill: #566b72;
      }

      .cls-18 {
        fill: #b9c5ca;
      }

      .cls-19 {
        fill: #feffff;
      }

      .cls-20 {
        fill: #96bbc2;
      }

      .cls-21 {
        fill: #84a4ba;
      }

      .cls-22 {
        fill: #34555c;
      }

      .cls-23 {
        fill: #33618b;
      }

      .cls-24 {
        fill: #b9d3df;
      }

      .cls-25 {
        fill: #687072;
      }

      .cls-26 {
        fill: #82a6ab;
      }

      .cls-27 {
        fill: #e0e9f7;
      }

      .cls-28 {
        fill: #edf4f7;
      }

      .cls-29 {
        fill: #94c0d0;
      }

      .cls-30 {
        fill: #56789a;
      }

      .cls-31 {
        fill: #226e7d;
      }

      .cls-32 {
        fill: #11628e;
      }

      .cls-33 {
        fill: #abafb1;
      }
    </style>
  </defs>
  <g id="Décor">
    <g>
      <g>
        <path class="cls-27" d="m.25,1.16V0c0,.07,1.91.45,1.91.87,0,.47-1.91.23-1.91.29Z"/>
        <g>
          <g>
            <path class="cls-7" d="m126.03,216.32c-2,5.56,7.48,3.64,4.76,1.16,3.22.18,5.21-.06,7.15-1.74,6.94,3.91,9.58-1.68,15.25,2.32,4.63-2.23,10.27.27,15.25.58,4.59.29,31.85.71,33.35,1.16.84.25-2.04,1.78-.48,3.48-3.49,0-6.99,0-10.48,0-.88-1.67-5.35-1.75-4.76,0-15.56-.01-31.13.02-46.69,0-4.73-3.38-21.44-3.11-12.39,0-8.26-.01-16.52.01-24.77,0-3.08-3.43-10.75-2.85-14.29,0-3.18,0-6.35,0-9.53,0-1.8-6.39,14.9,2.55.95-6.96,7.09-3.84,17.43,4.08,30.97-1.16,13.85,4.43,5.89-1.56,6.19-2.03.84-1.26,9.97-1.85,3.81,2.9,1.89,1.7,2.72.06,5.72.29Z"/>
            <path class="cls-21" d="m79.34,216.32c13.94,9.51-2.75.57-.95,6.96-1.27,0-2.54,0-3.81,0-10.41-6.79-8.84-2.2,3.81-7.54.43.23.58.32.95.58Z"/>
            <path class="cls-19" d="m139.37,223.28c-4.13,0-8.26,0-12.39,0-9.05-3.11,7.65-3.38,12.39,0Z"/>
            <path class="cls-21" d="m102.21,223.28c-1.59,0-3.18,0-4.76,0-.65-1.53-4.66-1.81-5.72,0-1.27,0-2.54,0-3.81,0,3.54-2.85,11.21-3.43,14.29,0Z"/>
            <path class="cls-27" d="m97.44,223.28c-1.91,0-3.81,0-5.72,0,1.06-1.81,5.07-1.53,5.72,0Z"/>
            <path class="cls-26" d="m190.82,223.28c-1.59,0-3.18,0-4.76,0-.59-1.75,3.88-1.67,4.76,0Z"/>
            <g>
              <path class="cls-19" d="m78.38,215.74c-12.66,5.34-14.22.74-3.81,7.54-16.82-.04-33.68.18-50.5,0-.85-1.41-2.01-1.41-2.86,0-2.85-.04-5.73.07-8.58,0q5.48-2.32,10.96-4.64-6.43,2.32-12.86,4.64c-3.47-.12-7,.08-10.48,0-.1-3.48.14-6.96,0-10.44,20.98-1.56,41.61.08,62.41,1.16.25.01,1.76-1.22,1.91-1.16,2.17.8-5.22,2.84,13.34,1.16,2.49.95.08,1.53.48,1.74Z"/>
              <path class="cls-15" d="m12.63,223.28c-.63-.02-1.27.02-1.91,0q6.43-2.32,12.86-4.64-5.48,2.32-10.96,4.64Z"/>
              <path class="cls-8" d="m24.07,223.28c-.95-.01-1.91.01-2.86,0,.85-1.41,2.01-1.41,2.86,0Z"/>
            </g>
          </g>
          <g>
            <path class="cls-5" d="m962.65,72.49c.43,13.67-7.32,18.32,13.34,16.82-.03,19.33.08,38.66,0,58-3.54.05-3.54,1.69,0,1.74-.08,24.74.06,49.49,0,74.23-46.06.04-92.11-.06-138.17,0,2.52-3.3-7.94-3.35-6.67,0-27.95.03-55.9-.02-83.85,0-1.33-3.07-11.16-3.77-8.58,0-10.48,0-20.96,0-31.44,0,2.64-2.84-3.57-3.25-2.86,0-167.7.09-335.42.12-503.12,0-1.56-1.7,1.31-3.23.48-3.48-1.5-.45-28.77-.87-33.35-1.16-4.98-.31-10.62-2.81-15.25-.58-5.67-4-8.31,1.59-15.25-2.32-1.93,1.68-3.93,1.92-7.15,1.74-1.19-.07,1.02-.72-4.76-1.16-2.99-.23-3.83,1.41-5.72-.29,6.16-4.75-2.98-4.16-3.81-2.9-.31.47,7.65,6.46-6.19,2.03-13.54,5.24-23.88-2.68-30.97,1.16-.38-.26-.52-.35-.95-.58-.4-.21,2.01-.79-.48-1.74-18.56,1.68-11.17-.36-13.34-1.16-.15-.06-1.66,1.17-1.91,1.16-20.8-1.08-41.43-2.72-62.41-1.16-.06-1.54.05-3.09,0-4.64,6.79-1.14,6.29-4.39,0-5.22-.58-33.82.05-67.67,0-101.49,8.35,6.35,17.27,12.71,24.77,19.43,5.17,4.63,5.31,11.23,14.29,10.44-6.52.42-4.7,5-1.43,6.67.44.22-.62-2.34,8.1,2.03-.55.94-6.46-1.69-7.62-.58-1.54,1.46,13.3,24.38,29.54,28.71.25.07.65-.06.95,0,6.22,4.21,14.57,6.51,22.87,8.7,2.23.59,4.37,1.24,6.67,1.74,6.66,1.43,17.07,3.34,23.82,4.06,13.59,1.45,29.09,2.08,42.88,1.74,22.61-.55,8.08-.33,19.06-4.64-3.41,5.65,5.26,5.01,12.39,2.9,5.24-1.55,4.12-2.16,7.15-5.22-5.2,5.86,7.63,5.81,8.1,4.93.91-1.7-2.63-1.53-2.86-2.32-1.78-6.29,2.95-.93,3.34-.87,1.32.2,3.63-2.17,6.67,1.16,2.39-3.41,15.95-4.96,21.92-6.96.69-.23,3.81-2.14,13.34-5.22,2.45-.79.02-1.44.95-1.74,3.47-1.12,9.1-1.02,9.53-1.16,8.31-2.66,15.61-5.47,24.3-8.12l-4.76,3.77c6.38-1.94,6,0,7.15-.29.92-.23-1.53-1.46,0-1.74,1.86-.34,1.08,1.31,2.38,1.16-2.01,5.86,12.74,5.37,8.58,0,2.02.04,2.12-.61,2.86-.58.22,0,1.72,1.68,4.29.58,3.26-1.4-1.42-1.78-1.43-2.03-.08-1.75,8.03.62,6.67-2.03,2.17.03,2.95.74,4.76,1.16,10.42,2.41,9.63,5.91,5.72-.58-.07-.11.4-2.27.95-2.32.44.25,2.7,1.03,2.86,1.16,1.3,1.06,1.96,2.09,2.86,2.9.76.68,5.41,10.14,15.25,13.34,11.01,3.59,18.15.6,29.06-1.74,9.51,3.54,18.57-.43,18.1,4.06,3.14-2.56,3.98-1.01,4.29-1.16q3.34,1.45,6.67,2.9c-6.42,2.23-95.32,35.05-91.48,37.99,27.99-.54,55.64-3.62,83.38-5.51,1.65-1.14,4-1.72,6.19-2.32-.07.6-.39,1,.95,1.16,3.56.42,25.48-2.93,32.4-3.48,3.92-.31,8.96.32,12.86,0,6.79-.56,54.51-4.53,55.74-6.09-4.61-4.15,5.42,2.41,13.34-.29,4.48.36,6.31-.56,6.67-.58,1.89-.08,3.83.09,5.72,0,15.28-.73,30.56-2.24,45.74-3.48,21.24-1.74,27.56,2,39.54-10.44,4.55,1.9-.78,5.14-1.43,6.38-.47.91-1.67.7.48,1.74,1.16-.97,3.71-.51,6.19-.58,4.01-.12,9.82-.95,14.29-1.16,4.55-.21,5.43-.57,5.72-.58,24.69-1.14,56.86-2.75,80.99-2.9,3.68-.02,9.79,1.09,13.34,1.16,6.45.13,6.42.82,11.43-.58-.16,2.09,1.21.41,1.91.58.11.03-.35,1.02.48,1.16,3.1.52,13.14.76,19.06,1.74,2.96-1.35,2.22-2.23,2.38-2.32,3.73-2.15,6.15-4.71,9.53-6.96,10-6.67,20.05-13.98,30.49-20.3,3.49-2.11,8.18-3.83,12.39-6.38,2.02-1.22,4.64-2.25,6.67-3.48,9.07-5.46,18.45-10.84,27.63-16.24,6.31-3.71,8.85-5.98,9.53-6.38,1.31-.77,2.53-1.56,3.81-2.32,17.67-10.49,36.78-20.14,53.36-31.32,1.29.19,1.84-.33,2.86-.58,5.6-1.39,5.51-3.97,11.43-4.64,4.27-.48,13.2.35,18.58,0,2.34-1.01,1.32-4.32,1.43-7.54,2.84.59.77-6.48,1.91-8.41.31-.52,1.85-.22,1.91-.29Z"/>
            <g>
              <path class="cls-19" d="m302.31,160.07c4.16,5.37-10.58,5.86-8.58,0,1.29-.15,2.03-1.16,2.38-1.16,7.39-.03,5.87,1.15,6.19,1.16Z"/>
              <path class="cls-2" d="m267.53,165.29c.3.05-.27,3.63-.48,3.77-1.05.72-3.92-.14-4.76.58-.3.26,3.75,5.4-3.34,4.35-6.42-.96,7.09-8.95,8.58-8.7Z"/>
              <path class="cls-27" d="m325.18,156.59c3.91,6.49,4.71,2.99-5.72.58l5.72-.58Z"/>
              <g>
                <path class="cls-19" d="m.25,208.2c-.05-1.74.03-3.48,0-5.22,6.29.83,6.79,4.08,0,5.22Z"/>
                <path class="cls-19" d="m477.16,208.78l5.24,3.19c-8.29,3.58.69,3.66-10.48,2.32,1.16-6.19-3.5-2.47,5.24-5.51Z"/>
                <path class="cls-19" d="m289.45,162.97c8.44,5.74-8.95,7.41-6.19,1.45.6-1.3,5.51.47,6.19-1.45Z"/>
                <path class="cls-19" d="m339.95,184.43c3.39,1.1,4.6,5.07.95,5.8-3.5.7-6.47-3.51-6.19-3.77.7-.67,4.13.55,5.24-2.03Z"/>
                <path class="cls-19" d="m275.15,166.45c5.83-1.05,4.5,3.53,1.91,4.06-5.27,1.07-5.44-3.42-1.91-4.06Z"/>
                <path class="cls-2" d="m251.33,172.83c5.05.32-.07,4.77-2.86,4.06-3.61-.92-.45-4.27,2.86-4.06Z"/>
                <path class="cls-19" d="m37.89,205.88c4.43-.53,4.56,3.73.95,4.06-4.37.4-4.02-3.69-.95-4.06Z"/>
                <path class="cls-27" d="m314.7,156.01c1.36,2.65-6.75.28-6.67,2.03.01.25,4.69.63,1.43,2.03-2.57,1.1-4.07-.57-4.29-.58,4.73-2.78-2.37-3.62,9.53-3.48Z"/>
                <path class="cls-2" d="m15.02,122.37c2.18.23,4.42,6.21-2.86,4.06-3.99-1.18,2.33-4.12,2.86-4.06Z"/>
                <path class="cls-27" d="m71.24,187.33c1.77-.06,3.95,3.81,1.91,4.64-4.2,1.71-6.97-4.47-1.91-4.64Z"/>
                <path class="cls-2" d="m20.73,162.39c2.97-.15,4,3.44,1.91,4.06-4.61,1.36-6.18-3.85-1.91-4.06Z"/>
                <path class="cls-19" d="m130.79,217.48c2.72,2.48-6.76,4.4-4.76-1.16,5.78.44,3.58,1.09,4.76,1.16Z"/>
                <path class="cls-2" d="m66.47,208.78c2.76-.77,6.41,1.76,5.24,2.61-2.58,1.88-10.85-1.05-5.24-2.61Z"/>
                <path class="cls-27" d="m250.38,215.16c4.25-.48,3.75,3.62,1.91,4.06-3.2.76-7.24-3.46-1.91-4.06Z"/>
                <path class="cls-2" d="m304.69,185.59c3.96-.49,4.42,2.83,1.91,3.48-3.38.87-5.88-2.99-1.91-3.48Z"/>
                <path class="cls-2" d="m278.01,196.02c3.83-.9,5.99,2.15,2.86,2.9-2.44.58-6.14-2.13-2.86-2.9Z"/>
                <path class="cls-19" d="m14.06,196.6c4.45-1.06,4.77,2.73,1.91,2.9-2.2.13-4.77-2.22-1.91-2.9Z"/>
                <path class="cls-28" d="m35.03,170.51c2.2-.13,4.77,2.22,1.91,2.9-4.45,1.06-4.77-2.73-1.91-2.9Z"/>
                <path class="cls-27" d="m157.95,208.2c1.56-.33,4.72,2.18,2.86,2.9-3.69,1.43-6.33-2.16-2.86-2.9Z"/>
                <path class="cls-28" d="m115.07,203.56c2.18-1.12,5.2,2.43,1.91,2.9-3.37.48-2.86-2.41-1.91-2.9Z"/>
                <path class="cls-2" d="m48.37,190.23c2.65.28,1.7,4.28-1.91,2.9-1.93-.74,1.48-2.94,1.91-2.9Z"/>
                <path class="cls-27" d="m315.17,166.45c2.14.17,1.79,3.27-.95,2.9-2.97-.4.1-2.97.95-2.9Z"/>
                <path class="cls-27" d="m307.55,218.64c2.91-.96,4.32,2.21.95,1.74-.68-.09-2.23-1.32-.95-1.74Z"/>
                <path class="cls-27" d="m279.92,180.37c1.85-.59,2.92,1.81.95,1.74-2.11-.07-1.85-1.45-.95-1.74Z"/>
                <path class="cls-27" d="m298.02,165.87c.34,0,2.1.83.48,1.45-1.81.69-2.12-1.45-.48-1.45Z"/>
                <path class="cls-27" d="m260.86,207.04c.34,0,2.1.83.48,1.45-1.81.69-2.12-1.45-.48-1.45Z"/>
                <g>
                  <path class="cls-27" d="m383.78,215.16c.89-.03,5.96,5.01,2.86,5.8-5.37,1.36-7.43-3.45-7.15-3.77.13-.15,4.02-2.02,4.29-2.03Z"/>
                  <path class="cls-27" d="m506.7,214c6.97,4.11-.18,5.99-2.86,4.64-3.14-1.58,1.18-3.31,2.86-4.64Z"/>
                  <path class="cls-27" d="m559.11,212.26c.85-.32,4.88-.47,4.29,1.45-.62,1.99-7.21-.33-4.29-1.45Z"/>
                  <g>
                    <path class="cls-19" d="m747.3,223.28c-2.86,0-5.72,0-8.58,0-2.58-3.77,7.25-3.07,8.58,0Z"/>
                    <path class="cls-19" d="m837.83,223.28c-2.22,0-4.45,0-6.67,0-1.27-3.35,9.19-3.3,6.67,0Z"/>
                    <path class="cls-27" d="m707.28,223.28c-.95,0-1.91,0-2.86,0-.71-3.25,5.5-2.84,2.86,0Z"/>
                    <path class="cls-19" d="m844.97,169.35c6.25-.78,10.08,6.1,3.81,6.96-7.28,1-9.52-6.24-3.81-6.96Z"/>
                    <path class="cls-2" d="m601.04,202.98q2.62,1.59,5.24,3.19c-4.35,4.98-7.99,4.54-10.48-.58l5.24-2.61Z"/>
                    <path class="cls-2" d="m693.47,193.12c7.62,4.93,3.53.67,1.91,6.38-7.92-1.18-8.72-3.95-1.91-6.38Z"/>
                    <path class="cls-19" d="m816.39,211.1c5.15-.35,4.97,3.94,2.86,4.64-5.59,1.85-8.8-4.23-2.86-4.64Z"/>
                    <path class="cls-19" d="m853.55,211.1c5.39-.98,6.78,3.16,3.81,4.06-5.36,1.62-8.11-3.28-3.81-4.06Z"/>
                    <path class="cls-2" d="m646.78,196.6c9.9,5.26-4.64,6.76-3.34,2.61.21-.68,3.09-.48,3.34-2.61Z"/>
                    <path class="cls-2" d="m835.45,152.53c3.82-1.13,6.16,2.63,2.86,3.48-3.12.81-5.58-2.68-2.86-3.48Z"/>
                    <path class="cls-19" d="m643.92,216.32c3.32-.83,4.76,2.82,1.91,3.48-4.44,1.03-4.25-2.9-1.91-3.48Z"/>
                    <path class="cls-28" d="m617.24,208.2c1.71.11,3.04,3.56.95,4.06-4.56,1.1-4.61-4.29-.95-4.06Z"/>
                    <path class="cls-2" d="m716.34,213.42c3.53-.91,5.3,2.98,1.91,3.48-2.8.42-5.11-2.65-1.91-3.48Z"/>
                    <path class="cls-19" d="m658.21,216.32c3.09.29,2.71,5.64-2.86,3.48-.8-.31,1.85-3.57,2.86-3.48Z"/>
                    <path class="cls-2" d="m817.34,175.15c2.79-.56,4.42,2.42,1.91,2.9-3.35.64-4.59-2.36-1.91-2.9Z"/>
                    <path class="cls-2" d="m782.08,207.04c.92-.42,4.83.19,4.29,1.45-.97,2.24-7.75.15-4.29-1.45Z"/>
                    <path class="cls-2" d="m756.36,203.56c2.61-.58,4.51,1.69,2.86,2.32-3.15,1.2-6.5-1.52-2.86-2.32Z"/>
                    <path class="cls-27" d="m793.52,194.86c3.02-.57,4.52,1.83,1.91,2.32-3.02.57-4.52-1.83-1.91-2.32Z"/>
                    <path class="cls-2" d="m733.49,198.92c5.12-.74,1.44,4.26-1.43,2.03-.57-.44.52-1.9,1.43-2.03Z"/>
                    <path class="cls-27" d="m827.82,193.7c3.37-.52,2.52,3.26,0,2.9-1.86-.26-1.91-2.6,0-2.9Z"/>
                    <path class="cls-27" d="m688.7,207.04c2.29-.31,3.24,1.95.95,2.32-2.7.44-2.09-2.17-.95-2.32Z"/>
                    <g>
                      <path class="cls-27" d="m975.99,147.31c0,.58,0,1.16,0,1.74-3.54-.05-3.54-1.69,0-1.74Z"/>
                      <path class="cls-19" d="m946.93,180.37c7.72-1.87,9.51,5.71,3.81,6.38-5.82.69-8.85-5.16-3.81-6.38Z"/>
                      <path class="cls-19" d="m964.08,92.79c7.07-1.85,9.77,4.72,4.76,5.8-6.5,1.4-8.5-4.82-4.76-5.8Z"/>
                      <path class="cls-19" d="m945.03,191.38c5.91-.72,6.13,4.43,3.81,5.22-5.86,2.01-9.88-4.49-3.81-5.22Z"/>
                      <path class="cls-2" d="m927.87,140.93c4.26-.52,4.31,3.43,1.91,4.06-3.65.95-6.06-3.55-1.91-4.06Z"/>
                      <path class="cls-2" d="m913.58,106.71c3.54-.37,4.52,3.38,1.91,4.06-3.48.91-5.75-3.66-1.91-4.06Z"/>
                      <path class="cls-2" d="m923.11,169.35c4.25-.38,4.91,3.12,1.91,3.48-4.54.55-5.33-3.18-1.91-3.48Z"/>
                      <path class="cls-2" d="m851.64,179.21c4-1.08,6.06,2.65,2.86,3.48-2.67.69-6.35-2.53-2.86-3.48Z"/>
                      <path class="cls-2" d="m877.37,174.57c3.28-.8,5.04,3,2.86,3.48-4.4.97-5.84-2.75-2.86-3.48Z"/>
                      <path class="cls-2" d="m853.55,153.69c1.02.06,3.99,3.33.95,4.06-5.08,1.23-4.25-4.26-.95-4.06Z"/>
                      <path class="cls-2" d="m959.32,211.1c1.85.16,3.87,3.39.95,4.06-4.16.95-5-4.4-.95-4.06Z"/>
                      <path class="cls-2" d="m875.47,215.74c3.53-.18,3.98,3.21.95,3.48-3.74.34-4.83-3.28-.95-3.48Z"/>
                      <path class="cls-28" d="m868.8,194.86c3.29-.81,4.79,2.77,1.91,3.48-3.29.81-4.79-2.77-1.91-3.48Z"/>
                      <path class="cls-19" d="m883.09,140.35c2.92.27,3.3,2.91.95,3.48-3.33.8-5.72-3.92-.95-3.48Z"/>
                      <path class="cls-2" d="m942.17,132.23c.29.02,2.87,2.6,2.38,3.19-2.93,3.52-7.96-3.6-2.38-3.19Z"/>
                      <path class="cls-2" d="m937.4,152.53c1.23,0,4.02,2.76.95,3.48-4.41,1.04-3.58-3.5-.95-3.48Z"/>
                      <path class="cls-2" d="m906.91,131.65c.85,0,3.94,2.31.95,2.9-4.41.88-3.24-2.91-.95-2.9Z"/>
                      <path class="cls-27" d="m904.05,183.85c2.52-.38,3.32,2.55.95,2.9-2.52.38-3.32-2.55-.95-2.9Z"/>
                      <path class="cls-27" d="m952.65,103.23c3.24-1,2.73,2.33.95,2.32-.89,0-2.31-1.9-.95-2.32Z"/>
                    </g>
                    <path class="cls-27" d="m828.78,200.08c.89-.37,3.34.46,3.34.87,0,1.76-6.57.46-3.34-.87Z"/>
                  </g>
                  <path class="cls-24" d="m563.87,205.88c.11-.05,1.56.59.95,1.16-1.47,1.39-2.17-.64-.95-1.16Z"/>
                </g>
              </g>
            </g>
          </g>
        </g>
        <g>
          <path class="cls-32" d="m438.57,147.89c-7.31,1.96.42,1.27-3.34,3.48-2.43,1.43-35.42,10.31-37.64,16.24-.31.04-.68-.06-.95,0-3.81.79-4.5,0-4.76.29-.25.27,1.81,4.6,6.67,2.03-.27,1.16-.29,1.98,1.91,1.74-.65.34-1.03.75-1.91,1.16-.31.15-1.15-1.4-4.29,1.16.47-4.49-8.59-.52-18.1-4.06-10.91,2.34-18.05,5.33-29.06,1.74-.77-1.4,6.29-1.12,9.05-2.32,8.19-3.57,8.91-10.96-9.05-11.02-.43-2.25,1.68-3.07-.95-4.64,8.77-1.6,13.72-2.24,20.49-6.96,1.48,2.09-8.96,6.34-5.72,7.54,5.46-1.6,9.75-6.33,10.48-6.38,1.45-.1,8.02,8.66,9.53,1.74,1.72,2.93,9.73,3.22,9.05-1.74,2.58.09,26.06-3.18,24.77-5.22,7.21,1.13,16.15,3.78,23.82,5.22Z"/>
          <path class="cls-3" d="m405.22,175.73q-3.34-1.45-6.67-2.9c.88-.41,1.25-.82,1.91-1.16.2-.11-1.05-1.25,2.38-2.9,8.53-4.09,27.08-9.54,34.3-16.24,15.56,2.56,24.96,7.23,25.25-.58,3.9.67,8.67,1.04,11.91,2.32-23.48,6.56-46.63,13.67-69.08,21.46Z"/>
          <path class="cls-3" d="m347.1,158.33c17.96.06,17.25,7.45,9.05,11.02-2.76,1.2-9.83.92-9.05,2.32-9.84-3.2-14.48-12.66-15.25-13.34,7.29,2.66,10.69-.02,15.25,0Z"/>
          <path class="cls-9" d="m346.14,153.69c2.64,1.57.52,2.39.95,4.64-4.55-.02-7.95,2.66-15.25,0-.9-.81-1.55-1.84-2.86-2.9,8.21.44,10.41-.51,17.15-1.74Z"/>
          <path class="cls-9" d="m462.39,151.95c-.3,7.81-9.69,3.14-25.25.58-7.22,6.7-25.78,12.15-34.3,16.24-3.44,1.65-2.18,2.79-2.38,2.9-2.2.24-2.18-.58-1.91-1.74.1-.42-.14-.94,0-1.16.09-.14,4.03-1.74,3.81-2.03-.99-1.29-3.82.74-4.76.87,2.22-5.93,35.21-14.81,37.64-16.24,3.76-2.21-3.98-1.52,3.34-3.48,7.91,1.49,15.86,2.7,23.82,4.06Z"/>
          <path class="cls-29" d="m396.64,167.61l1.91,1.16c-.14.22.1.74,0,1.16-4.86,2.57-6.92-1.76-6.67-2.03.26-.28.96.5,4.76-.29Z"/>
          <path class="cls-11" d="m398.55,168.77l-1.91-1.16c.27-.06.64.04.95,0,.95-.13,3.77-2.16,4.76-.87.22.29-3.72,1.89-3.81,2.03Z"/>
        </g>
        <g>
          <path class="cls-32" d="m378.54,76.55c-2.66.65-4.83.94-5.72,1.16.58-3.86,3.52-5.62,5.72-1.16Z"/>
          <path class="cls-32" d="m373.3,69.59c.67.21.64,1.06.48,1.45-1.5,3.58-15.19,3.15-.48-1.45Z"/>
        </g>
        <g>
          <g>
            <path class="cls-29" d="m795.9,83.51l1.43,1.16h24.3c1.12,5.05.65,14.7,3.81,15.08-10.87.7-21.95,2.23-32.87,2.9-4.91.3-4.98-.6-5.24-.58q-1.43-9.57-2.86-19.14c2.87-1.27,5.94,2.89,11.43.58Z"/>
            <path class="cls-31" d="m784.47,82.93q1.43,9.57,2.86,19.14c-2.41.15-2.72,0-2.86,0,.14-4.65-.52-9.29-.95-13.92-.27-2.95-1.11-6.42,0-6.38l.95,1.16Z"/>
          </g>
          <g>
            <path class="cls-29" d="m783.51,81.77c-1.11-.04-.27,3.43,0,6.38h-5.72c4.7-6.49-5.94,3.2-3.81-3.77-1.34-2.4-2.13,10.92-7.62,4.64,3.79,3.12-6.72,11.15-8.1,11.31-1.9.21-7.9-2.83-8.1-3.19-1.56-2.87,6.76-14.12-1.43-4.35-2.69,0-5.39-15.04-3.81,0-14.47-9.71,2.14,3.21,1.43,3.77-.97.76-4.96-.17-5.72.58-.63.62,10.19,1.76,11.43,7.25-13.33.74-26.56,2.16-40.02,2.03,7.23-6.34,10.75-13.75,16.2-20.59,12.27-15.41,6.58-1.66,19.53-11.02,17.93,10.41,4.53.47,10.48,0q12.63,3.48,25.25,6.96Z"/>
            <path class="cls-14" d="m777.8,88.15c-2.36,3.27-17.8,12.17-18.1,15.66-2.5.14-5.03.44-7.62.58-1.25-5.49-12.06-6.63-11.43-7.25.76-.75,4.75.18,5.72-.58.71-.56-15.9-13.48-1.43-3.77-1.58-15.04,1.13,0,3.81,0,8.19-9.77-.13,1.48,1.43,4.35.19.36,6.2,3.4,8.1,3.19,1.38-.16,11.89-8.19,8.1-11.31,5.49,6.28,6.28-7.04,7.62-4.64-2.13,6.97,8.51-2.72,3.81,3.77Z"/>
            <g>
              <path class="cls-5" d="m783.51,88.15c.43,4.63,1.09,9.27.95,13.92-8.24.49-16.5,1.29-24.77,1.74.31-3.49,15.74-12.39,18.1-15.66h5.72Z"/>
              <path class="cls-4" d="m779.23,90.47c1.42.47-.6,3.63-2.86,3.48-3.28-.22,2.5-3.6,2.86-3.48Z"/>
            </g>
          </g>
        </g>
        <g>
          <path class="cls-29" d="m326.13,154.27c-.55.05-1.02,2.21-.95,2.32l-5.72.58c-1.81-.42-2.59-1.13-4.76-1.16-11.9-.14-4.8.7-9.53,3.48-.74-.03-.84.62-2.86.58-.32,0,1.2-1.19-6.19-1.16-.35,0-1.09,1.01-2.38,1.16-1.3.15-.52-1.5-2.38-1.16-1.53.28.92,1.51,0,1.74-1.14.29-.77-1.65-7.15.29l4.76-3.77c1.56-.48,3.05-1.26,4.76-1.74,3.32,2.62,6.13-.09,8.58-2.32,16.61-3.15,16.15-3.22,23.82,1.16Z"/>
          <g>
            <path class="cls-19" d="m811.15,160.07c-10.44,6.32-20.5,13.63-30.49,20.3-3.3-2.32,7.17-5.47-4.29-4.06-.78.1-5.56,1.91-6.19,2.61-4.43,4.87,10.4-1.3-1.91,8.12l2.86.29c-.16.09.58.97-2.38,2.32-5.92-.98-15.96-1.22-19.06-1.74-.83-.14-.37-1.13-.48-1.16,4.02-4.63-1.51-.69-1.91-.58-5.01,1.4-4.99.71-11.43.58.75-3.07,6.96-1.01,3.81-5.22,1.21-3.37,5.43-2.72,5.72-2.9,13.26,5.62,5.05-.9,11.91-1.74,1.32-.16.59,2.49,1.91,2.32,1.99-.26,3.11-4.99,10.01-4.06,2.84,1.99,11.57.21,8.1-2.32,38.16-11.51,10.28-3.24,1.91-2.9-2.11.09-2.98-2.5-6.19-1.16.1-.32-5.41-4.1,4.29-1.74,3.15-1.46-1.34-.65-.48-2.61.97-2.2,3.67-1.9,3.81-2.03,4.66,5.8,3.78,2.65,9.53,1.74,2.68-.43,2.95-1.3,5.24-1.16l.95,1.16c4.24-1.7,9.14-2.39,14.77-4.06Z"/>
            <path class="cls-7" d="m531,196.6c-1.89.09-3.83-.08-5.72,0-.77-3.45-4.27-.58-6.67.58-7.92,2.7-17.95-3.86-13.34.29-1.23,1.56-48.96,5.53-55.74,6.09-3.9.32-8.94-.31-12.86,0,.46-.98-1.03-1.39-.95-1.45,1.77-1.55,19.74-10.28,16.2-2.9,5.14.84,14.69-5.66,15.72-5.51,2.32.33.33,5.33,6.67.58-.35,13.79,6.19-4.84,11.43,0,7.74-6.27,4.55.58,14.29-.58-3.24-9.39,1.35.6,6.67-4.06,2.47,6.59,8.5,2.19,14.29,2.9,8.39-9.61,17.87-2.92,10.01,4.06Z"/>
            <path class="cls-15" d="m820.68,150.79q1.43,1.45,2.86,2.9c-4.21,2.54-8.9,4.27-12.39,6.38-5.63,1.67-10.53,2.36-14.77,4.06l-.95-1.16c-2.29-.14-2.56.73-5.24,1.16.92-4.69,6.55-.17,12.39-6.38,4.53-1.23,8.1-.51,11.43-3.19-.23-.75-7.13-.81-8.58-.87,3.72-3.82,7.12-.75,15.25-2.9Z"/>
            <path class="cls-7" d="m780.65,180.37c-3.38,2.25-5.8,4.81-9.53,6.96l-2.86-.29c12.31-9.42-2.53-3.25,1.91-8.12.63-.7,5.41-2.51,6.19-2.61,11.45-1.41.99,1.74,4.29,4.06Z"/>
            <path class="cls-6" d="m739.68,181.53c3.15,4.21-3.06,2.15-3.81,5.22-3.55-.07-9.66-1.18-13.34-1.16,4.1-7.16,12.36-2.21,17.15-4.06Z"/>
            <path class="cls-28" d="m525.28,196.6c-.36.02-2.19.94-6.67.58,2.4-1.16,5.9-4.03,6.67-.58Z"/>
            <path class="cls-23" d="m749.21,186.75c-.7-.17-2.07,1.51-1.91-.58.4-.11,5.93-4.05,1.91.58Z"/>
            <path class="cls-2" d="m524.33,163.55c-8.27,3.16-16.56,6.73-21.92,11.6-.99-.28-1.6-.75-2.86-.58-11.16,2.22-13.96,8.09-11.43,2.61l-4.76-.29c.7-.37,2.13-1.62,1.91-2.32,6.12-2.22,12.68-4.08,18.1-6.96,5.39-1.52,10.96-2.93,16.2-4.64l4.76.58Z"/>
            <path class="cls-26" d="m802.57,157.75c.17-.18-.27-2.4,1.91-4.06.32.02.64-.01.95,0,1.44.06,8.35.12,8.58.87-3.33,2.68-6.91,1.96-11.43,3.19Z"/>
            <path class="cls-19" d="m781.61,158.33c-6.63,4.11-13.48,8.02-20.01,12.18-.56-.56-.54-.56-.95-1.16-.66-.97-.01-3.4-1.91,0-1.59.18-2.62,1.58-6.67-.58-4.55-2.43-1.8-4.38-1.91-4.64,2.8-2.39-.33-1.79,4.76-5.8,13.49,3.26,3.92.58,3.81-1.74,1.93-.41,10.88-1.46,11.43-2.61.47-.97-3.71-1.57-.95-3.77,2.02.64,5.11.16,6.67,1.45,2.23,1.85-4.27,5.98,5.72,6.67Z"/>
            <path class="cls-15" d="m758.74,169.35c.09-.01.6.89,1.91,0,.41.6.39.6.95,1.16.11.11.25,1.42,1.43,2.32.73.43,1.96-.83,2.38-.58,2.04,1.2,4.17,2.38,3.81,2.9-6.89-.93-8.01,3.8-10.01,4.06-1.31.17-.59-2.48-1.91-2.32-6.86.84,1.35,7.36-11.91,1.74.35-.22.84-.5.95-.58,4.68-3.3,3.88-4.46,3.81-7.54,0-.16.8-1.93,1.91-1.74,4.05,2.16,5.08.76,6.67.58Z"/>
            <g>
              <path class="cls-7" d="m750.16,164.13c.1.26-2.64,2.21,1.91,4.64-1.11-.19-1.91,1.58-1.91,1.74-7.54-2.83-15.93,7.82-15.25,8.41,4.41,3.83,9.25-6.81,11.43-4.64.33.33-.22,2.48,0,3.77-.11.08-.6.36-.95.58-.28.18-4.51-.47-5.72,2.9-4.79,1.85-13.05-3.1-17.15,4.06-24.13.15-56.31,1.76-80.99,2.9,1.26-3.9-6.12-2.7-5.72.58-4.48.21-10.28,1.04-14.29,1.16.09-2.63-3.57.37-6.67-1.16.65-1.24,5.98-4.48,1.43-6.38-11.98,12.44-18.3,8.7-39.54,10.44,5.07-7.62,5.82-3.18,8.1-3.48,1.37-.18,3.19-3.93,3.81-4.06,1.29-.28,2.67,1.23,2.86,1.16,5.62-2.19,13.5-14.69,9.53,0,9.7-3.52,29.57-8.48,28.11-15.66,5.55-.84,5.38-.54,5.72-.58l1.91,2.32c-3.83,2.13-9.26,3.53-11.43,5.51-8.76,8,2.56,14.84,10.48,5.22,1.34-1.62-5.12-4,7.62-4.64-1.17-10.49,6.82-5.89,10.48-8.41,5.63,8.79,9.51-.46,1.91-2.32.36-.38-1.2-2.36,2.38-2.9,10.63-1.61.17,10.38,8.58,15.66,8.85-1.1,10.13-.83,11.91-6.96h3.81c6.91,8.72,14.28,2.02,18.1,3.77-2.24-3.56,4.75-6.55,10.48-6.67.15,1.98,1.11,1.9,2.38,3.48,2.54.19.94-1.83,1.43-2.32,1.32-1.35,3.35-2.32,3.81-4.06,2.28,3.28-2.02,6.84,4.29.58,9.26,2.83,2.35-8.18,8.1-3.19.06.05-1.63.7-.95,1.16,7.64,5.22,4.01-.03,3.81-.87l1.91-1.16c13.88-.44,8.9-1.43,10.48-2.9,5.03-.4,3.07.45,3.81,2.32Z"/>
              <g>
                <path class="cls-19" d="m641.53,188.49c-.29.01-1.16.37-5.72.58-.4-3.28,6.97-4.48,5.72-.58Z"/>
                <path class="cls-24" d="m621.52,190.23c-2.49.07-5.04-.39-6.19.58-2.15-1.04-.95-.83-.48-1.74,3.1,1.53,6.76-1.47,6.67,1.16Z"/>
                <path class="cls-21" d="m653.92,170.51c.59-.41,1.05-1.43,1.91-2.32,7.6,1.86,3.72,11.11-1.91,2.32Z"/>
                <path class="cls-12" d="m750.16,170.51c.06,3.08.87,4.24-3.81,7.54-.22-1.29.33-3.44,0-3.77-2.19-2.17-7.03,8.47-11.43,4.64-.68-.59,7.7-11.24,15.25-8.41Z"/>
                <path class="cls-26" d="m714.91,172.25c-.49.49,1.11,2.51-1.43,2.32-1.27-1.57-2.23-1.5-2.38-3.48,1.76-.04,3.2-.13,3.81,1.16Z"/>
                <path class="cls-19" d="m711.57,182.11c3.32-.76,3.55,1.94,1.91,2.32-3.32.76-3.55-1.94-1.91-2.32Z"/>
              </g>
            </g>
            <g>
              <path class="cls-7" d="m924.54,93.95c-16.59,11.18-35.69,20.82-53.36,31.32-4.86-.71-7.65-.58-3.81,2.32-.68.4-3.21,2.67-9.53,6.38-4.27-.47.33-2.57-1.43-2.9-.76-.14-10.07,7.52-3.81-2.32-1.91-.6-12.49,6.9-12.86,2.03-.13-1.67,9.51-1.92,10.48-5.22,1.34-4.54-9.58-6.57-3.34-7.25.27-.03,3.35,1.06,5.24,1.16.1,0,.18,1.2,1.91.29.29-1.04-1-.83-.95-.87.51-.46,1.83-1.65,1.91-1.74,7.87,2.16,13.04-1.12,2.86-1.74,4.62-12.82-1.23-7.76-3.34-8.7-.97-.43.19-2.51-1.91-2.9-4.87-.91-8.35,6.9-9.53,6.96-3.35.16-2.43-5.13-6.67.58-3.11-1.93-10.26,2.28-6.19-3.19.23-.31,8.13-5.41,1.43-5.51-2.98-.04-17.28,20.42-14.77,7.25.16-.86,6.22-7.61,7.15-7.83,10.53.23,20.96-.9,31.44-1.16.81-.02,3.76,3.94,10.96-3.48,12.7-.89,25.46-1.41,38.12-2.32,6.66-.48,13.35-.7,20.01-1.16Z"/>
              <g>
                <path class="cls-2" d="m871.18,125.27c-1.28.76-2.5,1.55-3.81,2.32-3.84-2.9-1.05-3.03,3.81-2.32Z"/>
                <path class="cls-4" d="m854.98,117.15c.62-.75,1.49-1.47,2.86-1.74,10.18.62,5.01,3.9-2.86,1.74Z"/>
                <path class="cls-12" d="m852.12,119.47l.95-.58s1.25-.17.95.87c-1.73.91-1.81-.28-1.91-.29Z"/>
                <path class="cls-19" d="m891.67,98.01c3.44-1.01,7.91,2.29,3.81,3.48-5,1.45-6.61-2.66-3.81-3.48Z"/>
                <path class="cls-19" d="m889.76,106.71c6.11-1.04,4.16,3.82-.48,2.03-.22-.08-1.36-1.72.48-2.03Z"/>
                <path class="cls-19" d="m872.61,117.15c8.39-.61,6.77,2.41,1.91,1.74-.2-.03-2.88-1.44-1.91-1.74Z"/>
                <path class="cls-2" d="m864.03,104.39c.96-.38,3.91,2.39.95,2.32-2.25-.05-1.72-2.01-.95-2.32Z"/>
                <path class="cls-2" d="m877.37,113.67c1.96-.33,3,1.5.95,1.74-3.55.41-2.52-1.48-.95-1.74Z"/>
              </g>
            </g>
            <path class="cls-12" d="m780.65,162.39c-.15.13-2.84-.17-3.81,2.03-.87,1.96,3.63,1.15.48,2.61-9.7-2.36-4.19,1.42-4.29,1.74-3.38,10.51-.42-2.91-7.62,3.48-.42-.25-1.65,1.01-2.38.58-1.18-.9-1.32-2.21-1.43-2.32,6.53-4.16,13.38-8.07,20.01-12.18,18.59-11.5,6.14-2.05-.95,4.06Z"/>
            <path class="cls-15" d="m769.22,175.15c.36-.52-1.77-1.7-3.81-2.9,7.2-6.39,4.24,7.03,7.62-3.48,3.21-1.34,4.08,1.25,6.19,1.16,8.38-.34,36.25-8.61-1.91,2.9,3.47,2.53-5.26,4.31-8.1,2.32Z"/>
            <path class="cls-19" d="m764.46,148.47c8.48,4.5-5.91,4.18-5.72,8.12-1,.21-1.79-.08-2.38-.58-2.12.77-1.21,2.15-1.43,2.32-2.49-.89-1.6-2.83-1.91-3.48,4.8,1.94,6.12-5.72,10.48-6.38.28-.04.65,0,.95,0Z"/>
            <path class="cls-26" d="m769.22,150.21c-2.76,2.2,1.42,2.8.95,3.77-.56,1.15-9.5,2.2-11.43,2.61-.19-3.94,14.19-3.62,5.72-8.12,3.34-.06,4.52,1.66,4.76,1.74Z"/>
            <g>
              <path class="cls-15" d="m773.98,143.83c2.67-.18,5.28-3.05,6.67-.87,3.15,4.95-2.94.9-3.34.87-4.29-.29,3.05,3.96,2.38,5.8-2.34.74,1.2.46,1.91.58,2.12.36,9.33.9,11.43,0l.95.58c.3.9,1.04,3.16,2.38,3.48,4.51-1.15,3.99-.79,8.1-.58-2.18,1.66-1.73,3.88-1.91,4.06-5.84,6.21-11.47,1.69-12.39,6.38-5.74.91-4.87,4.06-9.53-1.74,7.09-6.11,19.54-15.56.95-4.06-9.98-.69-3.48-4.82-5.72-6.67-1.56-1.29-4.65-.81-6.67-1.45-.25-.08-1.42-1.8-4.76-1.74-.3,0-.67-.04-.95,0-2-.7-1.49-1.33-1.91-1.74,1.49.03.77-.85.95-1.74,3.63-1.9,5.54-1.73,3.81-2.9.1-.05,1.27-.36,1.91-.58.49,2.26,3.67,2.45,5.72,2.32Z"/>
              <path class="cls-17" d="m781.61,150.21c-.7-.12-4.24.16-1.91-.58l1.91.58Z"/>
              <path class="cls-22" d="m783.04,154.27c1.71.31-.65,2.99-1.43,2.03-.66-.81,1.1-2.09,1.43-2.03Z"/>
            </g>
            <g>
              <path class="cls-19" d="m728.25,85.83c-5.45,6.84-8.97,14.25-16.2,20.59,13.46.13,26.69-1.29,40.02-2.03,2.59-.14,5.12-.44,7.62-.58,8.27-.45,16.54-1.25,24.77-1.74.14,0,.45.15,2.86,0,.27-.02.33.88,5.24.58,10.92-.67,22-2.19,32.87-2.9,13.61-.88,27.4-1.37,40.97-2.32-7.2,7.42-10.15,3.46-10.96,3.48-10.48.26-20.91,1.39-31.44,1.16-.93.22-6.98,6.97-7.15,7.83-2.51,13.17,11.79-7.29,14.77-7.25,6.7.1-1.2,5.2-1.43,5.51-4.07,5.47,3.09,1.26,6.19,3.19,4.24-5.71,3.32-.42,6.67-.58,1.18-.06,4.66-7.87,9.53-6.96,2.09.39.94,2.47,1.91,2.9,2.11.94,7.96-4.12,3.34,8.7-1.37.27-2.24.99-2.86,1.74-.08.09-1.39,1.28-1.91,1.74l-.95.58c-1.89-.1-4.97-1.19-5.24-1.16-6.24.68,4.68,2.71,3.34,7.25-.98,3.3-10.61,3.55-10.48,5.22.38,4.87,10.95-2.63,12.86-2.03-6.26,9.84,3.05,2.18,3.81,2.32,1.76.33-2.84,2.43,1.43,2.9-9.18,5.4-18.56,10.78-27.63,16.24,2.43-4.98-7.59-5.43-1.91-2.61-8.08.79-7.02,3.03-7.62,3.19-8.12,2.15-11.53-.92-15.25,2.9-.32-.01-.64.02-.95,0-4.11-.21-3.59-.57-8.1.58-1.34-.32-2.09-2.58-2.38-3.48-.06-.19,2.21-4.66-.95-.58-2.1.9-9.32.36-11.43,0l-1.91-.58c.67-1.84-6.68-6.09-2.38-5.8.4.03,6.49,4.08,3.34-.87-1.39-2.18-4,.69-6.67.87,4.92-7.78-1.41-3.78-5.72-2.32-.64.22-1.8.53-1.91.58-2.63,1.35-3.23.13-3.81,2.9-.19.89.54,1.77-.95,1.74-2.85-2.83-5.09-3.25-10.01-4.64-3.47,1.25,4.64,2.22,2.38,5.51-8.92-5.8,2.95,2.31-7.62,3.19-1.23.1-2.56-.07-3.81,0-6.6-2.72-3-.88-6.67-.58-11.56.93-6.13,1.94-11.91,5.22-.41.23-10.12-.07-3.34,3.19,0,.37-2.33.16-1.91.87,2.21,3.68,13.78,5,5.72,1.16-.3-4.44,10.89.98,13.34-6.38,9.53,5.2,18.16-3.08,9.53,4.64v1.16c-.61.92-.87,1.66-.95,1.74-1.58,1.47,3.4,2.45-10.48,2.9-1.74.06-2.68-2.13-1.91,1.16.2.84,3.83,6.09-3.81.87-.67-.46,1.01-1.11.95-1.16-5.75-4.99,1.16,6.02-8.1,3.19-6.31,6.26-2.01,2.7-4.29-.58-3.32-4.77-7.93-.98-7.62,2.9-5.73.12-12.72,3.11-10.48,6.67-3.83-1.75-11.2,4.95-18.1-3.77-.31-.39,1.32-.68.95-1.45-.14-.29-6.92-4.12-1.43-4.93,4.68-.69.57,8.37,5.72-1.74,16.21,5.18,3.14.35,4.29-3.77,1.14-4.11,7.12,2.15,10.48-4.64-3.51,1.33-9.65,3.56-9.53.58.08-1.98,9.94-2.61,11.43-4.06,4.79-4.63-2.48-.36-11.43,1.74-1.57,1.33,1.26,3.71-4.29,8.41-5.01-1.6,5.72-7.79-2.38-3.77-1.31,11.9-9.59-7.52-17.63,7.25-.86-12.85-3.13-.81-1.43,4.93,2.11-3.44,5.5-.58,6.67-1.16,1.67-.83-.68-5.45,5.24-6.67-1.06,2.09-.34,8.82-.48,9.28-1.78,6.13-3.06,5.86-11.91,6.96-8.4-5.28,2.05-17.27-8.58-15.66-3.58.54-2.02,2.52-2.38,2.9-.85.89-1.32,1.91-1.91,2.32-3.66,2.52-11.65-2.08-10.48,8.41-12.74.64-6.29,3.02-7.62,4.64-7.93,9.62-19.25,2.78-10.48-5.22,2.17-1.98,7.6-3.38,11.43-5.51,12.66-7.04-1.13-2.4-1.91-2.32-.34.04-.17-.26-5.72.58-.26.04-3.78-2.84-2.86.29.26.89,2.74-.41,2.86-.29,1.46,7.18-18.41,12.14-28.11,15.66,3.97-14.69-3.91-2.19-9.53,0-.19.07-1.57-1.44-2.86-1.16-.62.13-2.45,3.88-3.81,4.06-2.28.3-3.03-4.14-8.1,3.48-15.18,1.24-30.46,2.75-45.74,3.48,7.86-6.98-1.62-13.67-10.01-4.06-5.8-.71-11.82,3.69-14.29-2.9-5.32,4.66-9.91-5.33-6.67,4.06-9.74,1.16-6.55-5.69-14.29.58-5.25-4.84-11.79,13.79-11.43,0-6.34,4.75-4.35-.25-6.67-.58-1.04-.15-10.58,6.35-15.72,5.51,3.54-7.38-14.43,1.35-16.2,2.9-.07.06,1.41.47.95,1.45-6.92.55-28.84,3.9-32.4,3.48,9.56-2.95,18.09-7.07,27.16-10.44.34-.12,2.31.85,7.62-1.16,7.4-2.8,16.14-10.35,23.82-9.28l9.53-5.8c1.59,3.68-14.28,11.65-4.76,8.7.94-.29,5.62-5.59,9.05-8.41.62-.51-1.02-1.11-.95-1.16.4-.31,6.93-2.24,7.62-2.61l4.76.29c-2.52,5.48.27-.39,11.43-2.61-1.66,5.15,9.12,1.21,5.72,9.57,11.48.11,2.89.57.95,1.45-.95.43-3.02.66-1.91,1.74,3.31,3.2,5.21-1.28,9.05-2.9,32.11-13.56,1.98-5.13-3.81-5.8-.45-.05-5.94-3.14-7.15-3.48,5.36-4.87,13.64-8.44,21.92-11.6,15.84-6.05,34.04-8.12,31.92-12.18-1.77-.65-32.34,10.18-36.69,11.6-5.24,1.71-10.8,3.12-16.2,4.64-.35-.6-1.56-1.32-.95-2.03,1.03-1.21,26.37-20.31,28.11-21.17,12.18-6,57.22-14.57,67.18-18.56,1.87-.75,3.55-.34,4.76-1.45.44-.6-1.14-.82-.95-2.03,20.84-1.07,43.61-4.16,62.89-9.28,8.05,1.5,20.83-.46,28.59-2.9,1.3-.41,5.45-1.43,5.72-2.03-.97-1.59-2.48-3.91-2.86-5.51,2.75.93,9.25,1.72,11.91,1.16,1.98-.41,16.01-16.72,17.63-19.14l2.86,1.16Z"/>
              <g>
                <path class="cls-15" d="m483.36,176.89c-.69.37-7.22,2.3-7.62,2.61-.07.05,1.57.65.95,1.16-3.43,2.82-8.11,8.12-9.05,8.41-9.51,2.96,6.36-5.02,4.76-8.7l-9.53,5.8c-7.68-1.07-16.42,6.48-23.82,9.28-5.32,2.01-7.29,1.04-7.62,1.16-9.06,3.37-17.6,7.49-27.16,10.44-1.34-.16-1.03-.56-.95-1.16,14.54-4.01,60.64-23.58,81.95-31.32.23.7-1.21,1.95-1.91,2.32Z"/>
                <path class="cls-1" d="m830.2,150.21c-2.03,1.23-4.65,2.26-6.67,3.48q-1.43-1.45-2.86-2.9c.61-.16-.46-2.4,7.62-3.19-5.68-2.82,4.33-2.37,1.91,2.61Z"/>
                <path class="cls-7" d="m705.38,131.07l-1.91,1.16c-3.08-1.89-4.64-6.59-9.53-1.16l-4.76.58c-5.97-2-3.2-.04-3.81,0-.95.06-.83-.96-2.86,0-2.69-5.36-19.48-3.34,0-7.25-12.96-6.49,8.26-12.25,7.15,1.45,2.65.6,3.23-8.17,11.91-4.64-4.07,2.44,1.59,4.34-4.29,5.8,2.19,1.98,8.76-3.11,6.19-5.22,3.63-.82,5-4.55,6.19-4.64,2.06-.16,7.01,8.63,12.86,1.74.78,3.16,6.49-1.97.95-1.74.83-2.38-2-5.29-.48-5.8,3.07.45,5.43,2.13,8.1,2.9,4.67,1.35.31-.61,2.38-.58,2.09.03,5.78,4.12,8.1,2.61.09-.79-.14-1.96,0-2.03,9.24-4.89,4.92-3.12,6.67-.29.71,1.15,2.81,2.18,2.86,2.32,2.12,6.74-2.4,1.13-10.01,4.93-12.7-8.79-7.42.48-11.43,1.74-.93.29-4.83-.29-5.72,0-2.98.98,6.19,2.76-7.62,2.9-5.27-5.9-2.14-.78-3.34.87-1.52,2.11-12.58.9-7.62,4.35Z"/>
                <path class="cls-7" d="m618.67,168.19c-3.74,1.03-3.25,3.91.95,1.74,1.59-.82,2.91-2.92,4.29-4.06,1.26,2.82,10.53-3.89,10.01.29-.11.89-8.6,4.1-10.48,5.8-2.38,2.15-2.08,9.92-8.58,4.64-2.35-1.91-1.11-4.25-1.43-4.35-2.14-.69-3.42,4.43-3.81-4.06-6.37,6.1-24.8,10.3-17.15,6.38,2.01-1.03,13.56-2.75-.48-2.61,7.95-3.48,19-10.61,26.68-3.77Z"/>
                <path class="cls-26" d="m682.51,173.99h-3.81c.13-.46-.59-7.19.48-9.28-5.92,1.22-3.57,5.84-5.24,6.67-1.17.58-4.56-2.28-6.67,1.16-1.7-5.74.57-17.78,1.43-4.93,8.04-14.77,16.32,4.65,17.63-7.25,8.11-4.02-2.63,2.17,2.38,3.77,5.55-4.7,2.72-7.08,4.29-8.41,8.95-2.1,16.23-6.37,11.43-1.74-1.5,1.45-11.36,2.08-11.43,4.06-.12,2.98,6.02.75,9.53-.58-3.37,6.79-9.34.53-10.48,4.64-1.15,4.12,11.92,8.95-4.29,3.77-5.15,10.11-1.04,1.05-5.72,1.74-5.49.81,1.29,4.64,1.43,4.93.37.77-1.26,1.06-.95,1.45Z"/>
                <path class="cls-15" d="m692.04,150.21h-.95c-.79-2.14.77-1.29.95-2.03.1-.39-2.01-.19-1.91-.58.04-.16,3.81-1.76,3.81-2.32.02-4.64-10.45,6.19-10.48,0,0-1.53,6.66-1.89,13.34-5.51,4.32-.31,4.69-1.31,5.72-1.74,2.3-.97,4.63-2.02,6.67-3.19.79-1.29-2.39-.57-5.72-2.61l1.91-1.16c3.92,2.73,9.45-.57,10.01-.58,4.57-.09-4.66,4.28-11.91,8.41,1.6,3.82-2.61,3.13-2.86,3.48-2.01,2.79,7.77,1.78,6.67,4.06-1.12,2.32-6.13-1.92-13.34,1.16-.55,1.1-1.31,1.29-1.91,2.61Z"/>
                <path class="cls-15" d="m502.41,175.15c1.2.34,6.7,3.43,7.15,3.48,5.79.67,35.92-7.76,3.81,5.8-3.84,1.62-5.75,6.1-9.05,2.9,2.41,0,3.3-.65,1.91-1.74,1.94-.88,10.53-1.34-.95-1.45,3.41-8.36-7.38-4.42-5.72-9.57,1.26-.17,1.86.3,2.86.58Z"/>
                <path class="cls-15" d="m605.8,146.73c.62,9.98,10.92-.37,10.01,6.67-.05.38-5.06,5.82-6.19,6.67-3.96-2.42,5.63-8.37-3.81-13.34-1.64,11.36-6.79,8.11-7.62,13.92.22-2.99-5.39-3.98-4.29-5.51,1.54-2.14,9.54,1.82,11.91-8.41Z"/>
                <path class="cls-15" d="m768.27,117.73c1.12-.92,1.92-1.92,2.86-2.9.09-.1,2.38-.78,2.86-1.45.27-.37-2.74-7.31,5.24-6.09,6.65,1.02-5.49,1.98-4.29,4.93,2.57,6.34,5.54-4.51,10.96-3.19,3.05.75.14,7.63-.48,7.83-1.84.59-1.82-2.05-3.34-1.45-.71.28-1.58,5.86-13.82,2.32Z"/>
                <path class="cls-21" d="m735.87,150.21c-.66.78,1.65,3.92,1.91,4.06-2.45,7.36-13.64,1.94-13.34,6.38-1.35-.64-3.91-1.28-5.72-1.16-.43-.71,1.91-.5,1.91-.87-6.79-3.26,2.92-2.96,3.34-3.19,5.78-3.28.36-4.28,11.91-5.22Z"/>
                <path class="cls-7" d="m584.36,144.99c-.28.05-3.39-1.15-5.72.58-2.44-1.38-9.59-6.38-4.29-7.54,7.68-1.68,8.35,2.07,10.48,2.9.46.18,3.96-1.56,5.24.29,1.76,2.55-2.61,3.2-5.72,3.77Z"/>
                <path class="cls-15" d="m524.33,163.55l-4.76-.58c4.34-1.42,34.91-12.25,36.69-11.6,2.11,4.06-16.08,6.13-31.92,12.18Z"/>
                <path class="cls-7" d="m762.55,114.25c1.09.53,2.95,1.97,2.86,2.9-12.67,10.71-19.24-10.86-2.86-2.9Z"/>
                <path class="cls-21" d="m834.02,136.29c3.82,1.29-1.83,2.69.95,3.48-4.68,1.06-5.85,2.23-7.15,5.22,2.83-4.62-17.1-9.22-8.58-10.44,9.05-1.3,4.54,8.89,14.77,1.74Z"/>
                <path class="cls-26" d="m828.78,118.31c4.99-.17,2.37,2.18,2.86,2.32,2.73.8,6.68-4.02,10.96-.29-13.96.5-16.58,5.93-18.58,5.51-6.28-1.33,3.04-4.66,3.34-4.93.19-.17-3.81-2.43,1.43-2.61Z"/>
                <path class="cls-21" d="m580.07,157.75c8.32-1.29-9.24,7.4-11.43,6.96-6.36-1.29,7.27-9.51,6.67-3.48.67-.05,3.19-3.24,4.76-3.48Z"/>
                <path class="cls-2" d="m748.73,129.91c1.11.04,5.14,2.21,5.24,2.61,1.09,4.4-15.75,1.84-10.01-1.45.19-.11,4.51-1.17,4.76-1.16Z"/>
                <path class="cls-15" d="m776.37,126.43c1.87-.41,10.53,3.51,7.62,5.22-4.35,2.55-11.64-4.35-7.62-5.22Z"/>
                <path class="cls-15" d="m718.72,168.19c-.46,1.74-2.49,2.71-3.81,4.06-.62-1.29-2.05-1.2-3.81-1.16-.3-3.88,4.31-7.67,7.62-2.9Z"/>
                <path class="cls-2" d="m799.24,126.43c1.89-.08,3.06,1.89,3.34,2.61,5.18,13.73-11.08-2.3-3.34-2.61Z"/>
                <path class="cls-21" d="m771.13,114.83c-.94.98-1.74,1.98-2.86,2.9-.14-.04-1.07.1-2.86-.58.09-.93-1.77-2.37-2.86-2.9,2.23-5.25,3.85-2.03,8.58.58Z"/>
                <path class="cls-15" d="m633.91,162.39c-3.32-.33-4.32.77-4.76.29,6.06-8.26,19.91-8.42,4.76-.29Z"/>
                <path class="cls-15" d="m721.1,135.13c3.79-.55,6.42,1.66.95,1.16-2.01.93-2.04,5.71-15.72,6.67,11.43-2.98,12.95-7.57,14.77-7.83Z"/>
                <path class="cls-15" d="m811.62,109.03c3.72-.35,4.19,5.43,3.34,6.67-2.97,4.33-6.93-6.34-3.34-6.67Z"/>
                <path class="cls-15" d="m834.97,139.77c-2.78-.79,2.87-2.19-.95-3.48,22.85-6.41-2.44,1.3,7.62,3.19-3.04.53-2.72-.6-6.67.29Z"/>
                <path class="cls-21" d="m561.97,157.17c5.27.91-4.89,7.19-6.67,6.38-2.95-1.34,5.32-6.61,6.67-6.38Z"/>
                <path class="cls-15" d="m677.74,142.09h-6.67c1.42-.71,4.61-5.32,8.1-4.64,4.84.94-3.16,2.01-1.43,4.64Z"/>
                <path class="cls-21" d="m773.98,143.83c-2.05.13-5.23-.06-5.72-2.32,4.3-1.46,10.63-5.46,5.72,2.32Z"/>
                <path class="cls-2" d="m629.62,125.27c3.81-.57.89,3,1.43,3.77.27.38,3.51.77,3.81,1.16,5.82,7.65-13.93-3.63-5.24-4.93Z"/>
                <path class="cls-6" d="m741.59,114.25c-.14.07.09,1.24,0,2.03-2.32,1.51-6.01-2.58-8.1-2.61-2.07-.03,2.28,1.93-2.38.58,2.45-3.02,6.93-1.73,10.48,0Z"/>
                <path class="cls-2" d="m764.46,132.23c-.02.09,2.48,1.28.48,1.74-.71.16-9.1-1.26-8.1-4.06,4.04-.18,5.87-.04,7.62,2.32Z"/>
                <path class="cls-21" d="m636.77,172.83l-1.91-2.32c.78-.08,14.57-4.72,1.91,2.32Z"/>
                <path class="cls-6" d="m590.56,157.17c5.16.37-6.15,10.37-4.29,3.77.13-.45,3.67-3.81,4.29-3.77Z"/>
                <path class="cls-15" d="m764.46,132.23c-1.75-2.36-3.58-2.5-7.62-2.32,1.77-4.93,8.41-1.71,7.62,2.32Z"/>
                <path class="cls-15" d="m703.47,121.79c2.57,2.11-4,7.2-6.19,5.22,5.88-1.46.22-3.36,4.29-5.8.32.13,1.84.53,1.91.58Z"/>
                <path class="cls-21" d="m740.16,138.03c5.28.48-7.9,5.82-8.1,3.77,1.33-1.63,7.27-3.84,8.1-3.77Z"/>
                <path class="cls-1" d="m617.24,129.91c.5-.1,4.15-.1,4.76,0,15.88,2.61-15.2,2.1-4.76,0Z"/>
                <path class="cls-26" d="m807.81,140.93c-.43,2.69,2.48,5.63,0,5.8-1.6.11-6.47-3.18,0-5.8Z"/>
                <path class="cls-6" d="m782.08,122.95c.24-.02,3.64.9,4.29,1.45,6.19,5.21-13.11-.82-4.29-1.45Z"/>
                <path class="cls-7" d="m795.42,109.03c1.91-.38,5.66,3.39,3.81,4.06-3.13,1.13-7.09-3.4-3.81-4.06Z"/>
                <path class="cls-6" d="m812.58,138.03c4.62-2.16,2.69,4.63,1.91,5.8-1.01-1.02-3.67-4.98-1.91-5.8Z"/>
                <path class="cls-15" d="m685.37,131.65c-1.54,5.05-9.64,3.22-2.86,0,2.03-.96,1.91.06,2.86,0Z"/>
                <path class="cls-15" d="m642.01,172.83c4.13,1.92-6,6.66-5.24,3.19.05-.22,4.95-3.33,5.24-3.19Z"/>
                <path class="cls-6" d="m724.44,160.65c8.06,3.84-3.51,2.52-5.72-1.16,1.8-.12,4.37.52,5.72,1.16Z"/>
                <path class="cls-15" d="m584.36,144.99c1.64,3.95-2.46,2.43-5.72.58,2.33-1.73,5.44-.53,5.72-.58Z"/>
                <path class="cls-26" d="m833.54,122.37c3.26-.57,4.43,3.15,1.91,3.48-.37.05-5.52-2.84-1.91-3.48Z"/>
                <path class="cls-26" d="m693.94,131.07c-.47.52.68,2.33-.48,2.9-1.18.58-4.04-2.24-4.29-2.32l4.76-.58Z"/>
                <path class="cls-10" d="m725.86,130.49c1.5,1.92-7.15,3.67-7.15,2.03,0-1.1,6.16-1.34,7.15-2.03Z"/>
                <path class="cls-2" d="m485.74,180.37c1.3-.12,1.49.12,1.43.87-.1,1.31-13.15,11.44-1.43-.87Z"/>
                <path class="cls-6" d="m702.52,138.03c-1.02.43-1.39,1.43-5.72,1.74.33-.18,2.84-4.94,5.72-1.74Z"/>
                <path class="cls-6" d="m735.39,133.97c.93,3.14-9.05,3.73-3.81.58.62-.37,1.8,1.34,3.81-.58Z"/>
                <path class="cls-15" d="m646.78,125.85q3.1.72,6.19,1.45c-1.68.76-7.75.16-6.19-1.45Z"/>
                <path class="cls-6" d="m722.53,118.89c.07-.08.88-1.52.95-1.74,5.54-.23-.17,4.9-.95,1.74Z"/>
                <path class="cls-10" d="m741.11,142.67c2.81.13-.56,1.99-1.91,2.32-6.63,1.61-.46-2.43,1.91-2.32Z"/>
                <path class="cls-21" d="m766.36,142.09c1.73,1.17-.18,1-3.81,2.9.58-2.77,1.19-1.55,3.81-2.9Z"/>
                <path class="cls-15" d="m619.62,169.93c-4.21,2.17-4.69-.71-.95-1.74.09.08,1.39-.22.95,1.74Z"/>
                <path class="cls-2" d="m641.06,127.59c3.68-.05-1.6,2.99-1.91,2.9-1.84-.53,1.13-2.89,1.91-2.9Z"/>
                <path class="cls-6" d="m625.81,172.25c2.8-.35.53,1.63-1.91,2.9-.13-.73.81-2.76,1.91-2.9Z"/>
                <path class="cls-15" d="m735.87,164.71l-1.91,1.16c-.78-3.29.16-1.1,1.91-1.16Z"/>
                <path class="cls-8" d="m728.72,138.61c.65.16.66,1.1.48,1.45-1.88,3.6-3.36-2.17-.48-1.45Z"/>
                <path class="cls-21" d="m504.32,187.33c-1.11-1.08.95-1.31,1.91-1.74,1.39,1.09.51,1.75-1.91,1.74Z"/>
                <path class="cls-2" d="m804,121.79c3.16-.85,2.58,1.71.95,1.74-.48,0-2.32-1.37-.95-1.74Z"/>
                <path class="cls-15" d="m633.91,162.39l3.81.87c-1.41.9-3.61-.85-3.81-.87Z"/>
                <path class="cls-10" d="m737.3,128.17c3.99-.77,1.48,1.9-.95,1.16-.92-.28.61-1.09.95-1.16Z"/>
                <path class="cls-17" d="m794,150.79l-.95-.58c3.16-4.08.89.39.95.58Z"/>
                <path class="cls-25" d="m691.08,150.21h.95c-.16.35,2.02,1.2.48,2.32-.85-.71-1.12-1.48-1.43-2.32Z"/>
                <path class="cls-15" d="m629.15,171.09c-.12-.12-2.6,1.18-2.86.29-.92-3.13,2.6-.25,2.86-.29Z"/>
                <path class="cls-15" d="m529.57,174.57c1.42-.35,2.09.88.95,1.16-1.42.35-2.09-.88-.95-1.16Z"/>
                <path class="cls-13" d="m712.52,159.49c.73,0,.73,2.32,0,2.32s-.73-2.32,0-2.32Z"/>
                <path class="cls-10" d="m813.53,135.71c1.42-.35,2.09.88.95,1.16-1.42.35-2.09-.88-.95-1.16Z"/>
                <g>
                  <path class="cls-7" d="m671.07,142.09h6.67c1.07,1.63,9.54,6.95.48,4.06-13.53,10.02-14.47-3.39-14.29,10.44-8.86-3.01-7.01-6.19-7.62-6.38-3.02,5.51-14.46-1.62-20.01,5.22-2.95-2.91-8.75,1.09-10.48,1.16-.87.03-.03-1.54-.95-1.74-.39-.08-9.18,4.43-4.76-.58,1.61-1.82,17.62-3.18,11.91-8.41,7.85-2.13.4-2.41,16.2-5.51,1.55,3.22,1.75-.45,1.91-.58,8.75-2.04,1.53.22,2.86,4.35,2.29,7.13,11.95-5.98,6.67-7.25,12.58-4.22-8.2-3.97-6.67-7.83.67-1.68,8.7-2.37,10.01-4.35,6.82,2.98-.56,6.36,8.1,4.35-3.05,9.69-10.53-.15-2.86,13.92.4.44,2.13-.5,2.86-.87Z"/>
                  <path class="cls-26" d="m659.64,136.87c5.28,1.27-4.38,14.38-6.67,7.25-1.33-4.13,5.89-6.39-2.86-4.35,4.01-3.35,5.61-1.59,9.53-2.9Z"/>
                  <path class="cls-6" d="m648.2,140.35c.75-.15,1.16-.41,1.91-.58-.16.13-.36,3.8-1.91.58Z"/>
                  <path class="cls-26" d="m640.11,144.99c4.27-.72,2.54,3.3-.95,2.9-2.4-.28.66-2.85.95-2.9Z"/>
                </g>
                <g>
                  <path class="cls-15" d="m555.78,176.89c5.39,3.34.85,6.15,4.29,5.8,1.29-.13,1.54-3.31,1.43-3.48,12.03-5.28,5.88-.11,10.01.58,3.74.62,11.39-5.69,12.39-5.8.27-.03,4.26,1.87,4.29,2.03.52,2.71-21.33,16.94-26.68,12.76-.64-.5-.74-5.24-10.96-10.15q-7.15,3.77-14.29,7.54c-5.8-7.21.55-3.32,3.81-8.7,10.3.9,6.28-6.43,15.72-.58Z"/>
                  <path class="cls-6" d="m561.49,179.21c.11.17-.14,3.35-1.43,3.48-3.44.35,1.1-2.46-4.29-5.8,1.79-.75,5.59,2.12,5.72,2.32Z"/>
                  <path class="cls-26" d="m569.59,180.37c1.6.62,1.24,1.17.48,2.03-2.76,3.11-11.38,3.37-.48-2.03Z"/>
                </g>
              </g>
            </g>
            <g>
              <path class="cls-15" d="m761.6,146.73c.41.41-.09,1.04,1.91,1.74-4.36.65-5.68,8.32-10.48,6.38-.83-1.76-1.08-4.06-1.43-4.06-.96,1.92-1.19,3,1.43,4.06.31.65-.59,2.59,1.91,3.48-5.09,4.01-1.97,3.41-4.76,5.8-.74-1.87,1.22-2.72-3.81-2.32.08-.08.34-.82.95-1.74.08-.12,3.98.19,0-1.16,8.63-7.72,0,.56-9.53-4.64-.26-.14-2.56-3.28-1.91-4.06,3.67-.3.07-2.14,6.67.58.36.15.86,5.23,3.81,0,10.58-.88-1.3-8.99,7.62-3.19,2.25-3.29-5.86-4.26-2.38-5.51,4.91,1.39,7.16,1.81,10.01,4.64Z"/>
              <path class="cls-30" d="m746.35,150.79c-2.95,5.23-3.45.15-3.81,0,1.25-.07,2.58.1,3.81,0Z"/>
              <path class="cls-17" d="m747.3,160.07v-1.16c3.98,1.35.08,1.04,0,1.16Z"/>
              <path class="cls-19" d="m756.36,146.15c2.62-.51,5.69,2.16,3.81,2.9-1.78.7-7.98-2.09-3.81-2.9Z"/>
              <path class="cls-19" d="m753.02,154.85c-2.62-1.06-2.39-2.14-1.43-4.06.35,0,.6,2.3,1.43,4.06Z"/>
            </g>
            <path class="cls-26" d="m758.74,156.59c.11,2.32,9.68,5-3.81,1.74.22-.17-.69-1.55,1.43-2.32.59.5,1.38.79,2.38.58Z"/>
            <path class="cls-17" d="m760.64,169.35c-1.31.89-1.81-.01-1.91,0,1.9-3.4,1.25-.97,1.91,0Z"/>
          </g>
          <g>
            <path class="cls-7" d="m169.86,175.73c-9.56,4.47,3.03,3.75-4.76,8.7-13.79.34-29.29-.29-42.88-1.74-1.25-9.44,6.14,4.39,8.1-2.9,8.43,2.34,3.66-1.57,8.58-2.32,6.94-1.06,9.4,3.54,15.25,2.32,5.39-1.12-1.75-3.79,5.24-5.8,1.89,2.29,4.63,2.43,6.67,0,.1,0-.35-.95.48-1.16q1.67,1.45,3.34,2.9Z"/>
            <path class="cls-7" d="m196.54,182.69c-7.13,2.11-15.79,2.75-12.39-2.9,6.14-2.41,18.13-3.9,12.39,2.9Z"/>
            <path class="cls-3" d="m351.86,137.45c8.29,1.61,17.35,3.64,3.81,4.06-43.04-5.15-36.11.62-38.59,1.16-5.58,1.21.66-2.69-7.15-2.32l.95-.87c-5.39.2-12.37,5.49-2.86-1.16-.03-1.89-11.56,2.2-12.86,4.93,1.96-4.08-12.01-4.47,0-5.22,5.83-4.6-26.37,5.43-18.58-1.45.74-.65,4.35.25,4.76-1.45l20.01-4.64c3.4.39,6.98.84,10.48.58.14-.01,0,1.23,2.86.29,4.48-9.9,3.43.07,4.76,1.16,6.88,5.61,3.53-9.44.95-11.02l1.43-.29q4.29,6.67,8.58,13.34c.89.39,17.65,2.16,21.44,2.9Z"/>
            <path class="cls-7" d="m121.26,106.71c-.04,5.48,4.11,1.52,8.58-.58,1.91,1.11,5.18,1.04,5.72,1.16-4.4,1.77-5.27,3.43-4.76,6.67-6.91,2.13-3.64,4.5-9.05,7.83-1.22-15.48-10.06.56-8.58-9.86-11.53,6.52-8.68,1.39-10.48,1.16-.65-.08-8.65,5.87-10.96,2.61-2.27-3.22,18.27-7.97,20.96-10.15,1.59.05,8.14,1.21,8.58,1.16Z"/>
            <path class="cls-7" d="m266.1,144.99c-.99-2.29-2.65-3.69,0-5.8,8.5,4.38,1.85,19.79,9.05,1.16,2.14,2.68,3.45,2.62,6.19,4.06.46.24.64,5.22,7.62-.58,7.03,4.23-6.4,2.82-4.29,5.8-6.97,1.61-.85-.14-5.72-4.64-4.95,12.39-8.52,5.91-9.53,5.8-.37-.04-3.67,1.21-5.24,3.19-.61.76,5.94-.04-3.81,3.77.85-.45-1.68-3.73-3.81-3.48,2.23-1.25,3.82-1.94,6.67-2.61-9.13-.41-9.64-3.59-1.91-6.38-15.36-5.2-11.7-.58-13.34.58-6.04,4.26-8.37,7.02-12.39,4.35-.18-2.35,6.47-.96,9.53-3.77,1.78-1.63.98-5.62,4.29-7.25,3.03-.54,15.92,9.52,16.68,5.8Z"/>
            <path class="cls-7" d="m168.91,147.31c.72,1.38-.99,1.93-.95,2.03.13.41,8.72,3.24-3.81,5.51-1.83.21-4.02-3.48-4.76-4.64-.95-1.48,2.21-8.05-7.62,1.16-1.34.11-.8-1.25-1.43-1.16-.67.1-8.87,4.9-10.01,5.8h-.95c-1.06-1.6,3.1-1.95-5.72-4.06.39-.37-.39-2.27,0-2.61,1.67-1.46,12.84-5.9,15.72-3.19,4.65-5.93,8.09-.95,8.58-1.16.87-.37,4.3-10.49,10.96,2.32Z"/>
            <path class="cls-21" d="m211.79,144.99c-.17,3.03-5.44,4.22-3.81,6.67,1.12,1.68,14.38-4.11,10.48,3.77-8.51-2.09-13.2-2.85-12.39,2.9-8.17,1.23-15.96,9.72-.48,4.06-.81,3.93,2.36,3.53,2.38,3.77.62,5.86-6.21,2.25-8.1,2.61-.28.05-2.2,2.44-3.34,2.9-1.12.46-6.28-.93-3.81,1.16-6.03-1.69-.29-4.56,4.76-5.51-5.09.17-8.78-.1-13.34-1.74,2.97-2.28,8.54,1.13,11.43-1.16,3.38-2.67-6.34-3.67-2.86-4.93,9.24,1.62,4.36-1.39,5.24-1.74,2.76-1.1,6.01,3.69,4.29-4.06,1.62-1.99,3.44-3.39,2.86-5.8-.51-2.13-3.82-.43-2.38-2.32q4.53-.29,9.05-.58Z"/>
            <path class="cls-7" d="m239.42,160.07c.08.2-2.25.5,0,4.06-1.72.84-1.26,1.89-4.76,2.32-.03-.12.88-2.72-1.43-2.32-1.4.24-3.36,2.91,1.43,2.32.25,1.22,1.36,1.77-.95,3.19,9.29,5.26-.98,1.32-2.38,1.45-.78.07-2.22,1.69-2.38,1.74q-3.34.29-6.67.58c1.36-3.86,2.28-2.42,3.81-4.35.78-.98-1.02-1.66-.95-1.74.89-1.1,4.54-1.88,4.76-2.9.07-.3-2.82-.28-8.58-2.61,1.17.14,1.95-.25,2.86-.58,2.32,3.01,9.99.61,5.72-1.74,6.82-3.62-7.06-4.87-.95,0-1.43.67-1.69.51-1.91.58-1.62-2.74-8.22-.97-5.72-3.48,3.06-7.57,17.03.83,18.1,3.48Z"/>
            <path class="cls-2" d="m102.21,104.97c-3.32,4.49-42.28,13.67-30.02,6.38,14.75-.02-1.83-.65,8.1-8.12,7.28.39,14.58,1.35,21.92,1.74Z"/>
            <path class="cls-5" d="m301.36,130.49l-20.01,4.64c-2.22-.24-4.44-.39-6.67-.58-2.21-1.92-12.14-4.94-2.38-4.06-1.37-4.17,5.77-2.1,9.05-3.48,3.71.79,16.91,3.12,20.01,3.48Z"/>
            <path class="cls-7" d="m183.2,150.21c-.64,1.47-5.43,2.27-6.67,3.77-1.27,1.53,2.79,10.98-12.39.87,12.53-2.27,3.94-5.1,3.81-5.51-.03-.1,1.67-.65.95-2.03,3.71.34,6.33-1.12,6.67-1.16,4.35-.57,9.4-.01,7.62,4.06Z"/>
            <path class="cls-21" d="m221.32,156.59c-2.5,2.51,4.1.74,5.72,3.48-1.06.35-1.82.79-2.86,1.16-.91.33-1.69.72-2.86.58-7.05-2.86-2.1.74-5.24.58-.42-.02-3.42-4.78-4.76-.58-3.45-5.53-4.16,4.18-5.24-3.48,6.04,1.36,10.65.61,12.39-2.9,1.53.38.48,1.46,2.86,1.16Z"/>
            <path class="cls-29" d="m260.38,157.75c-.13.05-.86,1.17-1.43,1.74-13.86-3.28-13.99,3.4-14.77,3.77-.98.46-4.45.72-4.76.87-2.25-3.55.08-3.86,0-4.06,8.35-1.48,8.39-1.06,15.25-4.06.32,1.3,4.55,2.35,5.72,1.74Z"/>
            <path class="cls-15" d="m159.38,150.21c-2.39.69-5.02.96-7.62,1.16,9.83-9.21,6.67-2.64,7.62-1.16Z"/>
            <path class="cls-32" d="m164.14,172.83c.04.48,1.22,1.23,1.91,1.16-2.04,2.43-4.78,2.29-6.67,0,2.4-1,4.58-1.05,4.76-1.16Z"/>
            <g>
              <path class="cls-19" d="m23.12,100.33c14.08.42,28.83,1.02,42.88,1.74,4.7.24,9.45.9,14.29,1.16-9.93,7.47,6.65,8.1-8.1,8.12-12.27,7.29,26.7-1.89,30.02-6.38,3.56.19,6.86.47,10.48.58-2.69,2.18-23.24,6.93-20.96,10.15,2.31,3.26,10.31-2.69,10.96-2.61,1.8.23-1.05,5.36,10.48-1.16-1.48,10.42,7.35-5.62,8.58,9.86,5.42-3.32,2.14-5.7,9.05-7.83-.5-3.24.36-4.9,4.76-6.67,5.18,1.13,14.67,2.02,20.96,2.9-5.16,2.2,7.97,8.84-.48,12.18-3.67,1.45-5.37-1.08-8.1.87-2.2,1.57-.54,6.49-3.34,7.25-10.33,2.81-1.4-8.78-8.58-7.54-.76.13-7.83,6.95-8.58,8.12-16.5-3.2-5.71,3.31-6.19,3.77-1.36,1.27-6.46-3.49-10.48,9.86,2.33,2.75,10.18-7.46,10.96-7.25,4.63,1.22-1.55,3.8,5.24,2.32,3.15-.68,3.31.32,6.19-3.48,10.07,3.72,6.89.29,7.15,0,4.58-5.21,6.62-4.5,10.96,1.16,2.44-15.44,14.76-9.07,16.2-9.28,3.44-.5,2.83-6.22,4.76-6.38,2.16-.18,1.13,5.59,9.53-1.16,7.51,12.5-2.03,9.93-3.34,12.47-.87,1.69,4.27,7.61,2.86,8.7-1.19.91-7.05-1.43-5.72,4.35-.34.04-2.96,1.5-6.67,1.16-6.66-12.81-10.09-2.69-10.96-2.32-.49.21-3.93-4.77-8.58,1.16-2.89-2.71-14.05,1.73-15.72,3.19-.39.34.39,2.24,0,2.61-1.08,1.04-1.3.41-4.76,4.64-5.13,6.28-3.17,2.26,1.91,1.16.41-.09,6.9-.54,8.58-.58,1.57,3.11,5.63.77.95-1.16,1.14-.9,9.33-5.7,10.01-5.8.63-.09.09,1.27,1.43,1.16,2.6-.2,5.23-.47,7.62-1.16.75,1.16,2.94,4.85,4.76,4.64,15.18,10.11,11.12.66,12.39-.87,1.24-1.5,6.03-2.3,6.67-3.77,2.17-.31,3.23.53,4.76,1.16.54.22,2.77,1.07,2.86,1.16,2.13,2.06,2.02,4.64,1.91,6.96-3.48,1.26,6.24,2.26,2.86,4.93-2.89,2.29-8.46-1.12-11.43,1.16,4.56,1.64,8.26,1.91,13.34,1.74-5.05.95-10.8,3.82-4.76,5.51,4.39,1.23,8.31.42,3.81-1.16,1.14-.46,3.06-2.85,3.34-2.9,1.89-.36,8.72,3.25,8.1-2.61-.02-.24-3.19.16-2.38-3.77-15.48,5.66-7.69-2.83.48-4.06,1.08,7.65,1.79-2.05,5.24,3.48,1.34-4.2,4.35.56,4.76.58,3.15.16-1.81-3.44,5.24-.58,5.75,2.33,8.64,2.31,8.58,2.61-.22,1.02-3.87,1.8-4.76,2.9-.07.08,1.73.76.95,1.74-1.53,1.93-2.45.49-3.81,4.35-.03.1-3.09.64-1.43,1.74,9.03-.64,7.66-2.18,8.1-2.32.16-.05,1.6-1.67,2.38-1.74,1.4-.13,11.67,3.82,2.38-1.45,2.31-1.42,1.2-1.97.95-3.19,3.5-.43,3.05-1.48,4.76-2.32.31-.15,3.78-.41,4.76-.87.78-.37.91-7.05,14.77-3.77.57-.57,1.29-1.69,1.43-1.74,9.75-3.81,3.21-3.01,3.81-3.77,1.57-1.98,4.87-3.23,5.24-3.19,1,.11,4.58,6.59,9.53-5.8,4.87,4.5-1.26,6.25,5.72,4.64-2.11-2.98,11.32-1.57,4.29-5.8-2.83-1.7-5.53-1.39-7.62.58-2.74-1.44-4.06-1.38-6.19-4.06-7.2,18.63-.56,3.22-9.05-1.16-3.74.52-1.28-4.71.48-5.22.54-.16,6.23.42,8.1.58,2.23.19,4.45.34,6.67.58-.41,1.7-4.03.8-4.76,1.45-7.79,6.88,24.41-3.15,18.58,1.45-12.01.75,1.96,1.14,0,5.22,1.31-2.73,12.83-6.82,12.86-4.93-9.52,6.65-2.53,1.36,2.86,1.16l-.95.87c-2.3-.49-4.57,2.59-3.34,2.9,2.34.59,3.66-2.83,3.34-2.9,7.8-.37,1.57,3.53,7.15,2.32,2.48-.54-4.45-6.31,38.59-1.16,12.3,1.47,32.51,6.32,34.3,6.38.68,4.96-7.34,4.67-9.05,1.74-1.51,6.92-8.08-1.84-9.53-1.74-.74.05-5.02,4.78-10.48,6.38-3.24-1.2,7.19-5.45,5.72-7.54-6.77,4.72-11.71,5.36-20.49,6.96-6.74,1.23-8.95,2.18-17.15,1.74-.16-.13-2.42-.91-2.86-1.16-7.67-4.38-7.21-4.31-23.82-1.16-1.63.31-2.23-.84-3.34-.58-.62,1.26-3.42,2.39-5.24,2.9-1.71.48-3.2,1.26-4.76,1.74-8.68,2.65-15.99,5.46-24.3,8.12-.43.14-6.06.04-9.53,1.16-.94.3,1.5.95-.95,1.74-9.53,3.08-12.65,4.99-13.34,5.22-5.96,2-19.53,3.55-21.92,6.96-3.04-3.33-5.35-.96-6.67-1.16-.38-.06-5.11-5.42-3.34.87.22.79,3.77.62,2.86,2.32-.47.88-13.3.93-8.1-4.93-3.03,3.06-1.91,3.67-7.15,5.22,5.75-6.8-6.25-5.31-12.39-2.9-10.98,4.31,3.55,4.09-19.06,4.64,7.8-4.95-4.8-4.23,4.76-8.7,2.24-1.05,7,1.29,1.91-4.35,15.34-6.18-12.43-10.1-2.86-3.48-5.45.31.1,2.11-4.76,4.93-.19.11-2.37.16-4.76,1.16-6.99,2.01.15,4.67-5.24,5.8-5.84,1.22-8.31-3.38-15.25-2.32-4.91.75-.15,4.66-8.58,2.32-1.96,7.29-9.35-6.54-8.1,2.9-6.75-.72-17.16-2.63-23.82-4.06,6.27-5.64-1.32-2.4-3.34-6.96-18.51-.97-8.77.1-3.34,5.22-8.3-2.19-16.65-4.49-22.87-8.7,9.63,1.86,2.93-1.61,11.43-.87-3.01-2.51-7.18-2.45-11.43-3.19-.3-.05-5.03-2.17-5.72-1.45-3.58,3.75,5.4,1.25,5.72,1.45,1.2.75-2.83,2.76-.95,4.06-16.24-4.33-31.07-27.24-29.54-28.71,1.16-1.11,7.08,1.52,7.62.58-8.72-4.37-7.66-1.81-8.1-2.03-3.27-1.67-5.09-6.25,1.43-6.67-8.99.79-9.12-5.81-14.29-10.44-7.5-6.72-16.43-13.08-24.77-19.43,0-.39,0-.77,0-1.16,7.19.38,15.87-.21,22.87,0Z"/>
              <g>
                <path class="cls-2" d="m98.39,178.63c-2.3-.5-4.44-1.15-6.67-1.74-5.43-5.12-15.18-6.19,3.34-5.22,2.01,4.56,9.61,1.32,3.34,6.96Z"/>
                <path class="cls-1" d="m68.85,168.19c-.3-.06-.7.07-.95,0-1.87-1.3,2.16-3.31.95-4.06,4.25.74,8.42.68,11.43,3.19-8.5-.74-1.81,2.72-11.43.87Z"/>
                <path class="cls-7" d="m105.06,132.81c.09-2.36-3.39-.87-6.67,0-2.42.64-3.75,1.93-5.72,2.32l-1.91-1.74c2.58-2.54-1.61-4.18,5.24-2.9-1.04-7.61,23.79-4.46,9.05,2.32Z"/>
                <path class="cls-15" d="m148.42,161.81c3.79-.23.71,3.9,5.24,3.19-8.88,11.2-6.74,2.1-10.96,3.77-.51.2,2.43,5.59-5.72,4.06-6.15-1.16,9.31-4.23,1.43-7.25,15.14-.11,4.97-3.47,10.01-3.77Z"/>
                <path class="cls-16" d="m169.86,175.73q-1.67-1.45-3.34-2.9c-.82.21-.38,1.15-.48,1.16-.68.07-1.87-.68-1.91-1.16,4.86-2.82-.69-4.62,4.76-4.93-9.57-6.62,18.2-2.7,2.86,3.48,5.09,5.64.34,3.3-1.91,4.35Z"/>
                <path class="cls-2" d="m162.24,161.81c-.4,1.46,6.24,6.41,2.38,7.54-1.19.35-14.1-5.15-7.62-8.12,3.08-1.41,4.93.6,5.24.58Z"/>
                <path class="cls-1" d="m139.37,156.01c.17.25-.16.85,0,1.16-1.68.04-8.17.49-8.58.58l-1.91-1.16c3.46-4.23,3.68-3.6,4.76-4.64,8.81,2.11,4.65,2.46,5.72,4.06Z"/>
                <path class="cls-1" d="m102.68,158.91c5.33-.32,7.57,2.49,6.67,5.22-17.28-1.27-11.26-4.94-6.67-5.22Z"/>
                <path class="cls-2" d="m126.03,173.99c-11.94,6.51-12.76-1.53-6.67-2.9l6.67,2.9Z"/>
                <path class="cls-7" d="m126.03,173.99l-6.67-2.9c2.53-.57,11.48-1.47,11.43.87-.02.98-4.55,1.91-4.76,2.03Z"/>
                <path class="cls-16" d="m288.97,143.83c-6.98,5.8-7.16.82-7.62.58,2.09-1.97,4.79-2.28,7.62-.58Z"/>
                <path class="cls-18" d="m85.53,139.19c3.31-.03,3.38,1.5,6.19,2.03-9.84-.92-15.64,4.78-12.39.58.82-1.06,5.49-2.6,6.19-2.61Z"/>
                <path class="cls-1" d="m75.05,155.43c4.45-.58-.47,3.88-4.29,3.19,3.69,6.82-4.5,2.43-.95-1.16.16-.16,4.94-1.99,5.24-2.03Z"/>
                <path class="cls-2" d="m88.39,150.79c5.42.17,1.65,4.64-2.86,4.06-2.69-.35.52-4.13,2.86-4.06Z"/>
                <path class="cls-18" d="m65.52,151.95c1.72-.06,2.27.02,3.34.87,7.96,6.37-14.05-.5-3.34-.87Z"/>
                <path class="cls-2" d="m60.76,103.23c6.2.91-7.15,7.42-5.24,2.61.08-.2,4.91-2.66,5.24-2.61Z"/>
                <path class="cls-1" d="m64.57,137.45c8.44,0-1.84,3.15-4.76,3.48-1.44-1.56,2.99-3.48,4.76-3.48Z"/>
                <path class="cls-7" d="m334.23,141.51c19.7,2.12-11.49,4.62,2.38,1.45q-1.19-.72-2.38-1.45Z"/>
                <path class="cls-5" d="m302.31,153.11c-2.44,2.23-5.25,4.94-8.58,2.32,1.82-.51,4.62-1.64,5.24-2.9,1.11-.26,1.71.89,3.34.58Z"/>
                <path class="cls-15" d="m105.06,132.81c-1.75.8-4.75,4-6.67,0,3.28-.87,6.76-2.36,6.67,0Z"/>
                <path class="cls-15" d="m96.96,165.87c3,1.05-5.82,5.91-6.19,2.61-.1-.91,5.75-2.76,6.19-2.61Z"/>
                <path class="cls-2" d="m48.37,107.87c2.8-.05,4.31.76,1.91,1.74-6.93,2.84-9.2-1.62-1.91-1.74Z"/>
                <path class="cls-15" d="m96.96,145.57c4.6.43-3.35,3.71-5.24,2.03-1.49-1.32,4.88-2.06,5.24-2.03Z"/>
                <path class="cls-2" d="m62.66,117.15c1.15-.14,3.18.25,3.34.87.79,3.19-14.68.49-3.34-.87Z"/>
                <path class="cls-2" d="m49.32,117.15c4.83-1,5.38,3.44,0,2.32-1.79-.37-1.79-1.95,0-2.32Z"/>
                <path class="cls-15" d="m112.21,156.59c3.96-1.59,5.43,2.88,1.91,2.9-.59,0-3.74-2.16-1.91-2.9Z"/>
                <path class="cls-15" d="m212.26,171.09l1.91,4.64c-4.08-.7-4.14-2.61-1.91-4.64Z"/>
                <path class="cls-21" d="m228.94,172.83c-.44.14.93,1.68-8.1,2.32-1.66-1.1,1.4-1.64,1.43-1.74q3.34-.29,6.67-.58Z"/>
                <path class="cls-2" d="m61.71,125.27c.72-.12,2.92-.12,3.34.29-9.95,5.43-6.32.21-3.34-.29Z"/>
                <path class="cls-12" d="m196.54,171.67c4.5,1.58.58,2.39-3.81,1.16-2.47-2.09,2.69-.7,3.81-1.16Z"/>
                <path class="cls-1" d="m68.85,164.13c-.32-.2-9.3,2.3-5.72-1.45.69-.72,5.42,1.4,5.72,1.45Z"/>
                <path class="cls-2" d="m162.24,161.81c.71-2.63,5.84-2.26,5.72-1.45-.2,1.36-4.26,1.37-5.72,1.45Z"/>
                <path class="cls-15" d="m130.79,157.75c-5.08,1.1-7.04,5.12-1.91-1.16l1.91,1.16Z"/>
                <path class="cls-15" d="m76.95,125.85c6.51-.62,7.55,1.67,3.81,1.74-.24,0-5.12-1.11-3.81-1.74Z"/>
                <path class="cls-7" d="m339.95,147.89c8.06.22-1.76,2.19-8.1.87,6.58-.17,7.69-.88,8.1-.87Z"/>
                <path class="cls-15" d="m35.98,123.53c3.67-.51,10.07,2.78-.95,1.16-.98-.18.57-1.11.95-1.16Z"/>
                <path class="cls-20" d="m334.23,151.37c4.48-.07,5.12,3.96,0,1.74-2.11-.92-.66-1.73,0-1.74Z"/>
                <path class="cls-3" d="m309.93,140.35c.33.07-1,3.49-3.34,2.9-1.24-.31,1.03-3.39,3.34-2.9Z"/>
                <path class="cls-8" d="m90.77,133.39l1.91,1.74c-3.85.76-6.26-.8-3.34-2.32l1.43.58Z"/>
                <path class="cls-15" d="m126.5,146.73c2.3-.86,11.7,1.79,0,1.16-.79-.27-.79-.86,0-1.16Z"/>
                <path class="cls-17" d="m139.37,157.17c-.16-.31.17-.91,0-1.16h.95c4.67,1.93.62,4.27-.95,1.16Z"/>
                <path class="cls-8" d="m115.07,153.11c2.29-.73,5.79,1.19,3.81,1.74-.69.19-5.23-1.28-3.81-1.74Z"/>
                <path class="cls-1" d="m18.83,109.03c.78.27.77,2.66,0,2.9-2.54.78-1.18-3.32,0-2.9Z"/>
                <path class="cls-15" d="m46.46,144.99c.1,0,1.45.81,1.43.87-.74,2.82-6.61-1.04-1.43-.87Z"/>
                <path class="cls-18" d="m72.19,136.29c2.97-1.04,1.63,3.95-.48,1.45-.23-.27-.15-1.23.48-1.45Z"/>
                <path class="cls-6" d="m182.72,166.45c.48,0,2.32,1.37.95,1.74-3.16.85-2.58-1.71-.95-1.74Z"/>
                <path class="cls-2" d="m115.07,127.01c.27-.04,2.4,2.66.95,2.9-.27.04-2.4-2.66-.95-2.9Z"/>
                <path class="cls-2" d="m70.28,139.77c1.86-1.49.48.78.48.87-.31,4.21-1.98.33-.48-.87Z"/>
                <path class="cls-15" d="m32.17,121.79c1.92.42-1.69,2.62-2.38,1.45-.06-.1,2.22-1.48,2.38-1.45Z"/>
                <path class="cls-33" d="m71.24,129.91c2.45-.79,2.75,1.03.95,1.16-.11,0-1.93-.85-.95-1.16Z"/>
              </g>
            </g>
            <path class="cls-19" d="m203.21,125.85c-.36,4.32-2.98,7.18.48,8.12l3.34-7.54c6.47.1,2.32,1.2,6.19,2.32,6,1.74-.1-4.09,10.01,4.64.76.65,1.75.84,2.86,1.16-.91.79-.92,2.04-2.86,2.32-2.97-1.81-.46.09-2.38.58-12.87,3.28-10.12,6.1,4.29,1.74,1.33-.4,2.14-1.31,3.34-1.16.75.1-.12.75,1.43,1.16.5.13.43,2.45,9.53,1.74.95,3-2.04,3.59-4.76,5.8-3.83,3.1.06.4.95,1.45.08.09-2.21.56,0,2.03,4.02,2.67,6.35-.09,12.39-4.35,1.64-1.16-2.02-5.78,13.34-.58-7.74,2.79-7.23,5.97,1.91,6.38-2.85.67-4.44,1.36-6.67,2.61-1.4.79-1.77,1.68-1.91,1.74-6.85,2.99-6.89,2.58-15.25,4.06-1.08-2.65-15.04-11.05-18.1-3.48-2.38.3-1.33-.78-2.86-1.16,3.9-7.88-9.36-2.09-10.48-3.77-1.63-2.45,3.65-3.64,3.81-6.67.07-1.25-.05-2.51,0-3.77-15.81-4.66-13.27,13.06-29.54-2.32,5.22-2.77,6.18-7.01,8.1-7.25,1.62-.2,8.84,4.06,10.01,2.61-8.07-7.5-8.26-.58-14.29-6.38,11.01-18.49,3.47,1.74,16.68-4.35,2.82,1.3.53,1.66.48,2.32Z"/>
            <path class="cls-19" d="m266.1,144.99c-.76,3.72-13.65-6.34-16.68-5.8-3.31,1.62-2.51,5.62-4.29,7.25-3.06,2.81-9.71,1.42-9.53,3.77-2.21-1.47.08-1.94,0-2.03-.89-1.05-4.79,1.65-.95-1.45,4.94-.18,7.68-3.25,4.76-5.8-9.1.71-9.03-1.61-9.53-1.74,11.37.22,6.97-.97,8.1-1.16,2.05-.34,2.71.6,2.86.58.85-.13,9.25-4.87,11.43-.58,10.82-6.7,5.55-1.04,10.96-.29.2.43-7.55.68,2.86,7.25Z"/>
            <path class="cls-15" d="m223.22,136.87c.82.5,2.07,1.51,1.91,2.32-14.4,4.36-17.15,1.54-4.29-1.74,1.92-.49-.59-2.39,2.38-.58Z"/>
            <path class="cls-15" d="m207.02,126.43l-3.34,7.54c-3.46-.94-.84-3.8-.48-8.12,2.41,2.17,2.56.56,3.81.58Z"/>
            <g>
              <path class="cls-7" d="m163.19,110.77c8.52,8.75,3.48,9.59,10.48,1.74.88.11,1.98-.11,2.86,0,17.13,2.21,34.37,4.05,51.46,6.38.57.08,1.34-.08,1.91,0-2.71.52-1.71,5.63-.48,5.8,3.03.42-5.97-4.83,15.72-3.48,1.49.27,8.18.44,8.58.58,4.66,1.61,4.21,12.34,9.53,1.16,5.88,1.38,12.15,2.8,18.1,4.06-3.28,1.38-10.42-.69-9.05,3.48-9.76-.88.17,2.14,2.38,4.06-1.87-.16-7.56-.74-8.1-.58-1.76.51-4.21,5.74-.48,5.22-2.65,2.1-.99,3.5,0,5.8-10.41-6.57-2.66-6.82-2.86-7.25-5.41-.75-.14-6.41-10.96.29-2.18-4.29-10.58.45-11.43.58-.15.02-.81-.92-2.86-.58-1.13.19,3.27,1.38-8.1,1.16-1.55-.41-.68-1.06-1.43-1.16-1.2-.15-2,.76-3.34,1.16.16-.81-1.09-1.82-1.91-2.32,1.94-.28,1.95-1.53,2.86-2.32.27-.24,7.61-1.97-2.86-1.16-10.11-8.73-4-2.9-10.01-4.64-3.87-1.12.27-2.22-6.19-2.32-1.25-.02-1.4,1.59-3.81-.58.06-.66,2.34-1.02-.48-2.32-13.21,6.09-5.67-14.14-16.68,4.35,6.04,5.8,6.22-1.12,14.29,6.38-1.16,1.45-8.38-2.81-10.01-2.61-1.92.24-2.88,4.48-8.1,7.25,16.27,15.38,13.73-2.34,29.54,2.32-.05,1.25.07,2.52,0,3.77q-4.53.29-9.05.58c-1.44,1.89,1.87.19,2.38,2.32-5.09-.03-5.08,3.15-4.76,5.51.06.48,1.89.23,1.91.29,1.73,7.75-1.53,2.96-4.29,4.06-.88.35,4,3.36-5.24,1.74.12-2.32.22-4.9-1.91-6.96,13.1-4.2,6.06-4.39-2.86-1.16-1.53-.63-2.6-1.47-4.76-1.16,1.78-4.07-3.28-4.63-7.62-4.06-1.33-5.78,4.53-3.44,5.72-4.35,1.41-1.09-3.73-7.01-2.86-8.7,1.31-2.54,10.85.04,3.34-12.47-8.39,6.75-7.37.98-9.53,1.16-1.94.16-1.33,5.88-4.76,6.38-1.44.21-13.76-6.16-16.2,9.28-4.34-5.66-6.38-6.37-10.96-1.16-2.41.62-5.21-.65-7.62-1.74.16-.14.61-3.52-.48-3.48-2.74,1.54-4.27,2.31-5.24,4.64-.31.74.98,2.29,0,4.06-6.8,1.48-.61-1.1-5.24-2.32-.78-.21-8.63,10-10.96,7.25,4.02-13.35,9.12-8.59,10.48-9.86.49-.45-10.3-6.97,6.19-3.77.75-1.17,7.81-7.99,8.58-8.12,7.18-1.24-1.75,10.35,8.58,7.54,2.8-.76,1.13-5.67,3.34-7.25,2.73-1.95,4.43.58,8.1-.87,8.44-3.34-4.69-9.97.48-12.18,2.03.29,4.8.33,6.67.58Z"/>
              <g>
                <path class="cls-15" d="m140.32,136.29c-.26.29,2.92,3.72-7.15,0-2.88,3.8-3.05,2.8-6.19,3.48.98-1.77-.31-3.32,0-4.06,1.21.76,5.06-.57,5.72-1.16,2.41,1.09,5.22,2.36,7.62,1.74Z"/>
                <path class="cls-26" d="m190.82,152.53c-.09-.09-2.32-.94-2.86-1.16,8.92-3.23,15.96-3.04,2.86,1.16Z"/>
                <path class="cls-19" d="m167.95,111.35c1.17.15,4.56,1.01,5.72,1.16-7,7.85-1.96,7.01-10.48-1.74,1.62.22,3.19.37,4.76.58Z"/>
                <path class="cls-2" d="m263.24,122.95c-5.32,11.18-4.87.45-9.53-1.16l.95-1.16c2.57.48,4.5-.74,5.24-.58,4.06,1.95,3.06,2.84,3.34,2.9Z"/>
                <path class="cls-3" d="m250.38,128.75c1.76-.36,9.34.48,10.48,1.16,9.93,5.92-21.8,1.15-10.48-1.16Z"/>
                <path class="cls-27" d="m245.14,121.21c-21.69-1.35-12.69,3.9-15.72,3.48-1.23-.17-2.24-5.28.48-5.8,5.11.71,10.21,1.42,15.25,2.32Z"/>
                <path class="cls-19" d="m205.12,147.89c.58,2.41-1.24,3.81-2.86,5.8-.01-.06-1.84.19-1.91-.29-.32-2.36-.33-5.54,4.76-5.51Z"/>
                <path class="cls-26" d="m233.23,134.55c6.75-1.07,7.88,3.97-3.81,2.32-.05-.5,3.55-2.28,3.81-2.32Z"/>
                <path class="cls-6" d="m132.7,134.55c-.66.59-4.5,1.92-5.72,1.16.97-2.33,2.5-3.1,5.24-4.64,1.08-.04.64,3.34.48,3.48Z"/>
                <path class="cls-9" d="m226.08,134.55c-1.11-.32-2.1-.5-2.86-1.16,10.47-.81,3.13.92,2.86,1.16Z"/>
              </g>
            </g>
            <path class="cls-5" d="m260.38,157.75c-1.17.61-5.4-.44-5.72-1.74.14-.06.5-.95,1.91-1.74,2.13-.25,4.67,3.03,3.81,3.48Z"/>
            <path class="cls-19" d="m218.46,155.43c-1.73,3.51-6.35,4.26-12.39,2.9-.81-5.75,3.88-4.99,12.39-2.9Z"/>
            <path class="cls-19" d="m224.17,161.23c1.04-.37,1.8-.81,2.86-1.16.22-.07.47.09,1.91-.58.2-.09.77.1.95,0,4.27,2.34-3.4,4.75-5.72,1.74Z"/>
            <path class="cls-16" d="m229.89,159.49c-.18.1-.75-.09-.95,0-6.1-4.87,7.77-3.62.95,0Z"/>
            <path class="cls-2" d="m234.66,166.45c-4.79.59-2.83-2.07-1.43-2.32,2.31-.4,1.4,2.2,1.43,2.32Z"/>
            <path class="cls-15" d="m234.66,146.73c2.73-2.21,5.71-2.8,4.76-5.8,2.92,2.54.18,5.62-4.76,5.8Z"/>
          </g>
        </g>
      </g>
      <path class="cls-15" d="m644.59,114.88c-3.96-2.42,5.63-.83-3.81-5.8-1.64,11.36-6.79.57-7.62,6.38"/>
    </g>
  </g>
</svg>