<?xml version="1.0" encoding="UTF-8"?>
<svg id="Calque_2" data-name="Calque 2" xmlns="http://www.w3.org/2000/svg" xmlns:xlink="http://www.w3.org/1999/xlink" viewBox="0 0 416.28 284.84">
  <defs>
    <style>
      .cls-1 {
        fill: #6397b4;
      }

      .cls-1, .cls-2, .cls-3, .cls-4, .cls-5, .cls-6, .cls-7, .cls-8, .cls-9, .cls-10, .cls-11, .cls-12, .cls-13, .cls-14, .cls-15, .cls-16, .cls-17, .cls-18, .cls-19, .cls-20, .cls-21, .cls-22, .cls-23, .cls-24, .cls-25, .cls-26, .cls-27, .cls-28, .cls-29, .cls-30, .cls-31, .cls-32, .cls-33, .cls-34, .cls-35, .cls-36, .cls-37, .cls-38, .cls-39, .cls-40, .cls-41, .cls-42, .cls-43, .cls-44, .cls-45 {
        stroke-miterlimit: 10;
      }

      .cls-1, .cls-2, .cls-3, .cls-4, .cls-5, .cls-6, .cls-8, .cls-9, .cls-10, .cls-11, .cls-12, .cls-13, .cls-14, .cls-15, .cls-16, .cls-17, .cls-18, .cls-19, .cls-20, .cls-21, .cls-22, .cls-24, .cls-25, .cls-26, .cls-27, .cls-28, .cls-29, .cls-30, .cls-31, .cls-32, .cls-33, .cls-34, .cls-35, .cls-36, .cls-37, .cls-38, .cls-39, .cls-41, .cls-42, .cls-43, .cls-44, .cls-45 {
        stroke: #afafaf;
      }

      .cls-2 {
        fill: #d9e9ed;
      }

      .cls-3 {
        fill: #152942;
      }

      .cls-4 {
        fill: #081b22;
      }

      .cls-5 {
        fill: #cfe0e8;
      }

      .cls-6 {
        fill: #063c52;
      }

      .cls-7 {
        fill: #1f3a61;
      }

      .cls-7, .cls-23, .cls-40 {
        stroke: #ccc;
      }

      .cls-8 {
        fill: #edf1f4;
      }

      .cls-9 {
        fill: #094362;
      }

      .cls-10 {
        fill: #3880bf;
      }

      .cls-11 {
        fill: url(#Dégradé_sans_nom_8);
      }

      .cls-12 {
        fill: #0d5f8c;
      }

      .cls-13 {
        fill: #a1bfd7;
      }

      .cls-14 {
        fill: #d3d3d3;
      }

      .cls-15 {
        fill: #176f9c;
      }

      .cls-16 {
        fill: #8cc2cb;
      }

      .cls-17 {
        fill: #f4d7ce;
      }

      .cls-18 {
        fill: #eaeeef;
      }

      .cls-19 {
        fill: #c0cecb;
      }

      .cls-20 {
        fill: #fefefe;
      }

      .cls-21 {
        fill: #126b81;
      }

      .cls-22 {
        fill: #22646a;
      }

      .cls-23 {
        fill: #0062a0;
      }

      .cls-24 {
        fill: #fafafa;
      }

      .cls-25 {
        fill: #1f2527;
      }

      .cls-26 {
        fill: #2885b3;
      }

      .cls-27 {
        fill: #1e5891;
      }

      .cls-28 {
        fill: #080d0c;
      }

      .cls-29 {
        fill: #b8d0df;
      }

      .cls-30 {
        fill: #a7b3b1;
      }

      .cls-31 {
        fill: #0c2532;
      }

      .cls-32 {
        fill: #dbc1b9;
      }

      .cls-33 {
        fill: #91aab3;
      }

      .cls-34 {
        fill: #bdd4dc;
      }

      .cls-35 {
        fill: #b9dddd;
      }

      .cls-36 {
        fill: #f0f5fb;
      }

      .cls-37 {
        fill: #fdfbfb;
      }

      .cls-38 {
        fill: #61a2bf;
      }

      .cls-39 {
        fill: #0a1419;
      }

      .cls-40 {
        fill: #9b9d9e;
      }

      .cls-41 {
        fill: #becfeb;
      }

      .cls-42 {
        fill: #00517e;
      }

      .cls-43 {
        fill: #93b4db;
      }

      .cls-44 {
        fill: #90bccd;
      }

      .cls-45 {
        fill: #774b3d;
      }
    </style>
    <linearGradient id="Dégradé_sans_nom_8" data-name="Dégradé sans nom 8" x1="180.47" y1="170.85" x2="260.22" y2="170.85" gradientUnits="userSpaceOnUse">
      <stop offset="0" stop-color="#004d79"/>
      <stop offset="1" stop-color="#0d6696"/>
    </linearGradient>
  </defs>
  <g id="Montagnes">
    <g>
      <g>
        <g>
          <path class="cls-20" d="m96.03,157.86c.4-.19,6.43-1.17,4.61-4.8-2.44,1.06-7.55,1.37-4.61,4.8Z"/>
          <path class="cls-20" d="m91.42,161.46c2.1,2.34,5.82-1.12,3.23-2.8-.2.09-1.82-.08-2.77,1l-.46,1.8Z"/>
        </g>
        <path class="cls-44" d="m380.14,279v2.4c1.21.72,13.57,2.3,14.87,2.89l.92-.4-1.15-1.6,20.98-.4c0-.13,0-.27,0-.4-1.32-.38-3.49-1.57-3.69-1.6-2.59-.39-26.44-.77-31.94-.89Z"/>
      </g>
      <g>
        <path class="cls-20" d="m346.47,200.24c.77,4.33,1.69,8.64,2.31,12.99,1.57,1.49,2.03,3.57,2.77,5.4,1.42.02,2.45,3.08.92,3.2,2.01,4.39,6.34,8.82,4.38,9.2-7.15-5.98-3.36,1.78,3.69,8,1.1-.28,1.59-15.08,3-14.19.72,2.81,5.47,13.13,5.53,13.99.1,1.39-1.49,4.44-1.38,5.2.47,3.43,12.95,9.77,4.15,10,8.57,3.8-1.78,5.27,5.53,3.6-5.63,5.03,1.58-.57.46,8.2.18-.02,14.69.87,14.87.89q.81-7.8,1.61-15.59l3.92,17.19c.81.26,5.97,2.86,6.46,3.2,3.26,2.23,5.11,5.51,7.38,8.4.2.03,2.37,1.22,3.69,1.6-.08-2.54-10.28-19.37-12.45-22.79-3.44-5.41-18.33-11.93-22.25-17.08-8.33-10.95-22.59-24.6-27.67-31.19-2.46-3.19-4.11-7.73-6.92-10.2Z"/>
        <path class="cls-20" d="m.57,279.4h2.31c-.34,0,3.12-4.72,3.46-4.8,2.59-.59,3.43,8.86,11.3-2.4.87-1.24,1.39-2.77,2.31-4,.16-.22,1.1-2.63,2.77-4.6,2.89-2.3,5.42-4.72,7.84-7.4-3.53-.61,5.87-9.38,9.69-13.19,1.58-1.57,3.28-3.05,4.61-4.8-.93-.12-1.25.79-1.84.2-1.21-15.61-.24-3.34,2.08-2.6,3.67,1.17,5.99-1.26,8.07-3.4h-7.38c2.65-2.5,9.89-11.1,10.61-13.59,1.44-5.02-1.58-1.64-1.84-4-.12-1.04,5.55-18.01,6.46-20.19-1.09-.62-.99-.48-1.84.2-1.2.96-19.68,19.03-21.68,21.19-3.25,3.53-18.71,22.43-20.75,25.59-4.24,6.55-15.3,30.95-16.14,37.78Z"/>
        <path class="cls-45" d="m107.1,150.26c-.08.11-2.18,1.54-2.31,1.6l1.38.4c.04-.11,1.32-1.55,1.84-1.6-.07-.11.12-.53-.92-.4Z"/>
        <g>
          <path class="cls-6" d="m308.65,151.06c-.6-.77-.75-2.05-1.84-2.4.3.91-.39,3.65,1.84,2.4Z"/>
          <path class="cls-25" d="m108.95,145.06c-.49,1.25-1.03,4.13-1.84,5.2,1.04-.13.85.29.92.4,1.85,2.79-.97-1.35,5.07-5.8-1.61-10.13,6.55-7.38,4.15-12.39-2.02-1.79-5.81,12.41-8.3,12.59Z"/>
          <path class="cls-17" d="m195.19,5.12v-.8"/>
          <path class="cls-4" d="m91.65,208.63c-1.71,1.09-2.63.52-4.61,0-.52.92-4.49,4.97-4.38,5.4.04.15,2.82,1.82,3,1.8.57-.07,4.99-6.36,6-7.2Z"/>
          <path class="cls-31" d="m310.49,159.86c-.22,1.64.42,7.55,2.54,8,5.94,1.27-.44-5.53-2.08-8.4-.4-.04-.42.1-.46.4Z"/>
          <path class="cls-32" d="m217.56,3.13c-4.67-.91-2.64,5.35-.46,5.6,2.32.26,3.29-5.05.46-5.6Z"/>
          <path class="cls-6" d="m133.16,121.87c-2.84-.16-3.24,4.16-.92,4.8,3.95,1.09,3.86-4.64.92-4.8Z"/>
          <path class="cls-31" d="m306.11,172.25c-.65.28.76,2.37-2.08,2.6,1.57,1.21,2.15,1.66,1.84,3.6,6.94,2.06.76-6.43.23-6.2Z"/>
          <path class="cls-31" d="m322.95,177.85c-.05.88.81,2.57,1.38,3.2,3.77,4.16,5.42-3-1.38-3.2Z"/>
          <path class="cls-6" d="m127.17,113.08c-3.15-1.23-3.57,4.12-.92,4.4,2.89.31,1.91-4.01.92-4.4Z"/>
          <path class="cls-21" d="m319.95,171.85c-3.59-.43-1.86,4.7.92,4,2.02-.51,1.03-3.77-.92-4Z"/>
          <path class="cls-6" d="m123.02,147.86c-2.05,2.84-1.37,3.73,2.31,4.8,2.43-6.91.33-.79-2.31-4.8Z"/>
          <g>
            <path class="cls-15" d="m123.71,167.05l2.77-1.8c4.07-6.88,8.1-14.22,12.91-20.39.44-1.18.94-3.8,1.38-4.6-6.95,8.31-11.74,17.7-17.06,26.79Z"/>
            <path class="cls-42" d="m89.12,221.03l.23.8c4.28-3.58,10.6-10.95,12.22-15.59-4.02,5.02-8.44,9.71-12.45,14.79Z"/>
            <path class="cls-22" d="m115.64,157.06c-1.81,1.74-3.14-.32-3.46.2,3.98,9.82-.14,3.95,5.77,5,1.35-6.16,2.01-1.12-2.31-5.2Z"/>
          </g>
          <path class="cls-2" d="m324.33,181.05c-.57-.63-1.44-2.32-1.38-3.2-.7-.02-.31.73-.69.8-.11.02-1.17-.85-2.31-.4-1.77.7-.39,3.34,4.38,2.8Z"/>
          <path class="cls-6" d="m105.95,158.66c-1.92-.42-4.6,2.79-2.77,3.2,2.1.47,5.57-2.58,2.77-3.2Z"/>
          <path class="cls-1" d="m322.72,197.44c-.16,0-2.07,2.06-2.08,2.2,0,.36,3.32,4.21,4.61-.4-2.45,0-2.23-1.79-2.54-1.8Z"/>
          <path class="cls-42" d="m279.82,109.08c-2.49-.31-1.17,3.51-.92,3.6.88.31,1.6-1.13,2.77.4.64-4.53.13-1.36-1.84-4Z"/>
          <path class="cls-15" d="m93.96,181.05c-3.09,3.97.07,5.79,2.54,1.8-.4-.46-1.73.54-2.54-1.8Z"/>
          <path class="cls-38" d="m284.44,132.27l-2.08,1.4c1.63,4.43,5.67,2.44,2.08-1.4Z"/>
          <path class="cls-6" d="m89.35,197.44q-1.84,3.2-3.69,6.4c1.59-1.58,4.66-4.29,3.69-6.4Z"/>
          <path class="cls-1" d="m272.45,121.87c-1.65.11-1.09,5.39.46,2.4,2.57,5.24,1.22-2.51-.46-2.4Z"/>
          <path class="cls-44" d="m308.19,156.26c-.77.49-1.36,2.85,2.31,3.6.04-.3.06-.44.46-.4-.68-1.19-.36-1.73-.46-2l-2.31-1.2Z"/>
          <path class="cls-6" d="m117.48,119.87c-1.85-.62-3.8,3.12-2.77,3.6.04-1.02,5.96-2.53,2.77-3.6Z"/>
          <path class="cls-22" d="m123.02,117.08c-1.34-.37-2.94,1.27-1.84,2,1.08.72,3.72-1.48,1.84-2Z"/>
          <path class="cls-6" d="m131.78,127.07c-3.74,4.65-1.51,5.91.23.2l-.23-.2Z"/>
          <path class="cls-42" d="m284.9,115.08c-2.97.47,2.33,3.1,2.08,1-.01-.1-1.96-1.02-2.08-1Z"/>
          <path class="cls-6" d="m308.19,156.26l2.31,1.2c-.06-.15.24-2.83-2.31-1.2Z"/>
          <path class="cls-28" d="m195.19,5.12c.27-.06.8.15.92-.2l-.92-.6v.8Z"/>
        </g>
        <path class="cls-39" d="m392.7,266.7c-11.1-1.28-11.27-.9.23.8,1.41.21,4.86.66,5.3.8l-3.92-17.19q-.81,7.8-1.61,15.59Z"/>
        <g>
          <path class="cls-20" d="m65.13,189.44c-.45.4-1.58.71-1.84,1.2l-.46,1.2c.51,8.56,1.53,16.25,6,23.99.75-1.48-3.21-6.98-.92-10.2-1.7-4.82-.18-14.55-2.77-16.19Z"/>
          <path class="cls-3" d="m101.57,206.24c-1.62,4.64-7.94,12.01-12.22,15.59l-.23-.8c-2.55,3.23-10.04,11.88-11.53,14.79-.08.15-.69,1.8-.92,2.4-.07.19.57.82-.92,4-.54,1.29-.05,1.23,0,1.6.38,2.81,1.55.28.46,8.8-.01.11,1.52,1.58-.46,1.6,1.32.3,3.28,1.78,5.07,1.6h1.61c1.84-.58,11.3-9.21,14.99-10-.02-1.35-1.17-4.1-.92-5.4.16-.82,3.96-3.88,2.31-5.8-3.63,3.61.67-3.69-9.22-4.6l3.69-3.2c-2.04-12.22,1.48,1.18,11.99-4.6.75-1.31,4.14-5.42,5.53-6.8-.76-3.03-1.91-5.6-2.31-8.8-.3-2.43.22-5.22-.92-7.6-1.58,2.28-4.16,4.91-6,7.2Z"/>
          <path class="cls-42" d="m149.53,129.87c-.81.14-1.45.5-2.31.4-1.95,3.42-4.5,6.52-6.46,10-.45.8-.94,3.42-1.38,4.6-4.81,6.17-8.85,13.51-12.91,20.39l-2.77,1.8c-2.1,3.58-5.28,6.98-7.38,10.6-.12,7.07-4.56,15.32-8.76,21.39,1.14,2.38.62,5.17.92,7.6-.25-9.73,3.16-9.75,6.92-16.99,4.08-7.85,4.11-11.24,11.53-18.39,1.05-.56,2.95-1.86,3.69-2.6,5.2-8.42,11.2-16.47,16.6-24.79,3.68-5.66,6.87-11.56,10.61-17.19,1.09-1.65,1.33-1.51,1.38-1.6.14-.21.32-1.39.46-1.6-3.04-2.32-2.9,5.13-10.15,6.4Z"/>
          <path class="cls-9" d="m144.92,108.48c-.19,1.18-5.95,8.91-7.38,10.8,13.04,4.81,12.56-5.6,11.99,8.4-.85.7-1.79,1.69-2.31,2.6.85.1,1.49-.26,2.31-.4-.89-.59,1.09-1.65,2.77-3.2,2.32-3.45,4.18-7.36,6.46-10.8-2.75-3.35-3.15-7.48-5.07-11.2-.82,1-5.76,6.95-6.69,6.8"/>
          <path class="cls-42" d="m153.69,104.68c1.93,3.71,2.32,7.85,5.07,11.2,1.89-2.84,4.2-5.48,6-8.4-2.29-2.73-8.52-3.29-7.38-7.2-1.56,1.22-2.48,2.94-3.69,4.4Z"/>
          <path class="cls-3" d="m322.02,237.42c-2.48,4.19-2.16,4.6,1.38,8,.02.02.51-.09.46.4.14-.27,3.89-4.27,4.61-4.4.41-.07,1.39-.06,1.84,0-.35-.54-.63-.93-.46-1.6h-.46c-1.47,1.9-2.23-1.29-3.46-2-2.85-1.64-3.69-.44-3.92-.4Z"/>
          <path class="cls-28" d="m248.23,272.21c-.06,2.13-4.09,3.03-.46,5.8-.25,1.29-9.11.19-9.22,1.8,5.87-.17,11.86-1.73,17.76-1.2,2.33.21,7.23,2.18,9.92,2.4,1.97.16,9.88-.07,11.07-1,.33-.26-.84-2.28,1.38-1.8,6.89.43,18.77,1.11,24.9-.4-2.55-.5-2.2.32-4.15-.8-1.35-.77-3.69-3.21-6.23-4-7.45-2.32-36.33-1.93-44.97-.8Z"/>
          <path class="cls-9" d="m316.49,249.02c-.04.12-.36,1.86-.46,2.4,1.86.9,3.92,2.44,6,3.2.73-2.48.86-6.81,1.84-8.8.05-.49-.44-.38-.46-.4-5.05-.12-5.38-.58-6.92,3.6Z"/>
          <g>
            <path class="cls-9" d="m377.83,265.81c-7.54.79-10.67,9.33-5.3,10.4.88.17,28.31.71,29.17.49,1.23-.31,3.84-3.67,3-5.2-.49-.34-5.64-2.94-6.46-3.2-.45-.14-3.9-.59-5.3-.8-11.5-1.69-11.33-2.08-.23-.8-.18-.02-14.69-.91-14.87-.89Z"/>
            <g>
              <path class="cls-28" d="m343.24,197.84c-.77,5.3-2.03,9.66-1.38,14.99-2.93,3.41-9.06,6.61-8.07,10.2.67.26,1.57-1.92,3.23,0,4.58-8,5.31-3.28,3.46-.6-.21.3-5.88,4.37-6.23,4.2-.53-.27.07-1.33-.46-1.6-1.52-.76-3.06,9.49-2.31,10,4.41-3.18,3.88-.75,4.15-.8,2.02-.36,4.53-4.17,4.38-1.8-.43,6.77-9.15,3.46-10.15,7.4-.17.67.12,1.06.46,1.6,4.61.56,3.45,3.11,7.15.8.85.09.37,7.82-6.69,3.2.17.92-.37,2.6,0,3.4,1.24,2.66,10.93,4.48.46,6.8-.79-4.31-1.38-8.71-2.31-12.99-.1-.44-.68-.62-.46-1.2-.72.13-4.48,4.13-4.61,4.4-.99,1.98-1.11,6.31-1.84,8.8-.23.78.48,1.79-.69,2.4-15.56,2.5-.03,1.61-.23,3.4-6.45,3.79-14.82,9.46-19.83,14.59-.63.65-.87,1.62-1.84,2,1.95,1.12,1.6.3,4.15.8,9.12-5.79,11.57.63,25.37,1.6,2.99.21,6.2-.1,9.22,0,7.1.23,19.26-.92,18.45,1.2h.46c7.47-6.47,6.02-2.61,9.22-2,4.43.85,9.33.3,13.84.4,5.5.13,29.35.5,31.94.89-2.27-2.89-4.12-6.17-7.38-8.4.84,1.53-1.77,4.89-3,5.2-.86.22-28.29-.32-29.17-.49-5.37-1.06-2.24-9.6,5.3-10.4,1.12-8.76-6.09-3.16-.46-8.2-7.31,1.67,3.03.2-5.53-3.6,8.8-.23-3.68-6.56-4.15-10-.1-.76,1.48-3.81,1.38-5.2-.06-.87-4.82-11.18-5.53-13.99-1.41-.89-1.9,13.92-3,14.19-7.05-6.22-10.84-13.97-3.69-8,1.96-.38-2.37-4.8-4.38-9.2-1.05-2.3-.86-3.04-.92-3.2-.74-1.83-1.19-3.91-2.77-5.4-.62-4.35-1.54-8.66-2.31-12.99-2.12-12.02-1.35-15.3-3.23-2.4Z"/>
              <g>
                <path class="cls-6" d="m328.94,242.62c.93,4.29,1.52,8.68,2.31,12.99,10.47-2.32.78-4.13-.46-6.8-.37-.8.17-2.48,0-3.4-.4-2.2.02-3.61-1.84-2.8Z"/>
                <path class="cls-42" d="m330.33,241.42c-.46-.06-1.44-.07-1.84,0-.22.58.37.76.46,1.2,1.87-.81,1.45.59,1.84,2.8,7.06,4.62,7.54-3.11,6.69-3.2-3.7,2.31-2.54-.24-7.15-.8Z"/>
                <g>
                  <path class="cls-6" d="m346.47,261.41c-2.28,1.87-3.83,4.41-6.46,6-5.5,9.8.37-9.93-.46-11.79-.04-.08-1.52-1-1.61-1-1.13.04-14.06,13.15-14.99,14.59-7.73,11.99.48,8.04,16.37,4.2,3.51-.54,6.28,2.66,9.69,2,5.11-1,5.09-11.39,5.3-14.99,20.19-10.84,3.72-8.51-7.84,1Z"/>
                  <path class="cls-3" d="m340.01,267.41c2.63-1.59,4.18-4.12,6.46-6-.66.25-1.29-.7-1.38-1-2.36-8.04-1.86,1.27-5.07,7Z"/>
                </g>
                <g>
                  <path class="cls-36" d="m353.16,241.02c-.33.15-.32,1.1-.23,1.4,1.68,5.73,11.59,9.04.23-1.4Z"/>
                  <path class="cls-20" d="m356.38,239.42c-2.27.19,3.91,6.3,3.46,2.6-.02-.2-3.08-2.63-3.46-2.6Z"/>
                  <path class="cls-33" d="m351.54,218.63c.06.16-.13.9.92,3.2,1.53-.12.5-3.18-.92-3.2Z"/>
                  <path class="cls-19" d="m353.62,234.62c-.73.44,2.13,2.88,2.31,2.8,1.28-.62-1.55-2.56-2.31-2.8Z"/>
                  <path class="cls-30" d="m358.23,239.02c-1.67-.29,1.26,2.26,1.61,1.4.04-.09-1.5-1.38-1.61-1.4Z"/>
                </g>
              </g>
            </g>
          </g>
          <g>
            <path class="cls-42" d="m44.84,238.22c-1.34,1.75-3.04,3.23-4.61,4.8-.51,3.97-6.65,9.84-9.69,13.19-2.42,2.68-4.95,5.1-7.84,7.4-1.67,1.97-2.61,4.38-2.77,4.6q12.68-.8,25.37-1.6c-.11-1.62-1.47-12.43-1.84-12.99-.62-.95-3.18.35-4.15-.4.18-1.57,2.18-.82,3.69-1-1.16-1.58.02-2.62,0-2.8-.04-.27-1.77-2.95-.92-5.4.12-.34,5.33-5.26,5.07-5.6-.39-.51-2.19-.18-2.31-.2Z"/>
            <path class="cls-6" d="m19.94,268.21c-.91,1.23-1.44,2.76-2.31,4q13.72-.2,27.44-.4c1.57-.61.3-4.15.23-5.2q-12.68.8-25.37,1.6Z"/>
            <path class="cls-31" d="m30.54,256.21c3.04-3.36,9.17-9.22,9.69-13.19-3.82,3.81-13.21,12.59-9.69,13.19Z"/>
          </g>
          <path class="cls-28" d="m150.92,269.81c-2.28,1.14-8.06,4.79-9.92,5.2-3.69.8-12.02-.19-15.45,1.6,17.63,2.03,23.79,8.31,42.2,0,3.75.79,7.47,1.53,11.3,2,5.28.65,10.29,1.75,15.68,2,5.87.27,11.71-.38,17.53-.4,6.14-.02,12.32.15,18.45,0,.31,0,.62,0,.92,0-8.66-.41-6.11-1.47-6.46-1.6-8.72-3.33-17.6-8.99-29.06-11.2-7.97,1.57-29.3-4.61-33.44-4-4.25,1.69-7.75,4.39-11.76,6.4Z"/>
          <path class="cls-2" d="m262.53,126.27c-4.24-4.34-5.86-3.46-3.92-9.6-3.98.1-4.21,2.78-7.61,0-8.51-5.94,2.11,2.19-6.69,8.4,10.96-.13,4.45,11.2,10.61,1.2,2.53.04,5.08-.06,7.61,0Z"/>
          <path class="cls-42" d="m228.4,124.27c2.42,4.02,3.18.94,4.15,5.6l8.07,8c2.88-.85-3.32-9.56-5.3-12.19-2.76-3.66-8.01-8.07-8.76-9-1.47.02,1.23,6.58,1.84,7.6Z"/>
          <path class="cls-35" d="m316.49,249.02c1.54-4.18,1.87-3.72,6.92-3.6-3.54-3.4-3.86-3.8-1.38-8-2.01.35-3.62,1.04-5.3,2-9.99-6.27.26,1.54-7.61,4.6,4.54-.15,5.48,2.09,7.38,5Z"/>
          <path class="cls-2" d="m230.24,131.87l2.31-2c-.97-4.66-1.73-1.58-4.15-5.6-.23,2.05,2.14,4.5,0,5,2.45.83,1.65,1.92,1.84,2.6Z"/>
          <g>
            <path class="cls-8" d="m226.56,116.68c.76.93,6,5.33,8.76,9,1.99,2.64,8.18,11.34,5.3,12.19l-8.07-8-2.31,2c4.8,16.55,5.25,30.22,5.53,47.18,1.61,1.99,2.98,4.55,4.61,6.6,11.2,14.03,19.21,13.49,18.45,35.18,17.88,11.82,37.64,21.1,57.19,30.59.1-.54.42-2.28.46-2.4-1.9-2.91-2.84-5.14-7.38-5,7.87-3.06-2.38-10.87,7.61-4.6,1.69-.96,3.29-1.65,5.3-2,.23-.04,1.07-1.24,3.92.4,1.23.71,1.99,3.9,3.46,2-.74-4.56-.1-8.96-1.84-13.39-.68-1.73-18.22-29.23-20.29-31.99-4.32-5.74-2.76-2.74-3.92-2.6-5.47.67-2.04-4.26-2.08-4.6-.15-1.59-10.05-8.21-7.84-16.79,1.11-4.31,5.39-3.31,2.77-8.4-.5-.98-.88,1.87-3.23-.4-1.47-1.42-18.68-29.14-21.22-33.39-6.61-2.76-6.29-1.93-9.22-2-2.53-.06-5.08.04-7.61,0-6.16,10,.36-1.33-10.61-1.2,8.8-6.2-1.82-14.33,6.69-8.4-1.01-1.92.63-1.86.46-2.6-.16-.7-10.08-8.03-13.84-3.8-3.78,1.89-1.79.74-3.69-.8-2.76,1.35-2.46.43-6-6.4-2.46,1.16-1.55-1.12-1.84-2-.12-.35-.4-1.29-.46-1.6-6.73-1.33-2.64-2.63-1.84-5.2.12-.38.61-.57.46-1.8-.33-.35-.79.02-.92-.6-8.3-4.01-18.64-19.53-22.6-27.19-5.18-1.5,5.77,20.12,7.84,24.19,5.07,9.98,10.75,18.88,17.99,27.79Z"/>
            <g>
              <path class="cls-35" d="m301.5,227.03c-3.89,3.74-5.86-.03-6.46.4-.93.67,1.34,3.43-2.54,5,5.33.91,4.21,3.8,4.84,3.8.41,0,.19-3.68,6.23-3-4.14-2.5-.99-5.5-2.08-6.2Z"/>
              <path class="cls-5" d="m256.99,195.24c2.39.9,3.35.43,4.38,3"/>
              <path class="cls-44" d="m289.51,183.05c-1.33,1-2.33,1.03-3.69,0-1.65,3.55.12,3.66,3.69,3.6v-3.6Z"/>
              <path class="cls-35" d="m274.29,153.46c-.01,2.59-1.18,2.84-1.15,3,.52,2.77,9.82.77,1.15-3Z"/>
              <path class="cls-2" d="m225.63,99.48c-.65-3.32.71-2.46.46-3-.11-.25-2.02.18-2.31-2.2-.8,2.57-4.88,3.87,1.84,5.2Z"/>
              <path class="cls-13" d="m294.58,184.25c-.55.23.59,1.95-2.08,2.2,3.99,1.67-1.04,2.09,4.84,1.8-.83-6.15-.18-.91-2.77-4Z"/>
              <path class="cls-2" d="m242.47,140.27l-2.54,2.2c2.44.67.8,2.03,1.15,2.2,3.31,1.6,2.49-1.59,2.54-1.8.07-.31.97-.11.92-.4-.09-.53-1.75.14-2.08-2.2Z"/>
              <path class="cls-34" d="m302.88,200.24c-.22.05-.03,1.2-2.08,1.4,2.93,5.09,4.74,0,4.15-.8-.06-.08-1.97-.62-2.08-.6Z"/>
              <path class="cls-2" d="m259.99,144.26c-.91-.07-2.28,2.82-.92,3.6,1.16.66,3.6-3.39.92-3.6Z"/>
              <path class="cls-35" d="m276.6,161.06c-3.44,2.79-.03,4.76,2.08,1.8l-2.08-1.8Z"/>
              <path class="cls-41" d="m261.84,136.67c-.17,1.79-1.45.98-1.61,1.4-.99,2.51,6.39,2.43,1.61-1.4Z"/>
              <path class="cls-34" d="m253.54,149.46c-.19.06-1.78,2.6-1.15,3,3.23,2.07,3.15-3.61,1.15-3Z"/>
              <path class="cls-16" d="m259.99,174.65c-.72,1.79-1.07.62-2.08,1"/>
              <path class="cls-2" d="m278.9,226.63c-2.47-.81-1.27,2.52.46,1.6.6-.32.12-1.41-.46-1.6Z"/>
            </g>
          </g>
          <path class="cls-7" d="m170.29,99.08c8.52,1.91,3.87,4.04,3.69,4.4-2.4,4.65-4.4,6.36-5.53,8-.46.67-.92,1.33-1.38,2-2.33,3.34-5.39,7-7.38,10-.14.2-.32,1.39-.46,1.6.38,1.04.9,1.13.92,1.2,5.29,2.21,15.3-10.69,16.37-10.8,3.91-.39-2.51,8.73-3,10.4,3.54-1.07,3.6,1.06,6.46-2.4.5-.6.53-1.02.92-1.6,1.67-2.44,2.77-5.68,3.69-8.4-1.77-1.8-4.98,3.05-6-.2-.27-.88,3.49-13.8,4.15-15.79-3.32.2.97-1.89.46-5.2-3.88,1.36-3.35-1.33-2.31-3.6-1.49-1.67.12-7.4.92-10-1.63-.08-3.07-.85-3.69-2-2.23,7.58-4.13,15.21-7.84,22.39Z"/>
          <path class="cls-35" d="m196.58,79.89c.16,1.09-1.09,7.24-1.38,8,.27-.05.92.53.92.6-.04,2.21-7.09,33.52-11.99,31.39-.56,4.55-1.86,9.03-2.31,13.59-.18,1.89-.35,3.7-.46,5.6,1.2,1.23,1.14-2.84,1.84-5,5.22-15.86,17.51-33.49,16.6-53.38-1.33-3.2-2.21-3.41-2.31-3.6.02.63-.65,2.4-.92,2.8Z"/>
          <path class="cls-23" d="m178.13,76.69c.62,1.15,2.06,1.92,3.69,2,.58-1.86,9.43-22.31,10.15-23.39.28-.42.79-.71,1.38-.6-.15-.81-.69-4.63-1.61-4.8-12.03,4.52-10.87,17.48-13.61,26.79Z"/>
          <path class="cls-35" d="m181.82,78.69c-.81,2.59-2.42,8.33-.92,10,4.16-5.36,5.99-15.04,9.69-15.19.96-5.18,1.35-10.82,2.77-15.59-.16-.99.18-2.22,0-3.2-.59-.11-1.11.18-1.38.6-.72,1.08-9.57,21.53-10.15,23.39Z"/>
          <path class="cls-5" d="m170.29,99.08c-1.53,2.96-3.79,5.56-5.53,8.4-1.79,2.92-4.11,5.56-6,8.4-2.28,3.43-4.14,7.34-6.46,10.8,2.74-2.53,11.11-13.71,12.45-14.59.47-.31,1.59,1.09,2.31,1.4.47-.67.92-1.33,1.38-2-6.38,2.56,3.19-8.67,3.92-8.8.15-.03.68,1.01,1.61.8.18-.36,4.83-2.49-3.69-4.4Z"/>
          <g>
            <path class="cls-37" d="m157.37,100.28c-1.14,3.91,5.09,4.47,7.38,7.2,1.74-2.84,4.01-5.44,5.53-8.4,3.71-7.18,5.61-14.81,7.84-22.39,2.74-9.31,1.58-22.26,13.61-26.79.92.17,1.47,3.99,1.61,4.8.18.98-.16,2.2,0,3.2.85,5.11,2.07,10.19,1.84,15.39,1.32,1.01,1.67,2.48,2.31,3.8.09.19.98.39,2.31,3.6.53,1.28,1.63,2.57,1.84,4.2-.25,9.78-1.28,19.61-1.38,29.39-.01,1.33,0,2.67,0,4,0,6-.26,12.01.46,17.99,4.44-.28,1.83,2.68,2.31,3.8,1.27,3,19.54,21.11,23.52,25.99,3.52,4.31,6.59,9.74,9.22,12.99-.28-16.96-.74-30.63-5.53-47.18-.2-.68.61-1.77-1.84-2.6,2.14-.5-.23-2.95,0-5-.61-1.02-3.31-7.58-1.84-7.6-7.24-8.91-12.92-17.8-17.99-27.79-2.07-4.07-13.02-25.69-7.84-24.19-5.42-10.47-8.16-20.89-8.76-32.39-5.31,8.61-16.12,24.48-19.37,31.39-3.75,7.97-5.45,16.7-8.76,24.79-1.39,3.4-5.81,9.61-6.46,11.79Z"/>
            <path class="cls-5" d="m205.57,122.67c-.68,3.76,2.04,4.35-3,7,7.87,1.32,5.04,5.49,6.69,5.4"/>
            <path class="cls-41" d="m165.91,93.89c-3.12-.27-4.23,3.62-1.38,4.4,4.94,1.36,4.94-4.09,1.38-4.4Z"/>
            <path class="cls-38" d="m171.44,78.29c-5.33,1.54-6.36,7.93-1.61,3.4.67-.64-.43-1.86,2.31-2.8l-.69-.6Z"/>
          </g>
          <path class="cls-2" d="m236.7,59.1c-.11,1.42,1.61,3.1,2.08,3.2,2.87.57,2.41-2.24,2.54-2.4-1.38-2.07-4.29-4.84-4.61-.8Z"/>
          <g>
            <path class="cls-14" d="m223.33,91.89c.13.62.59.25.92.6.15,1.23-.34,1.42-.46,1.8.29,2.38,2.19,1.95,2.31,2.2.25.54-1.11-.32-.46,3,.06.31.34,1.25.46,1.6,2.18.17,1.74,1.79,1.84,2,3.54,6.83,3.24,7.74,6,6.4,1.15-.56,1.48-1.95,1.61-2,.22-.08,2.79,1.63,2.08,2.8,3.76-4.24,13.68,3.1,13.84,3.8.17.74-1.47.68-.46,2.6,3.4,2.78,3.63.1,7.61,0-1.94,6.13-.32,5.26,3.92,9.6,2.93.07,2.61-.76,9.22,2-2.22-3.71-10.62-15.68-1.38-8.2-1.91-6.98-3.17-14.07-1.38-21.19-9.32,13.6.79,6.1-13.37-3.6-3.78-15.99-4.05-21.34-12.45-36.18-.91,1.22-1.79.73-1.84.8-.12.16.33,2.97-2.54,2.4-.47-.09-2.19-1.78-2.08-3.2-12.24-9.85-26.37-22.95-28.59-37.78h-.92c1.23,6.19-.06,12.59.46,18.79,1.54,18.26,12.89,38.97,15.68,51.78Z"/>
            <g>
              <path class="cls-2" d="m233.93,109.48c1.9,1.53-.09,2.69,3.69.8.71-1.17-1.86-2.88-2.08-2.8-.13.05-.47,1.44-1.61,2Z"/>
              <path class="cls-2" d="m226.09,101.08c.29.88-.62,3.16,1.84,2-.11-.21.33-1.83-1.84-2Z"/>
              <path class="cls-2" d="m241.54,83.89c-1.12,4.65,3.15,6.84-3.92,10.6"/>
              <path class="cls-35" d="m229.09,86.69c2.38-4.14,1.37-6.92,7.61-7-4.14-3.46-2.28-3.69-2.08-7.4"/>
              <path class="cls-44" d="m255.38,105.48c-1.08.7,1.66,2.84-1.61,4.6,2.23-.45,3.33,3.46,3.92,3.4.42-.04.39-3.11,4.38-3-2.76-1.65-.59-3.88-.92-4.4-4.22,2.16-5.5-.77-5.77-.6Z"/>
              <path class="cls-34" d="m236.47,63.9c-1.39.1-1.24,2.53-.92,3.6,4.46-1.34,1.24-3.62.92-3.6Z"/>
            </g>
          </g>
          <g>
            <path class="cls-24" d="m209.49,8.72s.89.3.92.6c.31,3.17-4.2,2.66-6.92,3.4-2.8,2.86-8.49,14.66-11.53,19.59.61,11.49,3.35,21.91,8.76,32.39,3.96,7.66,14.3,23.18,22.6,27.19-2.79-12.81-14.14-33.51-15.68-51.78-.52-6.2.77-12.6-.46-18.79h.92c2.23,14.83,16.36,27.93,28.59,37.78.32-4.04,3.24-1.27,4.61.8.06-.07.93.42,1.84-.8-1.79-3.17-17.03-26.76-18.45-27.79-1.7-1.23,1.28,6.16-1.38,3.6-.94-.9-2.79-6.56.23-4.2-5.08-9.61-10.83-20.14-16.14-29.99l-4.38,3c5.16-1.71,5.61,1.7,6.46,5Z"/>
            <path class="cls-15" d="m203.5,12.72c2.71-.74,7.23-.23,6.92-3.4-.03-.3-.91-.55-.92-.6-2.55,1.7-3.71,1.66-6,4Z"/>
            <path class="cls-5" d="m200.96,34.31c-3.57-.38-7.57,5.31-2.77,6,4.57.65,6.77-5.58,2.77-6Z"/>
            <path class="cls-5" d="m215.72,21.52q.46,4.2.92,8.4c1.59-2.78-.25-5.64-.92-8.4Z"/>
          </g>
          <path class="cls-15" d="m129.47,192.64c.63.29-1.7,5.41-1.61,6.2.08.73,1.66,1.55,1.84,1.8.88-7.77,4.84-15,7.38-22.39,3.31-9.64,6.5-19.31,8.76-29.19-2.99,6.84-7.79,13.52-13.37,18.99-.97.95-1.77.53-1.84.6-.74.74-2.64,2.04-3.69,2.6-7.42,7.15-7.45,10.54-11.53,18.39-3.76,7.24-7.16,7.27-6.92,16.99.4,3.2,1.55,5.76,2.31,8.8.38,1.5.44,1.14.46,1.2l3.69,3.2c.13-.32,3.15-5.79,3.46-6,.75-.49,4.78-1.01,5.77-.8q2.31-4.8,4.61-9.6c-2.95.38-3.62-1.48-6.69,4.8-2.32-8.61-8.42-5.53-8.53-7"/>
          <path class="cls-6" d="m80.82,255.81c-7.54,5.96-16.4,18.82-17.53,19.59.65,1.11,1.01,2.15,1.84,3.2,3.2-.24,21.33-5.18,22.14-6.6-.34-6.1,4.78-11.1,11.07-13.19-1.02-4.34-.85-8.61-.92-12.99-3.69.78-13.15,9.41-14.99,10h-1.61Z"/>
          <path class="cls-20" d="m98.8,234.62c2.27-2.26-.32-2.47,7.84-2.6-4.43-3.97-4.18-4.87-1.38-9.8-10.52,5.78-14.04-7.63-11.99,4.6l-3.69,3.2c9.89.91,5.6,8.21,9.22,4.6Z"/>
          <path class="cls-44" d="m147.23,143.86c.83,1.24-.77,3.81-1.38,5.2-2.26,9.88-5.45,19.54-8.76,29.19-.03.74,1.51.08,1.61,0,2.97-2.13,15.83-16.09,22.37-20.39-.32-10.35-2-20.89-3.23-31.19-3.73,5.63-6.93,11.53-10.61,17.19Z"/>
          <path class="cls-38" d="m157.84,126.67c1.23,10.3,2.91,20.84,3.23,31.19.06,2.03.08,3.97,0,6,1.81-.27.25,2.47,1.38,2.2,2.77-5.08,1.19-10.45,2.31-15.79-.87-6.98-2.89-17.09-4.61-23.99-.02-.07-.54-.16-.92-1.2-.06.09-.29-.05-1.38,1.6Z"/>
          <path class="cls-38" d="m130.63,168.65c.07-.07.88.35,1.84-.6,5.58-5.47,10.38-12.16,13.37-18.99.61-1.39,2.22-3.96,1.38-5.2-5.4,8.32-11.4,16.37-16.6,24.79Z"/>
          <path class="cls-26" d="m152.3,126.67c-1.68,1.55-3.66,2.6-2.77,3.2,7.25-1.27,7.11-8.72,10.15-6.4,1.99-2.99,5.05-6.65,7.38-10-.72-.31-1.83-1.71-2.31-1.4-1.34.89-9.71,12.06-12.45,14.59Z"/>
          <path class="cls-15" d="m272.68,264.61c-6.3.13-22.87,2.36-29.52,4,2.76,1.23,23.54-3.16,34.36-2,6.65.71,14.49,5.91,15.91,3.2-7.76-3.92-11.6-5.39-20.75-5.2Z"/>
          <g>
            <path class="cls-40" d="m200.73,136.27c7.1,21.12,2.66,40.31,14.3,60.57,1.51,2.62,14.81,21.15,17.99,25.39.37.49.55,1.11.92,1.6,8.44,11.12,15.89,19.41,26.29,29.19,4.13,3.88,8.45,7.61,12.45,11.59,9.16-.19,12.99,1.28,20.75,5.2,2.29,1.16,7.16,3.6,7.84,5.2,5.01-5.13,13.38-10.81,19.83-14.59.2-1.79-15.33-.9.23-3.4,1.17-.61.46-1.62.69-2.4-2.07-.76-4.13-2.29-6-3.2-19.55-9.49-39.31-18.76-57.19-30.59.76-21.7-7.25-21.15-18.45-35.18-1.64-2.05-3-4.61-4.61-6.6-2.63-3.26-5.7-8.68-9.22-12.99-3.98-4.88-22.25-22.99-23.52-25.99-.47-1.12,2.13-4.08-2.31-3.8Z"/>
            <path class="cls-5" d="m276.6,247.42c-.12,4.61,1.36,3.97-3,7.4,6.88,0,4.75,5.09,6.23,5,2.15-7.84,12.11-.32,4.38-7,1.62-9.96-.71.79-7.61-5.4Z"/>
          </g>
          <path class="cls-38" d="m165.68,161.46c-.3,4.54-1.89,8.3-2.31,11.99-2.74,24.26,6.83,30.75,11.07,40.78,2.03,2.34,4.66,4.26,6.92,6.4,1.69-1.19.15-4.92-.46-6.8-5.14-15.89-13.35-27.37-11.53-51.98-1.28-.24-1.72,2.4-2.08,2.4-.82,0-.21-3.32-1.61-2.8Z"/>
          <path class="cls-4" d="m225.17,278.6c.35.13-2.2,1.19,6.46,1.6,2.34-.06,4.59-.33,6.92-.4.12-1.61,8.98-.51,9.22-1.8-3.62-2.76.4-3.67.46-5.8-7.98,1.05-15.63,3.77-23.06,6.4Z"/>
          <path class="cls-5" d="m182.74,247.42c.53,3.58,1.32,3.99-2.31,6.6,6.02.62,5.63,3.05,6,3.4,2.81-3.92,5.74-1.79,6.46-2.6-3.27-2.59-3.51-3.12-2.31-6.8-3.66,2.07-4.46.97-7.84-.6Z"/>
          <g>
            <path class="cls-42" d="m182.74,247.42c3.38,1.57,4.18,2.66,7.84.6-1.2,3.68-.96,4.2,2.31,6.8-.71.81-3.64-1.32-6.46,2.6,3.36,3.22,6.04,6.97,9.69,10,11.46,2.2,20.34,7.87,29.06,11.2,7.43-2.63,15.08-5.35,23.06-6.4,8.64-1.13,37.52-1.52,44.97.8,2.53.79,4.88,3.22,6.23,4,.97-.38,1.21-1.35,1.84-2-.68-1.6-5.55-4.04-7.84-5.2-1.42,2.71-9.26-2.49-15.91-3.2-10.82-1.16-31.6,3.23-34.36,2-.31-.14.12-2.09-1.84-1.2.21.29,1.31,2.15.69,2.4-1.3-1.23-2.29-2.67-3.46-4-1.76-2.01-3.12-4.18-3.69-4.8-13.94-15.01-27.12-15.37-53.5-40.38-2.26-2.14-4.89-4.05-6.92-6.4.97,2.29,7.86,30.16,8.3,33.19Z"/>
            <path class="cls-43" d="m233.24,267.81c-2.61-1.09-4.01,2.49-1.84,3.2,2.9.95,3.28-2.6,1.84-3.2Z"/>
            <path class="cls-15" d="m238.55,265.81c1.16,1.33,2.15,2.77,3.46,4,.62-.25-.48-2.11-.69-2.4-.39-.54-1.76-1.95-2.77-1.6Z"/>
            <path class="cls-13" d="m216.64,262.21c-3.28-.51-1.06,2.58.23,1.8.09-.05.57-1.67-.23-1.8Z"/>
          </g>
          <g>
            <path class="cls-28" d="m52.22,251.82c1.56.27-.02,4.19-.69,4.4-.41.13-6.52-2.75-6.23-4-.75.06-1.57-.09-2.31,0-1.51.18-3.51-.57-3.69,1,.97.75,3.53-.55,4.15.4.37.57,1.74,11.38,1.84,12.99.07,1.04,1.34,4.59-.23,5.2q-13.72.2-27.44.4c-7.87,11.26-8.71,1.81-11.3,2.4-.34.08-3.8,4.8-3.46,4.8,2.6-.11,5.25.15,7.84,0,1.91-.11,1.96-.79,2.08-.8,9.45-.41,18.96.57,28.36.4,5.44-.1,17.84-.65,22.14-3.6,1.13-.77,9.99-13.63,17.53-19.59-1.79.18-3.75-1.3-5.07-1.6-.79-.18-1.97-.54-2.77-.8-.46-.15-1.72.27-3.69-.4.74,2.06-6.66,3.16-8.07,2.8-1.85-.47-5.57-4.49-5.77-6.4-.38.46-2.45,2.51-3.23,2.4Z"/>
            <path class="cls-20" d="m43,249.42c.02.18-1.16,1.21,0,2.8.74-.09,1.56.06,2.31,0,2.31-.19,4.55-.66,6.92-.4.77.11,2.84-1.94,3.23-2.4.09-.11-.23-.74,1.84-2.2l-.69-.6q-6.8,1.4-13.61,2.8Z"/>
            <g>
              <path class="cls-28" d="m60.98,194.64c-.91,2.18-6.57,19.15-6.46,20.19.26,2.36,3.28-1.02,1.84,4-.71,2.49-7.96,11.1-10.61,13.59h7.38c-2.08,2.13-4.4,4.57-8.07,3.4-2.32-.74-3.29-13.02-2.08,2.6.59.59.91-.32,1.84-.2.11.02,1.92-.31,2.31.2.25.34-4.96,5.26-5.07,5.6-.84,2.44.89,5.13.92,5.4q6.8-1.4,13.61-2.8l.69.6c-2.07,1.45-1.75,2.09-1.84,2.2.2,1.9,3.92,5.92,5.77,6.4,1.41.36,8.81-.74,8.07-2.8-7.63-2.59-1.89-12.26,6.46-9.2-.05-.37-.54-.31,0-1.6l-4.15-7.4c5.22,3.87.68-2.62,5.07,3.4.23-.6.84-2.25.92-2.4-.2-2.73-11.13-16.76-11.07-17.79.06-1.12,1.62-.84,2.31-2.2-4.46-7.74-5.48-15.43-6-23.99-1.9,1.11-1.78,2.64-1.84,2.8Z"/>
              <path class="cls-20" d="m75.74,242.22c1.49-3.18.85-3.8.92-4-4.4-6.01.15.47-5.07-3.4l4.15,7.4Z"/>
            </g>
            <g>
              <path class="cls-20" d="m69.28,253.02c1.97.67,3.23.25,3.69.4l3.23-.8c1.09-8.51-.08-5.98-.46-8.8-8.35-3.06-14.08,6.6-6.46,9.2Z"/>
              <path class="cls-42" d="m72.97,253.42c.79.26,1.98.62,2.77.8,1.98-.02.45-1.49.46-1.6l-3.23.8Z"/>
            </g>
            <path class="cls-4" d="m45.3,252.22c-.29,1.25,5.81,4.13,6.23,4,.68-.21,2.26-4.12.69-4.4-2.36-.26-4.61.21-6.92.4Z"/>
          </g>
          <path class="cls-9" d="m123.71,261.41c-6.42,4.42-9.88,6.59-9.69,13.99,3.8.77,7.69.76,11.53,1.2,3.43-1.79,11.76-.8,15.45-1.6,1.86-.4,7.63-4.05,9.92-5.2-10.53-14.3-12.18-18.75-27.21-8.4Z"/>
          <path class="cls-42" d="m179.97,123.47c-.81,3.38-2.22,6.66-3.23,10-2.63,8.68-6.73,19.66-7.38,28.39-1.82,24.61,6.39,36.09,11.53,51.98-1.13-12.32.19-24.71,1.38-36.98-.16-10.49-.55-20.88-.46-31.39,0-.32-.48-.35-.46-1.2.04-1.73-.1-3.48,0-5.2.11-1.89.28-3.71.46-5.6-6.99-.52-1.27-4.96-.92-11.59-.4.58-.43,1-.92,1.6Z"/>
          <g>
            <path class="cls-11" d="m181.36,139.07c-.1,1.72.04,3.47,0,5.2,6.89-8.34,8.05-.7.46,1.2-.09,10.5.3,20.89.46,31.39-1.19,12.28-2.51,24.67-1.38,36.98.61,1.88,2.16,5.6.46,6.8,26.38,25.02,39.55,25.37,53.5,40.38.44.04.63-.33.46-.6-2.31-3.72-23.21-32.98-24.9-34.38-24.45-12.95-29.35-15.39-.23-2.6,6,4.88,9.46,11.5,14.3,17.19,13.2-.25,24.16,7.82,35.74,12.39-10.4-9.78-17.85-18.07-26.29-29.19-3.81,1.97-5.23-2.81-.92-1.6-3.18-4.23-16.48-22.77-17.99-25.39-11.64-20.26-7.2-39.45-14.3-60.57-.73-5.98-.46-11.99-.46-17.99-6.98,2.37-4.4-8.22,0-4,.1-9.78,1.13-19.6,1.38-29.39-.21-1.63-1.31-2.92-1.84-4.2.91,19.89-11.38,37.51-16.6,53.38-.71,2.15-.64,6.22-1.84,5Z"/>
            <g>
              <path class="cls-2" d="m200.27,118.27c0-1.33-.01-2.67,0-4-4.4-4.22-6.98,6.37,0,4Z"/>
              <path class="cls-43" d="m233.93,223.83c-.37-.49-.55-1.11-.92-1.6-4.31-1.21-2.89,3.57.92,1.6Z"/>
              <path class="cls-5" d="m196.35,137.07q-1.73,1.3-3.46,2.6c2.26,1.18.79,1,1.15,2.2.72.34,1.57-1.27,3.23.8.96-6.17,3.51-1.22-.92-5.6Z"/>
              <path class="cls-41" d="m193.12,167.05c-5.43.11-.27,6.73,2.08,3.4,1.45-2.05-.93-3.42-2.08-3.4Z"/>
              <path class="cls-2" d="m181.36,144.26c-.02.85.46.88.46,1.2,7.59-1.9,6.43-9.54-.46-1.2Z"/>
              <path class="cls-44" d="m208.34,194.24c-3.65-.19-2.04,4.54,1.38,4,2.93-.46.4-3.91-1.38-4Z"/>
              <path class="cls-13" d="m195.89,185.85c-3.33-.9-4.11,3.3-1.38,3.6,2.28.25,3.58-3.01,1.38-3.6Z"/>
            </g>
          </g>
          <path class="cls-44" d="m160.14,126.27c1.72,6.9,3.75,17.01,4.61,23.99.48,3.84,1.18,7.28.92,11.2,1.4-.52.79,2.8,1.61,2.8.36,0,.8-2.64,2.08-2.4.65-8.73,4.75-19.71,7.38-28.39-4.23-2.45-4.4-3.61-3.23-7.6.49-1.66,6.91-10.79,3-10.4-1.08.11-11.09,13-16.37,10.8Z"/>
          <path class="cls-15" d="m180.9,121.87c-.35,6.63-6.07,11.08.92,11.59.45-4.56,1.74-9.05,2.31-13.59.17-1.34,1.32-5.52.46-6.4-.92,2.71-2.02,5.96-3.69,8.4Z"/>
          <path class="cls-2" d="m173.52,125.87c-1.17,3.99-1,5.14,3.23,7.6,1.01-3.33,2.42-6.61,3.23-10-2.85,3.46-2.92,1.33-6.46,2.4Z"/>
          <path class="cls-38" d="m168.44,111.48c1.13-1.64,3.14-3.35,5.53-8-.94.21-1.46-.83-1.61-.8-.73.13-10.3,11.35-3.92,8.8Z"/>
          <g>
            <path class="cls-2" d="m190.58,73.49c-1.14,6.15-2.78,10.53-4.61,16.39-.82,2.6-2.41,5.14-3.23,7.6-.66,1.99-4.42,14.92-4.15,15.79,1.02,3.25,4.23-1.6,6,.2.81-2.38,1.14-5.15,1.84-7.6,1.23-4.31,4.59-20,5.07-20.99.3-.61,4.27-3.84,5.07-5,.27-.39.94-2.17.92-2.8-.63-1.32-.99-2.79-2.31-3.8.22-5.21-1-10.28-1.84-15.39-1.42,4.77-1.81,10.41-2.77,15.59Z"/>
            <path class="cls-5" d="m180.9,88.69c-1.05,2.27-1.57,4.96,2.31,3.6,1.41-.49,1.38-1.94,2.77-2.4,1.83-5.86,3.47-10.24,4.61-16.39-3.7.16-5.53,9.83-9.69,15.19Z"/>
            <path class="cls-38" d="m183.2,92.29c.51,3.3-3.79,5.4-.46,5.2.82-2.46,2.41-4.99,3.23-7.6-1.38.46-1.36,1.9-2.77,2.4Z"/>
          </g>
          <path class="cls-44" d="m186.43,105.88c-.7,2.45-1.04,5.21-1.84,7.6.86.88-.3,5.06-.46,6.4,4.9,2.14,11.96-29.18,11.99-31.39,0-.07-.65-.65-.92-.6-.5,1.3-.86,2.89-2.77,3-.53,3.85-3.93,14.86-6,14.99Z"/>
          <path class="cls-44" d="m186.43,105.88c2.07-.14,5.47-11.14,6-14.99,1.9-.11,2.26-1.7,2.77-3,.29-.76,1.55-6.91,1.38-8-.8,1.16-4.78,4.39-5.07,5-.48.99-3.84,16.68-5.07,20.99Z"/>
          <path class="cls-44" d="m114.94,219.83c-.33.79-.52,3.8-1.38,4.8.44,1.51,2.63,6.85-.46,2.8.09,2.1,1.91,4.57,2.31,6.4,3.58-4.28,8.42-7.7,12.45-11.59,1.01-.97,1.84-2.26,2.77-3.2-.97-1.23-5.35-5.76-6.46-6-.98-.21-5.01.31-5.77.8-.31.2-3.33,5.68-3.46,6Z"/>
          <g>
            <path class="cls-28" d="m105.26,222.23c-2.8,4.93-3.05,5.83,1.38,9.8-8.16.13-5.57.34-7.84,2.6,1.65,1.92-2.15,4.98-2.31,5.8-.25,1.3.9,4.04.92,5.4.07,4.38-.1,8.66.92,12.99-6.29,2.1-11.41,7.09-11.07,13.19-.81,1.42-18.94,6.36-22.14,6.6.07.09.34,1.75,1.15,2,3.65,1.11,13.95-1.93,17.99-3.2,7.26,1.25,22.57.19,29.75-2-.19-7.4,3.27-9.58,9.69-13.99q-4.38-.1-8.76-.2l6-6-8.3-4c.85-1.03,1.95-1.97,2.77-3,.98-1.23,2.86-2.42,2.77-4-.26-.11-1.7-.17-2.31-1-.29-.4.02-1.71,0-1.8-.37-2.11-.02-4.99-.46-7.2h-.46c2.02,8.7-4.47-1.31-5.07-4.4.52-2.55-.92-4.66.69-6.4,1.42,1.06,1.55,2.71,2.54,4,3.09,4.05.9-1.29.46-2.8-.78-2.68-1.58-5.3-2.31-8-.02-.06-.09.3-.46-1.2-1.39,1.37-4.79,5.48-5.53,6.8Z"/>
            <path class="cls-4" d="m109.87,229.83q2.54,2.2,5.07,4.4h.46c-.03-.13.03-.27,0-.4-.39-1.83-2.21-4.3-2.31-6.4-.99-1.29-1.11-2.94-2.54-4-1.61,1.74-.18,3.85-.69,6.4Z"/>
            <path class="cls-20" d="m114.94,234.22q-2.54-2.2-5.07-4.4c.6,3.09,7.09,13.1,5.07,4.4Z"/>
          </g>
          <path class="cls-20" d="m113.56,224.63c.86-1,1.05-4,1.38-4.8l-3.69-3.2c.72,2.7,1.52,5.32,2.31,8Z"/>
          <path class="cls-18" d="m137.08,178.25c-2.54,7.39-6.5,14.62-7.38,22.39.88,1.2,2.19,1.73,2.31,2.6-.42.44-2.44.1-3.23.2q-2.31,4.8-4.61,9.6c1.1.24,5.49,4.77,6.46,6,9.06-9.14,17.73-18.52,23.98-29.39,1.6-3.62,2.75-7.46,4.61-11,1.25-5.31,1.63-9.44,1.84-14.79.08-2.03.06-3.97,0-6-6.54,4.3-19.4,18.26-22.37,20.39-.11.08-1.64.74-1.61,0Z"/>
          <path class="cls-12" d="m161.06,163.85c-.21,5.35-.59,9.48-1.84,14.79.75-1.43,2.74-5.48,4.15-5.2.42-3.69,2-7.46,2.31-11.99.26-3.91-.45-7.36-.92-11.2-1.11,5.34.47,10.72-2.31,15.79-1.14.27.43-2.47-1.38-2.2Z"/>
          <g>
            <path class="cls-12" d="m234.86,261.01c.57.61,1.93,2.79,3.69,4.8,1-.35,2.38,1.06,2.77,1.6,1.97-.89,1.54,1.06,1.84,1.2,6.65-1.64,23.22-3.87,29.52-4-4.01-3.98-8.32-7.71-12.45-11.59-11.58-4.57-22.54-12.65-35.74-12.39-4.84-5.69-8.3-12.31-14.3-17.19-29.12-12.79-24.22-10.35.23,2.6,1.7,1.4,22.59,30.67,24.9,34.38.17.27-.03.64-.46.6Z"/>
            <path class="cls-29" d="m242.01,263.01c-4.27-.55-2.23,1.81,2.31,2.4.86-.37-2.13-2.38-2.31-2.4Z"/>
          </g>
          <g>
            <path class="cls-3" d="m159.22,178.65c-1.86,3.53-3.01,7.37-4.61,11-6.26,10.87-14.93,20.24-23.98,29.39-.93.94-1.76,2.22-2.77,3.2q-6,9.6-11.99,19.19c.02.09-.29,1.4,0,1.8.61.83,2.04.89,2.31,1,.39.16,1.5-.25,1.84.2.22.28-5.25,6.01-4.61,3.8-.82,1.03-1.92,1.97-2.77,3l8.3,4-6,6q4.38.1,8.76.2c15.03-10.35,16.69-5.9,27.21,8.4,4.01-2.01,7.51-4.71,11.76-6.4,4.14-.61,25.47,5.57,33.44,4-3.64-3.03-6.32-6.77-9.69-10-.37-.35.02-2.78-6-3.4,3.62-2.61,2.83-3.02,2.31-6.6-.45-3.03-7.33-30.9-8.3-33.19-4.24-10.03-13.81-16.53-11.07-40.78-1.41-.28-3.4,3.77-4.15,5.2Z"/>
            <g>
              <path class="cls-42" d="m115.41,233.82c.03.13-.03.27,0,.4.44,2.21.09,5.09.46,7.2q6-9.6,11.99-19.19c-4.04,3.9-8.87,7.31-12.45,11.59Z"/>
              <g>
                <path class="cls-27" d="m118.17,244.22c.09,1.58-1.78,2.76-2.77,4-.64,2.21,4.83-3.52,4.61-3.8-.35-.45-1.46-.04-1.84-.2Z"/>
                <path class="cls-20" d="m162.68,220.63c-1.88,5.86-5.31,9.79,4.15,11.2l6.69-3c-2.49-11.32-4.25-4.75-10.84-8.2Z"/>
              </g>
              <path class="cls-27" d="m159.91,234.62c-2.51-.81-3.61,1.78-1.38,2.8.9.41,3.84-2.01,1.38-2.8Z"/>
              <path class="cls-10" d="m146.54,243.42c-3.59,2.96.61,3.8.92,3.6.12-.08,1.67-2.08,1.61-2.2-.21-.45-2.02.38-2.54-1.4Z"/>
              <path class="cls-26" d="m146.08,229.03c-.4.12.34,1.57-2.08,1.8,6.06,4.76,3.49-2.22,2.08-1.8Z"/>
              <path class="cls-9" d="m167.29,255.41c-1.23-.01-1.54,1.86-1.38,2,1.1.97,4.34-1.97,1.38-2Z"/>
            </g>
          </g>
        </g>
      </g>
    </g>
  </g>
</svg>