<?xml version="1.0" encoding="UTF-8"?>
<svg id="Calque_2" data-name="Calque 2" xmlns="http://www.w3.org/2000/svg" xmlns:xlink="http://www.w3.org/1999/xlink" viewBox="0 0 989.42 562.85">
  <defs>
    <style>
      .cls-1 {
        fill: url(#Dégradé_sans_nom_2066);
        stroke-width: 0px;
      }
    </style>
    <linearGradient id="Dégradé_sans_nom_2066" data-name="Dégradé sans nom 2066" x1="-146.53" y1="281.42" x2="989.42" y2="281.42" gradientUnits="userSpaceOnUse">
      <stop offset=".05" stop-color="#1f2146"/>
      <stop offset=".27" stop-color="#1f2148"/>
      <stop offset=".41" stop-color="#202451"/>
      <stop offset=".53" stop-color="#232860"/>
      <stop offset=".64" stop-color="#262e75"/>
      <stop offset=".71" stop-color="#293386"/>
    </linearGradient>
  </defs>
  <g id="Fond">
    <path class="cls-1" d="m981.94,4.17c-34.71,2.92-14.56,1.6-49.37.94-78.18-1.48-166.5-5.29-244.67-4.12-81.56,1.23-162.63-.75-244.21-.75l-242.83,1.38c-34.78,0-60.18-.51-94.93-1.38C72.53-.59,42.36,1,3.88,1c-3.97,21.03-.81,42.08,0,63.31.77,20.09-2.5,44.42,0,64.41,2.45,19.58.74,31.35,0,51.04-.89,23.59-.24,52.57-2.5,70.19-2.73,21.21,1.89,71.53,2.75,92.89.05,1.23,22.67,37.57-4.13.65l54.33,53.64c147.32,174.52,439.46,218.17,652.51,97.5l172.95-97.96c126.47,41.81,99.2,45.26,109.62-308.87-14.44,3.28,7.41-84.88-7.48-83.63Z"/>
  </g>
</svg>