<?xml version="1.0" encoding="UTF-8"?>
<svg id="Calque_2" data-name="Calque 2" xmlns="http://www.w3.org/2000/svg" xmlns:xlink="http://www.w3.org/1999/xlink" viewBox="0 0 61.18 95.89">
  <defs>
    <style>
      .cls-1 {
        fill: url(#Dégradé_sans_nom_118-8);
      }

      .cls-1, .cls-2, .cls-3, .cls-4, .cls-5, .cls-6, .cls-7, .cls-8, .cls-9, .cls-10, .cls-11, .cls-12, .cls-13, .cls-14, .cls-15, .cls-16, .cls-17 {
        stroke-width: 0px;
      }

      .cls-18 {
        stroke: #fff;
      }

      .cls-18, .cls-19, .cls-20 {
        stroke-miterlimit: 10;
        stroke-width: .25px;
      }

      .cls-18, .cls-4 {
        fill: #c78a59;
      }

      .cls-2 {
        fill: url(#Dégradé_sans_nom_118-5);
      }

      .cls-19 {
        fill: #0e4c24;
        stroke: #020202;
      }

      .cls-3 {
        fill: url(#Dégradé_sans_nom_118-4);
      }

      .cls-5 {
        fill: #dee0e1;
      }

      .cls-6 {
        fill: #d8b493;
      }

      .cls-7 {
        fill: #fff;
      }

      .cls-8 {
        fill: #4c4c4c;
      }

      .cls-9 {
        fill: url(#Dégradé_sans_nom_118-3);
      }

      .cls-10 {
        fill: url(#Dégradé_sans_nom_118-7);
      }

      .cls-11 {
        fill: url(#Dégradé_sans_nom_118);
      }

      .cls-12 {
        fill: url(#Dégradé_sans_nom_118-6);
      }

      .cls-20 {
        fill: #e51b2d;
        stroke: #0c0c0c;
      }

      .cls-13 {
        fill: url(#Dégradé_sans_nom_118-10);
      }

      .cls-14 {
        fill: #fdfdfb;
      }

      .cls-15 {
        fill: url(#Dégradé_sans_nom_118-2);
      }

      .cls-16 {
        fill: url(#Dégradé_sans_nom_118-9);
      }

      .cls-17 {
        fill: #d8d8d8;
      }
    </style>
    <linearGradient id="Dégradé_sans_nom_118" data-name="Dégradé sans nom 118" x1="-220.2" y1="-961.97" x2="-216.56" y2="-961.97" gradientTransform="translate(-584.1 -766.72) rotate(154.13)" gradientUnits="userSpaceOnUse">
      <stop offset="0" stop-color="#fff"/>
      <stop offset=".04" stop-color="#fcecec"/>
      <stop offset=".18" stop-color="#f6b8b7"/>
      <stop offset=".32" stop-color="#f18b89"/>
      <stop offset=".46" stop-color="#ec6663"/>
      <stop offset=".6" stop-color="#e94946"/>
      <stop offset=".74" stop-color="#e63531"/>
      <stop offset=".87" stop-color="#e52925"/>
      <stop offset="1" stop-color="#e52521"/>
    </linearGradient>
    <linearGradient id="Dégradé_sans_nom_118-2" data-name="Dégradé sans nom 118" x1="11.94" y1="23.73" x2="6.72" y2="26.26" gradientTransform="translate(21.42 50.24) rotate(15.08) scale(1.15 1.12) skewX(13.72)" xlink:href="#Dégradé_sans_nom_118"/>
    <linearGradient id="Dégradé_sans_nom_118-3" data-name="Dégradé sans nom 118" x1="12.04" y1="32.18" x2="6.83" y2="34.71" gradientTransform="translate(21.42 50.24) rotate(15.08) scale(1.15 1.12) skewX(13.72)" xlink:href="#Dégradé_sans_nom_118"/>
    <linearGradient id="Dégradé_sans_nom_118-4" data-name="Dégradé sans nom 118" x1="19.68" y1="6.47" x2="14.59" y2="8.94" gradientTransform="translate(12.63 57.84) rotate(17.15) scale(1.12 1.07) skewX(17.4)" xlink:href="#Dégradé_sans_nom_118"/>
    <linearGradient id="Dégradé_sans_nom_118-5" data-name="Dégradé sans nom 118" x1="58.03" y1="2.31" x2="53.08" y2="4.71" gradientTransform="translate(-19.31 41.44) rotate(18.49) scale(.96 .9) skewX(19.68)" xlink:href="#Dégradé_sans_nom_118"/>
    <linearGradient id="Dégradé_sans_nom_118-6" data-name="Dégradé sans nom 118" x1="92.43" y1="-39.5" x2="87.39" y2="-37.06" gradientTransform="translate(-41.78 51.68) rotate(25.34) scale(.91 .81) skewX(23.91)" xlink:href="#Dégradé_sans_nom_118"/>
    <linearGradient id="Dégradé_sans_nom_118-7" data-name="Dégradé sans nom 118" x1="114.14" y1="-46.84" x2="109" y2="-44.35" gradientTransform="translate(-56.98 40.33) rotate(25.26) scale(.87 .79) skewX(22.38)" xlink:href="#Dégradé_sans_nom_118"/>
    <linearGradient id="Dégradé_sans_nom_118-8" data-name="Dégradé sans nom 118" x1="10.56" y1="-37.23" x2="6.26" y2="-35.14" gradientTransform="translate(21.42 50.24) rotate(15.08) scale(1.15 1.12) skewX(13.72)" xlink:href="#Dégradé_sans_nom_118"/>
    <linearGradient id="Dégradé_sans_nom_118-9" data-name="Dégradé sans nom 118" x1="17.27" y1="-20.35" x2="12.08" y2="-17.84" gradientTransform="translate(15.59 36.96) rotate(15.33) scale(1.11 1.07) skewX(14.17)" xlink:href="#Dégradé_sans_nom_118"/>
    <linearGradient id="Dégradé_sans_nom_118-10" data-name="Dégradé sans nom 118" x1="17.38" y1="-10.08" x2="12.19" y2="-7.56" gradientTransform="translate(15.59 36.96) rotate(15.33) scale(1.11 1.07) skewX(14.17)" xlink:href="#Dégradé_sans_nom_118"/>
  </defs>
  <g id="Panneau_de_direction" data-name="Panneau de direction">
    <g>
      <polygon class="cls-14" points="29.54 95.77 30.61 46.28 29.54 5.43 33.43 5.43 32.63 46.67 33.43 95.77 29.54 95.77"/>
      <path class="cls-8" d="m33.3,5.56l-.8,41.12.8,48.97h-3.64l1.06-49.37-1.06-40.72h3.63m.25-.25h-4.15l1.07,40.97-1.07,49.61h4.15l-.8-49.22.8-41.37h0Z"/>
    </g>
    <g>
      <path class="cls-11" d="m31.45,7.52c-1.27,0-2.36-.8-2.78-2.04-.6-1.76.08-3.97,1.53-4.93.43-.29.9-.43,1.4-.43,1.18,0,2.32.84,2.85,2.09.76,1.82.08,4.02-1.52,4.92-.46.25-.97.39-1.48.39Z"/>
      <path class="cls-5" d="m31.6.25h0c1.13,0,2.23.81,2.73,2.01.74,1.76.08,3.9-1.47,4.76-.44.24-.93.37-1.42.37-1.21,0-2.26-.77-2.66-1.95-.58-1.71.08-3.86,1.48-4.79.41-.27.86-.41,1.33-.41M31.6,0C31.1,0,30.6.14,30.13.45c-1.52,1.01-2.19,3.3-1.58,5.08.47,1.37,1.66,2.12,2.9,2.12.52,0,1.05-.13,1.54-.41,1.66-.93,2.37-3.2,1.58-5.08C34.01.84,32.82,0,31.6,0h0Z"/>
    </g>
    <g>
      <path class="cls-15" d="m29.33,84.83c-.07-1.47.02-2.94.28-4.36,1.46-.09,2.8-.73,3.66-1.73.2,1.03.3,2.1.29,3.17-.96,1.29-2.46,2.34-4.22,2.92Z"/>
      <path class="cls-7" d="m33.19,79.01c.17.92.24,1.87.24,2.82-.94,1.26-2.34,2.26-3.98,2.83-.06-1.37.03-2.74.26-4.07,1.36-.11,2.62-.68,3.48-1.57m.15-.56c-.76,1.01-2.12,1.82-3.83,1.89-.28,1.51-.38,3.07-.29,4.65,1.97-.61,3.5-1.76,4.46-3.08.02-1.17-.1-2.33-.34-3.46h0Z"/>
    </g>
    <g>
      <path class="cls-9" d="m29.29,94.57c-.07-1.47.02-2.94.28-4.36,1.46-.09,2.8-.73,3.66-1.73.2,1.03.3,2.1.29,3.17-.96,1.29-2.47,2.34-4.22,2.92Z"/>
      <path class="cls-7" d="m33.15,88.76c.16.92.24,1.87.24,2.82-.94,1.26-2.34,2.26-3.98,2.83-.06-1.37.03-2.74.26-4.07,1.36-.11,2.62-.68,3.48-1.57m.15-.56c-.76,1.01-2.12,1.82-3.83,1.89-.28,1.51-.38,3.07-.29,4.65,1.97-.61,3.5-1.76,4.46-3.08.02-1.17-.1-2.33-.34-3.46h0Z"/>
    </g>
    <g>
      <path class="cls-3" d="m29.52,75.14c-.23-1.46-.24-2.92-.04-4.34,1.35-.08,2.6-.66,3.41-1.58.23,1,.39,2.02.45,3.04-.85,1.22-2.21,2.26-3.82,2.88Z"/>
      <path class="cls-7" d="m32.82,69.47c.2.89.33,1.79.39,2.71-.83,1.2-2.1,2.18-3.59,2.78-.2-1.36-.21-2.72-.03-4.05,1.26-.1,2.42-.62,3.23-1.44m.13-.53c-.72.93-1.99,1.67-3.58,1.73-.22,1.5-.21,3.07.05,4.64,1.8-.66,3.18-1.79,4.04-3.06-.07-1.12-.24-2.23-.51-3.31h0Z"/>
    </g>
    <g>
      <path class="cls-2" d="m30.15,64.23c-.28-1.24-.35-2.49-.21-3.71,1.1-.07,2.12-.53,2.79-1.27.22.83.38,1.68.48,2.54-.67,1-1.76,1.89-3.06,2.45Z"/>
      <path class="cls-7" d="m32.66,59.49c.18.73.32,1.47.41,2.21-.65.99-1.65,1.81-2.84,2.35-.24-1.15-.3-2.29-.19-3.42,1.01-.08,1.95-.49,2.62-1.14m.12-.51c-.6.77-1.65,1.37-2.97,1.41-.16,1.3-.08,2.66.24,4.01,1.47-.59,2.59-1.56,3.27-2.64-.11-.95-.29-1.88-.54-2.79h0Z"/>
    </g>
    <g>
      <path class="cls-12" d="m30.1,54.07c-.14-1.18-.12-2.35.07-3.5.98-.02,1.84-.35,2.46-.92.18.78.3,1.57.36,2.38-.66.86-1.69,1.6-2.88,2.04Z"/>
      <path class="cls-7" d="m32.56,49.89c.15.68.25,1.37.3,2.07-.64.84-1.57,1.53-2.65,1.95-.12-1.08-.09-2.15.07-3.2.85-.03,1.66-.32,2.27-.81m.14-.47c-.57.6-1.48,1.04-2.55,1.04-.03,0-.05,0-.08,0-.22,1.23-.24,2.5-.07,3.79,1.36-.46,2.43-1.28,3.11-2.21-.06-.89-.2-1.76-.41-2.61h0Z"/>
    </g>
    <g>
      <path class="cls-10" d="m30.03,44.17c-.02-1.11.08-2.22.3-3.28h0c.91,0,1.78-.32,2.41-.88.15.75.22,1.52.21,2.29-.69.82-1.73,1.5-2.93,1.87Z"/>
      <path class="cls-7" d="m32.66,40.25c.12.65.17,1.31.17,1.97-.66.8-1.6,1.43-2.68,1.78,0-1.01.09-2.01.28-2.99.83-.02,1.62-.29,2.22-.77m.16-.48c-.56.58-1.44,1-2.49,1-.03,0-.07,0-.1,0-.25,1.16-.36,2.36-.33,3.57,1.37-.38,2.46-1.14,3.17-2.03,0-.86-.08-1.72-.26-2.54h0Z"/>
    </g>
    <g>
      <path class="cls-1" d="m29.78,13.54c-.03-1.18.05-2.34.24-3.48,1.17-.13,2.26-.59,3.09-1.3.11.73.16,1.48.16,2.23-.85,1.11-2.07,2-3.49,2.56Z"/>
      <path class="cls-17" d="m32.72,9.66c.03.38.05.77.06,1.15-.64.8-1.5,1.47-2.49,1.96.01-.77.07-1.53.18-2.28.82-.14,1.59-.43,2.26-.84m.71-1.96c-.76,1.01-2.12,1.82-3.83,1.89-.28,1.51-.38,3.07-.29,4.65,1.97-.61,3.5-1.76,4.46-3.08.02-1.17-.1-2.33-.34-3.46h0Z"/>
    </g>
    <g>
      <path class="cls-16" d="m29.68,23.01c-.09-1.42-.01-2.83.23-4.21,1.4-.09,2.68-.69,3.51-1.65.2.99.3,2.01.29,3.04-.92,1.23-2.35,2.25-4.03,2.81Z"/>
      <path class="cls-7" d="m33.34,17.42c.16.88.24,1.78.24,2.69-.89,1.21-2.23,2.17-3.79,2.72-.07-1.32,0-2.64.22-3.92,1.3-.1,2.5-.65,3.32-1.5m.14-.55c-.73.97-2.04,1.74-3.68,1.81-.26,1.46-.35,2.97-.24,4.49,1.88-.59,3.35-1.7,4.27-2.98,0-1.13-.11-2.25-.35-3.33h0Z"/>
    </g>
    <g>
      <path class="cls-13" d="m29.67,34.44c-.09-1.42-.01-2.83.23-4.21,1.4-.09,2.68-.69,3.51-1.65.2.99.3,2.02.29,3.04-.92,1.23-2.35,2.25-4.03,2.81Z"/>
      <path class="cls-7" d="m33.33,28.85c.16.88.24,1.78.24,2.69-.89,1.21-2.23,2.17-3.79,2.72-.07-1.32,0-2.64.22-3.92,1.3-.1,2.5-.65,3.32-1.5m.14-.55c-.73.97-2.04,1.74-3.68,1.81-.26,1.46-.35,2.97-.24,4.49,1.88-.59,3.35-1.7,4.27-2.98,0-1.13-.11-2.25-.35-3.33h0Z"/>
    </g>
    <path class="cls-20" d="m7.75,8.08c1.78-.06,3.56-.11,5.35-.15,9.27-.24,18.43-.33,27.46-.27,2.92-.22,5.85-.43,8.77-.65l10.54.54v5.91l-1.58-1.22,1.03,2.01.55,13.19v2.86l-34.13,1.15-14.39-.58-4.68-.31c-.34-6.23-.68-12.47-1.02-18.7-.08-1.41-.15-2.81-.23-4.22h2.67l-.34.43Z"/>
    <path class="cls-6" d="m7.62,10.54c.55-.31,1.59-.84,2.94-1.23,3.74-1.08,6.9-.18,7.62,0,2.93.72,12.68,1.15,41.72,0"/>
    <path class="cls-4" d="m5.48,11.31c0-.08,9.68-3.08,22.3-2.76,3.66.09,27.18.96,29.14.79.12-.01,1.4-.13,2.23-.27.08-.01.76-.13.76-.13h0s-20.43-1.23-42.84.99c-6.76.67-11.58,1.44-11.59,1.38Z"/>
    <path class="cls-4" d="m5.61,12.93c.67.24,10.27-1.41,22.24-1.5,3.66-.03,27.12.52,29.07.43.12,0,1.4-.07,2.22-.15.08,0,.76-.07.76-.07h0s-20.38-.67-42.73.54c-6.74.36-11.59.74-11.56.75Z"/>
    <path class="cls-18" d="m59.73,16.67c0,.14-9.95,4.05-22.31,2.15-3.59-.55-26.6-4.55-28.55-4.48-.11,0-2.16-.69-2.99-.55-.08.01,0,.88,0,.88h0s19.92,4.26,42.27,3.03c6.74-.37,11.59-1.12,11.59-1.02Z"/>
    <path class="cls-18" d="m6.39,26.01c.11.24,35.16-8.12,39.13-4.41.69.64.07,1.58-1.3,2.49-1.59,1.05-4.62,2-5.85,1.18-1.08-.71-.12-2.38,1.98-2.99,1.32-.38,3.3-.41,3.8.13.61.64-1.03,1.97-2.58,2.06-1.01.06-2.08-.41-1.89-.79.24-.48,2.49-.82,2.83-.56.27.2-.77.65-.85.82-.06.12,1.18-1.85.17-2.73-3.05-2.7-35.55,4.58-35.44,4.81Z"/>
    <path class="cls-18" d="m6.66,29.56s9.38-2.21,21.73-2.98c3.59-.22,26.61-1.52,28.52-1.75.11-.01,1.37-.17,2.17-.29.08-.01.74-.12.74-.12h0s-20.01.9-41.86,3.61c-6.59.82-11.28,1.55-11.29,1.52Z"/>
    <path class="cls-18" d="m6.16,20.64s9.51-1.5,21.9-1.35c3.6.05,26.71.47,28.63.39.11,0,1.38-.06,2.19-.13.08,0,.74-.06.75-.06h0s-20.07-.6-42.08.48c-6.64.33-11.38.7-11.38.67Z"/>
    <path class="cls-18" d="m20.48,31.22c.1.1,35.38-5.68,39.16-4.26.65.24,0,.7-1.41,1.18-1.63.56-4.69,1.16-5.88.87-1.04-.25-.01-1.05,2.11-1.44,1.33-.25,3.3-.38,3.78-.17.57.25-1.11.94-2.66,1.07-1.01.09-2.06-.06-1.85-.24.26-.23,2.52-.51,2.84-.42.26.07-.79.33-.88.41-.06.06,1.25-.89.29-1.22-2.92-1.02-35.6,4.13-35.5,4.22Z"/>
    <polygon class="cls-19" points="28.06 35.69 28.68 47.6 55.15 46.82 60.5 40.2 55.55 36.19 28.06 35.69"/>
    <polygon class="cls-19" points="32.53 61.8 32.74 49.98 6.4 47.3 .18 53.16 4.52 57.78 32.53 61.8"/>
    <polygon class="cls-19" points="31.07 64.06 30.34 76.06 56.55 72.46 61.01 65.32 55.58 61.87 31.07 64.06"/>
    <polygon class="cls-19" points="32.83 90.08 32.32 78.17 5.84 78.66 .43 85.22 5.35 89.28 32.83 90.08"/>
  </g>
</svg>