<?xml version="1.0" encoding="UTF-8"?>
<svg id="Calque_2" data-name="Calque 2" xmlns="http://www.w3.org/2000/svg" xmlns:xlink="http://www.w3.org/1999/xlink" viewBox="0 0 1016 1043.86">
  <defs>
    <style>
      .cls-1 {
        fill: #050706;
      }

      .cls-1, .cls-2, .cls-3, .cls-4, .cls-5, .cls-6, .cls-7, .cls-8, .cls-9, .cls-10, .cls-11, .cls-12, .cls-13, .cls-14, .cls-15, .cls-16, .cls-17, .cls-18, .cls-19, .cls-20, .cls-21, .cls-22, .cls-23, .cls-24, .cls-25, .cls-26, .cls-27, .cls-28, .cls-29, .cls-30, .cls-31, .cls-32, .cls-33, .cls-34, .cls-35, .cls-36, .cls-37, .cls-38, .cls-39, .cls-40, .cls-41, .cls-42, .cls-43, .cls-44, .cls-45, .cls-46, .cls-47, .cls-48, .cls-49, .cls-50, .cls-51, .cls-52, .cls-53, .cls-54, .cls-55, .cls-56, .cls-57, .cls-58, .cls-59, .cls-60, .cls-61, .cls-62, .cls-63, .cls-64, .cls-65 {
        stroke-width: 0px;
      }

      .cls-2 {
        fill: #a9a6a1;
      }

      .cls-3 {
        fill: #8e8d8b;
      }

      .cls-4 {
        fill: #f5f0e9;
      }

      .cls-5 {
        fill: #897d6d;
      }

      .cls-6 {
        fill: #544c35;
      }

      .cls-7 {
        fill: #b2ad97;
      }

      .cls-8 {
        fill: #c180b2;
      }

      .cls-9 {
        fill: #e7c3c6;
      }

      .cls-10 {
        fill: #a79a8e;
      }

      .cls-11 {
        fill: #eed6c8;
      }

      .cls-12 {
        fill: #d0a38e;
      }

      .cls-13 {
        fill: #e2e0d4;
      }

      .cls-14 {
        fill: #b7b6bf;
      }

      .cls-15 {
        fill: #bb9b98;
      }

      .cls-16 {
        fill: #494832;
      }

      .cls-17 {
        fill: #dededd;
      }

      .cls-18 {
        fill: #9f6a8f;
      }

      .cls-19 {
        fill: #90785f;
      }

      .cls-20 {
        fill: #75726f;
      }

      .cls-21 {
        fill: #9e9783;
      }

      .cls-22 {
        fill: #84799e;
      }

      .cls-23 {
        fill: #b48477;
      }

      .cls-24 {
        fill: #322d1e;
      }

      .cls-25 {
        fill: url(#Dégradé_sans_nom_1529);
      }

      .cls-26 {
        fill: #9c585d;
      }

      .cls-27 {
        fill: #433d25;
      }

      .cls-28 {
        fill: #807c68;
      }

      .cls-29 {
        fill: #bbbeb0;
      }

      .cls-30 {
        fill: #ebbb9f;
      }

      .cls-31 {
        fill: #918c85;
      }

      .cls-32 {
        fill: #75574f;
      }

      .cls-33 {
        fill: #9f9f9e;
      }

      .cls-34 {
        fill: #a39f91;
      }

      .cls-35 {
        fill: #4d4a48;
      }

      .cls-36 {
        fill: #c3bba9;
      }

      .cls-37 {
        fill: #742c76;
      }

      .cls-38 {
        fill: #131f15;
      }

      .cls-39 {
        fill: #cbccd7;
      }

      .cls-40 {
        fill: #847c74;
      }

      .cls-41 {
        fill: #a08d7b;
      }

      .cls-42 {
        fill: #363429;
      }

      .cls-43 {
        fill: #898452;
      }

      .cls-44 {
        fill: #7d7c71;
      }

      .cls-45 {
        fill: #efe6de;
      }

      .cls-46 {
        fill: #d2dccf;
      }

      .cls-47 {
        fill: #ddd3c4;
      }

      .cls-48 {
        fill: #d3d0cc;
      }

      .cls-49 {
        fill: #c5c5c5;
      }

      .cls-50 {
        fill: #8d7683;
      }

      .cls-51 {
        fill: #9b7681;
      }

      .cls-52 {
        fill: #9b829f;
      }

      .cls-53 {
        fill: #5b593d;
      }

      .cls-54 {
        fill: #bfbab0;
      }

      .cls-55 {
        fill: #111711;
      }

      .cls-56 {
        fill: #8d7161;
      }

      .cls-57 {
        fill: #383633;
      }

      .cls-58 {
        fill: #c8b3bd;
      }

      .cls-59 {
        fill: #fffffd;
      }

      .cls-60 {
        fill: #8d8b6c;
      }

      .cls-61 {
        fill: #6a7f7d;
      }

      .cls-62 {
        fill: #624842;
      }

      .cls-63 {
        fill: #a699ab;
      }

      .cls-64 {
        fill: #746f64;
      }

      .cls-65 {
        fill: #c8b8b1;
      }
    </style>
    <linearGradient id="Dégradé_sans_nom_1529" data-name="Dégradé sans nom 1529" x1="1464.99" y1="932.73" x2="1341.46" y2="993.38" gradientTransform="translate(1517.07) rotate(-180) scale(1 -1)" gradientUnits="userSpaceOnUse">
      <stop offset="0" stop-color="#0f1811"/>
      <stop offset="1" stop-color="#060706"/>
    </linearGradient>
  </defs>
  <g id="Renne">
    <g>
      <g>
        <path class="cls-59" d="m699.21,110.42c21.89,5.3,9.19-4.38,0-11.26.1,3.64.31,7.66,0,11.26Z"/>
        <path class="cls-59" d="m33.26,793.7c.65-4.29-1.33-3.57-1.41-3.75-2.36-2.08-9.77.07-8.45,3.13,1.55,3.59,9.38.5,9.86.63Z"/>
      </g>
      <g>
        <path class="cls-59" d="m693.58,171.74c-8.05,10.25-30.87,11.45-30.97,15.64,19.11,22.45,41.9,43.28,59.13,66.95q.7,0,1.41,0,2.46-13.14,4.93-26.28c3.16,1.51,4.41,10.97,7.04,11.26,3.41.38-.55-10.75,21.12,10.01q7.74-17.52,15.49-35.04,5.98,16.89,11.97,33.79c13.68-18.94,26.11-38.59,40.83-56.94-14.69-14.42-28.2-2.77-38.01-24.4-5.21,5.47-32.7-4.02-47.17-7.51q-22.88,6.26-45.76,12.51Z"/>
        <g>
          <path class="cls-59" d="m99.43,738.64c20.41-12.3,43.29-21.53,61.95-36.29,1.5-1.19,5.47-4.77,7.04-6.26,20.23-31.42-3.73-37.88-18.3-60.07-9.11-13.87-16.17-31.14-19.71-46.93-7.29-32.54-3.2-69.92,1.41-39.42,6.64-10.36,22.97-35.31,28.16-27.53.09-.43,4.57-7.21,4.93-7.51,2.05-1.74,10.03,6.59-2.11-9.39,14.65-14.94,1.92-11.65,1.41-12.51-3.92-6.55,35.42-26.54,42.94-29.41,101.16-38.51,181.75,24.78,284.4,7.51,13.87-2.33,33.36-9.48,47.17-13.77,14.31-4.44,33.05-13.32,43.65-16.27,3.75-1.04,7.5-2.13,11.26-3.13,2.45,1.83,7.28,54.02,23.94,46.93-.59-1.48,3.17-1.26,2.82-1.88-1.91-3.27-8.89-4.21-9.86-6.26-.56-1.18-3.23-18.45-4.93-24.4,9.07,18.97-2.49-18.41,4.93-3.13,1.85,3.8,1.98,14.28,2.82,16.27,7.58,18.05,6.91-24.16,34.49-8.13,1.12-.18-.24-1.77,2.11-3.75,10.38-8.77,18.26-12.72,14.08-19.4-1.98-3.16-5.39.66-5.63-1.25-.21-1.69,9.35-4.56,1.41-11.26,5.01-5.86,8.44,5.57,9.15,5.63,3.27.26-1.13-10.41,10.56,0,19.73-10.59-5.53-.71-8.45-11.89,8.78-.39,10.93-1.07,18.3-4.38-.15-10.29-8.48-.85-14.08-.63,6.86-5.78-7.97-1.98,5.63-10.01h-8.45c2.32-5.77,4.63-7.32,11.26-8.76-1.7-1.47-3-1.96-2.82-4.38,1.49-19.43,21.55-74.74,19.71-87.6-1.83-12.77-18.85-10.18-29.57-8.76-11.08,1.47-11.78,11.34-47.87-3.75-13.26-5.55-13.75-5.63-23.94-15.02-15.51-14.3-25.28-32.88-26.05-52.56,3.99.05,7.98-.08,11.97,0,32.47.62,52.69,9.23,80.96,20.02,7.84,7.84,15.57,16.09,19.01,26.28,2.24.24,2.64,2.42,2.82,2.5,1.08.52,9.44.74,12.67,1.25.22.03-.71-1.87,4.22-1.25.15-10.97-54.88-72.55-59.84-73.83-53.9.17-120.66-14.64-154.17-55.06-1.85-.17-1.9,5.51-1.41,8.13,3.33,17.77,26.43,76.79,35.2,97.61,4.54,10.8,15.67,16.33,5.63,27.53,14.08-3.14,12.96,9.36,28.16,26.28,8.97,9.98,22.67,17.41,22.53,18.77-.07.69-12.61,7.91-2.11,10.64,7.2,1.87,6.86-5.7,9.86-6.26,2.76-.51,40.02,12.75,54.21,13.14q-7.74,38.79-15.49,77.59-1.06.94-2.11,1.88c-14.7-8.9-17.5-18.98-36.61-17.52-27.84,2.13-79.86,41.21-161.91,35.04-46.12-3.47-142.99-45.05-242.17-3.75-58.04,24.17-45.77,66.79-70.4-6.26-31.77,28.3-17.95,21.37-23.23-20.65,12.76-8.48.88-22.51-6.34-20.65-2.98.77-20.32,42.65-27.45,49.43-12.31,11.7-26.49-10.83-9.86,33.79q-8.8-1.56-17.6-3.13-1.06.94-2.11,1.88,8.45,11.89,16.9,23.78-14.08-4.38-28.16-8.76,7.04,17.52,14.08,35.04-11.26,5.63-22.53,11.26c-1.98,6.2,28.99,41.02-6.34,18.15-12.14,9.03,49.58,75.51,57.73,86.35,21.82-36.29,16.62-19.81,44.35,24.4,5.52,8.8,16.44,22.05,23.94,30.03,2.77,9.27-29.74,40.71-28.16,55.69Z"/>
          <g>
            <path class="cls-49" d="m90.98,513.38c-4.23,1.01-16.04,1.17-16.9,3.13,7.59,32.47,21.31,29.35,21.12,31.29-.17,1.81-27.88,19.8-29.57,25.03.08.49,4.04,1.13,4.22,2.5,2.86,21.6-3.69,22.01,28.16,1.25q-9.15-1.25-18.3-2.5c9.43-.23,52.11-36.05,40.13-40.67-2.6-1-6.67,3.07-17.6,1.25-5.66-.94-7.26,4.39,7.04-11.89q-5.63-1.88-11.26-3.75,8.45-2.5,16.9-5.01-11.97-.31-23.94-.63Z"/>
            <path class="cls-24" d="m89.57,488.35c-3.43,1.81,12.46,11.97,19.71,16.89-.14,1.09-16.72-3.57-15.49,1.88,3.99.49,8.69-1.4,11.26,1.88,0,2.04-11.89,3.86-14.08,4.38q11.97.31,23.94.63-8.45,2.5-16.9,5.01,5.63,1.88,11.26,3.75c-14.3,16.28-12.7,10.95-7.04,11.89q12.67-12.83,25.34-25.65c-11.57.27-7.45-8.12-16.9-10.01-3.69-8.58-7.62-17.05-11.26-25.65h-1.41c2,6.82,2.98,13.95,5.63,20.65-1.48,2.5-11.97-4.51-14.08-5.63Z"/>
            <path class="cls-49" d="m93.8,507.12c-1.24-5.44,15.34-.79,15.49-1.88-7.25-4.93-23.14-15.08-19.71-16.89-7.53-3.98-16.89-12.75-21.12-11.89,44.57,37.69,3.13,13.01-22.53,1.25,7.58,4.31,38.01,29.98,41.53,30.66,2.89.56,3.82-1.56,6.34-1.25Z"/>
            <path class="cls-49" d="m156.45,490.85c-5.34,6.28-8.19,13.65-7.04,21.27,10.33-3.45,14.35,5.24,7.04-21.27Z"/>
            <path class="cls-49" d="m71.97,539.66q-13.73,11.58-27.45,23.15c7.51-3.46,25.9-16.66,27.45-23.15Z"/>
            <path class="cls-33" d="m98.02,473.33h1.41c-6.66-15.73-6.15-16.15-1.41,0Z"/>
            <g>
              <path class="cls-27" d="m538.71,457.07c13.69-1.29,26.8.1,40.13-6.26,11.17-5.33,5.9-3.71,3.52-10.01-10.59,2.94-29.34,11.83-43.65,16.27Z"/>
              <path class="cls-57" d="m654.86,435.79c-7.43,8.57-1.84,3.83-2.82,10.01q1.41-5.01,2.82-10.01Z"/>
              <path class="cls-57" d="m666.13,412.01c-.7.15-2.75,2.28-2.11,3.13,3.87,5.18,7.79-4.35,2.11-3.13Z"/>
              <path class="cls-35" d="m671.76,405.76c-1.43-.48-3.54,1.68-3.52,1.88.23,2.07,5.69-1.14,3.52-1.88Z"/>
            </g>
          </g>
        </g>
        <path class="cls-1" d="m831.56,301.89c1.68,4.49,2.66,9.3,4.22,13.77q7.74,1.56,15.49,3.13c2.95-17.13-2.97-34.08-19.71-16.89Z"/>
        <g>
          <path class="cls-59" d="m797.77,256.84c4.22,3.43,12.74,5.64,16.9,8.76,15.44-15.03,19.77-31.11,42.24-40.05,14.79-5.88,48.15-10.19,64.77-11.26,6.56-.42,22.09-2.43,22.53.63.33,1.3-8.06,24.22-15.49,11.26,11.78,11.57-7.7,28.32-19.71,35.67-.55.33-2.18,2.92-11.26,6.26-7.55,2.77-47.2,13.97-37.31,1.25-8.44,4.41-38.39-2.66-11.26,6.26q-12.32,0-24.64,0c-.99,9.42,3.84,17.75,7.04,26.28,16.74-17.19,22.66-.24,19.71,16.89q-7.74-1.56-15.49-3.13c4.55,13,9.25,25.72,15.49,38.17-2.85,3.28-57.62-10.36-50.69,45.68,1.53,12.33,6.67,15.19,14.08,25.65-4.32,18.29,6.35,86.23,4.22,96.36-.66,3.15-13.2-5.1-2.82,21.27-8.19,4.1-4.74,15.08-9.15,23.15-8.82-6.44-22.8-23.36-33.09-26.28,6,6.6,30.44,27.84,30.97,34.41.17,2.14-8.09,26.56-9.86,28.78-6.07,7.63.09-3.02-3.52-5.63-7.95-5.74-11.32,6.64-2.11,8.13-19.12,15.55,10.23,3.95-5.63,13.77.66,29.48-.67,2.09-9.86,15.02-.37.53-4.06,10.89-4.22,11.89-.49,3.04,6.24,33.3-9.15,20.02-18.19,22.86-14.42-8.62-3.52-16.27-8.89-10.4-.12-2.82,5.63-1.25.3-.16,3.26.62,4.22-2.5-6.89-7.43-2.17,1.57-9.86-4.38,16.17-6.94,5.23-8.95-7.04-9.39-.55,2.47-7.9,6.22-8.45,6.26-.47.03-.94-.02-1.41,0-1.27,4.49-4.41,6.08-7.04,8.76-17.31,17.66-38.29,32.78-59.13,46.93-3.1,16.43-5.51,32.98-8.45,49.43q36.25-23.15,72.51-46.3,0,24.4,0,48.81c96.95-73.58,123.37-175.54,124.6-284.7,86.21-5.18,55.33-97.84,29.57-142.66,2.51-11.21,93.24,6.8,123.9-185.21-3.35-3.85-7.87-13.17-9.86-15.64-37.68,56.77-94.82,71.84-165.43,77.59-5.55,1.99-38.18,52.04-42.94,61.32Z"/>
          <g>
            <path class="cls-1" d="m867.46,364.46c-4.43-.66-13.66.25-18.3,1.25-42.85,9.21,3.97,37.5-14.08,41.3-2.62.55-22.16-7.68-23.23-5.63,27.25,35.3,41.04,3.67,44.35,3.13,3.15-.52,15.52,8.34,17.6,4.38.1-4.31,1.91-17.65,4.22-20.02,5.6-5.75,9.45,5.05,9.86,0,.57-7.09-11.09-23-20.42-24.4Z"/>
            <path class="cls-49" d="m766.79,646.03c-.97,3.13-3.92,2.34-4.22,2.5-5.94,3.14-5.34,1.05-5.63,1.25-10.9,7.65-14.67,39.13,3.52,16.27,15.4,13.28,8.66-16.98,9.15-20.02.34,1.87-2.19.68-2.82,0Z"/>
            <g>
              <path class="cls-1" d="m756.94,649.78c.29-.2-.31,1.88,5.63-1.25-5.76-1.57-14.52-9.15-5.63,1.25Z"/>
              <path class="cls-42" d="m746.38,638.52c-5.43-.11,2.37,6.45,2.82,6.26,2.72-1.14-1.68-6.23-2.82-6.26Z"/>
              <path class="cls-16" d="m746.38,646.03c-2.12,5.48,5.5,5.61,4.93,3.13-.11-.46-3.15-.73-4.93-3.13Z"/>
            </g>
          </g>
        </g>
        <g>
          <path class="cls-17" d="m652.75,77.88c-5.72,1.24-9.9,18.52-25.34,42.55,6.81-1.05,2.45,3.54,5.63,5.01,23.46-31.03,30.28,28.49,19.01,27.53-3.95-.34-3.71-13.65-9.15-12.51,7.67,38.8,17.6,19.38,18.3-6.88-6.52-3.04-3.06-66.21,4.22-47.55,1.14,2.93,1.79,53.05,3.52,61.95,30.3-32.82,11.14-68.43,27.45-63.82-.25-1.12,2.96-2.18.7-3.75-13.55,3.54-30.6-5.5-44.35-2.5Z"/>
          <path class="cls-17" d="m583.76,115.43c19.27,29.39,10.48,7.73,9.86-8.13-.81-20.45-1.16-79.91,16.9-69.45q1.41-1.88,2.82-3.75c-17.87-21.92-34.2,22.79-33.79,40.67.26,11.52,13.21,41.21,4.22,40.67Z"/>
          <path class="cls-59" d="m475.35,115.43c-1.03-2.61-5.94-20.81-5.63-21.9.34-1.21,6.59-4.87,7.74-4.38,3.13,1.33,10.88,31.4,40.13,49.43-7.41-13.38-12.85-39.12-14.08-41.3-2.36-4.19-15.79-13.58-19.71-20.65q-11.97,8.45-23.94,16.89c-.63,2.58,11.56,20.49,15.49,21.9Z"/>
          <path class="cls-49" d="m610.51,37.84c1.46,26.52-5.31,53.2,1.41,79.47,10.65-9.63,23.38-35.39,23.94-48.18.02-.36-2.03-6.84-4.22-6.26-20,32-22.42,38.27-21.12,5.63.33-8.18,8.03-28.01,2.82-34.41q-1.41,1.88-2.82,3.75Z"/>
          <path class="cls-59" d="m631.63,62.87c2.2-.59,4.24,5.89,4.22,6.26,6.81-4.31,7.69,5.27,11.26.63-.34-12.31,1.54-40.04,15.49-35.67.05-.56,6.1-4.27-2.11-8.76-10.55-5.78-13.84,13.51-28.86,37.54Z"/>
          <path class="cls-59" d="m479.57,67.87c-.99-2.93-5.18-27.02-4.22-28.16,5.34-6.33,9.81,2.93,11.26,5.63,6.98-26.16-26.93-22.41-14.08,15.64.33.96,5.82,10.06,7.04,6.88Z"/>
          <path class="cls-17" d="m554.19,50.35c.92-8.36,1.51-19.61,12.67-11.26,0-.31,4.26-1.81,2.82-5.63-6.85-18.09-40.85,7.29-15.49,16.89Z"/>
          <path class="cls-49" d="m627.41,120.43c-13.3,20.69-35.69,26.35,14.78,51.31,1.99-1-9.77-24.08-3.52-40.05-11.3,3.76-12.09,2.28-5.63-6.26-3.18-1.47,1.18-6.05-5.63-5.01Z"/>
          <path class="cls-49" d="m633.04,125.44c-6.45,8.53-5.67,10.02,5.63,6.26,5.21-13.31,3.7,6.1,4.22,8.76,5.44-1.14,5.21,12.18,9.15,12.51,11.28.96,4.46-58.56-19.01-27.53Z"/>
          <g>
            <path class="cls-1" d="m514.77,1.55c-2.14,15.28-4.71,30.94-5.63,46.3-.87,14.42,2.29,34.89-.7,35.04-16.03-14.51-17.86-30.15-21.82-37.54-1.45-2.7-5.92-11.96-11.26-5.63-.96,1.14,3.24,25.22,4.22,28.16.18.54,3.52,7.48,4.22,8.76,3.92,7.07,17.35,16.46,19.71,20.65,1.23,2.18,6.67,27.91,14.08,41.3-29.25-18.03-37-48.1-40.13-49.43-1.16-.49-7.4,3.17-7.74,4.38-.31,1.09,4.6,19.29,5.63,21.9,2.45,6.19,10.8,18.12,15.49,23.78,33.51,40.42,100.27,55.23,154.17,55.06,4.96,1.28,59.99,62.86,59.84,73.83,6.49-.48,10.14,11.35,16.9,15.02,1.54-1.31,12.31-4.92,14.08-5.01-3.23-8.53-8.63-16.29-14.08-23.78-17.23-23.67-40.02-44.5-59.13-66.95.11-4.19,22.92-5.39,30.97-15.64.97-1.23,11.3-22.99,6.34-22.53-63.6,61.65-10.26-4.75-4.93-19.4,1.97-5.42,3.74-13.8,4.22-19.4.31-3.61.1-7.62,0-11.26-.14-5.04-1.7-10.1-2.82-15.02-16.32-4.6,2.85,31-27.45,63.82-1.73-8.9-2.38-59.02-3.52-61.95-7.28-18.66-10.75,44.52-4.22,47.55-.71,26.26-10.63,45.68-18.3,6.88-.53-2.66.98-22.07-4.22-8.76-6.25,15.96,5.51,39.05,3.52,40.05-50.48-24.96-28.08-30.61-14.78-51.31,15.44-24.03,19.63-41.3,25.34-42.55,6.49-9.11,3.63-20.48,5.63-30.66.82-4.15,5.53-7.07,5.63-7.51.84-3.61-1.48-4.88-1.41-5.63-13.95-4.37-15.83,23.36-15.49,35.67-3.58,4.64-4.46-4.94-11.26-.63-.55,12.79-13.28,38.55-23.94,48.18-6.72-26.27.05-52.95-1.41-79.47-18.06-10.45-17.7,49-16.9,69.45.62,15.86,9.42,37.52-9.86,8.13-18.32-27.94-16.64-45.11-16.9-76.34-11.16-8.35-11.75,2.9-12.67,11.26-5.66,51.18,24.8,77.88-9.15,56.31-38.81-24.66-9.61-97.5-16.19-105.75-1.67-2.1-11.34-.04-14.08.63Z"/>
            <path class="cls-59" d="m509.14,47.85c.93-15.36,3.49-31.02,5.63-46.3-6.67,1.63-7.62,10.04-8.45,18.15-.77,7.53-.92,21.91,2.82,28.16Z"/>
            <path class="cls-49" d="m521.11,105.41c4.9,38.15,40.8,59.66,80.96,65.7-33.3-15.65-41.79-41.16-45.76-44.43-13.61-4.35-24.12-13.48-35.2-21.27Z"/>
            <path class="cls-59" d="m568.98,120.43c-.74,12.04,17.16,27.15,28.16,33.79q-14.08-16.89-28.16-33.79Z"/>
          </g>
        </g>
        <path class="cls-49" d="m723.15,254.33c18.77-1.89,35.98.8,56.32,0,1.83-1.91,2.76-4.23,4.22-6.26q-5.98-16.89-11.97-33.79-7.74,17.52-15.49,35.04c-21.67-20.76-17.71-9.63-21.12-10.01-2.63-.29-3.88-9.75-7.04-11.26q-2.46,13.14-4.93,26.28Z"/>
        <path class="cls-49" d="m951.23,116.68c-3.59,5.45-4.68,13.9-11.26,23.78,16.08,5.05,29.76-19.73,38.01-30.66q-13.38,3.44-26.75,6.88Z"/>
        <g>
          <path class="cls-1" d="m930.12,2.8c-.47,11.02,2.83,21.71,4.22,32.54.16,1.23-.14,2.52,0,3.75.2,1.79,1.09,3.41,1.41,7.51,1.02,13.09.92,24.42,0,37.54-.37,5.31-.56,12.45-1.41,17.52-1.78,10.63-3.63,22.45-9.86,31.91-14.67,22.28-78.03,52.47-57.73,25.03,5.47-7.39,17.21-11.51,22.53-19.4.83-1.23,1.51-2.26,2.82-3.13q-1.06-.94-2.11-1.88c-34.42,20.18-3.3-7.8,6.34-18.77,8.82-15.08,17.46-50.04,14.08-65.07-1.87-8.34-10.71-6.59-12.67,0-1.85,6.23,2.68,44.73-28.86,75.09-4.33-1.54-10.33-65.2-10.56-73.83.17-9.78-5.61-19.84-9.86-11.89-2.98,5.59,4.02,60.5.7,61.95-13.57-15.54-20.66-33.95-30.27-51.31-1.79-3.23-3.57-6.99-5.63-10.01-3.49-5.12-7.83-7.26-9.86-1.88-1.43,3.8,17.36,39.34,21.12,45.68,6.09,10.27,18.6,23.6,21.12,28.16,19.77,35.77-.09,63.45-7.74,59.44-2.82-1.48,2.44-3.77.7-10.01-1.46-5.25-13.03-18.1-4.22-43.8-.51-.75.9-4.86-1.41-3.13-12.87,31.61,2.51,55.51-8.45,45.05-4.52-4.32-7.05-10.41-9.86-15.64-19.92-37.17-7.08-58.7-19.71-80.72-4.1,3.52-4.6,58.95,2.82,67.58-15.49-9.89-14.23-32.13-18.3-48.18-15.57,5.58-.36,36.82,7.04,48.18,5.44,8.34,14.14,14.89,19.71,23.15,1.14,1.69,10.99,17.91,9.15,18.77-16.4-1.84-20.67-6.64-28.86-18.77-.91-1.35-1.99-2.36-2.82-3.75-2.9,1.58,1.27,12.87,2.82,16.27,9.81,21.63,23.33,9.98,38.01,24.4-14.72,18.35-27.15,38-40.83,56.94-1.46,2.02-2.39,4.35-4.22,6.26,3.26,3.58,12.74,2.91,18.3,2.5,4.77-9.28,37.4-59.33,42.94-61.32,70.62-5.75,127.76-20.82,165.43-77.59-3.31-4.13-6.99-8.37-12.67-10.01-10.06,23.03-46.03,46.46-72.51,53.81,5.69-7.4,13.83-13.5,19.01-21.27,6.58-9.88,7.67-18.33,11.26-23.78,9.17-13.43,27.07-32.4,32.38-46.93,12.86-35.17-1.67-43.66-8.45-25.65-4.11,10.93-3.91,27.72-24.64,50.06,2.19-16.87,3.34-34.37,2.11-51.31-3.26-44.93-7.87-45.44-22.53-40.05Z"/>
          <path class="cls-49" d="m776.65,76.63c.31,2.82,2.06,3.29,2.82,6.26,4.07,16.05,2.81,38.29,18.3,48.18-7.41-8.63-6.91-64.06-2.82-67.58,12.63,22.02-.21,43.54,19.71,80.72.42-9.33,16.68-33.55,16.9-39.42.25-6.86-10.66-17.1-7.04-20.65-3.76-6.34-22.55-41.88-21.12-45.68,2.03-5.38,6.36-3.25,9.86,1.88,5.97-15.72-3.74-13.58-15.49-5.63,9.27,21.05-9.79,21.84-9.86,38.79-2.15,3.24-10.06,2.65-11.26,3.13Z"/>
          <path class="cls-59" d="m973.76,39.09c-.32,2.32-.4,5.23,1.41,5.01,6.77-18,21.3-9.51,8.45,25.65-5.31,14.53-23.22,33.5-32.38,46.93q13.38-3.44,26.75-6.88c-8.26,10.93-21.93,35.71-38.01,30.66-5.18,7.78-13.32,13.87-19.01,21.27,26.48-7.35,62.45-30.78,72.51-53.81,5.33-12.21,8.83-42.99,5.63-55.69-7.33-5.14-6.53-22.88-14.78-24.4-6.64-1.22-9.91,6.62-10.56,11.26Z"/>
          <path class="cls-59" d="m783.69,150.47c.83,1.4,1.9,2.4,2.82,3.75q9.86,0,19.71,0c-5.58-8.26-14.27-14.81-19.71-23.15-7.4-11.36-22.61-42.6-7.04-48.18-.75-2.97-2.5-3.44-2.82-6.26-13.38,5.27-14.84,6.26-12.67,24.4.52,4.4,16.81,44.52,19.71,49.43Z"/>
          <path class="cls-59" d="m897.73,50.35c1.96-6.59,10.8-8.34,12.67,0,9.66,1.85,16.25-.45,25.34-3.75-.32-4.1-1.2-5.72-1.41-7.51-14.85,15.7-14.88,1.79-26.05-1.25-14.4-3.92-16.62,3.03-13.38,14.39q1.41-.94,2.82-1.88Z"/>
          <path class="cls-59" d="m934.34,35.33c-1.39-10.83-4.69-21.52-4.22-32.54-.26.1-2.51-3.4-5.63.63,3.07,10.75,5.36,34.76,9.86,31.91Z"/>
          <path class="cls-59" d="m814.66,144.21c2.8,5.23,5.33,11.32,9.86,15.64,10.96,10.46-4.42-13.44,8.45-45.05,2.31-1.73.9,2.38,1.41,3.13.12.18,2.34-.51,2.82.63.91,2.16,10.94,45.72,1.41,43.17,1.74,6.24-3.52,8.54-.7,10.01,7.65,4.01,27.52-23.67,7.74-59.44-2.52-4.55-15.03-17.89-21.12-28.16-3.62,3.54,7.29,13.78,7.04,20.65-.21,5.87-16.47,30.09-16.9,39.42Z"/>
          <path class="cls-49" d="m834.38,117.93c-8.8,25.7,2.76,38.55,4.22,43.8,9.53,2.55-.5-41.01-1.41-43.17-.48-1.13-2.69-.45-2.82-.63Z"/>
          <path class="cls-49" d="m786.51,154.22c8.19,12.13,12.46,16.94,28.86,18.77,1.84-.86-8.01-17.08-9.15-18.77q-9.86,0-19.71,0Z"/>
        </g>
        <g>
          <path class="cls-38" d="m131.81,549.67c9.15,4.62,11.45-7.05,29.57-4.38,1.63-4.78-1.64-22.01-1.41-23.15-5.19-7.78-21.52,17.17-28.16,27.53Z"/>
          <path class="cls-59" d="m662.61,487.1c3.5,2.29,7.53.76,11.26,1.25.14-2.51,9.99-5.36,5.63-13.77-1.18-.06-16.97-7.59-19.71,4.38-1.28,5.58,2.53,6.59,2.82,8.13Z"/>
          <path class="cls-59" d="m699.21,525.89c-4.72.42-7.13,3.97-7.04,7.51.13,5.46,4.35,7.19,9.86,6.26,8.9-1.51,4.41-8.43,5.63-10.01-1.14-2.75-5.5-4.01-8.45-3.75Z"/>
          <path class="cls-59" d="m727.37,550.92c.7,1.13-2.2,8.15,5.63,8.76.47-.61,12.57.59,2.82-10.01-.69.45-5.11-.99-8.45,1.25Z"/>
          <g>
            <path class="cls-27" d="m582.35,440.8c2.38,6.3,7.65,4.68-3.52,10.01-13.32,6.36-26.44,4.97-40.13,6.26-13.8,4.28-33.3,11.43-47.17,13.77-102.65,17.28-183.24-46.02-284.4-7.51-7.53,2.86-46.86,22.86-42.94,29.41.51.86,13.24-2.42-1.41,12.51,12.14,15.98,4.17,7.64,2.11,9.39-.35.3-4.84,7.08-4.93,7.51-.23,1.14,3.03,18.37,1.41,23.15-18.12-2.67-20.42,9-29.57,4.38-4.61-30.5-8.7,6.88-1.41,39.42,3.54,15.79,10.6,33.06,19.71,46.93,4.47-1.21,4.55,2.55,4.93,2.5,1.3-.15-.42-2.17,2.11-3.75,9.26-5.79,9.69,4.09,2.82,5.01,14.12,25.1,38.74,27.66,8.45,56.31-1.57,1.49-5.53,5.07-7.04,6.26.84,7.97,1.54,17.09,1.41,25.03,8.28-3.87,18.93-2.5,16.9-7.51-20.77-5.61,13.02-16.52,2.82,0,.13,0-.12,1.88,2.11,1.25,2.4-.68,32.65-26.27,37.31-30.03-15.05.57-2.82-14.75,1.41-3.75,3.13-1.04,15.79-9.76,17.6-11.26,9.56-7.98,70.68-60.26,73.92-63.82-8.07-.85-4.12-9.43,4.22-5.01,12.97-24.96,12.95-52.69,9.86-79.47-1.2-10.39-13.88-52.32-9.15-53.19,18,12.81,38.77,38.18,47.17,56.94,14.57,32.55,19.63,100.98,22.53,105.75.3.49,9.13-1.44,4.22,7.51,25.1,11.52,108.89,11.98,137.98,8.76-1.55-11.69,7.67-3.81,8.45-3.75,11.38.83,4.94-1.64,5.63-5.01,3.49-16.94,16.8-6.67,9.86,2.5,3.06,1.93,13.88,29.37,15.49,34.41,2.41,7.55,3.43,24.6,8.45,25.65,1.2-11.86,20.11-13.59,22.53-3.13,3.53,15.31-21.07,17.93-22.53,4.38-3.3-.47-2.67,1.21-2.82,1.25,3.82,12.64,3.87,25.91,5.63,38.79,3.95,28.86,9.86,57.53,14.08,86.35.06.41-.06.84,0,1.25.18,1.22-.18,2.53,0,3.75,7.87,2.72-.74,12.2,8.45,13.77-2.3-2.62-1.01-4.35,1.41-6.26,4.66-3.68,3.84-1.56,9.86-3.75-5.04-4.64-3.31-10.12,4.22-10.01-.38-4.27,1.05-20.65,1.41-29.41.04-1.01-2.82-.5-2.82-.63-18.86,7.74-10.04-20.26,1.41-3.75.01-.2,2.77-2.42,2.82-3.13,4.22-66.87,9.53-111.54,29.57-177.08-8.76.54-7.56-9.17,1.41-7.51,2.25-11.21,9.16-67.66,11.26-70.71,4.28-6.19-.33,9.76,12.67,6.26,5.81,15.6,14.77,22.76,16.9,25.65,1.53-9.21,13.3,2.93,1.41,2.5,4.6,6.43,21.69,30,22.53,35.04.12.75.14,1.77,0,2.5,2.77-2.56,22.58,20.86,22.53,25.03.55-.04,7.9-3.79,8.45-6.26.07-.33.06-.91,0-1.25-.58-3.06-9.99-5.99,1.41-8.76-7.03-19.67,3.3-19.59,2.82-20.65-.57-1.24-26.06-7.57-6.34-16.89,16.07,18.68,8.38-5.23,4.93-8.13-1.44-1.21-1.44.92-2.82.63,1.68,6.05-8.49,7.22-8.45,1.25-.47-.02-.94.02-1.41,0-6.04,18.95-23.25-2.66-8.45-3.75-2.76-4.82-1.84-10.82,1.41-15.02-7.83-.61-4.93-7.63-5.63-8.76-4.39-7.06-4.72-3.44-5.63-3.75-3.94,4.07-5.25,1.62-7.04,1.25-6.52-1.36-9.4-3.15-12.67-8.76-5.51.93-9.72-.79-9.86-6.26-7.36,1.56-4.26-.04-8.45-2.5-.49-.29-8.96.83-4.22-6.26,2.97-4.45,2.02-.79,6.34,0-2.6-8.19-4.38-29.57-6.34-33.79-2.95,2.16-5.83,1.14-5.63-2.5-3.73-.49-7.76,1.04-11.26-1.25.15.8-.1,1.69,0,2.5.03.25,3.08.44.7,5.01-4.06.71-5.57-1.36-6.34-1.25-25.54,3.51-14.6-.89-16.9-1.25-1.34-.21-2.85.12-4.22,0-.15,5.31-17.92-6.54-18.3-7.51-16.65,7.09-21.48-45.1-23.94-46.93-3.77,1-7.51,2.09-11.26,3.13Z"/>
            <g>
              <path class="cls-45" d="m208.54,509.63c-10.81,9.3-20.2-.68-21.12,0-3.21,2.39,6.72,11.96-9.15,16.89,26.12.78,14.64,30.09,25.34,5.01,24.88-11.69,1.35-1.16,4.93-21.9Z"/>
              <path class="cls-59" d="m556.31,463.32c-24.32-3.27-13.13,33.7,7.74,18.15-.76-7.42,5.31-16.39-7.74-18.15Z"/>
              <path class="cls-59" d="m579.54,707.35c-.04.39-.04.86,0,1.25,1.46,13.55,26.06,10.93,22.53-4.38-2.42-10.46-21.33-8.74-22.53,3.13Z"/>
              <path class="cls-59" d="m585.87,527.15c-16.88-4.28-19.38,17.97-7.04,20.02,15.51,2.58,17.05-17.48,7.04-20.02Z"/>
              <path class="cls-24" d="m150.11,636.02c14.58,22.19,38.53,28.65,18.3,60.07,30.3-28.65,5.68-31.21-8.45-56.31-.14-.25-3.67-.45-2.82-5.01-2.53,1.58-.81,3.61-2.11,3.75-.38.04-.46-3.72-4.93-2.5Z"/>
              <path class="cls-59" d="m474.65,475.84c-17.89-4.3-16.89,24.16,1.41,18.77,7.93-2.33,5.75-17.05-1.41-18.77Z"/>
              <path class="cls-59" d="m453.53,510.88c-14.68-3.52-18.28,16.96-5.63,18.77,13.92,1.99,15.41-16.43,5.63-18.77Z"/>
              <path class="cls-59" d="m608.4,746.14c-14.61-1.34-13.01,21.6,2.82,17.52,9.24-2.38,5.52-16.76-2.82-17.52Z"/>
              <path class="cls-59" d="m294.43,542.16c-14.52-4.07-15.18,15.58-4.22,16.27,8.77.55,13.18-13.76,4.22-16.27Z"/>
              <path class="cls-59" d="m232.48,659.8c-10.3,0-11.28,15.2-1.41,16.27,11.81,1.27,12.53-16.28,1.41-16.27Z"/>
              <path class="cls-59" d="m190.24,617.25c-12.88-3.58-13.87,13.9-4.22,15.02,10.55,1.22,12.09-12.83,4.22-15.02Z"/>
              <path class="cls-59" d="m194.46,560.93c-.54-.11-9.95,1.66-10.56,3.13,10.22,22.14,21.67-.77,10.56-3.13Z"/>
              <path class="cls-59" d="m216.99,642.28c-9.5-2.74-13.58,9-5.63,11.26,9.77,2.78,12.1-9.4,5.63-11.26Z"/>
              <path class="cls-59" d="m731.6,574.7c-14.81,1.09,2.4,22.71,8.45,3.75-2.28-.11-2.69-4.18-8.45-3.75Z"/>
              <path class="cls-59" d="m253.6,495.86c-7.47-1.58-13.09,8.61-5.63,11.26,10.53,3.75,13.1-9.69,5.63-11.26Z"/>
              <path class="cls-59" d="m545.75,644.78c4.33,3.9,9.15,2.05,9.86,2.5,6.95-9.18-6.37-19.45-9.86-2.5Z"/>
              <path class="cls-59" d="m390.17,489.6c-7.74-2.02-11.72,9.24-5.63,11.26,9.36,3.12,12.31-9.52,5.63-11.26Z"/>
              <path class="cls-49" d="m618.96,803.71c.04-.94,1.26-1.05,1.41-3.75-11.45-16.5-20.26,11.49-1.41,3.75Z"/>
              <path class="cls-59" d="m625.3,693.58c-8.83-2.66-12.42,7.97-5.63,10.01,8.83,2.66,12.42-7.97,5.63-10.01Z"/>
              <path class="cls-14" d="m179.68,719.86c.61.17,1.89.02,2.82,0,10.21-16.52-23.59-5.61-2.82,0Z"/>
              <path class="cls-59" d="m675.98,532.15c-5.97-1.19-9.1,8.61-2.82,10.01,6.79,1.51,8.46-8.88,2.82-10.01Z"/>
              <path class="cls-59" d="m225.44,465.83c-6.51-2.71-10.13,7.03-4.22,8.76,7.2,2.11,8.39-7.03,4.22-8.76Z"/>
              <path class="cls-41" d="m255.01,639.77c-8.27-2.16-7.62,7.69-2.82,8.76,6.04,1.35,8.68-7.23,2.82-8.76Z"/>
              <path class="cls-45" d="m658.38,524.64c.77,2.27-1.82,3.98-2.82,1.25-17.08,15.57,18.63,1.25,4.93-3.75-.69-.25-1.95,2.44-2.11,2.5Z"/>
              <path class="cls-9" d="m318.36,544.67c-8.27-2.16-7.62,7.69-2.82,8.76,6.04,1.35,8.68-7.23,2.82-8.76Z"/>
              <path class="cls-65" d="m701.32,554.68c-6.49-2.75-11.04,5.22-5.63,7.51,6.49,2.75,11.04-5.22,5.63-7.51Z"/>
              <path class="cls-59" d="m643.6,497.11c-6.7-2.77-9.98,7.28-4.22,8.76,5.13,1.32,9.18-6.71,4.22-8.76Z"/>
              <path class="cls-59" d="m157.86,605.99c-8.17-2.36-7.63,7.85-2.82,8.76,6.31,1.2,7.2-7.49,2.82-8.76Z"/>
              <path class="cls-9" d="m395.8,569.69c-4.71-1.04-9.09,5.55-4.22,7.51,7.72,3.11,10.29-6.17,4.22-7.51Z"/>
              <path class="cls-65" d="m221.92,691.08c.74-.6,1.68-2.64,1.41-3.75-4.23-11-16.46,4.32-1.41,3.75Z"/>
              <path class="cls-45" d="m647.82,560.93c-3.7-.28-7.32,5.73-2.82,7.51,6.57,2.6,9.09-7.04,2.82-7.51Z"/>
              <path class="cls-45" d="m652.75,619.75c4.94-4.57.9-4.95,1.41-7.51-8.96-1.66-10.17,8.05-1.41,7.51Z"/>
              <path class="cls-21" d="m188.83,646.03c-3.53-.39-7.38,5.7-2.82,7.51,7.21,2.86,7.79-6.96,2.82-7.51Z"/>
              <path class="cls-45" d="m601.36,613.49c-8.12-3.22-7.28,8.37-1.41,7.51,2.09-.3,5.82-5.76,1.41-7.51Z"/>
              <path class="cls-47" d="m389.46,637.27c-5.04,8.03,2.17,6.56,4.22,7.51,4.91-8.95-3.93-7.02-4.22-7.51Z"/>
              <path class="cls-15" d="m157.15,634.77c-.85,4.55,2.68,4.76,2.82,5.01,6.87-.91,6.44-10.8-2.82-5.01Z"/>
              <path class="cls-47" d="m449.3,638.52c-4.87-1.76-7.08,5.97-2.82,7.51,4.87,1.76,7.08-5.97,2.82-7.51Z"/>
              <path class="cls-45" d="m309.92,570.95c-3.93-.08-6.17,6.91-1.41,7.51,7.06.88,5.93-7.41,1.41-7.51Z"/>
              <path class="cls-45" d="m278.94,618.5c-5.22-.95-6.73,4.72-2.82,6.26,6.4,2.52,8-5.31,2.82-6.26Z"/>
              <path class="cls-45" d="m415.51,522.14c-4.69-.36-5.57,7.12-1.41,7.51,5.34.5,5.69-7.18,1.41-7.51Z"/>
              <path class="cls-45" d="m573.2,487.1c-4.45-1.61-7.07,4.91-2.82,6.26,6.28,1.98,6.36-4.97,2.82-6.26Z"/>
              <path class="cls-23" d="m395.8,607.24c-4.45-1.61-7.07,4.91-2.82,6.26,6.28,1.98,6.36-4.97,2.82-6.26Z"/>
              <path class="cls-45" d="m630.93,575.95c-5.86-.67-6.32,5.03-2.82,6.26,4.88,1.71,8.03-5.66,2.82-6.26Z"/>
              <path class="cls-65" d="m422.55,619.75c-4.52-1.52-7.05,4.84-2.82,6.26,4.52,1.52,7.05-4.84,2.82-6.26Z"/>
              <path class="cls-59" d="m491.54,502.12c-4.52-1.52-7.05,4.84-2.82,6.26,4.52,1.52,7.05-4.84,2.82-6.26Z"/>
              <path class="cls-45" d="m291.61,604.73c-4.52-1.52-7.05,4.84-2.82,6.26,4.52,1.52,7.05-4.84,2.82-6.26Z"/>
              <path class="cls-54" d="m637.97,507.12c-3.64-.79-4.81,6.02-2.82,7.51,3.68,2.76,7.67-6.46,2.82-7.51Z"/>
              <path class="cls-45" d="m604.18,558.43c-4.43-.05-4.15,9.2,1.41,7.51,4.49-1.37.49-7.49-1.41-7.51Z"/>
              <path class="cls-45" d="m599.95,807.46c-4.52-1.52-7.05,4.84-2.82,6.26,4.52,1.52,7.05-4.84,2.82-6.26Z"/>
              <path class="cls-65" d="m397.21,529.65c-4.52-1.52-7.05,4.84-2.82,6.26,4.52,1.52,7.05-4.84,2.82-6.26Z"/>
              <path class="cls-45" d="m136.74,573.45c-4.52-1.52-7.05,4.84-2.82,6.26,4.52,1.52,7.05-4.84,2.82-6.26Z"/>
              <path class="cls-45" d="m625.3,598.48c-2.35,0-5.43,4.45-2.82,6.26,5.28,3.66,8.38-6.25,2.82-6.26Z"/>
              <path class="cls-45" d="m214.18,603.48c-4.13-.14-4.81,5.08-1.41,6.26,6.05,2.09,5.22-6.13,1.41-6.26Z"/>
              <path class="cls-10" d="m184.61,597.23c-7.61-2.14-5.45,6.42-1.41,6.26,1.45-.06,5.7-5.05,1.41-6.26Z"/>
              <path class="cls-45" d="m694.99,573.45c.47.64.94,1.85,1.41,2.5,11.89.43.12-11.71-1.41-2.5Z"/>
              <path class="cls-45" d="m281.76,568.44c-2.6-.73-7.36,4.98-2.82,6.26,5,1.4,6.74-5.15,2.82-6.26Z"/>
              <path class="cls-45" d="m499.99,609.74c-3.13-.98-6.14,5.24-2.82,6.26,6.5,1.98,6.17-5.21,2.82-6.26Z"/>
              <path class="cls-45" d="m657.68,498.36c-8.24-2.32-3.99,6.28-1.41,6.26,1.29,0,5.8-5.02,1.41-6.26Z"/>
              <path class="cls-65" d="m573.2,654.79c-3.25-.7-4.9,4.88-2.82,6.26,4.65,3.07,7.23-5.3,2.82-6.26Z"/>
              <path class="cls-65" d="m609.81,490.85c-3.22-.91-6.1,5.2-2.82,6.26,4.77,1.54,6.86-5.12,2.82-6.26Z"/>
              <path class="cls-45" d="m539.41,622.25c-5.91-1.45-6.16,3.69-4.22,5.01,3.44,2.33,9.51-3.7,4.22-5.01Z"/>
              <path class="cls-45" d="m481.69,621c-4.76-.47-5.5,5.85-1.41,6.26,4.76.47,5.5-5.85,1.41-6.26Z"/>
              <path class="cls-45" d="m235.29,614.74c-4.35-.13-4.59,5.35-1.41,6.26,4.01,1.14,5.91-6.12,1.41-6.26Z"/>
              <path class="cls-17" d="m623.89,489.6c-4.17-1.39-6.82,3.95-2.82,5.01,6.2,1.63,6.26-3.86,2.82-5.01Z"/>
              <path class="cls-45" d="m435.22,563.44c-2.19-.01-4.27,5.3-1.41,6.26,6.22,2.07,5.05-6.24,1.41-6.26Z"/>
              <path class="cls-45" d="m463.38,557.18c-4.46-1.23-6.68,3.94-2.82,5.01,4.46,1.23,6.68-3.94,2.82-5.01Z"/>
              <path class="cls-45" d="m583.06,557.18c-3.72-.81-4.91,5.49-1.41,6.26,3.72.81,4.91-5.49,1.41-6.26Z"/>
              <path class="cls-45" d="m519.7,580.96c-3.72-.81-4.91,5.49-1.41,6.26,3.72.81,4.91-5.49,1.41-6.26Z"/>
              <path class="cls-45" d="m629.52,519.64c-5.2-1.5-5.06,4.29-2.82,5.01,4.15,1.32,6.85-3.84,2.82-5.01Z"/>
              <path class="cls-45" d="m547.86,569.69c-7.56-1.59-2.12,9.2,2.11,4.38.84-.95-.76-4.1-2.11-4.38Z"/>
              <path class="cls-45" d="m252.19,603.48c-1.65.02-5.58,5.35-1.41,6.26,4.5.98,5.51-6.3,1.41-6.26Z"/>
              <path class="cls-45" d="m238.11,544.67c-2.97-2.07-7.4,4.16-2.82,5.01,4.73.87,4.36-3.93,2.82-5.01Z"/>
              <path class="cls-45" d="m457.75,598.48c-2.75-.59-4.97,3.75-2.82,5.01,4.49,2.62,7.12-4.09,2.82-5.01Z"/>
              <path class="cls-45" d="m546.45,492.11c-5.93-1.74-4.67,4.83-1.41,5.01,3.72.2,4.68-4.04,1.41-5.01Z"/>
              <path class="cls-45" d="m568.98,607.24c-2.75-.59-4.97,3.75-2.82,5.01,4.49,2.62,7.12-4.09,2.82-5.01Z"/>
              <path class="cls-45" d="m242.33,573.45c-2.75-.59-4.97,3.75-2.82,5.01,4.49,2.62,7.12-4.09,2.82-5.01Z"/>
              <path class="cls-59" d="m528.15,513.38c-2.97-2.07-7.4,4.16-2.82,5.01,4.73.87,4.36-3.93,2.82-5.01Z"/>
              <path class="cls-45" d="m497.17,568.44c-3.45,0-3.45,6.26,0,6.26s3.45-6.26,0-6.26Z"/>
              <path class="cls-45" d="m526.74,543.41c-3.35-.75-4.77,4.33-1.41,5.01,5.41,1.09,3.87-4.46,1.41-5.01Z"/>
              <path class="cls-45" d="m480.28,538.41c-5.41-1.09-3.87,4.46-1.41,5.01,3.35.75,4.77-4.33,1.41-5.01Z"/>
              <path class="cls-45" d="m585.87,589.72c-3.46-.68-4.71,4.35-1.41,5.01,3.46.68,4.71-4.35,1.41-5.01Z"/>
              <path class="cls-59" d="m178.98,558.43c-3.46-.68-4.71,4.35-1.41,5.01,3.46.68,4.71-4.35,1.41-5.01Z"/>
              <path class="cls-45" d="m409.88,585.96c-1.06-.1-5.28,4.72-1.41,5.01,4.28.31,4.05-4.75,1.41-5.01Z"/>
              <path class="cls-7" d="m635.15,527.15c-1.36.06-3.39,4.03-1.41,5.01,3.05,1.5,4.68-5.14,1.41-5.01Z"/>
              <path class="cls-47" d="m599.95,547.17c-4.84-2.77-2.64,8.63.7,3.13.35-.57.22-2.6-.7-3.13Z"/>
              <path class="cls-13" d="m294.43,587.21c-.82,0-3.67,2.81-.7,4.38,3.04,1.61,3.46-4.38.7-4.38Z"/>
              <path class="cls-45" d="m423.96,557.18c-3.32-.49-4.17,3.35-1.41,3.75,3.32.49,4.17-3.35,1.41-3.75Z"/>
              <path class="cls-47" d="m654.86,577.2c-2.73-1.27-4.31,3.9-1.41,3.75,3.12-.15,2.74-3.13,1.41-3.75Z"/>
              <path class="cls-45" d="m592.91,458.32c-2.73-1.27-4.31,3.9-1.41,3.75,3.12-.15,2.74-3.13,1.41-3.75Z"/>
              <path class="cls-13" d="m587.28,622.25c-4.67-1.82-3.81,3.69-1.41,3.75.72.02,3.43-2.97,1.41-3.75Z"/>
              <path class="cls-45" d="m608.4,579.71c-.5,0-3.1,1.8-.7,3.13,2.68,1.49,3.13-3.13.7-3.13Z"/>
              <path class="cls-7" d="m518.29,560.93c-2.1-.75-3.09,1.9-1.41,2.5,2.1.75,3.09-1.9,1.41-2.5Z"/>
              <path class="cls-47" d="m428.18,607.24c-3.62-1.7-4.07,2.23-1.41,2.5.16.02,2.84-1.83,1.41-2.5Z"/>
              <path class="cls-7" d="m435.22,577.2c-2.1-.75-3.09,1.9-1.41,2.5,2.1.75,3.09-1.9,1.41-2.5Z"/>
              <path class="cls-4" d="m530.96,567.19c-.16-.1-2.3,1.27-1.41,2.5,2.17,3,3.2-1.38,1.41-2.5Z"/>
              <path class="cls-28" d="m601.36,478.34h-1.41l-.7.63v1.25l.7.63.7-.63.7-.63.7-.63-.7-.63Z"/>
              <path class="cls-47" d="m587.28,602.23q-.35.31-.7.63v1.25q.35.31.7.63.7,0,1.41,0l.7-.63-.7-.63-.7-.63q-.35-.31-.7-.63Z"/>
              <path class="cls-40" d="m655.57,525.89c1,2.73,3.59,1.02,2.82-1.25-.78.29-2.71,1.15-2.82,1.25Z"/>
              <path class="cls-4" d="m567.57,579.71l-.7.63-.7.63q-.35.31-.7.63l.7.63q.7,0,1.41,0,.35-.31.7-.63,0-.63,0-1.25l-.7-.63Z"/>
              <path class="cls-54" d="m564.75,562.19q-.7,0-1.41,0l-.7.63.7.63.7.63q.35.31.7.63.35-.31.7-.63,0-.63,0-1.25-.35-.31-.7-.63Z"/>
            </g>
          </g>
          <g>
            <path class="cls-1" d="m654.16,612.24c-.51,2.56,3.53,2.94-1.41,7.51-20.04,65.53-25.34,110.2-29.57,177.08-.04.71-2.8,2.93-2.82,3.13-.15,2.71-1.36,2.82-1.41,3.75,0,.13,2.86-.38,2.82.63-.36,8.75-1.79,25.13-1.41,29.41.17,1.91,13.08,3.7-4.22,10.01-6.02,2.2-5.2.08-9.86,3.75,8.6-.1,7.67,7.8-1.41,6.26-9.19-1.56-.58-11.05-8.45-13.77,7.63,53.02,16.88,106.04,19.71,159.56-12.99,11.63-20.58,38.52,2.11,43.17,10.01,2.06,56.82,1.12,60.54-1.25,4.22-2.69.14-8.44,4.22-10.01,3.83-1.48,47.56,2.06,64.06-1.88-16.76-4.25-34.19-2.92-51.39-3.13-8.86-3.5,17.12-25.48-27.45-26.91-.62-10.64-1.25-21.34-2.82-31.91-.06-.39-2.57-6.11-2.82-7.51-.85-4.77,1.18-10.25-.7-15.02-1.42-.97-11.52,20.6-27.45,16.89,36.35-11.42,25.15-31.52,23.94-59.44-.22-5.11-1.24-9.9-1.41-15.02-2-60.1-2.33-83.6,8.45-143.91,2.94-16.45,5.34-33,8.45-49.43,20.84-14.15,41.82-29.27,59.13-46.93-7.24-3.86-2.3-17.81,7.04-8.76.47-.02.94.03,1.41,0,.06-4.17-19.75-27.59-22.53-25.03-1.65,8.47-11.02-3.09,0-2.5-.84-5.04-17.92-28.61-22.53-35.04-.46-.65-.94-1.86-1.41-2.5-2.12-2.9-11.09-10.05-16.9-25.65-13,3.5-8.39-12.45-12.67-6.26-2.1,3.04-9.02,59.49-11.26,70.71Z"/>
            <g>
              <path class="cls-27" d="m733,647.28c2.63-2.68,5.77-4.27,7.04-8.76-9.34-9.05-14.28,4.9-7.04,8.76Z"/>
              <g>
                <path class="cls-14" d="m616.14,843.76c17.31-6.31,4.4-8.1,4.22-10.01-7.53-.11-9.27,5.37-4.22,10.01Z"/>
                <path class="cls-19" d="m606.29,847.51c-2.42,1.91-3.7,3.64-1.41,6.26,9.08,1.54,10.01-6.36,1.41-6.26Z"/>
                <path class="cls-59" d="m718.92,613.49c.14-.73.12-1.76,0-2.5-11.02-.59-1.65,10.97,0,2.5Z"/>
                <path class="cls-59" d="m649.23,976.41c-15.16-2.83-17.74,16.96-5.63,18.77,15.1,2.26,16.83-16.68,5.63-18.77Z"/>
                <path class="cls-49" d="m642.19,900.07c-10.74-3.85-12.94,9.39-5.63,11.26,7.83,2.01,12.17-8.92,5.63-11.26Z"/>
                <path class="cls-57" d="m607.7,878.8c3.41-6.41,10.06-3.98,9.86,2.5,22.51-8.87-23-17.84-9.86-2.5Z"/>
                <path class="cls-6" d="m618.26,932.61c-6.98-.72-3.14,12.34-4.22,16.27,3.72,1.72,12.97-15.36,4.22-16.27Z"/>
                <path class="cls-17" d="m661.9,683.57c-5.16-.72-7.12,6.95-2.82,8.76,7.31,3.08,8.12-8.02,2.82-8.76Z"/>
                <path class="cls-17" d="m607.7,878.8c.58.68-.41,6.54,9.86,2.5.2-6.49-6.44-8.91-9.86-2.5Z"/>
                <path class="cls-54" d="m619.66,916.34c-5.74-1.46-6.78,7.25-2.82,8.76,5.59,2.13,8.14-7.4,2.82-8.76Z"/>
                <path class="cls-56" d="m615.44,892.56c-3.26,0-5.07,6-2.82,7.51,6.27,4.18,9.46-7.5,2.82-7.51Z"/>
                <path class="cls-10" d="m628.11,881.3c-8.49-.35-.46,9.82,2.82,7.51,2.48-1.75-.93-7.43-2.82-7.51Z"/>
                <path class="cls-48" d="m618.26,956.38c-5.99.78,4.64,9.67,7.74,5.63,2.08-2.71-7.19-5.7-7.74-5.63Z"/>
                <path class="cls-51" d="m646.41,878.8c-4.52-1.52-7.05,4.84-2.82,6.26,4.52,1.52,7.05-4.84,2.82-6.26Z"/>
                <path class="cls-33" d="m681.61,580.96c-4.52-1.52-7.05,4.84-2.82,6.26,4.52,1.52,7.05-4.84,2.82-6.26Z"/>
                <path class="cls-63" d="m643.6,847.51c-5.21-3.6-8.46,6.14-2.82,6.26,3.86.08,4.67-4.98,2.82-6.26Z"/>
                <path class="cls-65" d="m619.66,968.9c-4.05-.89-4.9,6.74-1.41,7.51,4.05.89,4.9-6.74,1.41-7.51Z"/>
                <path class="cls-17" d="m619.66,983.92c-3.34.78-2.04,6.97,2.82,6.26,6.43-.94.49-7.03-2.82-6.26Z"/>
                <path class="cls-50" d="m726.67,643.53c-2.8-1.26-2.79,5.64-1.41,6.26,2.8,1.26,2.79-5.64,1.41-6.26Z"/>
              </g>
            </g>
          </g>
          <g>
            <path class="cls-27" d="m150.11,782.44c-2.12,8.3-.35,16.85,1.41,25.03.51,2.39,1.17,2.85,1.41,3.75,3.68,13.75,11.55,24.67,16.9,37.54q.7,0,1.41,0c-4.36-4.66-.61-6.56,0-10.01,4.61-25.86,3-53.49,9.86-78.21-1.61-1.28-2.72.3-4.22-1.88-9.46-4.52-25.26,17.92-26.75,23.78Z"/>
            <path class="cls-38" d="m99.43,738.64c-8.43,5.08-16.91,9.87-25.34,15.02,2.68-.24,10.72,3.66,11.26,5.01,8.79-2.88,13.08-6.03,22.53-8.76-7.37-13.96,19.85-13.76,8.45,0,7.34-5.54,8.67-17.18,26.05-17.52,6.61-.13,4.88,1.48,7.74,3.75-.39-6.62,5.33-6.7,11.26-6.26-.04-1.16,1.39-1.3,1.41-2.5.13-7.94-.56-17.06-1.41-25.03-18.66,14.76-41.54,23.99-61.95,36.29Z"/>
            <path class="cls-27" d="m31.85,789.94c.07.19,2.06-.54,1.41,3.75,4.83,1.31,16.53,5.51,21.82,7.51,1.28.48.52,2.43.7,2.5,2.22.86,7.14-1.75,8.45,2.5.01-.13,2.75.4,2.82-.63.48-7.72,1.66-29.71,1.41-35.67-.06-1.46-5.18-4.55-1.41-12.51-9.49,6.04-39.2,22.45-35.2,32.54Z"/>
            <path class="cls-59" d="m74.09,753.65c-2.29,1.4-4.75,2.29-7.04,3.75-3.77,7.97,1.35,11.06,1.41,12.51,8.9,6.57,20.38-2.73,16.9-11.26-.55-1.34-8.58-5.24-11.26-5.01Z"/>
            <path class="cls-61" d="m150.11,736.13c.59.47,3.78,11.14,11.97,5.01,5.72-4.28-.68-10.65-.7-11.26-5.93-.44-11.65-.36-11.26,6.26Z"/>
            <path class="cls-2" d="m107.88,749.9c1.57-.46,3.14,2.07,8.45,0,11.4-13.76-15.82-13.96-8.45,0Z"/>
            <g>
              <path class="cls-1" d="m319.07,607.24c.77,5.85-4,4.76-4.22,5.01-3.24,3.56-64.35,55.84-73.92,63.82-1.81,1.51-14.47,10.23-17.6,11.26.28,1.12-.66,3.15-1.41,3.75-4.66,3.77-34.91,29.36-37.31,30.03-2.23.63-1.99-1.25-2.11-1.25-.93.02-2.2.17-2.82,0,2.04,5.01-8.62,3.64-16.9,7.51-.02,1.21-1.45,1.34-1.41,2.5.02.62,6.42,6.98.7,11.26-8.19,6.13-11.38-4.54-11.97-5.01-2.86-2.27-1.13-3.88-7.74-3.75-17.37.34-18.71,11.98-26.05,17.52-5.31,2.07-6.87-.46-8.45,0-9.45,2.73-13.74,5.88-22.53,8.76,3.48,8.53-8,17.83-16.9,11.26.26,5.96-.93,27.95-1.41,35.67-.06,1.03-2.8.5-2.82.63-.02.27-.06,3.57,0,3.75.06.2,3.87-.55,4.22.63,1.68,5.61,5.51,38.54,7.04,40.05,3.03-.28,11.22-8.17,11.97-8.13,1.16.06.55,2.42.7,2.5.09.04.06.33,1.41,1.25,7.71-15.2-5.08-31.74-5.63-48.18,18.72-11.35,38.88-20.48,59.13-29.41,5.97-2.63,29.31-15.64,34.49-13.77,2.32,3.79-.82,3.59-.7,3.75,1.5,2.18,2.61.6,4.22,1.88-6.86,24.72-5.25,52.35-9.86,78.21,9.22,4.17,5.75,12.51,0,10.01q-.7,0-1.41,0c10.27,24.74,18.24,51.1,35.2,73.21-1.79,1.04-1.94,5.05-1.41,6.26,9.18,20.94,22.07,54.47,35.2,70.08-4.7,44.95-.42,25.74-39.42,35.04q54.56.31,109.12.63c3.71-39.02-2.2-32.01-20.42-35.04-13.42-2.23-5.33-7.38-11.26-21.27-6.78-15.89-4.33-.18-7.74,1.25-13.5,5.68-.76-12.23-.7-13.14.13-2.25-18.21-34.98-21.12-40.67-4.2-8.24-2.55-10.74-2.82-11.26-3.6-7.09-14.23-23.2-21.12-28.16,8.06-13.71-18.39-44.19-23.94-74.46-.67-3.65-3-7.24-2.82-8.13,49.04-33.61,90.25-63.73,126.01-109.5,53.61,21.55,205.39,31.23,254.13,16.27.15-.05-.49-1.72,2.82-1.25-.04-.39-.04-.86,0-1.25-5.01-1.05-6.04-18.11-8.45-25.65-1.61-5.05-12.43-32.48-15.49-34.41-.71-.45-5.53,1.39-9.86-2.5-.69,3.37,5.75,5.83-5.63,5.01-2.05,8.17-7.84,3.69-8.45,3.75-29.09,3.22-112.88,2.76-137.98-8.76-2.06-.94-9.26.52-4.22-7.51-2.9-4.77-7.95-73.2-22.53-105.75-8.4-18.76-29.16-44.13-47.17-56.94-4.73.86,7.95,42.79,9.15,53.19,3.09,26.78,3.11,54.51-9.86,79.47Z"/>
              <g>
                <path class="cls-17" d="m143.07,768.67c1.15,6.19,1.39,9.22,7.04,13.77,1.49-5.86,17.29-28.3,26.75-23.78-.11-.16,3.02.03.7-3.75-5.19-1.87-28.53,11.14-34.49,13.77Z"/>
                <path class="cls-45" d="m531.67,653.54c.61-.07,6.4,4.41,8.45-3.75-.78-.06-10-7.93-8.45,3.75Z"/>
                <path class="cls-9" d="m314.84,612.24c.22-.24,4.99.85,4.22-5.01-8.34-4.42-12.29,4.16-4.22,5.01Z"/>
                <path class="cls-59" d="m273.31,666.05c-20.1-3.35-17.62,27.75,1.41,20.02,9.88-4.01,7.36-18.56-1.41-20.02Z"/>
                <path class="cls-38" d="m203.62,751.15c2.24.28,4.75-.19,7.04,0,2.71.23,4.39.91,6.34,2.5,1.43-.17,11.5-9.76,13.38-11.26q-.7-1.88-1.41-3.75c-21.79,7.23-38.34,10.91-25.34,12.51Z"/>
                <path class="cls-13" d="m242.33,958.89c-11.02-2.45-11.98,13.18-2.82,13.77,8.13.52,10.32-12.1,2.82-13.77Z"/>
                <path class="cls-29" d="m200.1,860.02c-13.25-3.77-11.29,17.18,1.41,12.51,5.05-1.85,3.38-11.15-1.41-12.51Z"/>
                <path class="cls-59" d="m240.93,936.36c-8.59-2.2-9.9,10.48-2.82,11.26,7.15.79,8.62-9.78,2.82-11.26Z"/>
                <path class="cls-59" d="m188.83,761.16c-9.61-2.93-9.74,8.5-4.22,10.01,7.61,2.08,10.67-8.04,4.22-10.01Z"/>
                <path class="cls-49" d="m463.38,656.04c-7.01-1.91-10.67,6.81-4.22,8.76,9.12,2.76,9.83-7.23,4.22-8.76Z"/>
                <path class="cls-17" d="m233.89,918.84c-8.68-1.78-7.5,12.51,1.41,10.01,4.74-1.33,2.37-9.24-1.41-10.01Z"/>
                <path class="cls-59" d="m356.38,530.9c-8.13-.16-4.34,11.71,2.82,8.76,4.83-2,1.06-8.68-2.82-8.76Z"/>
                <path class="cls-49" d="m203.62,751.15c-6.5,10.89,13.27,9.56,7.04,0-2.29-.19-4.8.28-7.04,0Z"/>
                <path class="cls-17" d="m219.81,902.57c-4.04-.42-7.43,6.83-2.82,8.76,6.78,2.83,9.21-8.1,2.82-8.76Z"/>
                <path class="cls-59" d="m171.23,848.76c5.75,2.5,9.22-5.85,0-10.01-.61,3.45-4.36,5.36,0,10.01Z"/>
                <path class="cls-46" d="m105.76,762.41c-3.95-1.49-9.39,5.47-4.22,7.51,5.91,2.33,8.95-5.72,4.22-7.51Z"/>
                <path class="cls-52" d="m394.39,656.04c-7.21-2.86-7.79,6.96-2.82,7.51,3.53.39,7.38-5.7,2.82-7.51Z"/>
                <path class="cls-17" d="m300.06,634.77c-4.99-1.88-8.69,6.45-2.82,7.51,5.84,1.06,6.53-6.11,2.82-7.51Z"/>
                <path class="cls-49" d="m193.06,842.5c-4.99-1.88-8.69,6.45-2.82,7.51,5.84,1.06,6.53-6.11,2.82-7.51Z"/>
                <path class="cls-17" d="m180.39,736.13c-6.36.05-3.84,10.11,2.82,7.51,3.29-1.28.45-7.53-2.82-7.51Z"/>
                <path class="cls-21" d="m228.96,738.64q.7,1.88,1.41,3.75c.54-.43,10.63-4.57,11.26-8.13-1.08-1.92-8.54,3.01-12.67,4.38Z"/>
                <path class="cls-14" d="m187.42,817.48c-4.87-1.76-7.08,5.97-2.82,7.51,4.87,1.76,7.08-5.97,2.82-7.51Z"/>
                <path class="cls-59" d="m224.03,931.36c-5.99-.6-6.73,7.29-1.41,7.51,4.85.2,5.47-7.1,1.41-7.51Z"/>
                <path class="cls-59" d="m229.66,951.38c-4.3-1.49-7.82,4.87-4.22,6.26,5.26,2.02,9.08-4.57,4.22-6.26Z"/>
                <path class="cls-59" d="m239.52,977.66c-6.32-2.32-5.47,7.48-1.41,7.51,3.42.02,5.46-6.02,1.41-7.51Z"/>
                <path class="cls-32" d="m367.64,592.22c-6.51-2.23-5.29,7.55-1.41,7.51,1.82-.02,5.94-5.95,1.41-7.51Z"/>
                <path class="cls-59" d="m274.72,656.04c-12.82,6.65-4.46,12.27-.7,6.88.25-.36-.1-4.71.7-6.88Z"/>
                <path class="cls-2" d="m191.65,876.29c-4.38.54-.3,8.88,4.22,6.26,3.5-2.03-3.19-6.38-4.22-6.26Z"/>
                <path class="cls-62" d="m345.11,617.25c-1.46.07-5.7,5.01-1.41,6.26,5.94,1.72,6.25-6.48,1.41-6.26Z"/>
                <path class="cls-26" d="m373.27,618.5c-2.83-.46-4.82,5.58-1.41,6.26,5.72,1.13,3.75-5.88,1.41-6.26Z"/>
                <path class="cls-32" d="m353.56,572.2c-3.72-.81-4.91,5.49-1.41,6.26,3.72.81,4.91-5.49,1.41-6.26Z"/>
                <path class="cls-17" d="m311.32,683.57c-4.32.01-2.81,7.36,1.41,6.26,2.77-.72.92-6.26-1.41-6.26Z"/>
                <path class="cls-65" d="m332.44,659.8c-4.32.01-2.81,7.36,1.41,6.26,2.77-.72.92-6.26-1.41-6.26Z"/>
                <path class="cls-22" d="m195.87,828.74c-9.45-.58,4.86,7.62,4.93,3.13,0-.45-4.63-3.11-4.93-3.13Z"/>
                <path class="cls-59" d="m290.2,641.02c-.25-.03-3.52,2.91-3.52,3.13.06,4.74,9.89-2.39,3.52-3.13Z"/>
                <path class="cls-17" d="m209.95,895.06c-4.67-1.82-3.81,3.69-1.41,3.75.72.02,3.43-2.97,1.41-3.75Z"/>
                <path class="cls-3" d="m208.54,891.31c-4.66-1.87-9.66,4.45-2.11,1.88,1.59-.54,3.87-1.17,2.11-1.88Z"/>
                <path class="cls-17" d="m205.73,900.07c-4.67-1.82-3.81,3.69-1.41,3.75.72.02,3.43-2.97,1.41-3.75Z"/>
                <path class="cls-32" d="m373.27,629.76c-1.34-.73-2.8.27-1.41,2.5,1.94,3.12,3.31-1.47,1.41-2.5Z"/>
                <path class="cls-48" d="m184.61,856.27c-.5,0-3.1,1.8-.7,3.13,2.68,1.49,3.13-3.13.7-3.13Z"/>
              </g>
            </g>
            <g>
              <path class="cls-25" d="m62.82,865.03c-2.32,3.67.02,3.57,0,3.75,7.04-6.77,2.8,5.62,2.82,6.26.39,21.58,19.79,65.21,26.75,88.85.32,1.08-.31,2.66,0,3.75,6.76,23.44,13.86,27.4,8.45,59.44-2.74,3.43-48.2-.45-59.84,5.63,17.3-.98,124.99,8.09,131.64,2.5.79-6.36-1.07-12.49-1.41-18.77-.3-5.49,2.72-12.39,0-14.39-26.06,6.44-28.35-19.7-35.2-35.67-.25-.58-3.15-4.97-5.63-11.26-2.42-6.15-3.28-12.59-4.22-15.02-.1-.26-.76.36-2.82-5.01-2.33-6.06-8.25-29.87-11.26-33.16-2.25-2.46-10.18-2.98-11.26-6.26-2-6.03,5.69-3.91,5.63-12.51-.01-1.68-8.97-31.05-9.86-32.54-.2-.34-5.8-3.53-7.04-4.38-1.34-.92-1.32-1.21-1.41-1.25-4.9,4.6-23.45,17.03-25.34,20.02Z"/>
              <g>
                <path class="cls-59" d="m62.82,868.78c-.16,1.38-4.57,5.46,2.82,6.26-.01-.64,4.22-13.03-2.82-6.26Z"/>
                <path class="cls-17" d="m83.24,880.05c-11.37-3.04-14.02,13.02-5.63,15.02,11.65,2.77,13.07-13.03,5.63-15.02Z"/>
                <path class="cls-17" d="m108.58,918.84c-6.74-1.08-8.77,9.43-4.22,11.26,10.55,4.25,11.35-10.12,4.22-11.26Z"/>
                <path class="cls-29" d="m94.5,902.57c-7.33-3.11-10.76,6.63-5.63,8.76,5.47,2.28,11.26-6.37,5.63-8.76Z"/>
                <path class="cls-36" d="m81.83,897.57c-8.05-3.41-5.68,8.81-1.41,8.76,2.06-.03,6.13-6.76,1.41-8.76Z"/>
                <path class="cls-34" d="m105.76,953.88c-3.53-.39-7.38,5.7-2.82,7.51,7.21,2.86,7.79-6.96,2.82-7.51Z"/>
                <path class="cls-5" d="m105.76,975.16c-5.42,13,7.33,9.82,4.93,3.13-.58-1.62-3.88-1.73-4.93-3.13Z"/>
                <path class="cls-9" d="m93.09,936.36c-4.61-.13-4.63,6.5-1.41,7.51,4.31,1.35,6.33-7.37,1.41-7.51Z"/>
                <path class="cls-10" d="m124.07,982.66c-4.52-1.52-7.05,4.84-2.82,6.26,4.52,1.52,7.05-4.84,2.82-6.26Z"/>
                <path class="cls-12" d="m97.32,962.64c-1.31,0-3.42,4.1-1.41,5.01,4.78,2.16,4.04-5.02,1.41-5.01Z"/>
                <path class="cls-2" d="m108.58,990.17c-2.96-.9-4.99,1.29-2.82,2.5,1.25.7,4.47-2,2.82-2.5Z"/>
                <path class="cls-54" d="m109.99,971.4c-5.28-.67.45,5.2,2.11,1.88.06-.12-1.96-1.86-2.11-1.88Z"/>
                <path class="cls-48" d="m112.8,990.17l-.7.63-.7.63q-.35.31-.7.63l.7.63h1.41q.35-.31.7-.63v-1.25q-.35-.31-.7-.63Z"/>
              </g>
            </g>
            <g>
              <path class="cls-24" d="m45.93,824.98c.63,1.88.95,3.69,1.41,5.01,4.13,12.02,10.23,32.84,15.49,35.04,1.89-2.99,20.44-15.42,25.34-20.02-.15-.08.46-2.44-.7-2.5-.75-.04-8.94,7.85-11.97,8.13-1.53-1.5-5.36-34.44-7.04-40.05-.35-1.17-4.16-.42-4.22-.63-9.29,8.14-10.58-3.37-11.26-3.75-.27-.15-4.2.14-6.34-1.25-15.39-9.99-12.82-15.95-.7,20.02Z"/>
              <path class="cls-17" d="m55.78,803.71q-1.41,1.25-2.82,2.5c.68.38,1.97,11.89,11.26,3.75-.06-.18-.02-3.48,0-3.75-1.31-4.25-6.23-1.64-8.45-2.5Z"/>
              <path class="cls-45" d="m64.93,852.52c-1.8-.91-6.6.9-6.34,1.88.71,2.65,11.06.51,6.34-1.88Z"/>
            </g>
          </g>
          <path class="cls-27" d="m711.88,505.87q-4.93,3.13-9.86,6.26c-1.11,4.56-3.93,8.77-2.82,13.77,2.95-.26,7.31,1.01,8.45,3.75.14-.19,1.09.85,4.22-2.5-3.76-3.64,1.93-9.87,5.63-7.51,1.47-4.84,4.52-4.03,1.41-10.01-.42-.81-1.28-2.37-1.41-2.5-.19-.19-5.05-.93-5.63-1.25Z"/>
          <path class="cls-59" d="m737.23,504.62c-1.4,6.71,1.49,8.92,1.41,9.39-.33,1.93-11.82,6.81-1.41,8.13.4-.45.96.07,8.45-8.76,3.36-4.19-4.33-12.2-8.45-8.76Z"/>
          <path class="cls-53" d="m730.19,468.33q-2.11,1.88-4.22,3.75c8.72,14.92,11.4,6.6,14.08,6.26,2.6-5.69-2.88-7.49-5.63-10.01-2.14-1.49-4.01,0-4.22,0Z"/>
          <g>
            <path class="cls-38" d="m689.36,410.76c-7.37,3.31-9.53,3.99-18.3,4.38,2.92,11.18,28.18,1.29,8.45,11.89,4.86,4.33,4,5.92,4.22,6.26,4.51-2.71,3.89,2.12,4.22,2.5.41.48,1.05,1.81,1.41,2.5.11.22,3.9,1.96,4.22,3.13-.41,2.31-2.86,6.36-2.82,6.88.14,1.56,2.78,2.59,2.82,3.13.07,1.08-3.59,7.67-1.41,20.65,19.51,4.93.6,17.46-4.22,8.13-.57-1.11.58-4.71,0-5.63-4.24,1.62-3.97.21-8.45,0,4.36,8.41-5.5,11.26-5.63,13.77,4.27.56,2.75-3.72,5.63,2.5,1.95,4.22,3.73,25.6,6.34,33.79-4.31-.79-3.37-4.45-6.34,0,4.55-.19,4.55,2.93,4.22,6.26,4.19,2.47,1.08,4.06,8.45,2.5-.09-3.54,2.32-7.09,7.04-7.51-1.11-5,1.7-9.2,2.82-13.77,1.06-4.36-1.37-8.66,3.52-11.26,2.71-.47,5.97,4.81,6.34,5.01.58.32,5.44,1.06,5.63,1.25,3.54-14.12,16.76.7,1.41,2.5,3.11,5.98.06,5.17-1.41,10.01-.07.22,2.13-.7,1.41,4.38-2.77,3.02-6.79,2.86-7.04,3.13-3.13,3.36-4.08,2.32-4.22,2.5-1.22,1.58,3.27,8.5-5.63,10.01,3.27,5.61,6.15,7.4,12.67,8.76,1.49-6.98,3.99-2.29,7.04-1.25.91.31,1.24-3.3,5.63,3.75,3.34-2.24,7.76-.8,8.45-1.25.2-.13,2.54-3.3,2.82-3.75.14-.23,1.27-4.35,1.41-5.01,1.26-5.9-2.69-4.68-2.82-6.26-10.21,1.41-7.74-2.98-2.82-8.76.96-1.12,1.84-2.66,2.82-3.75-10.41-1.32,1.08-6.2,1.41-8.13.08-.47-2.81-2.68-1.41-9.39,1.38-6.6,3.78.87,9.86-5.01-8.45,1.12-3.68-11.77,2.82-7.51-.85-2.74-3.34-4.43-4.22-7.51-.75-2.59-3.29-2.82,1.41-7.51-2.66-.42-4.5.92-7.04,1.25-2.68.34-5.36,8.66-14.08-6.26-.12-.2-3.06-.31-2.82-3.75.21-2.89,4.3-4.07,4.22-5.01,0-.06-2.96-.54,0-1.25-7.51-5.32-2.8-9.08-2.82-10.01-.08-3.98-.11-7.29,0-11.26.01-.38-2.15,2.31-1.41-6.26.07-.82-.14-1.7,0-2.5-3.13.44-5.94-.42-5.63-3.75-.17.05-1.67-1.85-3.52,0-.8.8-1.2,2.53-2.11,3.75-.22.29.21.96,0,1.25-.12.17.12,1.13-1.41,3.75-5.95,10.24-5.85.49-7.04,0-.25-.1-.95-.01-1.41,0-1.85.05-4.16,3.74-4.93,3.75-9.57.14-1.08-8.83-4.93-11.26-1.41-8.46,4.98,1.86,8.45-6.26-4.65-.1-6.29-4.2-7.04-7.51-1.46-6.44,9-12.59.7-10.01-.92.29.29,2.66-4.93,5.01Z"/>
            <g>
              <path class="cls-59" d="m679.5,524.64c-4.73,7.09,3.74,5.97,4.22,6.26.33-3.32.32-6.45-4.22-6.26Z"/>
              <path class="cls-45" d="m714.7,548.42c1.79.37,3.1,2.82,7.04-1.25-3.05-1.04-5.55-5.73-7.04,1.25Z"/>
              <path class="cls-47" d="m673.87,488.35c-.2,3.65,2.69,4.66,5.63,2.5-2.88-6.22-1.36-1.95-5.63-2.5Z"/>
              <path class="cls-59" d="m692.17,472.08c-.18,1.23-2.95,2.02-4.22,2.5.58.92-.57,4.52,0,5.63,4.83,9.33,23.73-3.2,4.22-8.13Z"/>
              <path class="cls-44" d="m734.41,525.89c-4.93,5.78-7.39,10.17,2.82,8.76-.05-.6,8.77-5.12-2.82-8.76Z"/>
              <path class="cls-59" d="m692.17,429.53c3.85,2.43-4.65,11.4,4.93,11.26.77-.01,3.08-3.7,4.93-3.75-1.01-3.22-3.14-3.6-4.22-5.01-1.74-2.26-2.5-7.93-5.63-2.5Z"/>
              <path class="cls-53" d="m716.81,470.83c-8.75-3.24-9.18,11.23-1.41,10.01,3.24-.51,5.59-8.46,1.41-10.01Z"/>
              <path class="cls-59" d="m702.73,453.31c-7.23-2.98-10.23,8.38-2.82,8.76,4.31.22,7.31-6.91,2.82-8.76Z"/>
              <path class="cls-17" d="m716.81,442.05c-7.16-3.01-8.29,7.8-2.82,8.76,6.22,1.09,6.45-7.23,2.82-8.76Z"/>
              <path class="cls-27" d="m702.03,512.13q4.93-3.13,9.86-6.26c-.36-.2-3.63-5.47-6.34-5.01-4.89,2.6-2.46,6.9-3.52,11.26Z"/>
              <path class="cls-60" d="m747.08,499.61c.35-.33,3.9-2.02,4.22-3.13,1.23-4.22-1.34-4.16-1.41-4.38-6.49-4.26-11.26,8.62-2.82,7.51Z"/>
              <path class="cls-59" d="m717.52,507.12c.13.13.99,1.7,1.41,2.5,15.36-1.8,2.13-16.62-1.41-2.5Z"/>
              <path class="cls-45" d="m706.96,490.85c-5.59-2.34-9.15,5.45-4.22,7.51,5.59,2.34,9.15-5.45,4.22-7.51Z"/>
              <path class="cls-17" d="m716.81,484.6c-4.82.6-4,9.36,1.41,8.76,5.25-.58,3.41-9.36-1.41-8.76Z"/>
              <path class="cls-45" d="m711.88,527.15c.25-.27,4.27-.11,7.04-3.13.72-5.08-1.47-4.16-1.41-4.38-3.7-2.36-9.39,3.87-5.63,7.51Z"/>
              <path class="cls-62" d="m703.44,437.04c1.19.49,1.09,10.24,7.04,0q0-1.88,0-3.75c-3.33-2.59-6.76.07-7.04,3.75Z"/>
              <path class="cls-59" d="m693.58,415.77c.75,3.31,2.39,7.41,7.04,7.51,2.05-4.81.05-9.13-7.04-7.51Z"/>
              <path class="cls-5" d="m702.73,465.83c-3-.64-7.19,5.32-2.82,6.26,3,.64,7.19-5.32,2.82-6.26Z"/>
              <path class="cls-59" d="m723.15,468.33c5.73-2.05,5.85-.03,7.04,0,.21,0,2.09-1.49,4.22,0-2.28-2.08-3.92-3.84-7.04-5.01.07.93-4.02,2.11-4.22,5.01Z"/>
              <path class="cls-29" d="m723.15,468.33c-.25,3.45,2.7,3.55,2.82,3.75q2.11-1.88,4.22-3.75c-1.19-.03-1.31-2.05-7.04,0Z"/>
              <path class="cls-31" d="m728.08,484.6c-8.29-.87.96,8.27,2.11,1.88.02-.13-1.96-1.86-2.11-1.88Z"/>
              <path class="cls-64" d="m721.04,457.07c-1.03-.67-4.54.1-3.52,1.88,1.11,1.94,6.54.08,3.52-1.88Z"/>
              <path class="cls-45" d="m704.14,487.1c-3.62-1.7-4.07,2.23-1.41,2.5.16.02,2.84-1.83,1.41-2.5Z"/>
              <path class="cls-45" d="m728.08,509.63c-.16-.1-2.3,1.27-1.41,2.5,2.17,3,3.2-1.38,1.41-2.5Z"/>
              <path class="cls-59" d="m729.48,517.13c-1.8,1.13-.76,5.5,1.41,2.5.89-1.24-1.25-2.61-1.41-2.5Z"/>
              <path class="cls-58" d="m710.48,437.04c1.53-2.63,1.29-3.59,1.41-3.75h-1.41q0,1.88,0,3.75Z"/>
            </g>
          </g>
          <g>
            <path class="cls-38" d="m745.67,513.38c-7.49,8.83-8.04,8.31-8.45,8.76-.98,1.1-1.86,2.63-2.82,3.75,11.59,3.64,2.77,8.16,2.82,8.76.13,1.58,4.08.36,2.82,6.26,9.91-1.69,5.28,6.87-1.41,5.01-.28.45-2.61,3.62-2.82,3.75,9.75,10.6-2.34,9.4-2.82,10.01-3.25,4.2-4.17,10.2-1.41,15.02,5.75-.42,6.17,3.65,8.45,3.75.47.02.94-.02,1.41,0,5.29-4.22,5.62-1.86,8.45-1.25,1.37.3,1.38-1.83,2.82-.63,3.45,2.9,11.14,26.81-4.93,8.13-19.72,9.32,5.77,15.65,6.34,16.89.49,1.06-9.85.98-2.82,20.65,2.26-.55,2.68,1.01,4.22,1.25q.7,0,1.41,0c7.47-12.54,17.35,10.09-7.04,7.51.06.34.07.92,0,1.25,12.27.44,23.21,2.44,7.04,9.39,7.69,5.95,2.96-3.05,9.86,4.38.63.68,3.16,1.87,2.82,0,.16-1,3.85-11.36,4.22-11.89,9.18-12.93,10.51,14.47,9.86-15.02,15.86-9.82-13.49,1.78,5.63-13.77-9.21-1.5-5.84-13.88,2.11-8.13,3.61,2.61-2.55,13.26,3.52,5.63,1.77-2.23,10.03-26.65,9.86-28.78-.53-6.58-24.97-27.81-30.97-34.41-.2-.06-.94.41-4.22,0-1.02-.13-3.57,3.42-7.04-.63-.74-3.87,2.72-4.14,2.82-4.38,1.12-2.82.74-4.17,4.22-6.26q-.7-1.88-1.41-3.75c-.68-.51-.87-.74-1.41-1.25-.98-.92-.69,3.75-7.04-6.26-.05-.08-.39.45-1.41-1.25-5.77,2.75-9.38-1.51-5.63-6.26-.07-.06.31-1.39-1.41-1.25l-1.41-1.25c-.89,8.44-3.9,5.88-4.22,6.26Z"/>
            <g>
              <path class="cls-59" d="m756.94,623.5c-.33.56.15,13.07-1.41,0-1.54-.24-1.96-1.8-4.22-1.25-11.39,2.77-1.99,5.7-1.41,8.76,24.39,2.59,14.51-20.04,7.04-7.51Z"/>
              <path class="cls-59" d="m741.45,578.45c-.05,5.96,10.13,4.8,8.45-1.25-2.83-.61-3.15-2.97-8.45,1.25Z"/>
              <path class="cls-7" d="m740.04,540.91c-.14.65-1.27,4.78-1.41,5.01,6.69,1.86,11.31-6.69,1.41-5.01Z"/>
              <path class="cls-59" d="m774.54,595.97c-32.67,2.55-5.76,9.48-4.93,10.64.21.29-4.12,5.28.7,6.88,8.77,2.92,2-7.57,2.11-8.13.19-.98,8.27-4.39,2.11-9.39Z"/>
              <path class="cls-59" d="m761.87,542.16c-6.09-1.69-10.52,4.49-7.04,8.76,4.75,5.84,16.45-6.15,7.04-8.76Z"/>
              <path class="cls-33" d="m787.21,572.2c-7.01-2.96-13.03,6.77-5.63,8.76,6.33,1.71,10.98-6.5,5.63-8.76Z"/>
              <path class="cls-59" d="m775.95,614.74c-11.75-1.08,3.88,10.91,4.22,13.77,6.06-3.09-1.03-13.47-4.22-13.77Z"/>
              <path class="cls-59" d="m759.75,517.13c6.35,10.01,6.06,5.33,7.04,6.26,7.26-4.13.02-11.39-7.04-6.26Z"/>
              <path class="cls-17" d="m775.95,580.96c-3.95-1.49-9.39,5.47-4.22,7.51,5.91,2.33,8.95-5.72,4.22-7.51Z"/>
              <path class="cls-59" d="m773.13,624.76c-6.3-2.23-8.06,8.75-2.82,8.76,1.11,0,8.42-6.78,2.82-8.76Z"/>
              <path class="cls-59" d="m763.27,608.49c-7.21-2.86-7.79,6.96-2.82,7.51,3.53.39,7.38-5.7,2.82-7.51Z"/>
              <path class="cls-36" d="m752.71,509.63c-3.75,4.75-.13,9.01,5.63,6.26-.97-1.63,1.82-2.82,1.41-4.38-1.2-1.79-6.76-1.66-7.04-1.88Z"/>
              <path class="cls-29" d="m757.64,555.93c-5.66-2.08-6.88,7.53-1.41,7.51,4.62-.02,4.69-6.31,1.41-7.51Z"/>
              <path class="cls-59" d="m765.39,534.65c-.09.24-3.55.51-2.82,4.38,3.47,4.04,6.02.5,7.04.63.5-2.78-.48-5.28-4.22-5.01Z"/>
              <path class="cls-40" d="m767.5,560.93c-5.36-1.57-7.7,5.84-2.82,6.26,3.31.29,7.06-5.01,2.82-6.26Z"/>
              <path class="cls-39" d="m788.62,559.68c-3.32-.49-4.17,3.35-1.41,3.75,3.32.49,4.17-3.35,1.41-3.75Z"/>
              <path class="cls-13" d="m784.39,589.72c-4.18-2.53-2.98,3.58-1.41,3.75,2.9.31,2.79-2.92,1.41-3.75Z"/>
              <path class="cls-20" d="m756.94,623.5q-.7,0-1.41,0c1.56,13.07,1.08.56,1.41,0Z"/>
              <path class="cls-59" d="m798.47,580.96c-.5,0-3.1,1.8-.7,3.13,2.68,1.49,3.13-3.13.7-3.13Z"/>
              <path class="cls-59" d="m769.61,528.4c2.27-2.85.69-2.19-1.41-3.75q.7,1.88,1.41,3.75Z"/>
              <path class="cls-59" d="m749.9,507.12l1.41,1.25q.7-.94,1.41-1.88l-2.82.63Z"/>
            </g>
          </g>
          <g>
            <path class="cls-27" d="m617.55,484.6c.38.97,18.15,12.81,18.3,7.51-8.9-15.14,8.93-17.29,4.22,0,2.3.36-8.65,4.76,16.9,1.25q2.82-1.88,5.63-3.75c-.1-.81.15-1.71,0-2.5-.29-1.54-4.09-2.56-2.82-8.13,2.74-11.97,18.53-4.44,19.71-4.38,4.48.21,4.21,1.62,8.45,0-1.55-2.47-9.6-14.14-10.56-15.02-3.17-2.9-10.05.9-13.38-2.5l-5.63,2.5c.24.63-.25,1.9,0,2.5.19.45,8.85,5.26,2.11,7.51-5.85,1.95-4.63-5.74-4.93-6.26-.11-.18-2.17.53-2.82-.63-.31-.55.52-7.54-2.82-9.39-2.35,1.99-.99,3.58-2.11,3.75-27.59-16.03-26.92,26.19-34.49,8.13-.84-1.99-.97-12.46-2.82-16.27-7.42-15.28,4.14,22.1-4.93,3.13,1.7,5.95,4.37,23.23,4.93,24.4.97,2.04,7.94,2.98,9.86,6.26.36.61-3.4.4-2.82,1.88Z"/>
            <g>
              <path class="cls-28" d="m635.86,492.11c1.37.12,2.88-.21,4.22,0,4.7-17.29-13.13-15.14-4.22,0Z"/>
              <path class="cls-54" d="m656.97,493.36c.77-.11,2.27,1.96,6.34,1.25,2.38-4.56-.67-4.76-.7-5.01q-2.82,1.88-5.63,3.75Z"/>
              <path class="cls-59" d="m630.93,462.07c-4.08,0-7.75,3.97-7.74,4.38.1,3.57,7.51-.63,8.45,1.25.32.65-11.45,12.62.7,9.39,1.65-.44,14.77-15.05-1.41-15.02Z"/>
              <path class="cls-59" d="m643.6,457.07c-2-.47-14.35-.77-13.38,1.88,17.86,11.8,22.67.31,13.38-1.88Z"/>
              <path class="cls-45" d="m645.01,469.58c-4.91-1.79-7.04,6.08-2.82,7.51,6.55,2.21,6.28-6.25,2.82-7.51Z"/>
              <path class="cls-59" d="m655.57,463.32c.3.51-.92,8.21,4.93,6.26,6.74-2.25-1.92-7.06-2.11-7.51q-1.41.63-2.82,1.25Z"/>
            </g>
          </g>
          <g>
            <g>
              <path class="cls-59" d="m735.82,278.11c-1.77.09-12.54,3.7-14.08,5.01-10.34,8.81-8.91,44.15,14.08,40.05-1.25-1.63-15.22-8.7-7.04-20.65,5.72-8.35,25.46-10.41,30.97-.63.52-14.5-6.19-24.63-23.94-23.78Z"/>
              <path class="cls-1" d="m735.82,323.16c.22.29,2.23-.13,5.63,5.01,3.82-2.83,7.57.81,7.04,5.01,5.35-2.89-1.59-6.7-1.41-8.13.22-1.78,12.01-4.89,12.67-23.15-5.52-9.78-25.26-7.73-30.97.63-8.18,11.95,5.79,19.01,7.04,20.65Z"/>
            </g>
            <g>
              <path class="cls-27" d="m723.15,254.33q-.7,0-1.41,0c5.45,7.49,10.85,15.25,14.08,23.78,17.75-.86,24.46,9.27,23.94,23.78-.66,18.26-12.45,21.38-12.67,23.15-.18,1.43,6.76,5.24,1.41,8.13-9.44,5.1-6.69-4.47-7.04-5.01-3.41-5.14-5.41-4.71-5.63-5.01-22.99,4.11-24.42-31.23-14.08-40.05-6.76-3.67-10.41-15.5-16.9-15.02-4.94-.62-4,1.29-4.22,1.25-.66,29.98,13.58,27.96,0,30.03,1.84,12.86-18.22,68.17-19.71,87.6,6.9,2.04,8.86,4.68,16.9,6.26,2.23.44,5.34,1.23,5.63,1.25,1.3.11,1.54-1.39,2.82-1.25-1.42-12-1.86-24.28-3.52-36.29,27.26,21.08,62.01,37.25,97.85,42.55-6.93-56.03,47.84-42.4,50.69-45.68-6.24-12.45-10.94-25.17-15.49-38.17-1.56-4.47-2.54-9.27-4.22-13.77-3.2-8.53-8.03-16.86-7.04-26.28-3.02-1.81-9.28-9.58-9.86-10.01-4.16-3.12-12.67-5.33-16.9-8.76-5.56.41-15.04,1.08-18.3-2.5-20.34.8-37.55-1.89-56.32,0Z"/>
              <g>
                <path class="cls-59" d="m811.14,308.15c-16.09-5.45-15.71,18.31-1.41,15.02,5.86-1.35,7.78-12.86,1.41-15.02Z"/>
                <path class="cls-59" d="m735.12,349.44c-8.64-2.21-7.28,7.53-1.41,7.51,4.41-.02,6.72-6.15,1.41-7.51Z"/>
                <path class="cls-45" d="m790.02,346.94c-7.54-3.15-7.93,7.9-1.41,7.51,4.69-.28,4.7-6.13,1.41-7.51Z"/>
                <path class="cls-45" d="m794.25,259.34c-4.87-1.76-7.08,5.97-2.82,7.51,4.87,1.76,7.08-5.97,2.82-7.51Z"/>
                <path class="cls-59" d="m741.45,328.17c.35.53-2.4,10.11,7.04,5.01.53-4.2-3.22-7.83-7.04-5.01Z"/>
                <path class="cls-59" d="m764.68,346.94c-4.62.02-4.69,6.31-1.41,7.51,5.66,2.08,6.88-7.53,1.41-7.51Z"/>
                <path class="cls-45" d="m749.19,365.71c-6.71-2.6-7.69,5.62-2.82,6.26,3.75.49,5.84-5.08,2.82-6.26Z"/>
                <path class="cls-17" d="m822.41,303.14c-6.05-2.09-5.22,6.13-1.41,6.26,4.13.14,4.81-5.08,1.41-6.26Z"/>
                <path class="cls-11" d="m768.91,379.48c-4.31-.13-4.63,5.31-1.41,6.26,5.56,1.64,4.95-6.15,1.41-6.26Z"/>
              </g>
            </g>
          </g>
          <g>
            <path class="cls-1" d="m706.25,393.24c.1.82,8.38,5.52-3.52,11.26-3.8-2.91-.41-.88.7-5.01-5.17,2.65-11.56-1.84-5.63-6.26-8.03-1.58-9.99-4.22-16.9-6.26-.19,2.42,1.12,2.91,2.82,4.38-6.63,1.44-8.95,2.99-11.26,8.76h8.45c-13.6,8.03,1.23,4.24-5.63,10.01,5.6-.22,13.93-9.67,14.08.63,5.22-2.34,4.01-4.72,4.93-5.01,8.3-2.58-2.17,3.57-.7,10.01,7.09-1.62,9.09,2.7,7.04,7.51-3.46,8.12-9.86-2.21-8.45,6.26,3.14-5.43,3.89.24,5.63,2.5,7.05-2.73,2.19-4.9,9.86-3.75,1.3.19,2.96-.29,3.52,0,1.54.8-.47.96-.7,2.5-.14.95.34,1.38,1.41,1.25.91-1.22,1.31-2.95,2.11-3.75,1.85-1.85,3.35.05,3.52,0,16.64-5.07,5.76,2.99,5.63,3.75-.14.8.07,1.68,0,2.5,6.99-.31,7.33,3.63,1.41,6.26-.11,3.97-.08,7.28,0,11.26,8.79-4.67,12.81,8.64,2.82,10.01-2.96.71,0,1.19,0,1.25,3.12,1.16,4.76,2.92,7.04,5.01,2.76,2.52,8.23,4.32,5.63,10.01,2.54-.33,4.38-1.67,7.04-1.25,7.99,1.27,6.97,6.64-1.41,7.51.89,3.08,3.38,4.77,4.22,7.51.07.22,2.64.16,1.41,4.38-.32,1.11-3.88,2.79-4.22,3.13-6.07,5.87-8.47-1.59-9.86,5.01,4.11-3.44,11.8,4.57,8.45,8.76.32-.38,3.34,2.18,4.22-6.26l2.82-.63q-.7.94-1.41,1.88c1.71-.14,1.33,1.19,1.41,1.25.28.22,5.83.09,7.04,1.88.41,1.56-2.38,2.75-1.41,4.38,1.01,1.7,1.36,1.17,1.41,1.25,7.06-5.13,14.3,2.12,7.04,6.26.54.51.73.74,1.41,1.25,2.1,1.56,3.67.9,1.41,3.75-3.49,2.09-3.1,3.44-4.22,6.26,3.75-.27,4.72,2.22,4.22,5.01,3.28.41,4.02-.06,4.22,0,10.29,2.92,24.26,19.84,33.09,26.28,4.41-8.07.97-19.05,9.15-23.15-10.39-26.38,2.15-18.12,2.82-21.27,2.13-10.13-8.55-78.07-4.22-96.36-7.4-10.47-12.55-13.33-14.08-25.65-35.84-5.3-70.59-21.47-97.85-42.55,1.66,12.01,2.1,24.29,3.52,36.29Z"/>
            <g>
              <path class="cls-59" d="m724.56,452.06c.02.94-4.69,4.7,2.82,10.01,9.99-1.37,5.98-14.68-2.82-10.01Z"/>
              <path class="cls-37" d="m697.8,432.04c1.08,1.4,3.21,1.78,4.22,5.01.46-.01,1.16-.1,1.41,0,.28-3.69,3.71-6.34,7.04-3.75h1.41c.21-.29-.22-.96,0-1.25-1.07.13-1.55-.3-1.41-1.25q-1.41-1.25-2.82-2.5c-7.67-1.15-2.8,1.03-9.86,3.75Z"/>
              <path class="cls-17" d="m717.52,428.28c-.31,3.33,2.5,4.2,5.63,3.75.13-.76,11.01-8.83-5.63-3.75Z"/>
              <path class="cls-59" d="m747.08,477.09c-4.7,4.69-2.15,4.92-1.41,7.51,8.37-.87,9.4-6.24,1.41-7.51Z"/>
              <path class="cls-17" d="m723.15,434.54c-.74,8.57,1.42,5.87,1.41,6.26,5.92-2.62,5.58-6.57-1.41-6.26Z"/>
              <path class="cls-18" d="m706.25,393.24c-1.27-.14-1.52,1.36-2.82,1.25-.25,1.57.39,3.57,0,5.01-1.11,4.12-4.51,2.09-.7,5.01,11.9-5.74,3.62-10.44,3.52-11.26Z"/>
              <path class="cls-59" d="m697.8,393.24c-5.92,4.42.47,8.91,5.63,6.26.39-1.44-.25-3.44,0-5.01-.29-.02-3.4-.81-5.63-1.25Z"/>
              <path class="cls-59" d="m802.7,472.08c-11.21,7.49-6.78,12.19-7.74,14.39-.43.99-17.71,8.33,8.45,5.01-12.78-7.84-3.09-12.72,2.11-10.64.91.36,13.06,20.63,7.74,5.63-.29-.82-9.4-8.67-10.56-14.39Z"/>
              <path class="cls-59" d="m794.25,457.07c-7.75,5.58-2.42,12.38-7.74,18.15-14.86-6.04.79,2.47,2.11,8.13,3.41-8.49,8.57-17,5.63-26.28Z"/>
              <path class="cls-17" d="m742.15,414.52c-1.45,3.09-2.36,5.97-2.11,9.39.8,11.21,12.4,16.07,2.11-9.39Z"/>
              <path class="cls-59" d="m768.91,462.07c-8.46-.16-1.55,13.39,4.22,10.01,2.25-1.32-2.24-9.97-4.22-10.01Z"/>
              <path class="cls-59" d="m787.21,524.64c-7.76-3.29-9.52,5.95-4.22,7.51,6.5,1.91,8.67-5.63,4.22-7.51Z"/>
              <path class="cls-59" d="m805.51,495.86c-10.38-.61-6.57,11.16,7.74,4.38-.66-5.08-3.9-.96-7.74-1.88-1.66-.4,1.82-2.4,0-2.5Z"/>
              <path class="cls-17" d="m740.75,437.04c-8.39-1.85-7.74,6.93-1.41,7.51,6.77.62,6.89-6.3,1.41-7.51Z"/>
              <path class="cls-59" d="m757.64,433.29c-3.55-1.94-10.02,7.2-7.04,8.76,6.55,3.44,8.78-7.81,7.04-8.76Z"/>
              <path class="cls-14" d="m761.87,473.33c-.94-.3-12.91,2.25,2.82,11.26-.7-2.03-1.14-10.73-2.82-11.26Z"/>
              <path class="cls-17" d="m759.05,448.31c-1.28-.28-3.14,1.02-3.52,1.88-8.54,19.17,14.77.57,3.52-1.88Z"/>
              <path class="cls-59" d="m732.3,419.52c-3.7-1.21-8.46,2.57-7.74,4.38,2.31,5.83,14.75-2.09,7.74-4.38Z"/>
              <path class="cls-59" d="m725.26,407.01c-.3,0-4.72,2.51-4.93,3.13-3.45,10.33,18.79-3.26,4.93-3.13Z"/>
              <path class="cls-59" d="m780.17,457.07c-4.65.58-.62,11.8,1.41,11.26,2.23-.59,2.77-11.78-1.41-11.26Z"/>
              <path class="cls-59" d="m756.23,467.08c-8.94-1.95-2.67,9.47,2.82,6.26,2.49-1.46-1.34-5.94-2.82-6.26Z"/>
              <path class="cls-59" d="m778.76,447.05c-4.84,1.98,7.82,13.52,7.74,5.63,0-.44-7.29-5.82-7.74-5.63Z"/>
              <path class="cls-45" d="m691.47,397c-6.77-1.8-5.99,5.26-2.82,6.26,2.53.79,7.4-5.04,2.82-6.26Z"/>
              <path class="cls-59" d="m712.59,394.49c-1.62.63.04,4.9.7,5.63,11.09,12.2,3.31-7.2-.7-5.63Z"/>
              <path class="cls-49" d="m714,402c-4.99,2.13,7.73,20.75,3.52,4.38-.07-.26-3.25-4.5-3.52-4.38Z"/>
              <path class="cls-59" d="m759.05,502.12c-2.1-1-5.9,1.68-4.93,3.13,1.75,2.61,7.99-1.68,4.93-3.13Z"/>
              <path class="cls-59" d="m792.84,449.56c-4.38-1-6.51,3.95-4.22,5.01.31.14,5.42-4.25,4.22-5.01Z"/>
              <path class="cls-59" d="m753.42,422.03c-3.48-.45-4.03,3.46-1.41,3.75,1.06.12,5.51-3.22,1.41-3.75Z"/>
              <path class="cls-59" d="m780.17,477.09c-1.03-.67-4.54.1-3.52,1.88,1.11,1.94,6.54.08,3.52-1.88Z"/>
              <path class="cls-39" d="m785.8,537.16c-1.56.81-1.17,7.1,1.41,3.75,1.6-2.08-1.17-3.87-1.41-3.75Z"/>
              <path class="cls-59" d="m747.79,454.56c-.5,0-3.1,1.8-.7,3.13,2.68,1.49,3.13-3.13.7-3.13Z"/>
              <path class="cls-9" d="m707.66,428.28q1.41,1.25,2.82,2.5c.23-1.54,2.25-1.71.7-2.5-.56-.29-2.22.19-3.52,0Z"/>
              <path class="cls-59" d="m773.13,474.59c-.5,0-3.1,1.8-.7,3.13,2.68,1.49,3.13-3.13.7-3.13Z"/>
              <path class="cls-49" d="m795.66,520.89c-2.1-.75-3.09,1.9-1.41,2.5,2.1.75,3.09-1.9,1.41-2.5Z"/>
            </g>
          </g>
          <g>
            <path class="cls-27" d="m599.25,271.85q-7.04-26.28-14.08-52.56c-3.99-.08-7.98.05-11.97,0,.77,19.68,10.54,38.26,26.05,52.56Z"/>
            <path class="cls-55" d="m687.95,268.1c-5.58,1.3-15.99,18.68-16.9,22.53,10.71-1.42,27.74-4.01,29.57,8.76,13.58-2.07-.66-.05,0-30.03-3.23-.51-11.59-.73-12.67-1.25Z"/>
            <path class="cls-27" d="m617.55,279.36c2.67-6.42-6.82-17.18-7.04-18.15-.75-3.37,2.77-5.33,2.82-5.63.15-1.1-3.23-2.42,0-6.26,4.4-5.22,12.16-1.38,12.67-6.26-4.28,2.75-9,.65-5.63-3.75-7.25-.6-14.18-.73-21.12,3.13,7.08,11.81,11.35,25.1,18.3,36.92Z"/>
            <path class="cls-59" d="m633.04,244.32c-7.29,11.87,11.59,9.67,12.67,10.01,9.95-12.92-7.43-18.54-12.67-10.01Z"/>
            <g>
              <path class="cls-38" d="m599.25,271.85c10.18,9.39,10.67,9.47,23.94,15.02-1.83-3.23-3.59-4.04-5.63-7.51-6.95-11.81-11.22-25.1-18.3-36.92,6.94-3.86,13.87-3.72,21.12-3.13,2.96.24,3.04.38,5.63,1.25,3.47,1.16,2.85-.11,7.04,3.75,5.24-8.53,22.62-2.91,12.67,10.01.33.1,4.51,3,5.63,3.75,5.68-4.92,10.54-1.74,9.86,5.01,9.96,2.86,6.64,3.69,7.04,3.75,2.73.47,3.28,1.07,4.22,1.25,3.2.63,10.18-.15,12.67-2.5-3.43-10.19-11.16-18.44-19.01-26.28-28.26-10.8-48.49-19.4-80.96-20.02q7.04,26.28,14.08,52.56Z"/>
              <path class="cls-59" d="m651.34,258.09c.31.21-.66,4.77,3.52,6.26,2.96,1.05,5.83-1.4,6.34-1.25.69-6.75-4.18-9.93-9.86-5.01Z"/>
              <path class="cls-45" d="m620.37,239.32c-3.37,4.41,1.35,6.5,5.63,3.75.09-.82-.04-1.67,0-2.5-2.6-.87-2.67-1.01-5.63-1.25Z"/>
              <path class="cls-17" d="m659.09,239.32c-6.2-1.63-6.26,3.86-2.82,5.01,4.17,1.39,6.82-3.95,2.82-5.01Z"/>
            </g>
            <g>
              <path class="cls-27" d="m626,240.57c-.04.83.09,1.68,0,2.5-.51,4.87-8.27,1.04-12.67,6.26,11.71-1.41,10.66,6.56,0,6.26-.04.31-3.56,2.26-2.82,5.63.22.97,9.71,11.73,7.04,18.15,2.04,3.47,3.8,4.28,5.63,7.51,36.09,15.09,36.79,5.22,47.87,3.75.9-3.85,11.31-21.22,16.9-22.53-.18-.08-.57-2.26-2.82-2.5-2.49,2.35-9.48,3.13-12.67,2.5-.99,14.01-18.8,1.81-4.22-1.25-.4-.07,2.92-.89-7.04-3.75-.51-.15-3.38,2.31-6.34,1.25-4.18-1.49-3.21-6.05-3.52-6.26-1.12-.75-5.3-3.65-5.63-3.75-1.09-.34-19.97,1.86-12.67-10.01-4.19-3.87-3.57-2.6-7.04-3.75Z"/>
              <g>
                <path class="cls-20" d="m668.24,266.85c-14.57,3.06,3.24,15.26,4.22,1.25-.94-.18-1.49-.78-4.22-1.25Z"/>
                <path class="cls-59" d="m650.64,269.35c-13.59-3.1-12.84,15.58,0,12.51,6.13-1.47,6.05-11.13,0-12.51Z"/>
                <path class="cls-59" d="m624.59,265.6q2.11,1.88,4.22,3.75c10.84-5.85,1.94-13.33-4.22-3.75Z"/>
                <path class="cls-59" d="m613.33,249.33c-3.23,3.83.15,5.16,0,6.26,10.66.3,11.71-7.67,0-6.26Z"/>
                <path class="cls-8" d="m628.82,269.35q-2.11-1.88-4.22-3.75c-4.22,6.56-3.34,7.83,4.22,3.75Z"/>
                <path class="cls-59" d="m663.31,285.62c-2.46-1.72-6.58,2.26-6.34,3.13,1.32,4.74,11.47.46,6.34-3.13Z"/>
                <path class="cls-59" d="m652.05,288.12c-4.46-1.23-6.68,3.94-2.82,5.01,4.46,1.23,6.68-3.94,2.82-5.01Z"/>
              </g>
            </g>
          </g>
          <g>
            <path class="cls-24" d="m649.93,453.31c3.34,1.84,2.51,8.84,2.82,9.39.64,1.16,2.71.44,2.82.63q1.41-.63,2.82-1.25c-.25-.6.24-1.87,0-2.5-5.86-15.17,9.87-10.21,5.63-2.5,3.32,3.41,10.21-.39,13.38,2.5.96.88,9.01,12.55,10.56,15.02,1.28-.49,4.04-1.27,4.22-2.5-2.18-12.98,1.47-19.56,1.41-20.65-.03-.53-2.67-1.57-2.82-3.13-7.6.7-7.87-6.76-1.41-10.01-.36-.69-1-2.03-1.41-2.5-3.39,2.08-2.17.62-4.22-2.5-.22-.34.64-1.93-4.22-6.26-11.69-10.41-7.29.26-10.56,0-.71-.06-4.14-11.49-9.15-5.63,7.95,6.7-1.62,9.58-1.41,11.26.24,1.91,3.65-1.91,5.63,1.25,4.18,6.68-3.7,10.62-14.08,19.4Z"/>
            <path class="cls-43" d="m690.76,448.31c-.05-.52,2.4-4.57,2.82-6.88-.32-1.17-4.11-2.91-4.22-3.13-6.47,3.25-6.19,10.71,1.41,10.01Z"/>
            <path class="cls-30" d="m683.73,433.29c2.06,3.12.83,4.58,4.22,2.5-.33-.39.29-5.21-4.22-2.5Z"/>
            <path class="cls-59" d="m658.38,459.57l5.63-2.5c4.24-7.71-11.49-12.67-5.63,2.5Z"/>
            <path class="cls-13" d="m675.98,428.28c-8.03-1.75-2.29,7.52,0,7.51,2.95-.01,4.84-6.45,0-7.51Z"/>
          </g>
        </g>
        <g>
          <path class="cls-24" d="m814.66,265.6c.57.43,6.84,8.2,9.86,10.01q12.32,0,24.64,0c-27.13-8.92,2.82-1.84,11.26-6.26-9.89,12.72,29.76,1.52,37.31-1.25-1.52-1.65-7.25-1.36-12.67-2.5-5.95-1.25-9.2-2.07-15.49-2.5-9.69-.66-6.61-1.24-7.04-1.25-6.99-.2-29.59,5.95-32.38-.63-.73-1.71,13.91-33.48,22.53-15.64q.7,0,1.41,0c.67-7,7.59,4.64,11.26-.63,2.65-3.8,1.7-7.73-2.82-9.39-.77-.28-10.72,6.15-4.22-8.76-1.07-.07-1.55-.19-1.41-1.25-22.47,8.94-26.8,25.02-42.24,40.05Z"/>
          <path class="cls-27" d="m921.67,214.29c-1.68,11.51-24.05,14.18-25.34,15.02-.41.26-.22,5.33-5.63,7.51,14.71,6.2,3.54,7.11,7.04,12.51,7.14-10.61,5.34-1.19,5.63,2.5.13,1.59-.42,1.73,0,3.75,9.34.29,4.33,4.58,4.22,5.01-.22.87.4,1.4,1.41,1.25,12.01-7.35,31.49-24.1,19.71-35.67,7.42,12.96,15.82-9.96,15.49-11.26-.44-3.05-15.96-1.05-22.53-.63Z"/>
          <path class="cls-24" d="m856.9,225.55c-.15,1.06.33,1.18,1.41,1.25,7.54.52,9.91-1.21,4.22,8.76,4.52,1.65,5.47,5.58,2.82,9.39-3.67,5.27-10.6-6.37-11.26.63,5.48-.45,9.05,3.56,5.63,7.51,7.67,3.55,13.97,4.8,22.53,6.26-.11-1.48,2.34-4.74,1.41-10.64-.12-.77-5.81-6.79-4.22-15.02.2-1.05,2.77-.5,2.82-.63,2.95-7.54,3.75-13.87,14.08-3.75,1.29-.83,23.66-3.5,25.34-15.02-16.62,1.07-49.98,5.38-64.77,11.26Z"/>
          <path class="cls-6" d="m882.25,259.34c.03.34,3.49,4.6,2.82,6.26,5.42,1.14,11.15.86,12.67,2.5,9.08-3.34,10.72-5.92,11.26-6.26-1.01.15-1.63-.38-1.41-1.25-5.04.08-3.75-2.75-4.22-5.01-.42-2.02.13-2.16,0-3.75-3.26.41-4.01,0-5.63-2.5-3.5-5.4,7.67-6.31-7.04-12.51-.43-.18-2.91,1.06-8.45-3.75-.05.12-2.61-.43-2.82.63-1.59,8.23,4.1,14.25,4.22,15.02.94,5.9-1.52,9.15-1.41,10.64Z"/>
          <path class="cls-27" d="m862.53,261.84c.66-6.3,8.23-4.35,7.04,1.25,6.29.43,9.53,1.25,15.49,2.5.68-1.66-2.79-5.92-2.82-6.26-8.55-1.46-14.86-2.71-22.53-6.26-.79-.36-5.81,1.22-8.45-3.13-1.11-1.83,1.69-3.79,1.41-4.38-8.61-17.84-23.25,13.93-22.53,15.64,2.79,6.58,25.4.42,32.38.63Z"/>
          <path class="cls-21" d="m858.31,226.8c-6.49,14.91,3.45,8.48,4.22,8.76,5.69-9.97,3.31-8.24-4.22-8.76Z"/>
          <path class="cls-45" d="m854.09,245.57q-.7,0-1.41,0c.28.59-2.51,2.55-1.41,4.38,2.63,4.35,7.66,2.76,8.45,3.13,3.41-3.95-.16-7.96-5.63-7.51Z"/>
          <path class="cls-59" d="m862.53,261.84c.43.01-2.65.59,7.04,1.25,1.19-5.61-6.38-7.55-7.04-1.25Z"/>
          <path class="cls-59" d="m882.25,233.06c5.54,4.81,8.02,3.57,8.45,3.75,5.41-2.18,5.22-7.24,5.63-7.51-10.33-10.11-11.13-3.79-14.08,3.75Z"/>
          <path class="cls-45" d="m897.73,249.33c1.62,2.5,2.37,2.92,5.63,2.5-.29-3.69,1.51-13.12-5.63-2.5Z"/>
          <path class="cls-54" d="m903.36,255.59c.47,2.25-.81,5.09,4.22,5.01.11-.42,5.12-4.71-4.22-5.01Z"/>
        </g>
      </g>
    </g>
  </g>
</svg>